<svg width="34" height="34" viewBox="0 0 34 34" fill="none" xmlns="http://www.w3.org/2000/svg">
<path d="M1.49451 1.99267H32.5055V32.1319H1.49451V1.99267Z" fill="#070707"/>
<path d="M29.3261 0H4.67389C2.09211 0 0 2.09211 0 4.67389V29.3261C0 31.9079 2.09211 34 4.67389 34H29.3261C31.9079 34 34 31.9079 34 29.3261V4.67389C34 2.09211 31.9075 0 29.3261 0ZM31.0215 27.8652C31.0215 29.6081 29.6084 31.0215 27.8652 31.0215H6.31786C4.57461 31.0215 3.16157 29.6084 3.16157 27.8652V6.31786C3.16157 4.57461 4.57461 3.16157 6.31786 3.16157H27.8652C29.6084 3.16157 31.0215 4.57461 31.0215 6.31786V27.8652Z" fill="white"/>
<path d="M14.6254 5.7261H7.61826C6.672 5.7261 5.90423 6.49388 5.90423 7.44083V14.0984C5.90423 15.0454 6.672 15.8131 7.61826 15.8131H14.625C15.5713 15.8131 16.3391 15.0454 16.3391 14.0984V7.44118C16.3391 6.49388 15.5713 5.7261 14.6254 5.7261ZM13.9238 13.4785H8.31985V8.06111H13.9238V13.4785Z" fill="#C9EE25"/>
<path d="M24.2284 5.72927C21.4449 5.72927 19.188 7.98648 19.188 10.7696C19.188 13.5531 21.4452 15.81 24.2284 15.81C27.0115 15.81 29.2687 13.5528 29.2687 10.7696C29.2687 7.98648 27.0115 5.72927 24.2284 5.72927ZM24.2284 13.3327C22.8129 13.3327 21.6656 12.1855 21.6656 10.77C21.6656 9.35446 22.8129 8.2072 24.2284 8.2072C25.6439 8.2072 26.7912 9.35446 26.7912 10.77C26.7912 12.1855 25.6439 13.3327 24.2284 13.3327Z" fill="#C9EE25"/>
<path d="M16.7333 25.4672L12.2995 17.7891C11.8387 16.99 10.6865 16.99 10.2257 17.7891L5.79193 25.4672C5.33112 26.2663 5.9074 27.2643 6.82936 27.2643H15.6959C16.6179 27.2643 17.1941 26.2663 16.7333 25.4672ZM9.01863 24.7899L11.3181 20.8081L13.6175 24.7899H9.01863Z" fill="#C9EE25"/>
<path d="M28.8635 18.0939C28.3844 17.6148 27.6072 17.6148 27.128 18.0939L19.5475 25.6742C19.0683 26.1533 19.0683 26.9306 19.5475 27.4097C20.0266 27.8888 20.8038 27.8888 21.283 27.4097L28.8635 19.8291C29.3427 19.3503 29.3427 18.573 28.8635 18.0939Z" fill="#F0CF66"/>
<path d="M19.7182 17.9228L19.3764 18.2647C18.9916 18.6494 18.9916 19.2736 19.3764 19.6583L27.2988 27.5808C27.6835 27.9655 28.3077 27.9655 28.6925 27.5808L29.0343 27.2389C29.4191 26.8542 29.4191 26.23 29.0343 25.8453L21.1122 17.9228C20.7271 17.5381 20.1033 17.5381 19.7182 17.9228Z" fill="white"/>
</svg>
