<svg width="104" height="53" viewBox="0 0 104 53" fill="none" xmlns="http://www.w3.org/2000/svg">
<mask id="mask0_173_2617" style="mask-type:luminance" maskUnits="userSpaceOnUse" x="21" y="0" width="83" height="70">
<path d="M21.981 69.7822L103.574 69.7822L103.574 -6.86646e-05L21.981 -6.86646e-05L21.981 69.7822Z" fill="white"/>
</mask>
<g mask="url(#mask0_173_2617)">
<path d="M70.6049 15.9419C70.1022 17.018 69.7575 18.2812 70.0072 19.4757C70.199 20.3941 70.7313 21.2294 70.6891 22.174C70.6417 23.2331 69.8858 24.049 69.1148 24.5854C68.3438 25.1216 67.4753 25.5315 66.8974 26.34C66.3195 27.1488 66.1939 28.5551 66.9254 29.1643C66.7259 28.7306 66.7433 28.1682 66.9686 27.7527C67.1939 27.3373 67.6183 27.0858 68.0337 27.1214C67.5542 27.4115 67.3796 28.1414 67.4356 28.7765C67.4917 29.4116 67.7227 30.0049 67.8443 30.627C67.9659 31.2492 67.957 31.9694 67.5984 32.4458C67.1557 33.0341 66.3676 33.0273 65.8309 33.4922C65.0822 34.1406 65.1547 35.7217 65.9582 36.27C65.6887 35.9829 65.8544 35.3808 66.1956 35.2362C66.5368 35.0916 66.9279 35.3175 67.1448 35.6617C67.3617 36.0059 67.4411 36.4425 67.5009 36.8665C67.5607 37.2905 67.6091 37.7269 67.7778 38.1073C68.1647 38.9785 69.0652 39.3204 69.8885 39.4432C72.8479 39.8851 75.9604 38.4315 77.8716 35.7144C79.7831 32.9976 80.4325 29.1039 79.5372 25.7282C79.0799 24.0033 78.2411 22.3436 78.3315 20.5386C78.3865 19.4404 78.7853 18.4122 79.195 17.4252C79.8861 15.7605 81.1831 11.933 79.0799 10.7992C77.3165 9.84841 74.5512 11.4148 73.134 12.6159C72.1015 13.4909 71.2211 14.6231 70.6049 15.9419Z" fill="#363040"/>
<path d="M74.1073 33.6211C73.1472 33.8643 71.572 33.882 70.699 34.419L70.697 34.4049C69.6732 34.8998 67.9158 38.6386 66.3736 42.3666C64.8656 46.0759 63.3284 50.3076 63.3284 50.3076L61.8318 52.3133L60.8072 53.499L52.6187 60.5709L54.1832 64.5102L62.8857 56.9561L64.117 55.9482C64.117 55.9482 65.9086 54.4677 67.1513 52.7411L70.2268 47.483C70.2089 47.4527 70.1888 47.4244 70.1705 47.3944L72.0502 44.0658L71.8502 42.6395C73.1457 40.5702 74.5088 38.2782 74.8011 36.1C74.9165 35.2443 74.2783 34.4847 74.1073 33.6211Z" fill="#EBBEA3"/>
<path d="M60.822 36.5161C63.8739 41.3526 69.0227 59.9621 69.1351 60.3669C69.2478 60.7718 69.1351 67.023 69.1351 67.023C69.1351 67.023 66.8296 66.8458 65.9668 65.88C65.1037 64.9143 58.1169 47.87 58.1169 47.87L60.822 36.5161Z" fill="#601D54"/>
<path d="M73.1543 40.4295C73.8037 38.513 74.5694 35.8191 74.1086 33.6211C74.927 33.4233 75.7767 33.2316 76.6447 33.0296C79.4398 32.3795 80.8515 33.5419 80.8515 33.5419C80.8515 33.5419 80.5909 33.3031 85.7844 38.3708C85.7844 38.3708 87.4608 42.3631 84.835 43.9221C84.5985 44.5195 84.1354 45.5221 83.5669 46.7031C81.7458 50.487 77.9149 56.7959 77.9149 56.7959L70.6073 54.2902L70.3884 46.4113C71.5329 44.5723 72.4518 42.5029 73.1543 40.4295Z" fill="#EBBEA3"/>
<path d="M76.9946 57.7836L68.6132 56.2619L68.5048 46.1853C65.4819 42.9147 68.5653 39.1079 68.9242 38.6874C68.9353 38.6747 68.9467 38.6609 68.9579 38.6485C70.2294 37.2293 71.994 33.9752 71.994 33.9752L77.0995 32.9229L78.0594 33.4531L80.5282 33.2373L83.1737 35.8213C81.2488 39.5954 81.5796 45.6138 83.1737 47.4979L78.8428 58.1187L78.8425 58.1193L76.9946 57.7836Z" fill="#EBBEA3"/>
<path d="M76.365 35.8414C77.0615 36.2044 77.598 36.3714 78.3353 36.2966C79.4308 36.1888 80.1135 35.2157 80.1135 35.2157L82.7562 25.0439L76.664 29.3098L76.6791 29.634L76.365 35.8414Z" fill="#EBBEA3"/>
<path d="M76.5505 32.0506L76.6729 29.6333L76.6577 29.3091L80.4293 26.6682L81.8968 26.4766C80.8469 29.3141 78.9791 32.1984 76.5505 32.0506Z" fill="#DF9B7E"/>
<path d="M74.0075 13.9386C73.3678 14.9474 72.8892 17.0941 72.6723 17.8718C72.4924 18.5163 72.703 19.3681 72.8485 19.9964C73.016 20.7202 72.7393 21.3709 72.4668 21.9989C71.6392 23.9051 72.4589 25.9998 72.9447 27.8615C73.1289 28.5667 73.2643 29.4179 73.6323 30.0245C73.976 30.591 74.5703 30.6793 75.1272 30.6584C76.7751 30.5969 79.3588 29.488 80.4819 28.5258C81.2906 27.833 81.7718 26.7568 82.2862 26.0407C82.2862 26.0407 82.8601 26.5577 83.9679 25.173C85.0756 23.7882 85.1103 21.8661 83.412 22.6591C83.412 22.6591 84.9041 21.2301 84.4656 17.1695C84.0274 13.1089 80.7412 11.357 78.2858 11.7633C75.8304 12.1699 74.6894 12.863 74.0075 13.9386Z" fill="#EBBEA3"/>
<path d="M74.1616 26.5529C74.2457 26.6457 74.3864 26.6003 74.4745 26.5129C74.5626 26.4254 74.6249 26.3038 74.7199 26.227C74.8353 26.1339 74.986 26.1198 75.1227 26.1525C75.2594 26.1852 75.3862 26.26 75.511 26.3342C75.5493 26.1581 75.6229 26.0235 75.7604 25.9431C75.8976 25.8628 76.051 25.8307 76.2021 25.7998C76.3453 25.7703 76.4887 25.7409 76.6319 25.7114C76.358 25.987 76.084 26.2626 75.8101 26.5379C76.0135 26.4734 76.1967 26.3224 76.3187 26.1186C76.3138 26.5741 76.0374 27.0073 75.6691 27.1362C75.3009 27.2649 74.8703 27.0791 74.6582 26.6996C74.4788 26.7988 74.2825 26.7387 74.1616 26.5529Z" fill="#E2938C"/>
<path d="M76.0096 19.4449C76.0109 19.3586 76.025 19.275 76.0607 19.1993C76.2198 18.8651 76.5697 18.9814 76.8268 19.032C77.3715 19.1398 78.0735 19.2258 78.5047 19.6769C78.8571 20.0452 79.0343 20.5352 79.1504 21.0531C78.3149 20.1601 77.1682 19.6898 76.0464 19.7799C76.0267 19.671 76.0079 19.5556 76.0096 19.4449Z" fill="#363040"/>
<path d="M84.2196 23.1639C84.529 23.915 83.1367 25.55 82.6866 25.4796C82.2364 25.4093 82.5729 24.8816 82.8032 24.679C83.3151 24.2291 82.7126 24.3602 82.9305 23.8829C83.1486 23.4056 83.9938 22.6156 84.2196 23.1639Z" fill="#DF9B7E"/>
<path d="M74.3485 25.2065C74.3374 25.2327 74.219 25.2547 74.0207 25.1273C73.9719 25.0931 73.9178 25.0425 73.8721 24.9653C73.8247 24.884 73.8014 24.7892 73.7867 24.6988C73.7728 24.6049 73.7659 24.5039 73.7845 24.3829C73.7982 24.2578 73.8977 24.0646 74.056 24.0467C74.1262 24.0205 74.2088 24.0057 74.2649 23.956C74.2962 23.9354 74.3304 23.9198 74.3557 23.8847C74.3823 23.8526 74.4145 23.8299 74.4394 23.792C74.49 23.7178 74.5389 23.6365 74.5781 23.537C74.6183 23.4404 74.6548 23.3332 74.6835 23.2187C74.854 22.5465 74.8793 21.8525 74.9662 21.3676C75.0431 20.8755 75.1312 20.5767 75.1642 20.5846C75.1989 20.5929 75.2017 20.8973 75.2175 21.3914C75.2242 21.6393 75.2238 21.9343 75.2044 22.2662C75.1836 22.5977 75.1513 22.9672 75.052 23.3565C75.0183 23.4899 74.9734 23.6215 74.918 23.746C74.8647 23.8726 74.7927 23.9881 74.7116 24.0935C74.6721 24.1462 74.6193 24.1868 74.5739 24.2313C74.5297 24.2787 74.4744 24.3055 74.4217 24.334C74.3165 24.4035 74.2148 24.4065 74.119 24.4309C74.1036 24.433 74.0947 24.4221 74.0786 24.4709C74.0619 24.526 74.055 24.5987 74.0555 24.6641C74.0557 24.8048 74.0791 24.8667 74.1391 24.9474C74.259 25.0866 74.3649 25.1702 74.3485 25.2065Z" fill="#DD8777"/>
<path d="M76.7216 25.516C76.742 25.5283 76.6799 25.7494 76.4764 26.0312C76.2779 26.3118 75.9193 26.6416 75.4496 26.7835C74.9794 26.9216 74.5354 26.8383 74.2478 26.7123C73.956 26.5865 73.8074 26.4393 73.8166 26.4231C73.828 26.3981 73.994 26.5023 74.2803 26.5812C74.564 26.6619 74.9766 26.6984 75.3997 26.5583C75.8231 26.4208 76.1605 26.1458 76.3735 25.9126C76.5878 25.6788 76.6958 25.4974 76.7216 25.516Z" fill="#D17E7C"/>
<path d="M73.1305 21.3615C73.0943 21.595 73.0757 21.8409 73.1397 22.0655C73.2037 22.2905 73.3685 22.4889 73.568 22.5036C73.762 22.5181 73.9414 22.3573 74.0382 22.1574C74.135 21.9572 74.1648 21.7228 74.1908 21.494C74.2347 21.1086 74.1983 20.3374 73.7119 20.4219C73.6005 20.4414 73.499 20.5132 73.4191 20.6072C73.2464 20.8109 73.1737 21.0841 73.1305 21.3615Z" fill="#363040"/>
<path d="M76.3688 21.6491C76.3326 21.8826 76.3139 22.1284 76.378 22.3531C76.442 22.5781 76.6068 22.7765 76.8063 22.7912C77.0003 22.8057 77.1797 22.6452 77.2765 22.445C77.3733 22.2448 77.403 22.0104 77.4291 21.7816C77.473 21.3962 77.4365 20.625 76.9502 20.7095C76.8388 20.729 76.7373 20.8008 76.6574 20.8947C76.4844 21.0982 76.4117 21.3717 76.3688 21.6491Z" fill="#363040"/>
<path d="M77.1541 21.6712C77.2407 21.8125 77.4146 21.8676 77.5491 21.7957C77.6836 21.7239 77.7642 21.5331 77.7327 21.3623C77.6201 21.551 77.3868 21.6211 77.2119 21.5192C77.1751 21.5899 77.1905 21.6005 77.1541 21.6712Z" fill="#363040"/>
<path d="M73.4959 21.2629C73.3672 21.348 73.19 21.3112 73.0935 21.179C72.9969 21.0468 72.9912 20.8336 73.0803 20.6943C73.1158 20.9216 73.3026 21.1018 73.4974 21.0962C73.5056 21.1787 73.4877 21.1808 73.4959 21.2629Z" fill="#363040"/>
<path d="M59.6878 35.3657C56.9897 33.6235 54.0599 32.6613 51.14 32.275L51.6618 33.3294L50.3561 33.6968L49.4253 33.9595L47.861 35.0866C47.861 35.0866 46.5867 32.3518 46.5525 32.1187C42.3422 32.3736 38.4337 33.6712 35.6145 35.3766C32.5983 37.2013 37.2758 44.6418 37.2758 44.6418L40.0208 61.8041L39.157 72.2028C43.2963 74.8069 48.0806 74.2268 52.0301 73.9082C52.1668 73.8974 52.7678 72.4113 52.903 72.3969C53.3055 72.3536 53.5132 73.837 53.9013 73.7619C56.0813 73.342 58.0007 71.7211 59.5116 70.3002C60.0948 69.7519 59.1816 64.3704 59.1816 64.3704L59.9102 44.9074C62.5931 39.0883 61.3722 36.4534 59.6878 35.3657Z" fill="#601D54"/>
<path d="M39.3043 41.9658L37.2789 43.9215C37.2256 44.0616 37.1554 44.1912 37.074 44.3102C37.1988 44.5222 37.2742 44.6423 37.2742 44.6423L38.4795 52.1779C38.8688 48.7886 39.147 45.3816 39.3043 41.9658Z" fill="#3E1D4A"/>
<path d="M51.6965 33.2134C53.5531 36.7547 54.3338 40.8365 54.4968 44.8821C54.6596 48.928 53.8072 54.1322 53.3791 58.1563C51.9322 48.0137 49.6058 41.12 45.408 32.861C47.5718 32.974 50.5825 31.4671 51.6965 33.2134Z" fill="#F8F2E9"/>
<path d="M35.0793 35.8544C30.4651 41.2715 25.3292 58.4709 25.1669 60.3389C25.0044 62.2068 39.1559 72.2024 39.1559 72.2024L40.4743 67.0227L32.7537 59.205C32.7537 59.205 33.3346 58.0917 32.3192 58.3437C32.3192 58.3437 38.6457 44.8331 39.4018 43.0682C40.1579 41.303 36.5876 34.0839 35.0793 35.8544Z" fill="#601D54"/>
<path d="M43.4976 23.5596L45.9907 33.0276C45.9907 33.0276 50.3176 32.1917 51.0588 32.3778L51.0409 31.9826L43.4976 23.5596Z" fill="#EBBEA3"/>
<path d="M51.0432 31.9823L50.8836 28.4514L47.3565 26.0449L45.7205 26.4727C45.7205 26.4727 48.3178 32.3978 51.0432 31.9823Z" fill="#DF9B7E"/>
<path d="M52.542 10.9187C53.2167 12.0135 53.811 13.9082 53.9281 15.1669C54.0055 15.9987 53.6462 16.7645 53.6333 17.5816C53.6182 18.5329 54.05 19.0682 54.2614 19.9451C54.5095 20.9736 54.2964 21.9962 54.1343 23.0161C53.8974 24.5063 54.5636 26.2923 53.8877 27.6553C53.345 28.7491 52.1003 28.912 51.1347 28.8604C49.3652 28.7659 46.6034 27.5301 45.4085 26.4772C44.5482 25.719 44.0445 24.5545 43.5008 23.7766C43.5008 23.7766 42.878 24.3222 41.7047 22.8156C40.5315 21.3089 40.5178 19.2437 42.3325 20.1247C42.3325 20.1247 40.7471 18.5641 41.2677 14.2097C41.9109 8.82761 45.217 8.0073 47.9726 8.50873C50.6052 8.98719 51.8226 9.75157 52.542 10.9187Z" fill="#EBBEA3"/>
<path d="M41.4527 20.6528C41.111 21.4546 42.5867 23.2348 43.0711 23.1671C43.5555 23.0993 43.2004 22.5267 42.9557 22.3052C42.4113 21.8132 43.0567 21.9643 42.8286 21.4478C42.6003 20.9311 41.7021 20.0678 41.4527 20.6528Z" fill="#DF9B7E"/>
<path d="M52.234 32.0036C52.1878 31.693 51.5042 30.1086 50.9525 29.9688C50.9525 29.9688 51.093 31.2313 50.1091 31.4801C47.8366 32.0546 45.1881 29.9688 45.1881 29.9688C45.1881 29.9688 44.101 32.5716 44.3762 32.8881C44.6514 33.2044 47.3882 35.705 48.4517 34.8762C48.8391 34.5744 49.815 33.2035 50.1205 32.5707C50.8478 33.2738 51.457 34.2629 51.7818 33.9929C52.2739 33.5842 52.2804 32.3143 52.234 32.0036Z" fill="#CED2D6"/>
<path d="M52.1472 23.1881C52.1264 23.1616 52.1693 23.0685 52.2604 22.9249C52.3485 22.7803 52.4899 22.5854 52.6001 22.3274C52.6554 22.1985 52.6954 22.0568 52.7095 21.8981C52.7239 21.7421 52.7066 21.5751 52.6445 21.4412C52.5855 21.309 52.4721 21.2041 52.31 21.0964C52.1544 20.9919 51.9423 20.8652 51.7728 20.6559C51.4343 20.2404 51.3229 19.719 51.2715 19.2841C51.2219 18.8383 51.2375 18.4555 51.2355 18.1373C51.2445 17.5024 51.1688 17.1232 51.2083 17.1052C51.2455 17.0852 51.4048 17.4639 51.4807 18.1146C51.5254 18.4352 51.5512 18.8195 51.6214 19.2114C51.6939 19.6012 51.8209 20.0211 52.0639 20.3176C52.1825 20.4639 52.3346 20.5599 52.5142 20.6862C52.687 20.8064 52.886 20.9842 52.9845 21.2404C53.0822 21.4895 53.0837 21.7444 53.0517 21.9591C53.019 22.1746 52.944 22.3642 52.8602 22.5097C52.6902 22.8032 52.5053 22.967 52.3788 23.0724C52.25 23.176 52.1676 23.2143 52.1472 23.1881Z" fill="#DD8777"/>
<path d="M52.4154 24.2661C52.4322 24.3179 52.2523 24.4684 51.9141 24.5702C51.5789 24.6754 51.0828 24.7039 50.5667 24.5426C50.0503 24.3812 49.6336 24.075 49.3751 23.8082C49.115 23.5388 49.0041 23.3206 49.0284 23.2947C49.0587 23.2606 49.2173 23.4175 49.4925 23.6174C49.7657 23.8209 50.1709 24.0423 50.6431 24.1669C51.1163 24.2867 51.5548 24.2911 51.8734 24.2664C52.192 24.2411 52.3967 24.204 52.4154 24.2661Z" fill="#DD8777"/>
<path d="M49.1031 20.1121C49.1562 20.3735 49.2324 20.6382 49.386 20.8361C49.5396 21.034 49.7872 21.1494 49.9996 21.0555C50.2061 20.9645 50.3297 20.6998 50.352 20.4398C50.3743 20.1795 50.3143 19.9204 50.2525 19.6695C50.148 19.2464 49.811 18.4679 49.3401 18.8216C49.2324 18.9025 49.1549 19.0324 49.1088 19.1734C49.009 19.4787 49.0398 19.8014 49.1031 20.1121Z" fill="#2D3346"/>
<path d="M52.2022 19.5324C52.2253 19.8 52.2709 20.0745 52.4007 20.295C52.5305 20.5155 52.763 20.6692 52.9841 20.6103C53.199 20.5529 53.3513 20.3106 53.403 20.0562C53.4546 19.8021 53.4243 19.5356 53.3913 19.2771C53.3357 18.8414 53.0898 18.016 52.5831 18.2913C52.4672 18.3543 52.3759 18.4709 52.3143 18.6031C52.1806 18.8896 52.1746 19.2147 52.2022 19.5324Z" fill="#2D3346"/>
<path d="M50.9531 29.9688C50.9531 29.9688 51.0936 31.2313 50.1097 31.4801C47.8371 32.0546 45.1887 29.9688 45.1887 29.9688C45.1887 29.9688 44.979 30.4711 44.7671 31.0611C44.81 31.6262 44.9686 32.1791 45.2358 32.6496C45.6765 33.4252 46.4014 33.9652 47.1815 34.0992C47.0304 33.7744 46.8758 33.4367 46.8528 33.0666C46.8297 32.6964 46.9766 32.2842 47.2699 32.1559C47.3642 32.1146 47.4659 32.1049 47.5662 32.1011C48.1037 32.0796 48.6364 32.2053 49.1719 32.2613C49.7074 32.3172 50.2702 32.2966 50.7486 32.0057C51.2206 31.7189 51.5834 31.1112 51.5184 30.489C51.3343 30.2231 51.1367 30.0153 50.9531 29.9688Z" fill="#F8F2E9"/>
<path d="M46.875 18.5184C46.7839 18.3444 46.8668 18.1177 46.9653 17.9496C47.2698 17.4281 47.7281 17.0359 48.241 16.8572C48.7857 16.6676 49.3664 16.7162 49.9326 16.7668C50.0239 16.8572 50.0837 16.9267 50.1418 17.05C50.1999 17.1734 50.216 17.3348 50.1502 17.4525C50.0612 17.6121 49.8731 17.6277 49.712 17.6339C48.7147 17.6725 47.7636 17.9802 46.875 18.5184Z" fill="#2D3346"/>
<path d="M52.5194 16.2547C52.3614 16.2723 52.1973 16.2979 52.0636 16.3998C51.9301 16.5017 51.8365 16.7022 51.8864 16.8809C51.9224 17.0096 52.0241 17.1003 52.1328 17.1418C52.2415 17.1836 52.3581 17.1836 52.4723 17.1836C52.8003 17.1833 53.1281 17.183 53.4562 17.1827C53.585 17.1827 53.7237 17.1789 53.8274 17.0879C54.1912 16.769 53.7267 16.4004 53.4676 16.3018C53.1641 16.1861 52.8316 16.2199 52.5194 16.2547Z" fill="#2D3346"/>
<path d="M43.499 32.8613C43.499 32.8613 41.753 35.3014 42.1428 36.081C42.5324 36.8607 46.1561 38.895 46.1561 38.895C46.1561 38.895 44.7923 43.2247 45.0653 43.695C45.338 44.1652 52.1955 58.4511 52.9746 60.67C52.9746 60.67 44.3747 44.8883 44.3303 43.9258C44.2858 42.9633 45.4062 39.2645 45.4062 39.2645C45.4062 39.2645 41.5974 37.6513 41.3637 36.5162C41.1297 35.3814 43.499 32.8613 43.499 32.8613Z" fill="#3E1D4A"/>
<path d="M53.412 33.2861C53.412 33.2861 56.1729 34.9056 56.357 35.8551C56.5411 36.8044 54.5006 38.2969 54.5006 38.2969C54.5006 38.2969 57.0476 41.5001 57.1625 42.9561C57.2774 44.4121 53.0294 63.1945 52.9753 64.1773C52.9212 65.1602 52.9753 72.0032 52.9753 72.0032C52.9753 72.0032 52.3691 64.614 52.5224 63.8496C52.6758 63.0852 56.8513 44.2687 56.8171 43.0289C56.7828 41.7893 53.8413 37.943 53.8413 37.943C53.8413 37.943 55.9888 36.4767 55.958 36.0035C55.9275 35.5307 53.412 33.2861 53.412 33.2861Z" fill="#3E1D4A"/>
<path d="M42.3328 20.1251C42.3328 20.1251 43.3614 20.6969 43.8016 21.6632C44.2418 22.6296 45.0341 21.6632 45.0341 21.6632L43.7795 18.0328C43.7795 18.0328 44.7083 15.7865 44.0899 13.9583C44.0899 13.9583 44.5279 14.7418 44.616 16.3353C44.616 16.3353 45.0341 15.3428 44.4619 13.9583C44.4619 13.9583 47.4776 17.3276 50.5152 14.8201L46.424 13.8538C46.424 13.8538 52.0313 14.4023 53.6726 13.88C55.3138 13.3577 57.1188 11.2421 55.5118 8.86508L54.3748 11.0592C54.3748 11.0592 55.3332 7.87283 53.0783 5.73107C50.8234 3.58931 47.7196 5.60063 47.7196 5.60063L51.3735 8.10808C51.3735 8.10808 40.7903 5.78348 41.4045 11.399C41.4045 11.399 38.9367 12.078 38.8707 14.0369C38.8047 15.9958 40.5876 18.2368 40.5876 18.2368L41.7132 19.924C41.7132 19.924 42.0792 19.9619 42.3328 20.1251Z" fill="#2D3346"/>
<path d="M49.1175 33.0093C49.154 32.6604 49.4562 32.3577 49.7329 32.2323C50.0292 32.098 50.5287 32.2444 50.7044 32.5273C51.2072 32.0303 51.4042 31.6296 51.9069 31.1326C52.0948 30.9471 52.2853 30.7592 52.5072 30.6376C53.4313 30.1315 53.8601 31.268 53.9472 32.1746C53.9916 32.6372 54.0005 33.1777 53.8712 33.6244C53.6702 34.3193 52.9737 34.5861 52.402 34.523C51.865 34.4639 51.3684 34.1718 50.8863 33.885C50.7478 34.2271 50.419 34.5313 50.0994 34.544C49.7798 34.5566 49.4801 34.4097 49.2225 34.1353C48.7475 34.8767 48.1046 35.2933 47.3867 35.6416C46.882 35.8866 46.2547 36.1619 45.7028 36.0185C44.977 35.8298 44.977 34.8089 44.9023 34.0991C44.7576 32.7231 45.4085 31.8784 46.5765 32.0751C47.4105 32.2161 48.3689 32.5512 49.1175 33.0093Z" fill="#FFC52A"/>
<path d="M83.2509 44.0179C83.2509 44.0179 84.7936 55.618 85.233 57.8822L83.5345 75.1926L87.2525 74.2066C87.2525 74.2066 89.6885 58.6993 89.5766 57.5872C89.4649 56.4751 88.1895 40.989 85.579 38.44C82.9687 35.8917 83.2509 44.0179 83.2509 44.0179Z" fill="#EBBEA3"/>
<path d="M68.2833 36.4717C70.4692 37.7984 72.2532 40.0353 73.2492 42.6982C76.1711 40.396 79.6697 39.4111 83.1703 39.6678C84.3974 39.7579 85.7448 39.9782 86.7563 39.149C87.7037 41.0167 88.2883 42.9885 88.6176 45.1332C87.0277 46.1685 85.1483 46.495 83.3738 46.9393C83.3738 46.9393 81.4708 52.1003 81.0638 54.5144C80.6569 56.9285 84.6242 61.9181 85.251 74.9076C85.251 74.9076 70.1983 79.8804 63.6619 74.246C63.6619 74.246 68.0818 58.9171 68.2364 56.3487C68.391 53.7803 68.3119 46.4223 68.3119 46.4223C68.3119 46.4223 66.7816 43.994 67.3332 42.0761L66.2679 40.8889L68.2833 36.4717Z" fill="#C52A7A"/>
<path d="M78.717 19.2583C79.1875 19.523 79.694 19.6899 80.1615 19.9626C80.6287 20.2352 81.0717 20.6407 81.2655 21.2139C81.6104 22.2339 81.0714 23.3545 80.5101 24.2287C79.9488 25.1026 79.3051 26.0766 79.428 27.166C79.5773 28.4898 80.8121 29.3726 80.929 30.7011C81.023 31.7702 80.3533 32.7183 79.6381 33.3778C78.923 34.0374 78.0934 34.5892 77.6225 35.5072C77.0487 36.6255 77.1721 38.1837 77.9113 39.1553C77.7713 38.7178 77.5756 38.2761 77.5339 37.8109C77.4919 37.3454 77.5602 36.8478 77.8031 36.4789C78.046 36.11 78.4872 35.9077 78.8545 36.0793C79.1773 36.2304 79.3734 36.6131 79.6429 36.8723C80.22 37.4276 81.1744 37.2992 81.6322 36.6049C81.2923 36.8572 81.0456 37.3248 81.024 37.8C81.0024 38.2753 81.0985 38.7452 81.1637 39.2145C81.2292 39.6842 81.2623 40.1788 81.1216 40.6246C80.9809 41.0701 80.623 41.4499 80.2225 41.4258C80.5873 41.7859 81.1905 41.6257 81.5245 41.2255C81.8585 40.8254 81.999 40.2571 82.1104 39.7098C82.2218 39.1624 82.3228 38.5918 82.6035 38.1378C82.9926 37.5088 83.6606 37.2138 84.3082 37.0801C84.9561 36.9465 85.6237 36.9394 86.2562 36.7265C86.8887 36.5136 87.5106 36.0363 87.7173 35.2958C87.9659 34.406 87.5517 33.4565 87.0917 32.6942C86.6316 31.9321 86.0884 31.1548 86.0415 30.2191C85.9852 29.0955 86.6552 28.1321 87.0428 27.1048C87.5634 25.7256 87.5272 24.1804 87.0892 22.7818C86.9182 22.2359 86.6016 21.8005 86.4783 21.2292C86.3348 20.565 86.3802 19.8477 86.4721 19.1785C86.6309 18.0213 86.9242 16.787 86.4865 15.6737C84.8467 11.5033 80.3972 7.64849 76.9574 11.7356C74.9807 14.0838 76.4587 17.9877 78.717 19.2583Z" fill="#363040"/>
<path d="M75.3482 15.4404C74.8903 15.8889 74.5814 16.5087 74.2449 17.089C73.9087 17.6693 73.5134 18.2429 72.967 18.5185C72.4208 18.7941 71.6905 18.6704 71.3746 18.0742C71.0458 17.4535 71.2781 16.637 71.5773 15.9954C72.4109 14.2091 73.7285 12.7469 75.2864 11.8798C76.0092 11.4776 76.9437 11.2349 77.5457 11.8571C77.978 12.304 78.0797 13.0917 77.8939 13.7353C77.7336 14.2903 77.416 14.8521 76.912 14.9469C76.3117 15.06 75.8809 14.9184 75.3482 15.4404Z" fill="#363040"/>
<path d="M74.4593 19.1559C74.2219 18.855 73.9844 18.481 73.6464 18.4042C73.2558 18.3153 72.834 18.3011 72.4633 18.4981C72.401 18.7528 72.333 19.0431 72.5714 19.0885C72.835 19.1385 73.2017 19.0316 73.4869 19.0537C73.84 19.0808 74.1911 19.1459 74.5343 19.248C74.509 19.2183 74.4841 19.1877 74.4593 19.1559Z" fill="#363040"/>
</g>
<mask id="mask1_173_2617" style="mask-type:luminance" maskUnits="userSpaceOnUse" x="0" y="18" width="43" height="52">
<path d="M-0.000110626 69.7827H42.1208L42.1208 18.546L-0.000110626 18.546L-0.000110626 69.7827Z" fill="white"/>
</mask>
<g mask="url(#mask1_173_2617)">
<path d="M36.6946 23.2521C36.7028 23.2433 36.7115 23.2347 36.7202 23.2268C36.7656 23.1853 36.8261 23.1544 36.8954 23.1376C36.9919 23.1134 37.0894 23.1193 37.1636 23.127C37.1671 23.1261 37.1708 23.1255 37.1743 23.1255C37.1922 23.1243 37.2103 23.132 37.2234 23.147C37.2368 23.1611 37.2445 23.1803 37.245 23.2012C37.2609 23.6472 37.2132 24.1219 37.1033 24.6118C37.0502 24.8494 36.9815 25.0962 36.8939 25.3659C37.0527 25.0747 37.1979 24.7431 37.3234 24.3792C37.4693 23.9473 37.5616 23.5551 37.6056 23.18C37.6068 23.1667 37.6143 23.1517 37.6252 23.1402C37.6291 23.1361 37.6329 23.1332 37.6361 23.1308C37.6512 23.1199 37.6701 23.1164 37.6882 23.1214C37.7051 23.1264 37.72 23.1399 37.7291 23.1576C37.7339 23.167 37.7363 23.1747 37.7371 23.1823C37.7425 23.1926 37.7463 23.2056 37.747 23.2188C37.7587 23.4741 37.743 23.7391 37.7001 24.0065C37.6631 24.2385 37.6018 24.4829 37.5133 24.754C37.3738 25.1807 37.1869 25.5876 37.0075 25.9674C37.0996 25.8123 37.1688 25.6948 37.2306 25.5852C37.4209 25.2469 37.5937 24.893 37.744 24.5338C37.8954 24.1719 38.0311 23.7874 38.1475 23.3911L38.1574 23.356L38.1803 23.2765C38.1852 23.2586 38.1907 23.2442 38.2014 23.233L38.215 23.2232L38.2207 23.215C38.2259 23.2094 38.2297 23.2068 38.2339 23.2038C38.2502 23.1941 38.2656 23.1929 38.2865 23.1985C38.4768 23.2539 38.6582 23.3846 38.8252 23.5869C38.8962 23.672 38.9629 23.7733 39.0287 23.896C39.085 24.0015 39.1324 24.1166 39.1694 24.2376C39.2212 24.4075 39.2485 24.5933 39.2533 24.8053C39.2567 24.9613 39.2431 25.1283 39.2116 25.3152C39.157 25.6365 39.0458 25.9665 38.8709 26.324C38.7173 26.6388 38.5187 26.955 38.2641 27.2906C38.1028 27.5032 37.9237 27.7146 37.7311 27.919C37.6552 27.9994 37.576 28.0803 37.4954 28.1592C37.2336 28.4166 36.9497 28.6619 36.6514 28.8877C36.4246 29.0591 36.1991 29.2104 35.981 29.3373C35.802 29.4418 35.6358 29.5249 35.4725 29.5911C35.5035 29.6482 35.5254 29.7021 35.5398 29.7548C35.5596 29.8267 35.5648 29.8891 35.5559 29.9453C35.546 30.0069 35.5204 30.0601 35.4797 30.1034L35.471 30.1123C35.4147 30.1664 35.339 30.1873 35.2869 30.1982C35.235 30.2088 35.1814 30.2018 35.1229 30.1767C35.073 30.1555 35.0219 30.1214 34.9623 30.069C34.9112 30.0242 34.8601 29.9686 34.806 29.8991C34.7586 29.8378 34.7157 29.771 34.6787 29.7009C34.5928 29.5369 34.5559 29.3929 34.5658 29.2607C34.571 29.1918 34.5956 29.1232 34.6333 29.0726C34.642 29.0611 34.6509 29.0505 34.6601 29.0408C34.6735 29.0267 34.6874 29.014 34.7025 29.0028C34.7281 28.9849 34.7489 28.9734 34.7703 28.9657C34.8025 28.9542 34.8338 28.9522 34.8628 28.9519C34.903 28.951 34.944 28.9654 34.975 28.9781C35.0075 28.9086 35.0415 28.8391 35.0755 28.7696L35.1162 28.6863C35.2484 28.4163 35.3983 28.1101 35.5234 27.8039C35.6919 27.3931 35.8475 26.9467 35.9862 26.4765L35.9919 26.463C36.1616 25.8741 36.3006 25.2646 36.4063 24.6492C36.4299 24.5114 36.4569 24.3554 36.4738 24.2061C36.4825 24.1295 36.4889 24.053 36.4951 23.9764C36.4998 23.9199 36.5043 23.8675 36.5093 23.8154C36.5222 23.6793 36.5418 23.5716 36.5706 23.4759C36.584 23.4305 36.6033 23.3852 36.6284 23.3413C36.6465 23.3092 36.6681 23.2804 36.6946 23.2521Z" fill="#C52A7A"/>
<path d="M38.8279 23.5858C38.8991 23.6709 38.9656 23.7722 39.0311 23.8947C39.0877 23.9998 39.1351 24.1152 39.1723 24.2374C39.2239 24.4076 39.2517 24.5937 39.2567 24.806C39.2597 24.9623 39.2463 25.129 39.2147 25.316C39.1599 25.6393 39.0482 25.969 38.8735 26.3247C38.7214 26.6374 38.5229 26.9542 38.2671 27.2925C38.1043 27.5069 37.9249 27.7183 37.7338 27.9212C37.6574 28.0024 37.5777 28.0834 37.4981 28.1614C37.2378 28.4173 36.9539 28.6623 36.6539 28.8902C36.4261 29.0618 36.2 29.2132 35.9824 29.3389C35.8017 29.4446 35.6355 29.5276 35.4739 29.593C35.505 29.6457 35.5275 29.699 35.5424 29.7541C35.5625 29.8253 35.5677 29.8877 35.5586 29.9454C35.5491 30.0076 35.5231 30.0612 35.4819 30.1047L35.4732 30.1139C35.4171 30.1678 35.3407 30.1887 35.2878 30.1995C35.2362 30.2107 35.1821 30.2037 35.1231 30.1778C35.0727 30.1563 35.0218 30.1224 34.9623 30.0709C34.9449 30.0556 34.9275 30.0388 34.9099 30.0211C34.9821 30.0358 35.0561 30.0382 35.1278 30.0185C35.1496 30.0123 35.1722 30.004 35.1923 29.992C35.2117 29.9808 35.2305 29.9681 35.2466 29.951C35.2625 29.9348 35.2762 29.9169 35.2873 29.8957C35.2978 29.8766 35.3052 29.8559 35.3104 29.8339C35.3241 29.7779 35.3223 29.717 35.3109 29.6607C35.303 29.6227 35.2931 29.5851 35.2797 29.5491C35.2672 29.5156 35.2531 29.4832 35.238 29.4511C35.3878 29.3981 35.534 29.3295 35.6742 29.2479C35.8092 29.1696 35.9402 29.0821 36.0673 28.9873C36.2013 28.8872 36.3318 28.7803 36.4596 28.6693C36.5866 28.5592 36.711 28.4459 36.8323 28.3275C37.043 28.1217 37.245 27.9038 37.437 27.6741C37.6301 27.443 37.8142 27.2007 37.9849 26.946C38.0512 26.8473 38.116 26.7469 38.1758 26.6424C38.2284 26.5506 38.2787 26.4569 38.3249 26.3606C38.4227 26.1598 38.5078 25.9499 38.5763 25.7323C38.644 25.5174 38.6976 25.2948 38.7294 25.0683C38.7606 24.8463 38.773 24.6196 38.7586 24.3953C38.7443 24.1738 38.7058 23.9533 38.6366 23.7466C38.6016 23.6427 38.5601 23.5414 38.5115 23.4454C38.4743 23.3724 38.4333 23.302 38.3889 23.2349C38.5438 23.3017 38.6907 23.4198 38.8279 23.5858Z" fill="#96137B"/>
<path d="M38.5732 24.6612C38.5973 24.6497 38.6248 24.65 38.6486 24.6626C38.6717 24.675 38.6898 24.6977 38.6993 24.7253C38.7015 24.7351 38.7035 24.7451 38.7055 24.7542C38.7074 24.7751 38.7047 24.7954 38.6978 24.8149C38.6779 24.8905 38.6514 24.9641 38.6246 25.0369C38.596 25.1158 38.5655 25.1941 38.535 25.2718C38.4789 25.4132 38.4171 25.5516 38.3514 25.687C38.2164 25.9647 38.0635 26.2293 37.8992 26.4837C37.7367 26.7355 37.5615 26.9752 37.3821 27.2101C37.2928 27.3267 37.2012 27.4407 37.1089 27.554C37.0156 27.6689 36.9223 27.7837 36.826 27.8956C36.6052 28.1526 36.3717 28.3947 36.1257 28.6178C35.8751 28.8449 35.6091 29.0483 35.3349 29.2326C35.3208 29.2424 35.3034 29.2421 35.2927 29.225C35.2835 29.2106 35.2848 29.1843 35.2992 29.1749C35.6915 28.9108 36.0446 28.5719 36.3714 28.2042C36.3677 28.2083 36.3642 28.2124 36.3605 28.2165C36.53 28.024 36.6905 27.8217 36.8469 27.6144C36.9952 27.418 37.1404 27.2193 37.2828 27.017C37.5675 26.6118 37.8362 26.1875 38.0705 25.7385C38.1494 25.5842 38.2243 25.4273 38.294 25.2671C38.332 25.1811 38.3672 25.0937 38.4025 25.0062C38.4409 24.9108 38.4767 24.8134 38.5211 24.7212C38.5288 24.7056 38.537 24.6918 38.5474 24.6806C38.5541 24.6726 38.5628 24.6662 38.5732 24.6612Z" fill="#96137B"/>
<path d="M38.3734 24.0383C38.3886 24.025 38.4079 24.0191 38.427 24.0224C38.4459 24.0259 38.463 24.0383 38.4744 24.0565C38.4849 24.0733 38.4918 24.0992 38.4873 24.1201C38.4762 24.1763 38.4643 24.2314 38.4509 24.2868C38.4362 24.3456 38.4191 24.4031 38.4012 24.4605C38.364 24.5785 38.3211 24.6946 38.2742 24.8079C38.2273 24.9204 38.1762 25.0305 38.1226 25.1383C38.0652 25.2543 38.0045 25.3674 37.9402 25.4775C37.8791 25.5826 37.8173 25.688 37.7513 25.7893C37.6838 25.8935 37.6149 25.9969 37.5441 26.0987C37.4111 26.2895 37.2699 26.4727 37.1245 26.6499C37.1091 26.6685 37.0858 26.6747 37.0677 26.6567C37.0516 26.6414 37.0464 26.6084 37.0615 26.5893C37.2024 26.4144 37.3352 26.2301 37.4618 26.0402C37.5307 25.9368 37.597 25.8311 37.661 25.7233C37.726 25.6141 37.7891 25.5028 37.8486 25.3891C37.8459 25.3942 37.8434 25.3992 37.8404 25.4045C37.9494 25.1933 38.0523 24.9784 38.1397 24.7537C38.1824 24.6436 38.2221 24.5314 38.2576 24.4178C38.2903 24.3138 38.3164 24.2076 38.3437 24.1019C38.3442 24.0992 38.3449 24.0968 38.3454 24.0942C38.3501 24.0739 38.3558 24.0568 38.3687 24.0433C38.3697 24.0418 38.3715 24.04 38.3734 24.0383Z" fill="#96137B"/>
<path d="M36.8915 23.6876C36.8781 23.6888 36.8652 23.6956 36.8552 23.7059C36.8535 23.7076 36.852 23.7094 36.8505 23.7115C36.8396 23.7262 36.8356 23.7435 36.8356 23.7627C36.8359 23.8725 36.8319 23.9829 36.826 24.0928C36.8059 24.4219 36.7609 24.7485 36.6979 25.0694C36.6319 25.4045 36.5505 25.7351 36.4552 26.0599C36.4552 26.0593 36.4555 26.0587 36.4557 26.0584C36.4066 26.2236 36.353 26.387 36.2969 26.5487C36.2423 26.7056 36.1855 26.8608 36.1249 27.0148C36.0115 27.3045 35.8899 27.5898 35.7582 27.8678C35.752 27.8804 35.7577 27.8969 35.7681 27.9028C35.779 27.9096 35.7917 27.9034 35.7976 27.8913C35.9567 27.5565 36.1071 27.2159 36.2436 26.867C36.2922 26.7421 36.3401 26.617 36.386 26.4907C36.4324 26.3629 36.4758 26.2336 36.5187 26.1038C36.5612 25.9751 36.6026 25.8459 36.6406 25.7154C36.6786 25.5838 36.7163 25.4516 36.7488 25.3182C36.8121 25.0576 36.8662 24.7929 36.9021 24.5253C36.919 24.3963 36.9334 24.2668 36.9423 24.1366C36.951 24.0094 36.955 23.8816 36.9545 23.7536C36.9545 23.7153 36.9225 23.6855 36.8915 23.6876Z" fill="#96137B"/>
<path d="M19.7508 32.4844C19.7578 32.4632 19.7664 32.4505 19.7801 32.4405C19.7846 32.4373 19.7888 32.4349 19.7925 32.4334C19.7923 32.4264 19.7937 32.4175 19.7965 32.4087C19.7967 32.4081 19.797 32.4072 19.797 32.4072C19.8263 32.3728 19.8558 32.3386 19.8851 32.3042C20.2585 31.9252 20.6779 31.5631 21.164 31.2C21.6127 30.8644 22.1075 30.5369 22.6767 30.1986C23.141 29.923 23.6383 29.6507 24.2425 29.3406C24.7581 29.0762 25.2919 28.8136 25.8286 28.5595C27.0825 27.9659 28.2272 27.4977 29.329 27.1276C29.8781 26.9436 30.3819 26.7934 30.8697 26.6692C31.4221 26.5293 31.9313 26.4313 32.4273 26.3691C32.471 26.4996 32.5102 26.6324 32.543 26.7672C32.5422 26.7652 32.5417 26.7625 32.541 26.7608C32.5507 26.8017 32.5598 26.842 32.5683 26.8829C32.5725 27.2313 32.5539 27.594 32.5112 27.9821C32.4546 28.4962 32.3569 29.0338 32.2201 29.5803C32.1467 29.875 32.0613 30.1698 31.967 30.4563C31.8938 30.6783 31.8134 30.9003 31.7286 31.1155C31.5802 31.4924 31.4169 31.8463 31.2439 32.1675C31.2437 32.1758 31.2422 32.1843 31.2395 32.192C31.236 32.2023 31.2308 32.2114 31.2243 32.2197L31.2072 32.2403L31.1973 32.2524C31.1596 32.3201 31.1211 32.3878 31.0814 32.454C31.0375 32.5282 30.9921 32.6013 30.9452 32.6731C30.9218 32.7096 30.8826 32.7184 30.8526 32.6946C30.8459 32.6893 30.8397 32.6816 30.835 32.6734C30.4873 33.0703 30.1183 33.4575 29.7399 33.8244C29.2672 34.2831 28.7406 34.7507 28.1287 35.2545C27.018 36.1672 25.8646 37.0285 24.7003 37.8146C23.4899 38.6311 22.2638 39.3657 21.0558 39.9979C20.5369 40.2697 20.0096 40.5276 19.4841 40.7667C19.4099 40.7384 19.3369 40.7045 19.2654 40.6657C19.2193 40.6395 19.1734 40.6118 19.1297 40.58C19.1108 40.5665 19.0927 40.5523 19.0746 40.5382C18.9895 39.4794 18.9714 38.3788 19.0208 37.2631C19.0476 36.6519 19.0972 36.0359 19.1679 35.4317C19.2389 34.824 19.3334 34.2316 19.4488 33.6715C19.4888 33.4787 19.532 33.2876 19.5771 33.1024C19.5997 33.0088 19.6233 32.9157 19.6481 32.8227C19.6741 32.7255 19.7052 32.6281 19.7354 32.5338L19.7501 32.4882L19.7508 32.4844Z" fill="#341A4F"/>
<path d="M19.2619 40.6639L19.2595 40.6626L19.2619 40.6639Z" fill="#020202"/>
<path d="M19.2665 40.6653C19.2199 40.6394 19.174 40.6114 19.1303 40.5799C19.1109 40.5661 19.0918 40.5516 19.0727 40.5363C18.9871 39.4775 18.9695 38.3775 19.0191 37.2633C19.0459 36.653 19.0953 36.0367 19.1663 35.4319C19.2368 34.8248 19.3313 34.2327 19.4469 33.6709C19.4864 33.4812 19.5296 33.2902 19.575 33.102C19.5976 33.0084 19.6214 32.9153 19.6462 32.8217C19.6723 32.7257 19.7035 32.628 19.7335 32.5329L19.7482 32.4872L19.7494 32.484C19.7534 32.4722 19.7579 32.4628 19.7638 32.4551C19.7673 32.4478 19.7708 32.4422 19.7747 32.4375L19.7941 32.4133L19.7943 32.4124L19.7948 32.4113C19.8316 32.3677 19.8688 32.3244 19.906 32.2814C20.2745 31.9101 20.6869 31.555 21.1636 31.1987C21.6103 30.8643 22.1053 30.5368 22.6763 30.1974C23.1381 29.9235 23.6356 29.6506 24.2423 29.3391C24.7491 29.0797 25.2828 28.8167 25.8285 28.5582C27.0846 27.9643 28.2298 27.4959 29.3291 27.1264C29.8805 26.9417 30.3847 26.7919 30.8703 26.6685C31.4222 26.5281 31.9316 26.4297 32.4272 26.3682C32.4711 26.4992 32.5106 26.6326 32.5436 26.768C32.5428 26.766 32.5426 26.7636 32.5416 26.7615C32.552 26.8051 32.5617 26.8496 32.5706 26.894C32.5706 26.9002 32.5709 26.9064 32.5709 26.9132C31.911 27.0607 31.2515 27.2109 30.5956 27.379C30.2653 27.4638 29.936 27.553 29.608 27.649C29.2844 27.7438 28.9621 27.8451 28.6422 27.9567C28.0129 28.1763 27.3926 28.4304 26.7796 28.7075C26.1662 28.9843 25.5602 29.2828 24.9577 29.5914C24.6793 29.7342 24.4009 29.8782 24.1235 30.0233C23.8461 30.1685 23.5696 30.3151 23.2947 30.4668C22.7351 30.7756 22.1815 31.1013 21.647 31.469C21.241 31.7491 20.8452 32.0526 20.4738 32.3939C20.3467 32.5158 20.2224 32.6415 20.1033 32.7743C20.0857 32.8423 20.068 32.9106 20.0519 32.9795C19.974 33.3081 19.9107 33.642 19.8584 33.9777C19.8067 34.3054 19.7631 34.6352 19.7254 34.9658C19.6509 35.6207 19.6 36.279 19.5646 36.9389C19.4966 38.2108 19.4847 39.4861 19.4648 40.7598C19.3978 40.7318 19.3313 40.7006 19.2665 40.6653Z" fill="#4B3776"/>
<path d="M24.9701 40.4397C25.1542 39.9819 25.4034 39.5261 25.7314 39.047C26.0143 38.6345 26.3401 38.2376 26.7004 37.8663C27.0275 37.5292 27.3813 37.2236 27.7526 36.9571C28.1382 36.6803 28.5568 36.4359 28.9968 36.2319C29.4253 36.0334 29.8717 35.8789 30.3243 35.7726C30.7457 35.6739 31.1745 35.6192 31.5983 35.6097C32.0264 35.6003 32.4574 35.6409 32.8792 35.7302C32.8946 35.7334 32.9083 35.7449 32.9177 35.7623C32.9281 35.7826 32.9314 35.8067 32.9266 35.827L32.9239 35.8376C32.9457 35.8553 32.9582 35.8844 32.9579 35.913C32.9433 35.9477 32.9289 35.9828 32.9145 36.0178C32.4864 36.859 31.9547 37.6711 31.333 38.4319C30.6891 39.2207 29.9754 39.9171 29.2114 40.5027C28.4203 41.1084 27.6049 41.5648 26.7878 41.8583C26.4555 41.9785 26.1247 42.0692 25.8049 42.1286C25.5984 42.1672 25.4145 42.1861 25.2423 42.1866C25.0381 42.1872 24.8532 42.1572 24.6912 42.0968C24.6584 42.0845 24.6383 42.0491 24.6421 42.0112C24.6301 41.9973 24.6229 41.9773 24.6227 41.9558C24.6224 41.9187 24.6224 41.8822 24.6234 41.8451C24.6242 41.8192 24.6267 41.7933 24.6296 41.7671L24.6314 41.7491C24.6378 41.6831 24.6465 41.6166 24.6564 41.5512C24.6738 41.4346 24.6979 41.3133 24.7296 41.1797C24.7602 41.0545 24.7966 40.927 24.8383 40.8004C24.8768 40.6826 24.9202 40.5646 24.9701 40.4397Z" fill="#221A35"/>
<path d="M25.6245 41.3757C26.0181 41.2738 26.405 41.1352 26.7809 40.9632C27.1616 40.7889 27.532 40.5828 27.8899 40.3502C28.6229 39.8735 29.3055 39.2896 29.9323 38.6342C30.5567 37.9811 31.1297 37.2589 31.6433 36.4824C31.8279 36.2033 32.0051 35.9177 32.1746 35.625C32.4108 35.6444 32.6458 35.6786 32.8773 35.7284C32.8932 35.7319 32.9074 35.7437 32.9168 35.7619C32.9277 35.7825 32.9312 35.8076 32.926 35.8282L32.9235 35.8382C32.9443 35.8538 32.9567 35.8815 32.9577 35.9091C32.9394 35.9521 32.9215 35.9954 32.9041 36.039C32.4771 36.874 31.9488 37.6787 31.3316 38.4337C30.6877 39.2228 29.9738 39.9194 29.2102 40.5045C28.4192 41.1104 27.6035 41.5665 26.7859 41.8604C26.4524 41.9808 26.1213 42.0715 25.8027 42.1301C25.597 42.1689 25.4129 42.1881 25.2402 42.1884C25.0352 42.1887 24.8496 42.1586 24.6883 42.0989C24.655 42.0859 24.6344 42.0497 24.6382 42.0108C24.6265 41.9982 24.6191 41.9778 24.6191 41.9561C24.6186 41.9187 24.6183 41.8818 24.6196 41.8447C24.6201 41.8209 24.6228 41.7968 24.6253 41.7729L24.6277 41.7488C24.6344 41.6828 24.6426 41.6163 24.6526 41.5506C24.6531 41.5477 24.6533 41.5453 24.6536 41.5427C24.9796 41.515 25.3047 41.4584 25.6245 41.3757Z" fill="#341A4F"/>
<path d="M21.8194 35.2115C21.9132 34.9748 22.0271 34.7357 22.1668 34.4813C22.2919 34.2537 22.4356 34.0202 22.5936 33.7873C22.8678 33.3845 23.1822 32.9885 23.5537 32.5768C23.7304 32.3813 23.8937 32.2109 24.0522 32.056C24.2297 31.8837 24.42 31.7147 24.619 31.5543C25.0069 31.2407 25.4277 30.9624 25.8694 30.7284C26.3081 30.496 26.7625 30.3141 27.2203 30.1878C27.5866 30.0868 27.968 30.0205 28.3553 29.9908C28.808 29.9554 29.2067 29.9858 29.574 30.0838C29.5911 30.0809 29.6085 30.0862 29.6229 30.0991C30.0092 30.4516 30.3842 30.8818 30.7695 31.415C31.0767 31.8402 31.384 32.3236 31.7356 32.9367C31.9614 33.3309 32.2232 33.8008 32.4505 34.2996C32.5579 34.5343 32.6545 34.774 32.7376 35.0119C32.78 35.1338 32.8202 35.261 32.8574 35.3911C32.8981 35.5351 32.9339 35.682 32.9644 35.8086C32.9666 35.8183 32.9679 35.8254 32.9684 35.8322C32.9708 35.8437 32.9713 35.8557 32.9694 35.8675C32.9686 35.8719 32.9676 35.8763 32.9661 35.8805C32.9547 35.9155 32.9227 35.9361 32.8904 35.9288C32.7882 35.9073 32.683 35.8908 32.5773 35.8802C32.1696 35.8428 31.7306 35.879 31.1951 35.9938L31.205 35.9897C30.4785 36.1496 29.7618 36.4264 29.0814 36.8124L29.0968 36.8015C28.3883 37.2078 27.7198 37.7298 27.1111 38.3549L27.123 38.3399C26.4955 38.9889 25.9362 39.74 25.462 40.5747C25.1967 41.0444 24.9575 41.5434 24.7513 42.0575C24.7411 42.0831 24.7193 42.099 24.6962 42.1011L24.6741 42.0908C24.6572 42.0826 24.6408 42.0743 24.6245 42.0658C24.5984 42.0484 24.5726 42.0307 24.547 42.0119C24.5401 42.0063 24.5332 42.0004 24.5262 41.9948C24.1957 41.653 23.8708 41.2487 23.5386 40.7626C23.2306 40.3133 22.9281 39.8086 22.6142 39.2194C22.4237 38.8623 22.2333 38.481 22.0316 38.0534C21.9452 37.8712 21.846 37.6589 21.7557 37.4466C21.6574 37.2155 21.5698 36.9855 21.4973 36.7915C21.4894 36.7785 21.4852 36.7644 21.4859 36.7502C21.4914 36.4961 21.5239 36.2341 21.582 35.9732C21.614 35.8292 21.6557 35.6794 21.7055 35.5271C21.7393 35.4226 21.7777 35.3166 21.8194 35.2115Z" fill="#4B3776"/>
<path d="M28.2576 29.9965C28.2578 29.9959 28.2591 29.9953 28.2596 29.9953L28.3318 29.9888L28.3553 29.9871C28.808 29.9514 29.207 29.9818 29.5755 30.0795C29.5928 30.0769 29.6107 30.0828 29.6253 30.096C30.0105 30.4464 30.3854 30.8772 30.772 31.4124C31.0815 31.84 31.3884 32.3234 31.7381 32.9344C31.9621 33.3239 32.2224 33.7903 32.454 34.2977C32.5609 34.5314 32.6574 34.7711 32.7411 35.0099C32.7803 35.1227 32.8207 35.2502 32.8612 35.3889C32.9004 35.5287 32.9336 35.665 32.9671 35.8037C32.9701 35.8178 32.9713 35.8252 32.9716 35.8317C32.9741 35.842 32.9746 35.8547 32.9731 35.8682C32.9726 35.8729 32.9716 35.877 32.9701 35.882C32.9582 35.9186 32.9244 35.94 32.8897 35.9333C32.7875 35.9118 32.6825 35.8953 32.5775 35.8841C32.1701 35.847 31.7311 35.8832 31.1956 35.9978L31.2031 35.9863C30.7016 36.1035 30.2058 36.2713 29.7303 36.4865C29.7981 36.1462 29.8499 35.8181 29.8842 35.5113C29.9062 35.312 29.9206 35.1321 29.9283 34.961C29.936 34.7764 29.9375 34.5977 29.933 34.4296C29.9229 34.0709 29.8876 33.7203 29.8283 33.3875C29.7688 33.0554 29.6876 32.7318 29.5869 32.4262C29.4829 32.1117 29.3586 31.8055 29.2174 31.5167C29.0779 31.2305 28.9196 30.9496 28.7467 30.6816C28.596 30.4487 28.4318 30.2188 28.2583 29.9982L28.2576 29.9965Z" fill="#341A4F"/>
<path d="M24.4878 41.781C24.4885 41.7791 24.4887 41.7775 24.4889 41.7754C24.4885 41.7775 24.4883 41.7794 24.4878 41.781Z" fill="#FEFFFE"/>
<path d="M25.4926 34.2266L25.492 34.2268C25.4912 34.2274 25.4906 34.2277 25.49 34.228L25.4897 34.2283C25.4909 34.2277 25.4914 34.2271 25.4926 34.2266Z" fill="#D8BE6C"/>
<path d="M24.9614 40.4771L24.9604 40.4761L24.9614 40.4771Z" fill="#D8BE6C"/>
<path d="M24.9629 40.4775L24.9634 40.478L24.9624 40.4775H24.9629Z" fill="#D8BE6C"/>
<path d="M23.6069 29.6706C23.6891 28.5549 24.1509 27.0763 25.1524 26.6343C26.1884 26.1773 27.3098 26.7441 28.0681 27.3003C28.5495 27.6534 28.9937 28.0815 29.423 28.4955C29.7488 28.8096 30.0855 29.1344 30.4342 29.4212C31.3999 30.2168 32.3022 30.5495 33.1159 30.4105C33.9509 30.268 34.6549 29.6479 35.4234 28.9133L35.5651 29.1217C34.7703 29.8817 34.0397 30.5233 33.1481 30.6755C32.2759 30.8245 31.3195 30.4765 30.3054 29.6411C29.95 29.3485 29.6098 29.0205 29.2805 28.703C28.8567 28.2944 28.4182 27.8715 27.9492 27.5276C27.2338 27.0032 26.1817 26.4659 25.231 26.8849C24.3601 27.2688 23.9397 28.5332 23.8407 29.5457L23.6069 29.6706Z" fill="#C52A7A"/>
<path d="M16.0616 53.2716C16.282 49.7522 15.6586 43.5954 15.0705 41.5397C14.609 39.9264 13.5201 37.3724 13.9395 36.0286L15.4849 35.4609C16.4708 36.2886 16.7884 39.1258 17.1758 40.7665C17.6693 42.857 20.087 48.3545 21.9444 51.1107C23.6603 53.657 26.1204 64.1326 26.4852 65.7138C26.507 65.7574 26.5252 65.803 26.5378 65.851C26.7676 66.7314 25.3313 68.041 23.3303 68.7762C21.329 69.5115 19.5205 69.3937 19.2907 68.513C19.2781 68.4647 19.2714 68.4153 19.2686 68.3646C18.8165 66.8156 15.8581 56.5231 16.0616 53.2716Z" fill="#4B3776"/>
<path d="M15.9925 49.3648C15.8541 46.2753 15.4471 42.954 15.0446 41.5498C14.5821 39.9369 13.4828 37.3867 13.921 36.0361L15.5081 35.4531C16.5129 36.2737 16.8201 39.1151 17.2064 40.7557C17.5382 42.164 18.7544 45.1137 20.0892 47.7286L21.174 49.7488C21.174 49.7488 19.7646 54.8776 16.0635 51.4748L15.9925 49.3648Z" fill="#C52A7A"/>
<path d="M14.5982 40.0583C14.1287 38.6268 13.6342 37.007 13.9394 36.0286L15.4848 35.4609C16.1972 36.0592 16.5605 37.7066 16.8536 39.1939C16.3645 39.8222 15.3605 40.0457 14.5982 40.0583Z" fill="#7D2A7A"/>
<path d="M17.5247 53.1309C17.7932 54.1594 18.7133 54.7353 19.5803 54.4167C20.4473 54.0985 20.9324 53.0064 20.6639 51.9776C20.3957 50.9491 19.4753 50.3732 18.6083 50.6918C17.7415 51.0104 17.2562 52.1024 17.5247 53.1309Z" fill="#FCD949"/>
<path d="M17.6307 53.0911C17.3808 52.1339 17.8342 51.1139 18.6409 50.8177C19.4476 50.5215 20.3072 51.0592 20.5568 52.0164C20.8065 52.9736 20.3534 53.9936 19.5466 54.2898C18.7399 54.5863 17.8806 54.0483 17.6307 53.0911ZM17.7739 53.0387C17.9992 53.9023 18.7747 54.3875 19.5025 54.1199C20.2303 53.8525 20.639 52.9324 20.4139 52.0688C20.1886 51.2052 19.4131 50.7203 18.6853 50.9876C17.9573 51.255 17.5486 52.1751 17.7739 53.0387Z" fill="white"/>
<path d="M16.9627 38.5211C16.9627 38.5211 16.6123 34.4923 14.6897 35.4254C14.6897 35.4254 12.5872 35.6686 14.114 39.5676C14.114 39.5676 15.2284 39.6874 16.9627 38.5211Z" fill="#FCD949"/>
<path opacity="0.24" d="M22.1755 67.3639C24.6579 64.8437 24.0095 60.1009 23.2058 56.8282C22.2891 53.0953 20.4675 49.7428 19.2593 46.1421C20.1114 47.9791 21.0886 49.837 21.9467 51.1102C23.6626 53.6565 26.1227 64.1321 26.4875 65.7132C26.5093 65.7568 26.5275 65.8024 26.5401 65.8504C26.7699 66.7308 25.3336 68.0405 23.3326 68.7757C21.6646 69.3884 20.1313 69.4081 19.5335 68.8879C20.4712 68.7583 21.4075 68.1435 22.1755 67.3639Z" fill="#007649"/>
<path opacity="0.59" d="M15.6089 40.7866L16.1781 46.0603C16.262 46.9375 16.3543 47.8131 16.3972 48.6847L16.425 49.3348C16.4258 49.5515 16.4288 49.7538 16.426 49.9814C16.4196 50.4337 16.4231 50.8824 16.4377 51.3296C16.4727 52.2241 16.5317 53.1142 16.6149 54.0017C16.7084 54.8874 16.8124 55.7721 16.96 56.6484C17.0995 57.5258 17.2831 58.3947 17.5025 59.2501C17.7315 60.1001 17.9913 60.9484 18.376 61.7157C18.1129 60.8828 17.9343 60.0259 17.7874 59.1626C17.7467 58.9483 17.7127 58.7316 17.6804 58.5149C17.6476 58.2982 17.6117 58.0826 17.5859 57.8641L17.4985 57.2123L17.4216 56.5583C17.3308 55.6844 17.239 54.8111 17.1794 53.9334C17.1144 53.0568 17.0608 52.1785 17.0362 51.3017C17.0174 50.8635 17.0094 50.4254 17.0112 49.9914C17.0114 49.7759 17.0064 49.535 17.0027 49.3086C16.9896 49.0828 16.9811 48.8558 16.9615 48.6317C16.8841 47.736 16.7781 46.8533 16.6389 45.9779C16.369 44.226 16.032 42.4935 15.6089 40.7866Z" fill="white"/>
</g>
<mask id="mask2_173_2617" style="mask-type:luminance" maskUnits="userSpaceOnUse" x="84" y="15" width="34" height="55">
<path d="M84.5085 69.7822H117.623V15.0879L84.5085 15.0879V69.7822Z" fill="white"/>
</mask>
<g mask="url(#mask2_173_2617)">
<path d="M89.6734 37.4139C89.9198 38.5399 93.4115 38.4386 97.4721 37.1878C101.533 35.9367 104.625 34.0099 104.379 32.884C104.132 31.7581 100.641 31.8593 96.5798 33.1101C92.5194 34.3612 89.4272 36.288 89.6734 37.4139Z" fill="#4B3776"/>
<path d="M89.5308 26.4772L99.5891 23.4798L99.8921 23.2852L101.826 32.9128L101.818 32.9151C101.819 32.916 101.819 32.9166 101.819 32.9172C101.934 33.441 99.8045 34.5501 97.0632 35.3943C94.3219 36.2388 92.007 36.4987 91.8924 35.9749C91.8921 35.9741 91.8924 35.9735 91.8921 35.9726L91.869 35.9796L89.5308 26.4772Z" fill="#4B3776"/>
<path d="M89.4862 26.3088C89.6008 26.8326 92.0138 26.5423 94.8759 25.6607C97.738 24.7792 99.9651 23.6397 99.8507 23.1162C99.7361 22.5924 97.3231 22.8827 94.461 23.7643C91.5989 24.6458 89.3715 25.785 89.4862 26.3088Z" fill="#24245A"/>
<path d="M101.66 32.1084L101.364 30.5234C101.364 30.5234 97.0294 34.1504 91.2769 33.388L91.6565 35.3113C91.6565 35.3113 98.7091 35.9541 101.66 32.1084Z" fill="#FFC52A"/>
<path opacity="0.34" d="M99.2749 31.8523C99.4441 31.764 99.6049 31.6762 99.7558 31.5908C99.9288 31.6786 100.102 31.7639 100.278 31.8443C100.65 32.0151 101.068 32.1467 101.4 32.4197C101.248 32.5919 101.088 32.7542 100.919 32.907C100.355 32.6028 99.8139 32.228 99.2749 31.8523Z" fill="white"/>
<path opacity="0.34" d="M96.7144 32.906C96.9836 32.8238 97.2449 32.7364 97.495 32.6445C98.1596 33.0523 98.8003 33.5128 99.4549 33.9362C99.238 34.0528 99.0159 34.1597 98.7906 34.2584C98.0844 33.845 97.3977 33.378 96.7144 32.906Z" fill="white"/>
<path opacity="0.34" d="M91.3502 33.7594L91.283 33.4185C92.2078 34.0247 93.114 34.6692 94.021 35.3123C93.9029 35.3199 93.7887 35.3255 93.6768 35.3308C92.8934 34.8232 92.1212 34.2926 91.3502 33.7594Z" fill="white"/>
<path opacity="0.34" d="M94.1968 33.4211C94.2921 33.4111 94.3876 33.4007 94.4817 33.3887C95.2534 33.8857 96.01 34.4119 96.7748 34.9171C96.6643 34.943 96.5544 34.9669 96.4447 34.9901C95.6886 34.4808 94.9432 33.9502 94.1968 33.4211Z" fill="white"/>
<path d="M99.062 25.125L98.7409 25.6385L98.2026 25.6155L98.5148 26.1367L98.3299 26.7371L98.8441 26.5457L99.2684 26.9399L99.2739 26.3007L99.7208 25.9435L99.2101 25.7398L99.062 25.125Z" fill="white"/>
<path d="M98.9526 29.4705L99.2958 29.9631L99.1484 30.5779L99.6494 30.3429L100.097 30.6992L100.063 30.0611L100.487 29.6666L99.9651 29.5073L99.7797 28.9072L99.4911 29.4466L98.9526 29.4705Z" fill="white"/>
<path d="M92.6682 26.9939L92.8948 27.5736L92.6206 28.1242L93.1556 28.0477L93.5119 28.527L93.6159 27.8999L94.1105 27.6457L93.6397 27.3345L93.5891 26.6982L93.1941 27.1331L92.6682 26.9939Z" fill="white"/>
<path d="M94.3921 31.707L94.8874 31.9584L94.9936 32.5853L95.3482 32.1039L95.8834 32.1778L95.6073 31.6287L95.8318 31.0477L95.3065 31.1897L94.91 30.7568L94.8616 31.3934L94.3921 31.707Z" fill="white"/>
<path d="M96.3183 27.8958L96.4766 28.5068L96.1421 29.0079L96.6808 29.0183L96.9791 29.5506L97.1538 28.9458L97.6727 28.7739L97.2419 28.3896L97.2642 27.751L96.8232 28.1184L96.3183 27.8958Z" fill="white"/>
<path d="M91.2922 31.2937L91.8101 31.1182L92.2257 31.5251L92.2451 30.8862L92.6997 30.5429L92.1937 30.3235L92.059 29.7046L91.7267 30.2078L91.189 30.1686L91.4897 30.6989L91.2922 31.2937Z" fill="white"/>
</g>
<mask id="mask3_173_2617" style="mask-type:luminance" maskUnits="userSpaceOnUse" x="84" y="15" width="34" height="55">
<path d="M84.5085 69.7822H117.623V15.0879L84.5085 15.0879V69.7822Z" fill="white"/>
</mask>
<g mask="url(#mask3_173_2617)">
<path d="M105.008 52.5811C105.319 54.3312 105.629 56.1514 105.275 57.8898C104.949 59.4942 104.082 60.8904 103.778 62.501C103.36 64.7126 104.05 66.9771 104.613 69.1427C105.177 71.3083 105.603 73.7513 104.723 75.7629" stroke="#3C2C56" stroke-width="0.9533" stroke-miterlimit="10"/>
<mask id="mask4_173_2617" style="mask-type:luminance" maskUnits="userSpaceOnUse" x="96" y="34" width="20" height="23">
<path d="M96.7 40.9198C97.1447 39.8056 103.311 40.7964 103.311 40.7964C103.311 40.7964 106.054 34.163 106.973 34.2648C107.892 34.3664 109.115 41.6868 109.115 41.6868C109.115 41.6868 115.373 42.0828 115.482 43.8009C115.59 45.5189 110.195 48.5113 110.195 48.5113C110.195 48.5113 111.937 55.9306 110.468 56.3496C109.347 56.6691 106.793 53.8813 105.641 52.5378C105.872 53.3186 106.162 54.5117 105.758 54.4696C105.16 54.4072 104.83 53.0442 104.83 53.0442C104.83 53.0442 104.531 54.7505 104.134 54.3003C103.907 54.0438 104.126 53.0704 104.355 52.2804C102.836 53.2156 99.346 55.2563 98.8599 54.5688C98.236 53.6864 100.804 47.0706 100.804 47.0706C100.804 47.0706 96.2556 42.0339 96.7 40.9198Z" fill="white"/>
</mask>
<g mask="url(#mask4_173_2617)">
<path d="M96.7 40.9198C97.1447 39.8056 103.311 40.7964 103.311 40.7964C103.311 40.7964 106.054 34.163 106.973 34.2648C107.892 34.3664 109.115 41.6868 109.115 41.6868C109.115 41.6868 115.373 42.0828 115.482 43.8009C115.59 45.5189 110.195 48.5113 110.195 48.5113C110.195 48.5113 111.937 55.9306 110.468 56.3496C109.347 56.6691 106.793 53.8813 105.641 52.5378C105.872 53.3186 106.162 54.5117 105.758 54.4696C105.16 54.4072 104.83 53.0442 104.83 53.0442C104.83 53.0442 104.531 54.7505 104.134 54.3003C103.907 54.0438 104.126 53.0704 104.355 52.2804C102.836 53.2156 99.346 55.2563 98.8599 54.5688C98.236 53.6864 100.804 47.0706 100.804 47.0706C100.804 47.0706 96.2556 42.0339 96.7 40.9198Z" fill="#FFC52A"/>
</g>
<mask id="mask5_173_2617" style="mask-type:luminance" maskUnits="userSpaceOnUse" x="96" y="34" width="20" height="23">
<path d="M96.7 40.9198C97.1447 39.8056 103.311 40.7964 103.311 40.7964C103.311 40.7964 106.054 34.163 106.973 34.2648C107.892 34.3664 109.115 41.6868 109.115 41.6868C109.115 41.6868 115.373 42.0828 115.482 43.8009C115.59 45.5189 110.195 48.5113 110.195 48.5113C110.195 48.5113 111.937 55.9306 110.468 56.3496C109.347 56.6691 106.793 53.8813 105.641 52.5378C105.872 53.3186 106.162 54.5117 105.758 54.4696C105.16 54.4072 104.83 53.0442 104.83 53.0442C104.83 53.0442 104.531 54.7505 104.134 54.3003C103.907 54.0438 104.126 53.0704 104.355 52.2804C102.836 53.2156 99.346 55.2563 98.8599 54.5688C98.236 53.6864 100.804 47.0706 100.804 47.0706C100.804 47.0706 96.2556 42.0339 96.7 40.9198Z" fill="white"/>
</mask>
<g mask="url(#mask5_173_2617)">
<path opacity="0.15" d="M98.8921 54.5995C100.336 54.0427 101.492 52.3282 102.696 51.1504C103.595 50.2721 105.154 49.884 105.96 51.0618C106.758 52.2277 107.426 53.505 108.862 53.2748C109.256 53.2118 109.675 52.69 109.658 52.2074C109.633 51.4919 109.517 50.8563 109.328 50.1805C109.171 49.6158 108.858 48.8396 108.988 48.2278C109.158 47.4263 110.068 47.282 110.713 46.9602C111.427 46.6039 112.239 46.1125 112.481 45.1662C112.736 44.1704 112.2 43.2043 111.422 42.8519C110.593 42.4762 109.693 42.7745 108.865 42.5036C108.114 42.2577 107.717 41.2578 107.518 40.4493C107.05 38.5442 107.121 36.4731 106.433 34.6547C106.647 34.3959 106.834 34.2489 106.976 34.2648C107.896 34.3664 109.118 41.6868 109.118 41.6868C109.118 41.6868 115.376 42.0828 115.485 43.8009C115.594 45.5189 110.198 48.5113 110.198 48.5113C110.198 48.5113 111.941 55.9306 110.471 56.3496C109.351 56.6691 106.796 53.8813 105.645 52.5378C105.876 53.3186 106.165 54.5117 105.761 54.4696C105.163 54.4072 104.833 53.0442 104.833 53.0442C104.833 53.0442 104.534 54.7505 104.137 54.3003C103.911 54.0439 104.129 53.0704 104.358 52.2805C102.865 53.2003 99.4678 55.1863 98.8921 54.5995Z" fill="#007649"/>
</g>
<mask id="mask6_173_2617" style="mask-type:luminance" maskUnits="userSpaceOnUse" x="96" y="34" width="20" height="23">
<path d="M96.7 40.9198C97.1447 39.8056 103.311 40.7964 103.311 40.7964C103.311 40.7964 106.054 34.163 106.973 34.2648C107.892 34.3664 109.115 41.6868 109.115 41.6868C109.115 41.6868 115.373 42.0828 115.482 43.8009C115.59 45.5189 110.195 48.5113 110.195 48.5113C110.195 48.5113 111.937 55.9306 110.468 56.3496C109.347 56.6691 106.793 53.8813 105.641 52.5378C105.872 53.3186 106.162 54.5117 105.758 54.4696C105.16 54.4072 104.83 53.0442 104.83 53.0442C104.83 53.0442 104.531 54.7505 104.134 54.3003C103.907 54.0438 104.126 53.0704 104.355 52.2804C102.836 53.2156 99.346 55.2563 98.8599 54.5688C98.236 53.6864 100.804 47.0706 100.804 47.0706C100.804 47.0706 96.2556 42.0339 96.7 40.9198Z" fill="white"/>
</mask>
<g mask="url(#mask6_173_2617)">
<path opacity="0.91" d="M112.832 38.1161C113.834 38.2035 114.362 37.7383 114.832 37.324C115.305 36.9077 115.752 36.5146 116.632 36.6919L116.662 36.4811C115.705 36.29 115.207 36.7278 114.725 37.1524C114.213 37.6032 113.684 38.0693 112.552 37.8629C112.04 37.7689 111.533 37.2033 110.996 36.6044C110.377 35.9151 109.738 35.2023 108.987 35.0772C108.331 34.9676 107.599 35.4128 106.894 35.8442C106.219 36.257 105.526 36.6828 104.915 36.5974C104.246 36.5014 103.62 35.8636 103.015 35.2471C102.413 34.6337 101.844 34.0546 101.244 33.9972C101.238 33.9966 101.232 33.9963 101.226 33.9957C100.091 33.8965 99.1152 34.7527 98.4017 35.3787C98.0164 35.7167 97.6836 36.0088 97.4407 36.0588L97.4714 36.2697C97.7566 36.2111 98.0886 35.9196 98.5089 35.5509C99.238 34.9114 100.144 34.1158 101.213 34.2092C101.218 34.2097 101.224 34.21 101.229 34.2106C101.771 34.2625 102.318 34.8198 102.897 35.4099C103.523 36.0473 104.17 36.7066 104.894 36.8099C105.551 36.9092 106.277 36.4625 106.976 36.0347C107.656 35.6186 108.357 35.1873 108.962 35.2895C109.656 35.4052 110.275 36.0945 110.872 36.7611C111.43 37.3832 111.957 37.9712 112.525 38.0749C112.632 38.0937 112.735 38.1075 112.832 38.1161Z" fill="white"/>
</g>
<mask id="mask7_173_2617" style="mask-type:luminance" maskUnits="userSpaceOnUse" x="96" y="34" width="20" height="23">
<path d="M96.7 40.9198C97.1447 39.8056 103.311 40.7964 103.311 40.7964C103.311 40.7964 106.054 34.163 106.973 34.2648C107.892 34.3664 109.115 41.6868 109.115 41.6868C109.115 41.6868 115.373 42.0828 115.482 43.8009C115.59 45.5189 110.195 48.5113 110.195 48.5113C110.195 48.5113 111.937 55.9306 110.468 56.3496C109.347 56.6691 106.793 53.8813 105.641 52.5378C105.872 53.3186 106.162 54.5117 105.758 54.4696C105.16 54.4072 104.83 53.0442 104.83 53.0442C104.83 53.0442 104.531 54.7505 104.134 54.3003C103.907 54.0438 104.126 53.0704 104.355 52.2804C102.836 53.2156 99.346 55.2563 98.8599 54.5688C98.236 53.6864 100.804 47.0706 100.804 47.0706C100.804 47.0706 96.2556 42.0339 96.7 40.9198Z" fill="white"/>
</mask>
<g mask="url(#mask7_173_2617)">
<path opacity="0.91" d="M112.678 40.6657C113.68 40.7531 114.207 40.2882 114.678 39.8737C115.151 39.4576 115.598 39.0645 116.477 39.2415L116.507 39.0307C115.551 38.8399 115.053 39.2774 114.57 39.702C114.059 40.1531 113.53 40.6183 112.398 40.4125C111.886 40.3189 111.378 39.7529 110.841 39.154C110.223 38.4648 109.584 37.7522 108.833 37.6268C108.176 37.517 107.444 37.9625 106.739 38.3938C106.064 38.8069 105.365 39.2333 104.761 39.147C104.092 39.051 103.466 38.4135 102.86 37.7967C102.258 37.1834 101.689 36.6042 101.089 36.5465C101.084 36.5459 101.078 36.5456 101.072 36.545C99.9366 36.4458 98.9609 37.302 98.2474 37.928C97.8621 38.266 97.5293 38.5581 97.2864 38.6082L97.3171 38.819C97.6023 38.7604 97.9343 38.4689 98.3546 38.1002C99.0839 37.4607 99.9902 36.6654 101.058 36.7585C101.064 36.7591 101.069 36.7594 101.075 36.76C101.617 36.8118 102.164 37.3692 102.743 37.9592C103.369 38.5964 104.016 39.2559 104.739 39.3593C105.397 39.4603 106.123 39.0115 106.822 38.584C107.502 38.168 108.208 37.7346 108.808 37.8388C109.502 37.9548 110.12 38.6438 110.718 39.3101C111.276 39.9326 111.803 40.5202 112.371 40.6239C112.478 40.6433 112.58 40.6572 112.678 40.6657Z" fill="white"/>
</g>
<mask id="mask8_173_2617" style="mask-type:luminance" maskUnits="userSpaceOnUse" x="96" y="34" width="20" height="23">
<path d="M96.7 40.9198C97.1447 39.8056 103.311 40.7964 103.311 40.7964C103.311 40.7964 106.054 34.163 106.973 34.2648C107.892 34.3664 109.115 41.6868 109.115 41.6868C109.115 41.6868 115.373 42.0828 115.482 43.8009C115.59 45.5189 110.195 48.5113 110.195 48.5113C110.195 48.5113 111.937 55.9306 110.468 56.3496C109.347 56.6691 106.793 53.8813 105.641 52.5378C105.872 53.3186 106.162 54.5117 105.758 54.4696C105.16 54.4072 104.83 53.0442 104.83 53.0442C104.83 53.0442 104.531 54.7505 104.134 54.3003C103.907 54.0438 104.126 53.0704 104.355 52.2804C102.836 53.2156 99.346 55.2563 98.8599 54.5688C98.236 53.6864 100.804 47.0706 100.804 47.0706C100.804 47.0706 96.2556 42.0339 96.7 40.9198Z" fill="white"/>
</mask>
<g mask="url(#mask8_173_2617)">
<g opacity="0.91">
<path d="M112.517 43.2144C113.519 43.3018 114.047 42.8369 114.518 42.4223C114.99 42.006 115.437 41.6115 116.317 41.7902L116.347 41.5794C115.39 41.3883 114.892 41.8264 114.41 42.251C113.898 42.7018 113.37 43.1679 112.238 42.9615C111.725 42.8675 111.218 42.3019 110.681 41.703C110.063 41.0137 109.424 40.3009 108.672 40.1758C108.008 40.0651 107.284 40.5117 106.579 40.9428C105.904 41.3556 105.204 41.7816 104.601 41.6963C103.932 41.6003 103.306 40.9625 102.7 40.346C102.098 39.7326 101.529 39.1532 100.929 39.0958C100.923 39.0952 100.917 39.0949 100.911 39.0943C99.7762 38.9954 98.8005 39.8513 98.0873 40.4773C97.7019 40.8153 97.3692 41.1074 97.1262 41.1574L97.157 41.3682C97.4421 41.3097 97.7741 41.0182 98.1945 40.6495C98.9235 40.0097 99.8298 39.2144 100.898 39.3078C100.904 39.3081 100.909 39.3086 100.915 39.3092C101.457 39.3611 102.004 39.9184 102.583 40.5085C103.209 41.1457 103.856 41.8052 104.579 41.9085C105.237 42.0081 105.962 41.5611 106.662 41.133C107.342 40.7172 108.046 40.2862 108.648 40.3878C109.342 40.5038 109.96 41.1928 110.558 41.8591C111.116 42.4812 111.643 43.0692 112.211 43.1729C112.317 43.192 112.42 43.2059 112.517 43.2144Z" fill="white"/>
</g>
</g>
<mask id="mask9_173_2617" style="mask-type:luminance" maskUnits="userSpaceOnUse" x="96" y="34" width="20" height="23">
<path d="M96.7 40.9198C97.1447 39.8056 103.311 40.7964 103.311 40.7964C103.311 40.7964 106.054 34.163 106.973 34.2648C107.892 34.3664 109.115 41.6868 109.115 41.6868C109.115 41.6868 115.373 42.0828 115.482 43.8009C115.59 45.5189 110.195 48.5113 110.195 48.5113C110.195 48.5113 111.937 55.9306 110.468 56.3496C109.347 56.6691 106.793 53.8813 105.641 52.5378C105.872 53.3186 106.162 54.5117 105.758 54.4696C105.16 54.4072 104.83 53.0442 104.83 53.0442C104.83 53.0442 104.531 54.7505 104.134 54.3003C103.907 54.0438 104.126 53.0704 104.355 52.2804C102.836 53.2156 99.346 55.2563 98.8599 54.5688C98.236 53.6864 100.804 47.0706 100.804 47.0706C100.804 47.0706 96.2556 42.0339 96.7 40.9198Z" fill="white"/>
</mask>
<g mask="url(#mask9_173_2617)">
<path opacity="0.91" d="M112.36 45.7638C113.361 45.8512 113.889 45.3863 114.36 44.9717C114.832 44.5554 115.279 44.1617 116.159 44.3395L116.189 44.1287C115.232 43.937 114.734 44.3758 114.252 44.8003C113.74 45.2511 113.212 45.7166 112.08 45.5108C111.567 45.4169 111.06 44.8513 110.523 44.2521C109.905 43.5628 109.266 42.8503 108.514 42.7248C107.85 42.615 107.126 43.0608 106.421 43.4919C105.746 43.9047 105.046 44.3301 104.443 44.2453C103.774 44.1493 103.148 43.5119 102.542 42.895C101.94 42.2817 101.371 41.7022 100.771 41.6451C100.765 41.6445 100.759 41.6439 100.753 41.6436C99.6182 41.5444 98.6425 42.4004 97.9293 43.0266C97.544 43.3647 97.2112 43.6564 96.9683 43.7065L96.999 43.9173C97.2841 43.8587 97.6162 43.5675 98.0365 43.1986C98.7656 42.5591 99.6718 41.7638 100.74 41.8571C100.746 41.8577 100.751 41.858 100.757 41.8586C101.299 41.9104 101.846 42.4678 102.425 43.0578C103.051 43.695 103.698 44.3543 104.421 44.4579C105.078 44.5589 105.805 44.1102 106.504 43.6824C107.184 43.2669 107.888 42.8347 108.49 42.9371C109.184 43.0531 109.802 43.7421 110.4 44.4084C110.958 45.0306 111.485 45.6186 112.053 45.7222C112.159 45.7414 112.262 45.7552 112.36 45.7638Z" fill="white"/>
</g>
<mask id="mask10_173_2617" style="mask-type:luminance" maskUnits="userSpaceOnUse" x="96" y="34" width="20" height="23">
<path d="M96.7 40.9198C97.1447 39.8056 103.311 40.7964 103.311 40.7964C103.311 40.7964 106.054 34.163 106.973 34.2648C107.892 34.3664 109.115 41.6868 109.115 41.6868C109.115 41.6868 115.373 42.0828 115.482 43.8009C115.59 45.5189 110.195 48.5113 110.195 48.5113C110.195 48.5113 111.937 55.9306 110.468 56.3496C109.347 56.6691 106.793 53.8813 105.641 52.5378C105.872 53.3186 106.162 54.5117 105.758 54.4696C105.16 54.4072 104.83 53.0442 104.83 53.0442C104.83 53.0442 104.531 54.7505 104.134 54.3003C103.907 54.0438 104.126 53.0704 104.355 52.2804C102.836 53.2156 99.346 55.2563 98.8599 54.5688C98.236 53.6864 100.804 47.0706 100.804 47.0706C100.804 47.0706 96.2556 42.0339 96.7 40.9198Z" fill="white"/>
</mask>
<g mask="url(#mask10_173_2617)">
<g opacity="0.91">
<path opacity="0.91" d="M112.198 48.3129C113.199 48.4003 113.727 47.9351 114.198 47.5208C114.67 47.1045 115.118 46.7114 115.997 46.8887L116.027 46.6778C115.07 46.4868 114.572 46.9246 114.09 47.3492C113.578 47.8 113.05 48.2661 111.918 48.0597C111.405 47.9657 110.898 47.4001 110.361 46.8012C109.742 46.1119 109.103 45.3994 108.352 45.274C107.696 45.1659 106.964 45.6096 106.259 46.041C105.584 46.4538 104.891 46.8775 104.281 46.7941C103.612 46.6982 102.985 46.0604 102.38 45.4438C101.778 44.8305 101.209 44.2514 100.609 44.1939C100.603 44.1934 100.597 44.1928 100.591 44.1925C99.4561 44.0932 98.4804 44.9495 97.767 45.5755C97.3816 45.9135 97.0488 46.2056 96.8059 46.2556L96.8367 46.4664C97.1218 46.4078 97.4538 46.1163 97.8742 45.7477C98.6032 45.1082 99.5097 44.3126 100.578 44.4059C100.583 44.4065 100.589 44.4068 100.594 44.4074C101.136 44.4592 101.683 45.0166 102.263 45.6067C102.888 46.2441 103.536 46.9034 104.259 47.0067C104.916 47.1066 105.642 46.6593 106.342 46.2315C107.021 45.8157 107.722 45.3823 108.327 45.4862C109.022 45.602 109.64 46.2912 110.238 46.9576C110.796 47.5797 111.323 48.1677 111.89 48.2714C111.997 48.2905 112.1 48.3043 112.198 48.3129Z" fill="white"/>
</g>
</g>
<mask id="mask11_173_2617" style="mask-type:luminance" maskUnits="userSpaceOnUse" x="96" y="34" width="20" height="23">
<path d="M96.7 40.9198C97.1447 39.8056 103.311 40.7964 103.311 40.7964C103.311 40.7964 106.054 34.163 106.973 34.2648C107.892 34.3664 109.115 41.6868 109.115 41.6868C109.115 41.6868 115.373 42.0828 115.482 43.8009C115.59 45.5189 110.195 48.5113 110.195 48.5113C110.195 48.5113 111.937 55.9306 110.468 56.3496C109.347 56.6691 106.793 53.8813 105.641 52.5378C105.872 53.3186 106.162 54.5117 105.758 54.4696C105.16 54.4072 104.83 53.0442 104.83 53.0442C104.83 53.0442 104.531 54.7505 104.134 54.3003C103.907 54.0438 104.126 53.0704 104.355 52.2804C102.836 53.2156 99.346 55.2563 98.8599 54.5688C98.236 53.6864 100.804 47.0706 100.804 47.0706C100.804 47.0706 96.2556 42.0339 96.7 40.9198Z" fill="white"/>
</mask>
<g mask="url(#mask11_173_2617)">
<g opacity="0.91">
<path opacity="0.91" d="M112.045 50.862C113.047 50.9494 113.575 50.4845 114.045 50.0699C114.518 49.6539 114.965 49.2605 115.844 49.4378L115.875 49.227C114.918 49.0353 114.42 49.4737 113.938 49.8983C113.426 50.3494 112.898 50.8149 111.765 50.6088C111.253 50.5151 110.745 49.9492 110.208 49.3503C109.59 48.661 108.951 47.9485 108.2 47.8231C107.541 47.7124 106.811 48.1587 106.107 48.5901C105.431 49.0032 104.732 49.4272 104.128 49.3433C103.459 49.2473 102.833 48.6098 102.228 47.993C101.626 47.3796 101.057 46.8005 100.457 46.7428C100.451 46.7422 100.445 46.7416 100.439 46.7413C99.304 46.6421 98.3283 47.4983 97.6149 48.1243C97.2295 48.4623 96.8967 48.7544 96.6538 48.8044L96.6846 49.0153C96.9697 48.9567 97.3017 48.6652 97.7221 48.2965C98.4511 47.657 99.3576 46.8614 100.426 46.9548C100.431 46.9554 100.437 46.9556 100.442 46.9562C100.984 47.0081 101.531 47.5654 102.111 48.1555C102.736 48.793 103.384 49.4522 104.107 49.5556C104.764 49.6571 105.49 49.2078 106.189 48.7803C106.869 48.3643 107.57 47.9323 108.175 48.0354C108.87 48.1511 109.488 48.8404 110.085 49.5067C110.643 50.1291 111.171 50.7168 111.738 50.8205C111.845 50.8396 111.948 50.8537 112.045 50.862Z" fill="white"/>
</g>
</g>
<mask id="mask12_173_2617" style="mask-type:luminance" maskUnits="userSpaceOnUse" x="96" y="34" width="20" height="23">
<path d="M96.7 40.9198C97.1447 39.8056 103.311 40.7964 103.311 40.7964C103.311 40.7964 106.054 34.163 106.973 34.2648C107.892 34.3664 109.115 41.6868 109.115 41.6868C109.115 41.6868 115.373 42.0828 115.482 43.8009C115.59 45.5189 110.195 48.5113 110.195 48.5113C110.195 48.5113 111.937 55.9306 110.468 56.3496C109.347 56.6691 106.793 53.8813 105.641 52.5378C105.872 53.3186 106.162 54.5117 105.758 54.4696C105.16 54.4072 104.83 53.0442 104.83 53.0442C104.83 53.0442 104.531 54.7505 104.134 54.3003C103.907 54.0438 104.126 53.0704 104.355 52.2804C102.836 53.2156 99.346 55.2563 98.8599 54.5688C98.236 53.6864 100.804 47.0706 100.804 47.0706C100.804 47.0706 96.2556 42.0339 96.7 40.9198Z" fill="white"/>
</mask>
<g mask="url(#mask12_173_2617)">
<g opacity="0.91">
<path opacity="0.91" d="M111.885 53.4122C112.887 53.4996 113.414 53.0347 113.885 52.6201C114.357 52.2038 114.804 51.809 115.684 51.988L115.714 51.7772C114.758 51.5864 114.26 52.0242 113.778 52.4488C113.266 52.8996 112.738 53.3648 111.605 53.1593C111.093 53.0653 110.585 52.4997 110.048 51.9005C109.43 51.2112 108.791 50.4987 108.04 50.3733C107.375 50.2629 106.651 50.7092 105.946 51.14C105.271 51.5531 104.572 51.9768 103.968 51.8935C103.299 51.7975 102.673 51.1597 102.067 50.5432C101.465 49.9298 100.896 49.3504 100.296 49.2933C99.1446 49.1864 98.1716 50.0456 97.4545 50.6748C97.0691 51.0128 96.7363 51.3049 96.4934 51.3549L96.5242 51.5657C96.8093 51.5072 97.1413 51.2157 97.5617 50.847C98.2907 50.2072 99.1969 49.4119 100.265 49.5053C100.271 49.5058 100.276 49.5064 100.282 49.5067C100.824 49.5585 101.371 50.1159 101.95 50.706C102.576 51.3431 103.223 52.0027 103.946 52.106C104.604 52.2062 105.33 51.7586 106.029 51.3305C106.709 50.915 107.413 50.4819 108.015 50.5853C108.709 50.7013 109.327 51.3903 109.925 52.0566C110.483 52.6787 111.01 53.2667 111.578 53.3704C111.685 53.3895 111.787 53.4036 111.885 53.4122Z" fill="white"/>
</g>
</g>
<mask id="mask13_173_2617" style="mask-type:luminance" maskUnits="userSpaceOnUse" x="96" y="34" width="20" height="23">
<path d="M96.7 40.9198C97.1447 39.8056 103.311 40.7964 103.311 40.7964C103.311 40.7964 106.054 34.163 106.973 34.2648C107.892 34.3664 109.115 41.6868 109.115 41.6868C109.115 41.6868 115.373 42.0828 115.482 43.8009C115.59 45.5189 110.195 48.5113 110.195 48.5113C110.195 48.5113 111.937 55.9306 110.468 56.3496C109.347 56.6691 106.793 53.8813 105.641 52.5378C105.872 53.3186 106.162 54.5117 105.758 54.4696C105.16 54.4072 104.83 53.0442 104.83 53.0442C104.83 53.0442 104.531 54.7505 104.134 54.3003C103.907 54.0438 104.126 53.0704 104.355 52.2804C102.836 53.2156 99.346 55.2563 98.8599 54.5688C98.236 53.6864 100.804 47.0706 100.804 47.0706C100.804 47.0706 96.2556 42.0339 96.7 40.9198Z" fill="white"/>
</mask>
<g mask="url(#mask13_173_2617)">
<g opacity="0.91">
<path opacity="0.91" d="M97.2968 53.2235C98.0139 52.5939 98.9874 51.7298 100.139 51.8419C100.739 51.8994 101.308 52.4788 101.91 53.0918C102.148 53.3345 102.389 53.58 102.635 53.7947C102.596 53.8491 102.562 53.9077 102.531 53.9696C102.28 53.7499 102.034 53.5005 101.792 53.2541C101.213 52.664 100.666 52.1066 100.124 52.0548L100.107 52.0534C99.0392 51.96 98.1328 52.7553 97.4037 53.3948C96.9834 53.7638 96.6513 54.055 96.3662 54.1135L96.3354 53.9027C96.5786 53.8533 96.9114 53.5615 97.2968 53.2235Z" fill="white"/>
</g>
</g>
<mask id="mask14_173_2617" style="mask-type:luminance" maskUnits="userSpaceOnUse" x="96" y="34" width="20" height="23">
<path d="M96.7 40.9198C97.1447 39.8056 103.311 40.7964 103.311 40.7964C103.311 40.7964 106.054 34.163 106.973 34.2648C107.892 34.3664 109.115 41.6868 109.115 41.6868C109.115 41.6868 115.373 42.0828 115.482 43.8009C115.59 45.5189 110.195 48.5113 110.195 48.5113C110.195 48.5113 111.937 55.9306 110.468 56.3496C109.347 56.6691 106.793 53.8813 105.641 52.5378C105.872 53.3186 106.162 54.5117 105.758 54.4696C105.16 54.4072 104.83 53.0442 104.83 53.0442C104.83 53.0442 104.531 54.7505 104.134 54.3003C103.907 54.0438 104.126 53.0704 104.355 52.2804C102.836 53.2156 99.346 55.2563 98.8599 54.5688C98.236 53.6864 100.804 47.0706 100.804 47.0706C100.804 47.0706 96.2556 42.0339 96.7 40.9198Z" fill="white"/>
</mask>
<g mask="url(#mask14_173_2617)">
<path opacity="0.44" d="M102.572 41.7611C102.207 41.578 101.832 41.4263 101.453 41.2847C101.263 41.2184 101.072 41.1531 100.88 41.0927C100.688 41.0362 100.494 40.9847 100.3 40.9343C100.105 40.8869 99.9112 40.8209 99.7156 40.7665C99.5201 40.7123 99.3211 40.6946 99.1213 40.7132C99.0206 40.7241 98.9233 40.7376 98.8198 40.7588C98.7153 40.7806 98.6039 40.8095 98.492 40.8566C98.3804 40.9016 98.267 40.972 98.1657 41.0603C98.0665 41.1543 97.9793 41.2732 97.9429 41.4142L98.0009 41.4961C98.2238 41.4823 98.3694 41.5503 98.5364 41.6103C98.6957 41.671 98.8819 41.7393 99.0732 41.7805C99.2618 41.8253 99.4511 41.8365 99.6432 41.8212C99.8355 41.8029 100.029 41.7832 100.221 41.7843C100.413 41.7861 100.606 41.7888 100.799 41.7967C100.992 41.7982 101.185 41.8044 101.379 41.812C101.768 41.8226 102.157 41.8477 102.552 41.8653L102.572 41.7611Z" fill="white"/>
</g>
<mask id="mask15_173_2617" style="mask-type:luminance" maskUnits="userSpaceOnUse" x="96" y="34" width="20" height="23">
<path d="M96.7 40.9198C97.1447 39.8056 103.311 40.7964 103.311 40.7964C103.311 40.7964 106.054 34.163 106.973 34.2648C107.892 34.3664 109.115 41.6868 109.115 41.6868C109.115 41.6868 115.373 42.0828 115.482 43.8009C115.59 45.5189 110.195 48.5113 110.195 48.5113C110.195 48.5113 111.937 55.9306 110.468 56.3496C109.347 56.6691 106.793 53.8813 105.641 52.5378C105.872 53.3186 106.162 54.5117 105.758 54.4696C105.16 54.4072 104.83 53.0442 104.83 53.0442C104.83 53.0442 104.531 54.7505 104.134 54.3003C103.907 54.0438 104.126 53.0704 104.355 52.2804C102.836 53.2156 99.346 55.2563 98.8599 54.5688C98.236 53.6864 100.804 47.0706 100.804 47.0706C100.804 47.0706 96.2556 42.0339 96.7 40.9198Z" fill="white"/>
</mask>
<g mask="url(#mask15_173_2617)">
<path opacity="0.44" d="M101.437 47.5161C101.205 47.8803 101.003 48.2696 100.815 48.6712C100.725 48.8735 100.637 49.0787 100.553 49.2866C100.474 49.4968 100.399 49.7094 100.327 49.9243C100.258 50.1402 100.176 50.353 100.103 50.5709C100.032 50.7894 99.9913 51.0173 99.9832 51.2508C99.9732 51.7181 100.021 52.1962 100.239 52.6668L100.329 52.6753C100.607 52.2563 100.75 51.8479 100.87 51.4363C100.929 51.2305 100.962 51.0211 100.973 50.8038C100.983 50.5865 100.993 50.3669 101.022 50.1519C101.052 49.9373 101.085 49.7224 101.122 49.508C101.156 49.2925 101.194 49.0769 101.236 48.8614C101.316 48.4289 101.415 47.9993 101.517 47.5635L101.437 47.5161Z" fill="white"/>
</g>
</g>
<mask id="mask16_173_2617" style="mask-type:luminance" maskUnits="userSpaceOnUse" x="84" y="15" width="34" height="55">
<path d="M84.5085 69.7822H117.623V15.0879L84.5085 15.0879V69.7822Z" fill="white"/>
</mask>
<g mask="url(#mask16_173_2617)">
<mask id="mask17_173_2617" style="mask-type:luminance" maskUnits="userSpaceOnUse" x="88" y="47" width="12" height="20">
<path d="M93.5284 47.381C96.6207 47.1513 99.3193 50.6004 99.5561 55.085C99.7568 58.8903 98.12 62.2172 95.7304 63.2787C95.7448 63.3237 95.7587 63.3705 95.7711 63.4241C95.7711 63.4241 97.2808 65.8023 96.6662 65.9245C96.0512 66.0467 95.421 64.7794 95.421 64.7794C95.421 64.7794 95.4956 66.5858 94.9976 66.2563C94.643 66.0217 94.7403 64.4476 94.8254 63.561C94.6805 63.5884 94.5343 63.6102 94.3857 63.6214C91.2933 63.851 88.5947 60.402 88.358 55.9174C88.121 51.4324 90.436 47.6106 93.5284 47.381Z" fill="white"/>
</mask>
<g mask="url(#mask17_173_2617)">
<path d="M93.5284 47.381C96.6207 47.1513 99.3193 50.6004 99.5561 55.085C99.7568 58.8903 98.12 62.2172 95.7304 63.2787C95.7448 63.3237 95.7587 63.3705 95.7711 63.4241C95.7711 63.4241 97.2808 65.8023 96.6662 65.9245C96.0512 66.0467 95.421 64.7794 95.421 64.7794C95.421 64.7794 95.4956 66.5858 94.9976 66.2563C94.643 66.0217 94.7403 64.4476 94.8254 63.561C94.6805 63.5884 94.5343 63.6102 94.3857 63.6214C91.2933 63.851 88.5947 60.402 88.358 55.9174C88.121 51.4324 90.436 47.6106 93.5284 47.381Z" fill="#4B3776"/>
</g>
<mask id="mask18_173_2617" style="mask-type:luminance" maskUnits="userSpaceOnUse" x="88" y="47" width="12" height="20">
<path d="M93.5284 47.381C96.6207 47.1513 99.3193 50.6004 99.5561 55.085C99.7568 58.8903 98.12 62.2172 95.7304 63.2787C95.7448 63.3237 95.7587 63.3705 95.7711 63.4241C95.7711 63.4241 97.2808 65.8023 96.6662 65.9245C96.0512 66.0467 95.421 64.7794 95.421 64.7794C95.421 64.7794 95.4956 66.5858 94.9976 66.2563C94.643 66.0217 94.7403 64.4476 94.8254 63.561C94.6805 63.5884 94.5343 63.6102 94.3857 63.6214C91.2933 63.851 88.5947 60.402 88.358 55.9174C88.121 51.4324 90.436 47.6106 93.5284 47.381Z" fill="white"/>
</mask>
<g mask="url(#mask18_173_2617)">
<path opacity="0.15" d="M90.853 62.1573C91.0218 62.2465 91.1967 62.3239 91.3806 62.3843C92.7965 62.8477 94.37 62.3127 95.4254 61.1279C97.4167 58.8928 97.4145 54.9909 96.6708 52.0954C96.1919 50.2304 95.2727 48.484 93.9948 47.377C96.8884 47.5047 99.3334 50.8272 99.5582 55.0857C99.759 58.891 98.1222 62.2179 95.7326 63.2794C95.747 63.3244 95.7608 63.3712 95.7733 63.4248C95.7733 63.4248 97.283 65.803 96.6683 65.9252C96.0534 66.0474 95.4231 64.7801 95.4231 64.7801C95.4231 64.7801 95.4978 66.5865 94.9998 66.257C94.6452 66.0224 94.7425 64.4483 94.8276 63.5617C94.6827 63.5891 94.5365 63.6109 94.3879 63.6221C93.0886 63.7181 91.8598 63.1634 90.853 62.1573Z" fill="#007649"/>
</g>
<mask id="mask19_173_2617" style="mask-type:luminance" maskUnits="userSpaceOnUse" x="88" y="47" width="12" height="20">
<path d="M93.5284 47.381C96.6207 47.1513 99.3193 50.6004 99.5561 55.085C99.7568 58.8903 98.12 62.2172 95.7304 63.2787C95.7448 63.3237 95.7587 63.3705 95.7711 63.4241C95.7711 63.4241 97.2808 65.8023 96.6662 65.9245C96.0512 66.0467 95.421 64.7794 95.421 64.7794C95.421 64.7794 95.4956 66.5858 94.9976 66.2563C94.643 66.0217 94.7403 64.4476 94.8254 63.561C94.6805 63.5884 94.5343 63.6102 94.3857 63.6214C91.2933 63.851 88.5947 60.402 88.358 55.9174C88.121 51.4324 90.436 47.6106 93.5284 47.381Z" fill="white"/>
</mask>
<g mask="url(#mask19_173_2617)">
<path opacity="0.44" d="M91.6625 48.4326C91.3186 48.9873 91.0096 49.5694 90.7134 50.1633C90.5694 50.4625 90.4285 50.7643 90.2905 51.069C90.1597 51.377 90.0319 51.6877 89.9076 52.0003C89.7858 52.3142 89.6453 52.6219 89.5148 52.9355C89.3878 53.2502 89.2989 53.5812 89.2533 53.9254C89.1699 54.6159 89.1565 55.3293 89.3694 56.0819L89.4917 56.1146C89.9545 55.5466 90.225 54.9486 90.4585 54.3388C90.5727 54.0335 90.6506 53.7172 90.697 53.3872C90.7426 53.0571 90.7851 52.7235 90.8531 52.3993C90.9211 52.0751 90.9925 51.7515 91.0677 51.4285C91.1384 51.1035 91.2126 50.7787 91.2905 50.4542C91.4404 49.8026 91.6094 49.1552 91.7747 48.4986L91.6625 48.4326Z" fill="white"/>
</g>
<mask id="mask20_173_2617" style="mask-type:luminance" maskUnits="userSpaceOnUse" x="88" y="47" width="12" height="20">
<path d="M93.5284 47.381C96.6207 47.1513 99.3193 50.6004 99.5561 55.085C99.7568 58.8903 98.12 62.2172 95.7304 63.2787C95.7448 63.3237 95.7587 63.3705 95.7711 63.4241C95.7711 63.4241 97.2808 65.8023 96.6662 65.9245C96.0512 66.0467 95.421 64.7794 95.421 64.7794C95.421 64.7794 95.4956 66.5858 94.9976 66.2563C94.643 66.0217 94.7403 64.4476 94.8254 63.561C94.6805 63.5884 94.5343 63.6102 94.3857 63.6214C91.2933 63.851 88.5947 60.402 88.358 55.9174C88.121 51.4324 90.436 47.6106 93.5284 47.381Z" fill="white"/>
</mask>
<g mask="url(#mask20_173_2617)">
<g opacity="0.47">
<path d="M94.1727 47.2892C94.8657 46.5013 94.925 45.7596 94.9781 45.098C95.0315 44.4337 95.0821 43.8057 95.7506 43.1782L95.6439 43.0181C94.9176 43.7015 94.861 44.4008 94.8067 45.0786C94.7488 45.7982 94.6895 46.5416 93.8421 47.3628C93.4582 47.7344 92.7952 47.7998 92.0934 47.869C91.2857 47.9488 90.4505 48.0312 89.8951 48.5836C89.41 49.0662 89.208 49.9677 89.0149 50.8372C88.8303 51.6696 88.6417 52.5255 88.2 52.9854C87.7147 53.4878 86.9328 53.607 86.1767 53.7224C85.4248 53.8373 84.7146 53.9456 84.2962 54.4144C84.2922 54.4188 84.2883 54.4235 84.2843 54.4279C83.4989 55.3207 83.387 56.6898 83.3051 57.6912C83.2609 58.2321 83.2227 58.6991 83.0972 58.9358L83.2428 59.0447C83.3902 58.7671 83.4282 58.301 83.4763 57.7112C83.5602 56.688 83.6642 55.4161 84.4032 54.576C84.4069 54.5719 84.4106 54.5675 84.4143 54.5631C84.792 54.1397 85.4752 54.0354 86.1987 53.925C86.9804 53.8058 87.7886 53.6821 88.3132 53.1391C88.7929 52.6492 88.9901 51.752 89.1815 50.889C89.3673 50.0505 89.5574 49.1845 90.0058 48.7402C90.5192 48.2294 91.3269 48.1499 92.1078 48.0727C92.8369 48.0009 93.5257 47.9329 93.9508 47.5209C94.0312 47.4432 94.1049 47.3661 94.1727 47.2892Z" fill="white"/>
</g>
</g>
<mask id="mask21_173_2617" style="mask-type:luminance" maskUnits="userSpaceOnUse" x="88" y="47" width="12" height="20">
<path d="M93.5284 47.381C96.6207 47.1513 99.3193 50.6004 99.5561 55.085C99.7568 58.8903 98.12 62.2172 95.7304 63.2787C95.7448 63.3237 95.7587 63.3705 95.7711 63.4241C95.7711 63.4241 97.2808 65.8023 96.6662 65.9245C96.0512 66.0467 95.421 64.7794 95.421 64.7794C95.421 64.7794 95.4956 66.5858 94.9976 66.2563C94.643 66.0217 94.7403 64.4476 94.8254 63.561C94.6805 63.5884 94.5343 63.6102 94.3857 63.6214C91.2933 63.851 88.5947 60.402 88.358 55.9174C88.121 51.4324 90.436 47.6106 93.5284 47.381Z" fill="white"/>
</mask>
<g mask="url(#mask21_173_2617)">
<g opacity="0.47">
<path d="M95.6026 49.0528C96.2957 48.2652 96.355 47.5235 96.4081 46.8619C96.4614 46.1976 96.5123 45.5696 97.1808 44.9424L97.0738 44.7822C96.3478 45.4656 96.2912 46.1649 96.2366 46.8427C96.1788 47.5623 96.1195 48.3046 95.2721 49.1267C94.8882 49.4983 94.2251 49.5636 93.5234 49.6331C92.7157 49.7129 91.8804 49.7954 91.3251 50.3477C90.8397 50.83 90.6377 51.7319 90.4449 52.6011C90.26 53.4341 90.0677 54.2959 89.63 54.7493C89.1446 55.2513 88.3627 55.3709 87.6066 55.4863C86.8547 55.6011 86.1445 55.7098 85.7261 56.1785C85.7222 56.183 85.7182 56.1877 85.7142 56.1921C84.9289 57.0848 84.8169 58.454 84.7348 59.4554C84.6906 59.9962 84.6524 60.4632 84.5269 60.7L84.6725 60.8089C84.8199 60.5312 84.8579 60.0651 84.906 59.4754C84.9899 58.4522 85.0939 57.1802 85.8328 56.3402C85.8366 56.3358 85.8403 56.3316 85.8443 56.3272C86.2219 55.9038 86.9051 55.7996 87.6287 55.6892C88.4103 55.5696 89.2185 55.4463 89.7431 54.9033C90.2238 54.4142 90.4198 53.5159 90.6114 52.6535C90.7975 51.8146 90.9898 50.9428 91.4357 50.5044C91.9491 49.9938 92.7566 49.914 93.5375 49.8369C94.2668 49.7647 94.9557 49.6967 95.3807 49.2851C95.4609 49.2071 95.5348 49.1296 95.6026 49.0528Z" fill="white"/>
</g>
</g>
<mask id="mask22_173_2617" style="mask-type:luminance" maskUnits="userSpaceOnUse" x="88" y="47" width="12" height="20">
<path d="M93.5284 47.381C96.6207 47.1513 99.3193 50.6004 99.5561 55.085C99.7568 58.8903 98.12 62.2172 95.7304 63.2787C95.7448 63.3237 95.7587 63.3705 95.7711 63.4241C95.7711 63.4241 97.2808 65.8023 96.6662 65.9245C96.0512 66.0467 95.421 64.7794 95.421 64.7794C95.421 64.7794 95.4956 66.5858 94.9976 66.2563C94.643 66.0217 94.7403 64.4476 94.8254 63.561C94.6805 63.5884 94.5343 63.6102 94.3857 63.6214C91.2933 63.851 88.5947 60.402 88.358 55.9174C88.121 51.4324 90.436 47.6106 93.5284 47.381Z" fill="white"/>
</mask>
<g mask="url(#mask22_173_2617)">
<g opacity="0.47">
<path d="M97.0245 50.8165C97.7175 50.0288 97.7768 49.2871 97.8299 48.6255C97.8833 47.9613 97.9329 47.3326 98.6024 46.7061L98.4957 46.5459C97.7696 47.2293 97.7131 47.9289 97.6587 48.6064C97.6009 49.326 97.5418 50.0689 96.6939 50.8907C96.31 51.2622 95.647 51.3276 94.9452 51.3968C94.1375 51.4766 93.3023 51.559 92.7469 52.1114C92.2558 52.6002 92.0596 53.4959 91.8668 54.365C91.6819 55.1977 91.4893 56.0596 91.0518 56.5133C90.5665 57.0153 89.7846 57.1348 89.0285 57.2503C88.2766 57.3651 87.5664 57.4735 87.148 57.9422C87.144 57.9469 87.1398 57.9513 87.1359 57.956C86.3505 58.8488 86.2386 60.2179 86.1567 61.219C86.1125 61.7599 86.0743 62.2269 85.9487 62.4636L86.0944 62.5726C86.2418 62.2949 86.2798 61.8288 86.3279 61.239C86.4115 60.2159 86.5155 58.9439 87.2545 58.1039C87.2584 58.0994 87.2622 58.095 87.2661 58.0906C87.6438 57.6672 88.3272 57.563 89.0505 57.4526C89.832 57.333 90.6404 57.2099 91.1648 56.667C91.6447 56.177 91.8417 55.2799 92.033 54.4169C92.2191 53.5786 92.4117 52.7097 92.8574 52.2681C93.3708 51.7575 94.1782 51.6777 94.9594 51.6006C95.6884 51.5284 96.3773 51.4607 96.8026 51.0488C96.8828 50.9704 96.9567 50.8933 97.0245 50.8165Z" fill="white"/>
</g>
</g>
<mask id="mask23_173_2617" style="mask-type:luminance" maskUnits="userSpaceOnUse" x="88" y="47" width="12" height="20">
<path d="M93.5284 47.381C96.6207 47.1513 99.3193 50.6004 99.5561 55.085C99.7568 58.8903 98.12 62.2172 95.7304 63.2787C95.7448 63.3237 95.7587 63.3705 95.7711 63.4241C95.7711 63.4241 97.2808 65.8023 96.6662 65.9245C96.0512 66.0467 95.421 64.7794 95.421 64.7794C95.421 64.7794 95.4956 66.5858 94.9976 66.2563C94.643 66.0217 94.7403 64.4476 94.8254 63.561C94.6805 63.5884 94.5343 63.6102 94.3857 63.6214C91.2933 63.851 88.5947 60.402 88.358 55.9174C88.121 51.4324 90.436 47.6106 93.5284 47.381Z" fill="white"/>
</mask>
<g mask="url(#mask23_173_2617)">
<g opacity="0.47">
<path d="M98.4488 52.5801C99.1418 51.7925 99.2012 51.0508 99.2543 50.3892C99.3076 49.7249 99.3577 49.0969 100.027 48.4697L99.92 48.3096C99.1935 48.9927 99.1374 49.6926 99.083 50.3701C99.0252 51.0897 98.9659 51.8323 98.1182 52.6543C97.7344 53.0259 97.0713 53.0913 96.3696 53.1605C95.5619 53.2403 94.7266 53.3227 94.1712 53.8751C93.6807 54.3644 93.4839 55.2595 93.2911 56.1287C93.1062 56.9614 92.9134 57.8229 92.4762 58.277C91.9908 58.779 91.2089 58.8985 90.4528 59.0139C89.7009 59.1288 88.9905 59.2371 88.5721 59.7059C88.5681 59.7106 88.5639 59.715 88.5599 59.7197C87.7745 60.6125 87.6624 61.9816 87.5808 62.9827C87.5366 63.5236 87.4981 63.9903 87.3726 64.227L87.5182 64.3359C87.6656 64.0583 87.7036 63.5925 87.7517 63.0024C87.8353 61.9792 87.9396 60.7076 88.6783 59.8675C88.6823 59.8631 88.686 59.8587 88.69 59.8546C89.0676 59.4312 89.751 59.3269 90.4744 59.2165C91.256 59.097 92.0642 58.9739 92.5888 58.4309C93.0697 57.9422 93.2655 57.0435 93.4571 56.1808C93.6432 55.3426 93.8353 54.4728 94.2814 54.032C94.7948 53.5215 95.6023 53.4417 96.3835 53.3645C97.1125 53.2924 97.8014 53.2247 98.2267 52.8127C98.3073 52.7344 98.381 52.6573 98.4488 52.5801Z" fill="white"/>
</g>
</g>
<mask id="mask24_173_2617" style="mask-type:luminance" maskUnits="userSpaceOnUse" x="88" y="47" width="12" height="20">
<path d="M93.5284 47.381C96.6207 47.1513 99.3193 50.6004 99.5561 55.085C99.7568 58.8903 98.12 62.2172 95.7304 63.2787C95.7448 63.3237 95.7587 63.3705 95.7711 63.4241C95.7711 63.4241 97.2808 65.8023 96.6662 65.9245C96.0512 66.0467 95.421 64.7794 95.421 64.7794C95.421 64.7794 95.4956 66.5858 94.9976 66.2563C94.643 66.0217 94.7403 64.4476 94.8254 63.561C94.6805 63.5884 94.5343 63.6102 94.3857 63.6214C91.2933 63.851 88.5947 60.402 88.358 55.9174C88.121 51.4324 90.436 47.6106 93.5284 47.381Z" fill="white"/>
</mask>
<g mask="url(#mask24_173_2617)">
<g opacity="0.47">
<path d="M99.8707 54.3439C100.564 53.556 100.623 52.8143 100.676 52.1527C100.729 51.4884 100.78 50.8604 101.449 50.2329L101.342 50.0728C100.616 50.7561 100.559 51.4554 100.504 52.1332C100.447 52.8529 100.387 53.5963 99.5399 54.4175C99.156 54.7891 98.4929 54.8545 97.7912 54.9236C96.9835 55.0034 96.1482 55.0859 95.5929 55.6383C95.1085 56.1217 94.9055 57.0221 94.7127 57.8919C94.5281 58.7243 94.3385 59.5788 93.8978 60.0401C93.4124 60.5425 92.6305 60.6617 91.8744 60.7771C91.1225 60.8917 90.4123 61.0003 89.994 61.4691C89.99 61.4735 89.986 61.4782 89.9821 61.4826C89.1967 62.3753 89.0848 63.7445 89.0026 64.7459C88.9585 65.2868 88.9202 65.7538 88.7947 65.9902L88.9403 66.0991C89.0877 65.8215 89.1257 65.3554 89.1738 64.7656C89.2577 63.7424 89.3617 62.4704 90.1007 61.6304C90.1044 61.6263 90.1081 61.6219 90.1121 61.6175C90.4898 61.194 91.1729 61.0898 91.8965 60.9794C92.6782 60.8602 93.4864 60.7365 94.0109 60.1935C94.4911 59.7039 94.6879 58.8064 94.8795 57.9434C95.0656 57.1052 95.2544 56.2377 95.7038 55.7946C96.2172 55.2838 97.0249 55.2043 97.8058 55.1271C98.5349 55.055 99.2237 54.9873 99.6488 54.5753C99.7292 54.4979 99.8032 54.4207 99.8707 54.3439Z" fill="white"/>
</g>
</g>
<mask id="mask25_173_2617" style="mask-type:luminance" maskUnits="userSpaceOnUse" x="88" y="47" width="12" height="20">
<path d="M93.5284 47.381C96.6207 47.1513 99.3193 50.6004 99.5561 55.085C99.7568 58.8903 98.12 62.2172 95.7304 63.2787C95.7448 63.3237 95.7587 63.3705 95.7711 63.4241C95.7711 63.4241 97.2808 65.8023 96.6662 65.9245C96.0512 66.0467 95.421 64.7794 95.421 64.7794C95.421 64.7794 95.4956 66.5858 94.9976 66.2563C94.643 66.0217 94.7403 64.4476 94.8254 63.561C94.6805 63.5884 94.5343 63.6102 94.3857 63.6214C91.2933 63.851 88.5947 60.402 88.358 55.9174C88.121 51.4324 90.436 47.6106 93.5284 47.381Z" fill="white"/>
</mask>
<g mask="url(#mask25_173_2617)">
<g opacity="0.47">
<path d="M101.295 56.1075C101.989 55.3198 102.048 54.5781 102.101 53.9165C102.154 53.2523 102.205 52.6242 102.874 51.9971L102.767 51.8369C102.04 52.52 101.984 53.2196 101.929 53.8974C101.872 54.617 101.813 55.3596 100.965 56.1814C100.581 56.553 99.918 56.6183 99.2162 56.6878C98.4085 56.7676 97.5733 56.85 97.0179 57.4024C96.5301 57.8868 96.3306 58.7866 96.1377 59.6561C95.9529 60.489 95.7593 61.3491 95.3228 61.8043C94.8375 62.3063 94.0556 62.4259 93.2995 62.5413C92.5476 62.6561 91.8374 62.7648 91.419 63.2335C91.415 63.2379 91.4111 63.2426 91.4071 63.247C90.6217 64.1398 90.5098 65.5089 90.4279 66.5103C90.3837 67.0512 90.3455 67.5182 90.22 67.7546L90.3656 67.8636C90.513 67.5859 90.551 67.1198 90.5991 66.5301C90.683 65.5069 90.787 64.2349 91.526 63.3949C91.5297 63.3904 91.5334 63.3863 91.5374 63.3819C91.9151 62.9585 92.5982 62.8543 93.3218 62.7439C94.1034 62.6243 94.9117 62.5009 95.4362 61.958C95.9171 61.4695 96.1129 60.5706 96.3045 59.7082C96.4904 58.8696 96.6802 58.0034 97.1288 57.5591C97.6422 57.0485 98.4497 56.9687 99.2306 56.8916C99.9599 56.8197 100.649 56.7514 101.074 56.3398C101.154 56.2618 101.228 56.1843 101.295 56.1075Z" fill="white"/>
</g>
</g>
</g>
</svg>
