<svg width="74" height="53" viewBox="0 0 74 53" fill="none" xmlns="http://www.w3.org/2000/svg">
<mask id="mask0_155_2869" style="mask-type:luminance" maskUnits="userSpaceOnUse" x="21" y="0" width="83" height="70">
<path d="M21.981 69.7822L103.574 69.7822L103.574 -6.86646e-05L21.981 -6.86646e-05L21.981 69.7822Z" fill="white"/>
</mask>
<g mask="url(#mask0_155_2869)">
<path d="M70.6049 15.9419C70.1022 17.018 69.7575 18.2812 70.0072 19.4757C70.199 20.3941 70.7313 21.2294 70.6891 22.174C70.6417 23.2331 69.8858 24.049 69.1148 24.5854C68.3438 25.1216 67.4753 25.5315 66.8974 26.34C66.3195 27.1488 66.1939 28.5551 66.9254 29.1643C66.7259 28.7306 66.7433 28.1682 66.9686 27.7527C67.1939 27.3373 67.6183 27.0858 68.0337 27.1214C67.5542 27.4115 67.3796 28.1414 67.4356 28.7765C67.4917 29.4116 67.7227 30.0049 67.8443 30.627C67.9659 31.2492 67.957 31.9694 67.5984 32.4458C67.1557 33.0341 66.3676 33.0273 65.8309 33.4922C65.0822 34.1406 65.1547 35.7217 65.9582 36.27C65.6887 35.9829 65.8544 35.3808 66.1956 35.2362C66.5368 35.0916 66.9279 35.3175 67.1448 35.6617C67.3617 36.0059 67.4411 36.4425 67.5009 36.8665C67.5607 37.2905 67.6091 37.7269 67.7778 38.1073C68.1647 38.9785 69.0652 39.3204 69.8885 39.4432C72.8479 39.8851 75.9604 38.4315 77.8716 35.7144C79.7831 32.9976 80.4325 29.1039 79.5372 25.7282C79.0799 24.0033 78.2411 22.3436 78.3315 20.5386C78.3865 19.4404 78.7853 18.4122 79.195 17.4252C79.8861 15.7605 81.1831 11.933 79.0799 10.7992C77.3165 9.84841 74.5512 11.4148 73.134 12.6159C72.1015 13.4909 71.2211 14.6231 70.6049 15.9419Z" fill="#363040"/>
<path d="M74.1073 33.6211C73.1472 33.8643 71.572 33.882 70.699 34.419L70.697 34.4049C69.6732 34.8998 67.9158 38.6386 66.3736 42.3666C64.8656 46.0759 63.3284 50.3076 63.3284 50.3076L61.8318 52.3133L60.8072 53.499L52.6187 60.5709L54.1832 64.5102L62.8857 56.9561L64.117 55.9482C64.117 55.9482 65.9086 54.4677 67.1513 52.7411L70.2268 47.483C70.2089 47.4527 70.1888 47.4244 70.1705 47.3944L72.0502 44.0658L71.8502 42.6395C73.1457 40.5702 74.5088 38.2782 74.8011 36.1C74.9165 35.2443 74.2783 34.4847 74.1073 33.6211Z" fill="#EBBEA3"/>
<path d="M60.822 36.5161C63.8739 41.3526 69.0227 59.9621 69.1351 60.3669C69.2478 60.7718 69.1351 67.023 69.1351 67.023C69.1351 67.023 66.8296 66.8458 65.9668 65.88C65.1037 64.9143 58.1169 47.87 58.1169 47.87L60.822 36.5161Z" fill="#601D54"/>
<path d="M73.1543 40.4295C73.8037 38.513 74.5694 35.8191 74.1086 33.6211C74.927 33.4233 75.7767 33.2316 76.6447 33.0296C79.4398 32.3795 80.8515 33.5419 80.8515 33.5419C80.8515 33.5419 80.5909 33.3031 85.7844 38.3708C85.7844 38.3708 87.4608 42.3631 84.835 43.9221C84.5985 44.5195 84.1354 45.5221 83.5669 46.7031C81.7458 50.487 77.9149 56.7959 77.9149 56.7959L70.6073 54.2902L70.3884 46.4113C71.5329 44.5723 72.4518 42.5029 73.1543 40.4295Z" fill="#EBBEA3"/>
<path d="M76.9946 57.7836L68.6132 56.2619L68.5048 46.1853C65.4819 42.9147 68.5653 39.1079 68.9242 38.6874C68.9353 38.6747 68.9467 38.6609 68.9579 38.6485C70.2294 37.2293 71.994 33.9752 71.994 33.9752L77.0995 32.9229L78.0594 33.4531L80.5282 33.2373L83.1737 35.8213C81.2488 39.5954 81.5796 45.6138 83.1737 47.4979L78.8428 58.1187L78.8425 58.1193L76.9946 57.7836Z" fill="#EBBEA3"/>
<path d="M74.0075 13.9386C73.3678 14.9474 72.8892 17.0941 72.6723 17.8718C72.4924 18.5163 72.703 19.3681 72.8485 19.9964C73.016 20.7202 72.7393 21.3709 72.4668 21.9989C71.6392 23.9051 72.4589 25.9998 72.9447 27.8615C73.1289 28.5667 73.2643 29.4179 73.6323 30.0245C73.976 30.591 74.5703 30.6793 75.1272 30.6584C76.7751 30.5969 79.3588 29.488 80.4819 28.5258C81.2906 27.833 81.7718 26.7568 82.2862 26.0407C82.2862 26.0407 82.8601 26.5577 83.9679 25.173C85.0756 23.7882 85.1103 21.8661 83.412 22.6591C83.412 22.6591 84.9041 21.2301 84.4656 17.1695C84.0274 13.1089 80.7412 11.357 78.2858 11.7633C75.8304 12.1699 74.6894 12.863 74.0075 13.9386Z" fill="#EBBEA3"/>
<path d="M74.3485 25.2065C74.3374 25.2327 74.219 25.2547 74.0207 25.1273C73.9719 25.0931 73.9178 25.0425 73.8721 24.9653C73.8247 24.884 73.8014 24.7892 73.7867 24.6988C73.7728 24.6049 73.7659 24.5039 73.7845 24.3829C73.7982 24.2578 73.8977 24.0646 74.056 24.0467C74.1262 24.0205 74.2088 24.0057 74.2649 23.956C74.2962 23.9354 74.3304 23.9198 74.3557 23.8847C74.3823 23.8526 74.4145 23.8299 74.4394 23.792C74.49 23.7178 74.5389 23.6365 74.5781 23.537C74.6183 23.4404 74.6548 23.3332 74.6835 23.2187C74.854 22.5465 74.8793 21.8525 74.9662 21.3676C75.0431 20.8755 75.1312 20.5767 75.1642 20.5846C75.1989 20.5929 75.2017 20.8973 75.2175 21.3914C75.2242 21.6393 75.2238 21.9343 75.2044 22.2662C75.1836 22.5977 75.1513 22.9672 75.052 23.3565C75.0183 23.4899 74.9734 23.6215 74.918 23.746C74.8647 23.8726 74.7927 23.9881 74.7116 24.0935C74.6721 24.1462 74.6193 24.1868 74.5739 24.2313C74.5297 24.2787 74.4744 24.3055 74.4217 24.334C74.3165 24.4035 74.2148 24.4065 74.119 24.4309C74.1036 24.433 74.0947 24.4221 74.0786 24.4709C74.0619 24.526 74.055 24.5987 74.0555 24.6641C74.0557 24.8048 74.0791 24.8667 74.1391 24.9474C74.259 25.0866 74.3649 25.1702 74.3485 25.2065Z" fill="#DD8777"/>
<path d="M76.7216 25.516C76.742 25.5283 76.6799 25.7494 76.4764 26.0312C76.2779 26.3118 75.9193 26.6416 75.4496 26.7835C74.9794 26.9216 74.5354 26.8383 74.2478 26.7123C73.956 26.5865 73.8074 26.4393 73.8166 26.4231C73.828 26.3981 73.994 26.5023 74.2803 26.5812C74.564 26.6619 74.9766 26.6984 75.3997 26.5583C75.8231 26.4208 76.1605 26.1458 76.3735 25.9126C76.5878 25.6788 76.6958 25.4974 76.7216 25.516Z" fill="#D17E7C"/>
<path d="M73.1305 21.3615C73.0943 21.595 73.0757 21.8409 73.1397 22.0655C73.2037 22.2905 73.3685 22.4889 73.568 22.5036C73.762 22.5181 73.9414 22.3573 74.0382 22.1574C74.135 21.9572 74.1648 21.7228 74.1908 21.494C74.2347 21.1086 74.1983 20.3374 73.7119 20.4219C73.6005 20.4414 73.499 20.5132 73.4191 20.6072C73.2464 20.8109 73.1737 21.0841 73.1305 21.3615Z" fill="#363040"/>
<path d="M73.4959 21.2629C73.3672 21.348 73.19 21.3112 73.0935 21.179C72.9969 21.0468 72.9912 20.8336 73.0803 20.6943C73.1158 20.9216 73.3026 21.1018 73.4974 21.0962C73.5056 21.1787 73.4877 21.1808 73.4959 21.2629Z" fill="#363040"/>
<path d="M59.6878 35.3657C56.9897 33.6235 54.0599 32.6613 51.14 32.275L51.6618 33.3294L50.3561 33.6968L49.4253 33.9595L47.861 35.0866C47.861 35.0866 46.5867 32.3518 46.5525 32.1187C42.3422 32.3736 38.4337 33.6712 35.6145 35.3766C32.5983 37.2013 37.2758 44.6418 37.2758 44.6418L40.0208 61.8041L39.157 72.2028C43.2963 74.8069 48.0806 74.2268 52.0301 73.9082C52.1668 73.8974 52.7678 72.4113 52.903 72.3969C53.3055 72.3536 53.5132 73.837 53.9013 73.7619C56.0813 73.342 58.0007 71.7211 59.5116 70.3002C60.0948 69.7519 59.1816 64.3704 59.1816 64.3704L59.9102 44.9074C62.5931 39.0883 61.3722 36.4534 59.6878 35.3657Z" fill="#601D54"/>
<path d="M39.3043 41.9658L37.2789 43.9215C37.2256 44.0616 37.1554 44.1912 37.074 44.3102C37.1988 44.5222 37.2742 44.6423 37.2742 44.6423L38.4795 52.1779C38.8688 48.7886 39.147 45.3816 39.3043 41.9658Z" fill="#3E1D4A"/>
<path d="M51.6965 33.2134C53.5531 36.7547 54.3338 40.8365 54.4968 44.8821C54.6596 48.928 53.8072 54.1322 53.3791 58.1563C51.9322 48.0137 49.6058 41.12 45.408 32.861C47.5718 32.974 50.5825 31.4671 51.6965 33.2134Z" fill="#F8F2E9"/>
<path d="M35.0793 35.8544C30.4651 41.2715 25.3292 58.4709 25.1669 60.3389C25.0044 62.2068 39.1559 72.2024 39.1559 72.2024L40.4743 67.0227L32.7537 59.205C32.7537 59.205 33.3346 58.0917 32.3192 58.3437C32.3192 58.3437 38.6457 44.8331 39.4018 43.0682C40.1579 41.303 36.5876 34.0839 35.0793 35.8544Z" fill="#601D54"/>
<path d="M43.4976 23.5596L45.9907 33.0276C45.9907 33.0276 50.3176 32.1917 51.0588 32.3778L51.0409 31.9826L43.4976 23.5596Z" fill="#EBBEA3"/>
<path d="M51.0432 31.9823L50.8836 28.4514L47.3565 26.0449L45.7205 26.4727C45.7205 26.4727 48.3178 32.3978 51.0432 31.9823Z" fill="#DF9B7E"/>
<path d="M52.542 10.9187C53.2167 12.0135 53.811 13.9082 53.9281 15.1669C54.0055 15.9987 53.6462 16.7645 53.6333 17.5816C53.6182 18.5329 54.05 19.0682 54.2614 19.9451C54.5095 20.9736 54.2964 21.9962 54.1343 23.0161C53.8974 24.5063 54.5636 26.2923 53.8877 27.6553C53.345 28.7491 52.1003 28.912 51.1347 28.8604C49.3652 28.7659 46.6034 27.5301 45.4085 26.4772C44.5482 25.719 44.0445 24.5545 43.5008 23.7766C43.5008 23.7766 42.878 24.3222 41.7047 22.8156C40.5315 21.3089 40.5178 19.2437 42.3325 20.1247C42.3325 20.1247 40.7471 18.5641 41.2677 14.2097C41.9109 8.82761 45.217 8.0073 47.9726 8.50873C50.6052 8.98719 51.8226 9.75157 52.542 10.9187Z" fill="#EBBEA3"/>
<path d="M41.4527 20.6528C41.111 21.4546 42.5867 23.2348 43.0711 23.1671C43.5555 23.0993 43.2004 22.5267 42.9557 22.3052C42.4113 21.8132 43.0567 21.9643 42.8286 21.4478C42.6003 20.9311 41.7021 20.0678 41.4527 20.6528Z" fill="#DF9B7E"/>
<path d="M52.234 32.0036C52.1878 31.693 51.5042 30.1086 50.9525 29.9688C50.9525 29.9688 51.093 31.2313 50.1091 31.4801C47.8366 32.0546 45.1881 29.9688 45.1881 29.9688C45.1881 29.9688 44.101 32.5716 44.3762 32.8881C44.6514 33.2044 47.3882 35.705 48.4517 34.8762C48.8391 34.5744 49.815 33.2035 50.1205 32.5707C50.8478 33.2738 51.457 34.2629 51.7818 33.9929C52.2739 33.5842 52.2804 32.3143 52.234 32.0036Z" fill="#CED2D6"/>
<path d="M52.1472 23.1881C52.1264 23.1616 52.1693 23.0685 52.2604 22.9249C52.3485 22.7803 52.4899 22.5854 52.6001 22.3274C52.6554 22.1985 52.6954 22.0568 52.7095 21.8981C52.7239 21.7421 52.7066 21.5751 52.6445 21.4412C52.5855 21.309 52.4721 21.2041 52.31 21.0964C52.1544 20.9919 51.9423 20.8652 51.7728 20.6559C51.4343 20.2404 51.3229 19.719 51.2715 19.2841C51.2219 18.8383 51.2375 18.4555 51.2355 18.1373C51.2445 17.5024 51.1688 17.1232 51.2083 17.1052C51.2455 17.0852 51.4048 17.4639 51.4807 18.1146C51.5254 18.4352 51.5512 18.8195 51.6214 19.2114C51.6939 19.6012 51.8209 20.0211 52.0639 20.3176C52.1825 20.4639 52.3346 20.5599 52.5142 20.6862C52.687 20.8064 52.886 20.9842 52.9845 21.2404C53.0822 21.4895 53.0837 21.7444 53.0517 21.9591C53.019 22.1746 52.944 22.3642 52.8602 22.5097C52.6902 22.8032 52.5053 22.967 52.3788 23.0724C52.25 23.176 52.1676 23.2143 52.1472 23.1881Z" fill="#DD8777"/>
<path d="M52.4154 24.2661C52.4322 24.3179 52.2523 24.4684 51.9141 24.5702C51.5789 24.6754 51.0828 24.7039 50.5667 24.5426C50.0503 24.3812 49.6336 24.075 49.3751 23.8082C49.115 23.5388 49.0041 23.3206 49.0284 23.2947C49.0587 23.2606 49.2173 23.4175 49.4925 23.6174C49.7657 23.8209 50.1709 24.0423 50.6431 24.1669C51.1163 24.2867 51.5548 24.2911 51.8734 24.2664C52.192 24.2411 52.3967 24.204 52.4154 24.2661Z" fill="#DD8777"/>
<path d="M49.1031 20.1121C49.1562 20.3735 49.2324 20.6382 49.386 20.8361C49.5396 21.034 49.7872 21.1494 49.9996 21.0555C50.2061 20.9645 50.3297 20.6998 50.352 20.4398C50.3743 20.1795 50.3143 19.9204 50.2525 19.6695C50.148 19.2464 49.811 18.4679 49.3401 18.8216C49.2324 18.9025 49.1549 19.0324 49.1088 19.1734C49.009 19.4787 49.0398 19.8014 49.1031 20.1121Z" fill="#2D3346"/>
<path d="M52.2022 19.5324C52.2253 19.8 52.2709 20.0745 52.4007 20.295C52.5305 20.5155 52.763 20.6692 52.9841 20.6103C53.199 20.5529 53.3513 20.3106 53.403 20.0562C53.4546 19.8021 53.4243 19.5356 53.3913 19.2771C53.3357 18.8414 53.0898 18.016 52.5831 18.2913C52.4672 18.3543 52.3759 18.4709 52.3143 18.6031C52.1806 18.8896 52.1746 19.2147 52.2022 19.5324Z" fill="#2D3346"/>
<path d="M50.9531 29.9688C50.9531 29.9688 51.0936 31.2313 50.1097 31.4801C47.8371 32.0546 45.1887 29.9688 45.1887 29.9688C45.1887 29.9688 44.979 30.4711 44.7671 31.0611C44.81 31.6262 44.9686 32.1791 45.2358 32.6496C45.6765 33.4252 46.4014 33.9652 47.1815 34.0992C47.0304 33.7744 46.8758 33.4367 46.8528 33.0666C46.8297 32.6964 46.9766 32.2842 47.2699 32.1559C47.3642 32.1146 47.4659 32.1049 47.5662 32.1011C48.1037 32.0796 48.6364 32.2053 49.1719 32.2613C49.7074 32.3172 50.2702 32.2966 50.7486 32.0057C51.2206 31.7189 51.5834 31.1112 51.5184 30.489C51.3343 30.2231 51.1367 30.0153 50.9531 29.9688Z" fill="#F8F2E9"/>
<path d="M46.875 18.5184C46.7839 18.3444 46.8668 18.1177 46.9653 17.9496C47.2698 17.4281 47.7281 17.0359 48.241 16.8572C48.7857 16.6676 49.3664 16.7162 49.9326 16.7668C50.0239 16.8572 50.0837 16.9267 50.1418 17.05C50.1999 17.1734 50.216 17.3348 50.1502 17.4525C50.0612 17.6121 49.8731 17.6277 49.712 17.6339C48.7147 17.6725 47.7636 17.9802 46.875 18.5184Z" fill="#2D3346"/>
<path d="M52.5194 16.2547C52.3614 16.2723 52.1973 16.2979 52.0636 16.3998C51.9301 16.5017 51.8365 16.7022 51.8864 16.8809C51.9224 17.0096 52.0241 17.1003 52.1328 17.1418C52.2415 17.1836 52.3581 17.1836 52.4723 17.1836C52.8003 17.1833 53.1281 17.183 53.4562 17.1827C53.585 17.1827 53.7237 17.1789 53.8274 17.0879C54.1912 16.769 53.7267 16.4004 53.4676 16.3018C53.1641 16.1861 52.8316 16.2199 52.5194 16.2547Z" fill="#2D3346"/>
<path d="M43.499 32.8613C43.499 32.8613 41.753 35.3014 42.1428 36.081C42.5324 36.8607 46.1561 38.895 46.1561 38.895C46.1561 38.895 44.7923 43.2247 45.0653 43.695C45.338 44.1652 52.1955 58.4511 52.9746 60.67C52.9746 60.67 44.3747 44.8883 44.3303 43.9258C44.2858 42.9633 45.4062 39.2645 45.4062 39.2645C45.4062 39.2645 41.5974 37.6513 41.3637 36.5162C41.1297 35.3814 43.499 32.8613 43.499 32.8613Z" fill="#3E1D4A"/>
<path d="M53.412 33.2861C53.412 33.2861 56.1729 34.9056 56.357 35.8551C56.5411 36.8044 54.5006 38.2969 54.5006 38.2969C54.5006 38.2969 57.0476 41.5001 57.1625 42.9561C57.2774 44.4121 53.0294 63.1945 52.9753 64.1773C52.9212 65.1602 52.9753 72.0032 52.9753 72.0032C52.9753 72.0032 52.3691 64.614 52.5224 63.8496C52.6758 63.0852 56.8513 44.2687 56.8171 43.0289C56.7828 41.7893 53.8413 37.943 53.8413 37.943C53.8413 37.943 55.9888 36.4767 55.958 36.0035C55.9275 35.5307 53.412 33.2861 53.412 33.2861Z" fill="#3E1D4A"/>
<path d="M42.3328 20.1251C42.3328 20.1251 43.3614 20.6969 43.8016 21.6632C44.2418 22.6296 45.0341 21.6632 45.0341 21.6632L43.7795 18.0328C43.7795 18.0328 44.7083 15.7865 44.0899 13.9583C44.0899 13.9583 44.5279 14.7418 44.616 16.3353C44.616 16.3353 45.0341 15.3428 44.4619 13.9583C44.4619 13.9583 47.4776 17.3276 50.5152 14.8201L46.424 13.8538C46.424 13.8538 52.0313 14.4023 53.6726 13.88C55.3138 13.3577 57.1188 11.2421 55.5118 8.86508L54.3748 11.0592C54.3748 11.0592 55.3332 7.87283 53.0783 5.73107C50.8234 3.58931 47.7196 5.60063 47.7196 5.60063L51.3735 8.10808C51.3735 8.10808 40.7903 5.78348 41.4045 11.399C41.4045 11.399 38.9367 12.078 38.8707 14.0369C38.8047 15.9958 40.5876 18.2368 40.5876 18.2368L41.7132 19.924C41.7132 19.924 42.0792 19.9619 42.3328 20.1251Z" fill="#2D3346"/>
<path d="M49.1175 33.0093C49.154 32.6604 49.4562 32.3577 49.7329 32.2323C50.0292 32.098 50.5287 32.2444 50.7044 32.5273C51.2072 32.0303 51.4042 31.6296 51.9069 31.1326C52.0948 30.9471 52.2853 30.7592 52.5072 30.6376C53.4313 30.1315 53.8601 31.268 53.9472 32.1746C53.9916 32.6372 54.0005 33.1777 53.8712 33.6244C53.6702 34.3193 52.9737 34.5861 52.402 34.523C51.865 34.4639 51.3684 34.1718 50.8863 33.885C50.7478 34.2271 50.419 34.5313 50.0994 34.544C49.7798 34.5566 49.4801 34.4097 49.2225 34.1353C48.7475 34.8767 48.1046 35.2933 47.3867 35.6416C46.882 35.8866 46.2547 36.1619 45.7028 36.0185C44.977 35.8298 44.977 34.8089 44.9023 34.0991C44.7576 32.7231 45.4085 31.8784 46.5765 32.0751C47.4105 32.2161 48.3689 32.5512 49.1175 33.0093Z" fill="#FFC52A"/>
<path d="M68.2833 36.4717C70.4692 37.7984 72.2532 40.0353 73.2492 42.6982C76.1711 40.396 79.6697 39.4111 83.1703 39.6678C84.3974 39.7579 85.7448 39.9782 86.7563 39.149C87.7037 41.0167 88.2883 42.9885 88.6176 45.1332C87.0277 46.1685 85.1483 46.495 83.3738 46.9393C83.3738 46.9393 81.4708 52.1003 81.0638 54.5144C80.6569 56.9285 84.6242 61.9181 85.251 74.9076C85.251 74.9076 70.1983 79.8804 63.6619 74.246C63.6619 74.246 68.0818 58.9171 68.2364 56.3487C68.391 53.7803 68.3119 46.4223 68.3119 46.4223C68.3119 46.4223 66.7816 43.994 67.3332 42.0761L66.2679 40.8889L68.2833 36.4717Z" fill="#C52A7A"/>
<path d="M75.3482 15.4404C74.8903 15.8889 74.5814 16.5087 74.2449 17.089C73.9087 17.6693 73.5134 18.2429 72.967 18.5185C72.4208 18.7941 71.6905 18.6704 71.3746 18.0742C71.0458 17.4535 71.2781 16.637 71.5773 15.9954C72.4109 14.2091 73.7285 12.7469 75.2864 11.8798C76.0092 11.4776 76.9437 11.2349 77.5457 11.8571C77.978 12.304 78.0797 13.0917 77.8939 13.7353C77.7336 14.2903 77.416 14.8521 76.912 14.9469C76.3117 15.06 75.8809 14.9184 75.3482 15.4404Z" fill="#363040"/>
<path d="M74.4593 19.1559C74.2219 18.855 73.9844 18.481 73.6464 18.4042C73.2558 18.3153 72.834 18.3011 72.4633 18.4981C72.401 18.7528 72.333 19.0431 72.5714 19.0885C72.835 19.1385 73.2017 19.0316 73.4869 19.0537C73.84 19.0808 74.1911 19.1459 74.5343 19.248C74.509 19.2183 74.4841 19.1877 74.4593 19.1559Z" fill="#363040"/>
</g>
<mask id="mask1_155_2869" style="mask-type:luminance" maskUnits="userSpaceOnUse" x="0" y="18" width="43" height="52">
<path d="M-0.000110626 69.7827H42.1208L42.1208 18.546L-0.000110626 18.546L-0.000110626 69.7827Z" fill="white"/>
</mask>
<g mask="url(#mask1_155_2869)">
<path d="M36.6946 23.2521C36.7028 23.2433 36.7115 23.2347 36.7202 23.2268C36.7656 23.1853 36.8261 23.1544 36.8954 23.1376C36.9919 23.1134 37.0894 23.1193 37.1636 23.127C37.1671 23.1261 37.1708 23.1255 37.1743 23.1255C37.1922 23.1243 37.2103 23.132 37.2234 23.147C37.2368 23.1611 37.2445 23.1803 37.245 23.2012C37.2609 23.6472 37.2132 24.1219 37.1033 24.6118C37.0502 24.8494 36.9815 25.0962 36.8939 25.3659C37.0527 25.0747 37.1979 24.7431 37.3234 24.3792C37.4693 23.9473 37.5616 23.5551 37.6056 23.18C37.6068 23.1667 37.6143 23.1517 37.6252 23.1402C37.6291 23.1361 37.6329 23.1332 37.6361 23.1308C37.6512 23.1199 37.6701 23.1164 37.6882 23.1214C37.7051 23.1264 37.72 23.1399 37.7291 23.1576C37.7339 23.167 37.7363 23.1747 37.7371 23.1823C37.7425 23.1926 37.7463 23.2056 37.747 23.2188C37.7587 23.4741 37.743 23.7391 37.7001 24.0065C37.6631 24.2385 37.6018 24.4829 37.5133 24.754C37.3738 25.1807 37.1869 25.5876 37.0075 25.9674C37.0996 25.8123 37.1688 25.6948 37.2306 25.5852C37.4209 25.2469 37.5937 24.893 37.744 24.5338C37.8954 24.1719 38.0311 23.7874 38.1475 23.3911L38.1574 23.356L38.1803 23.2765C38.1852 23.2586 38.1907 23.2442 38.2014 23.233L38.215 23.2232L38.2207 23.215C38.2259 23.2094 38.2297 23.2068 38.2339 23.2038C38.2502 23.1941 38.2656 23.1929 38.2865 23.1985C38.4768 23.2539 38.6582 23.3846 38.8252 23.5869C38.8962 23.672 38.9629 23.7733 39.0287 23.896C39.085 24.0015 39.1324 24.1166 39.1694 24.2376C39.2212 24.4075 39.2485 24.5933 39.2533 24.8053C39.2567 24.9613 39.2431 25.1283 39.2116 25.3152C39.157 25.6365 39.0458 25.9665 38.8709 26.324C38.7173 26.6388 38.5187 26.955 38.2641 27.2906C38.1029 27.5032 37.9237 27.7146 37.7311 27.919C37.6552 27.9994 37.576 28.0803 37.4954 28.1592C37.2336 28.4166 36.9497 28.6619 36.6514 28.8877C36.4246 29.0591 36.1991 29.2104 35.981 29.3373C35.802 29.4418 35.6358 29.5249 35.4725 29.5911C35.5035 29.6482 35.5254 29.7021 35.5398 29.7548C35.5596 29.8267 35.5648 29.8891 35.5559 29.9453C35.546 30.0069 35.5204 30.0601 35.4797 30.1034L35.471 30.1123C35.4147 30.1664 35.339 30.1873 35.2869 30.1982C35.235 30.2088 35.1814 30.2018 35.1229 30.1767C35.073 30.1555 35.0219 30.1214 34.9623 30.069C34.9112 30.0242 34.8601 29.9686 34.806 29.8991C34.7586 29.8378 34.7157 29.771 34.6787 29.7009C34.5928 29.5369 34.5559 29.3929 34.5658 29.2607C34.571 29.1918 34.5956 29.1232 34.6333 29.0726C34.642 29.0611 34.6509 29.0505 34.6601 29.0408C34.6735 29.0267 34.6874 29.014 34.7025 29.0028C34.7281 28.9849 34.7489 28.9734 34.7703 28.9657C34.8025 28.9542 34.8338 28.9522 34.8628 28.9519C34.903 28.951 34.944 28.9654 34.975 28.9781C35.0075 28.9086 35.0415 28.8391 35.0755 28.7696L35.1162 28.6863C35.2484 28.4163 35.3983 28.1101 35.5234 27.8039C35.6919 27.3931 35.8475 26.9467 35.9862 26.4765L35.9919 26.463C36.1616 25.8741 36.3006 25.2646 36.4063 24.6492C36.4299 24.5114 36.4569 24.3554 36.4738 24.2061C36.4825 24.1295 36.4889 24.053 36.4951 23.9764C36.4998 23.9199 36.5043 23.8675 36.5093 23.8154C36.5222 23.6793 36.5418 23.5716 36.5706 23.4759C36.584 23.4305 36.6033 23.3852 36.6284 23.3413C36.6465 23.3092 36.6681 23.2804 36.6946 23.2521Z" fill="#C52A7A"/>
<path d="M38.8279 23.5858C38.8991 23.6709 38.9656 23.7722 39.0311 23.8947C39.0877 23.9998 39.1351 24.1152 39.1723 24.2374C39.2239 24.4076 39.2517 24.5937 39.2567 24.806C39.2597 24.9623 39.2463 25.129 39.2147 25.316C39.1599 25.6393 39.0482 25.969 38.8735 26.3247C38.7214 26.6374 38.5229 26.9542 38.2671 27.2925C38.1043 27.5069 37.9249 27.7183 37.7338 27.9212C37.6574 28.0024 37.5777 28.0834 37.4981 28.1614C37.2378 28.4173 36.9539 28.6623 36.6539 28.8902C36.4261 29.0618 36.2 29.2132 35.9824 29.3389C35.8017 29.4446 35.6355 29.5276 35.4739 29.593C35.505 29.6457 35.5275 29.699 35.5424 29.7541C35.5625 29.8253 35.5677 29.8877 35.5586 29.9454C35.5491 30.0076 35.5231 30.0612 35.4819 30.1047L35.4732 30.1139C35.4171 30.1678 35.3407 30.1887 35.2878 30.1995C35.2362 30.2107 35.1821 30.2037 35.1231 30.1778C35.0727 30.1563 35.0218 30.1224 34.9623 30.0709C34.9449 30.0556 34.9275 30.0388 34.9099 30.0211C34.9821 30.0358 35.0561 30.0382 35.1278 30.0185C35.1496 30.0123 35.1722 30.004 35.1923 29.992C35.2117 29.9808 35.2305 29.9681 35.2466 29.951C35.2625 29.9348 35.2762 29.9169 35.2873 29.8957C35.2978 29.8766 35.3052 29.8559 35.3104 29.8339C35.3241 29.7779 35.3223 29.717 35.3109 29.6607C35.303 29.6227 35.2931 29.5851 35.2797 29.5491C35.2672 29.5156 35.2531 29.4832 35.238 29.4511C35.3878 29.3981 35.534 29.3295 35.6742 29.2479C35.8092 29.1696 35.9402 29.0821 36.0673 28.9873C36.2013 28.8872 36.3318 28.7803 36.4596 28.6693C36.5866 28.5592 36.711 28.4459 36.8323 28.3275C37.043 28.1217 37.245 27.9038 37.437 27.6741C37.6301 27.443 37.8142 27.2007 37.9849 26.946C38.0512 26.8473 38.116 26.7469 38.1758 26.6424C38.2284 26.5506 38.2787 26.4569 38.3249 26.3606C38.4227 26.1598 38.5078 25.9499 38.5763 25.7323C38.644 25.5174 38.6976 25.2948 38.7294 25.0683C38.7606 24.8463 38.773 24.6196 38.7586 24.3953C38.7443 24.1738 38.7058 23.9533 38.6366 23.7466C38.6016 23.6427 38.5601 23.5414 38.5115 23.4454C38.4743 23.3724 38.4333 23.302 38.3889 23.2349C38.5438 23.3017 38.6907 23.4198 38.8279 23.5858Z" fill="#96137B"/>
<path d="M38.5732 24.6612C38.5973 24.6497 38.6248 24.65 38.6486 24.6626C38.6717 24.675 38.6898 24.6977 38.6993 24.7253C38.7015 24.7351 38.7035 24.7451 38.7055 24.7542C38.7074 24.7751 38.7047 24.7954 38.6978 24.8149C38.6779 24.8905 38.6514 24.9641 38.6246 25.0369C38.596 25.1158 38.5655 25.1941 38.535 25.2718C38.4789 25.4132 38.4171 25.5516 38.3514 25.687C38.2164 25.9647 38.0635 26.2293 37.8992 26.4837C37.7367 26.7355 37.5615 26.9752 37.3821 27.2101C37.2928 27.3267 37.2012 27.4407 37.1089 27.554C37.0156 27.6689 36.9223 27.7837 36.826 27.8956C36.6052 28.1526 36.3717 28.3947 36.1257 28.6178C35.8751 28.8449 35.6091 29.0483 35.3349 29.2326C35.3208 29.2424 35.3034 29.2421 35.2927 29.225C35.2835 29.2106 35.2848 29.1843 35.2992 29.1749C35.6915 28.9108 36.0446 28.5719 36.3714 28.2042C36.3677 28.2083 36.3642 28.2124 36.3605 28.2165C36.53 28.024 36.6905 27.8217 36.8469 27.6144C36.9952 27.418 37.1404 27.2193 37.2828 27.017C37.5675 26.6118 37.8362 26.1875 38.0705 25.7385C38.1494 25.5842 38.2243 25.4273 38.294 25.2671C38.332 25.1811 38.3672 25.0937 38.4025 25.0062C38.4409 24.9108 38.4767 24.8134 38.5211 24.7212C38.5288 24.7056 38.537 24.6918 38.5474 24.6806C38.5541 24.6726 38.5628 24.6662 38.5732 24.6612Z" fill="#96137B"/>
<path d="M38.3734 24.0383C38.3886 24.025 38.4079 24.0191 38.427 24.0224C38.4459 24.0259 38.463 24.0383 38.4744 24.0565C38.4849 24.0733 38.4918 24.0992 38.4873 24.1201C38.4762 24.1763 38.4643 24.2314 38.4509 24.2868C38.4362 24.3456 38.4191 24.4031 38.4012 24.4605C38.364 24.5785 38.3211 24.6946 38.2742 24.8079C38.2273 24.9204 38.1762 25.0305 38.1226 25.1383C38.0652 25.2543 38.0045 25.3674 37.9402 25.4775C37.8791 25.5826 37.8173 25.688 37.7513 25.7893C37.6838 25.8935 37.6149 25.9969 37.5441 26.0987C37.4111 26.2895 37.2699 26.4727 37.1245 26.6499C37.1091 26.6685 37.0858 26.6747 37.0677 26.6567C37.0516 26.6414 37.0464 26.6084 37.0615 26.5893C37.2024 26.4144 37.3352 26.2301 37.4618 26.0402C37.5307 25.9368 37.597 25.8311 37.661 25.7233C37.726 25.6141 37.7891 25.5028 37.8486 25.3891C37.8459 25.3942 37.8434 25.3992 37.8404 25.4045C37.9494 25.1933 38.0523 24.9784 38.1397 24.7537C38.1824 24.6436 38.2221 24.5314 38.2576 24.4178C38.2903 24.3138 38.3164 24.2076 38.3437 24.1019C38.3442 24.0992 38.3449 24.0968 38.3454 24.0942C38.3501 24.0739 38.3558 24.0568 38.3687 24.0433C38.3697 24.0418 38.3715 24.04 38.3734 24.0383Z" fill="#96137B"/>
<path d="M36.8915 23.6876C36.8781 23.6888 36.8652 23.6956 36.8552 23.7059C36.8535 23.7076 36.852 23.7094 36.8505 23.7115C36.8396 23.7262 36.8356 23.7435 36.8356 23.7627C36.8359 23.8725 36.8319 23.9829 36.826 24.0928C36.8059 24.4219 36.7609 24.7485 36.6979 25.0694C36.6319 25.4045 36.5505 25.7351 36.4552 26.0599C36.4552 26.0593 36.4555 26.0587 36.4557 26.0584C36.4066 26.2236 36.353 26.387 36.2969 26.5487C36.2423 26.7056 36.1855 26.8608 36.1249 27.0148C36.0115 27.3045 35.8899 27.5898 35.7582 27.8678C35.752 27.8804 35.7577 27.8969 35.7681 27.9028C35.779 27.9096 35.7917 27.9034 35.7976 27.8913C35.9567 27.5565 36.1071 27.2159 36.2436 26.867C36.2922 26.7421 36.3401 26.617 36.386 26.4907C36.4324 26.3629 36.4758 26.2336 36.5187 26.1038C36.5612 25.9751 36.6026 25.8459 36.6406 25.7154C36.6786 25.5838 36.7163 25.4516 36.7488 25.3182C36.8121 25.0576 36.8662 24.7929 36.9021 24.5253C36.919 24.3963 36.9334 24.2668 36.9423 24.1366C36.951 24.0094 36.955 23.8816 36.9545 23.7536C36.9545 23.7153 36.9225 23.6855 36.8915 23.6876Z" fill="#96137B"/>
<path d="M19.7508 32.4844C19.7578 32.4632 19.7664 32.4505 19.7801 32.4405C19.7846 32.4373 19.7888 32.4349 19.7925 32.4334C19.7923 32.4264 19.7937 32.4175 19.7965 32.4087C19.7967 32.4081 19.797 32.4072 19.797 32.4072C19.8263 32.3728 19.8558 32.3386 19.8851 32.3042C20.2585 31.9252 20.6779 31.5631 21.164 31.2C21.6127 30.8644 22.1075 30.5369 22.6767 30.1986C23.141 29.923 23.6383 29.6507 24.2425 29.3406C24.7581 29.0762 25.2919 28.8136 25.8286 28.5595C27.0825 27.9659 28.2272 27.4977 29.329 27.1276C29.8781 26.9436 30.3819 26.7934 30.8697 26.6692C31.4221 26.5293 31.9313 26.4313 32.4273 26.3691C32.471 26.4996 32.5102 26.6324 32.543 26.7672C32.5422 26.7652 32.5417 26.7625 32.541 26.7608C32.5507 26.8017 32.5598 26.842 32.5683 26.8829C32.5725 27.2313 32.5539 27.594 32.5112 27.9821C32.4546 28.4962 32.3569 29.0338 32.2201 29.5803C32.1467 29.875 32.0613 30.1698 31.967 30.4563C31.8938 30.6783 31.8134 30.9003 31.7286 31.1155C31.5802 31.4924 31.4169 31.8463 31.2439 32.1675C31.2437 32.1758 31.2422 32.1843 31.2395 32.192C31.236 32.2023 31.2308 32.2114 31.2243 32.2197L31.2072 32.2403L31.1973 32.2524C31.1596 32.3201 31.1211 32.3878 31.0814 32.454C31.0375 32.5282 30.9921 32.6013 30.9452 32.6731C30.9218 32.7096 30.8826 32.7184 30.8526 32.6946C30.8459 32.6893 30.8397 32.6816 30.835 32.6734C30.4873 33.0703 30.1183 33.4575 29.7399 33.8244C29.2672 34.2831 28.7406 34.7507 28.1287 35.2545C27.018 36.1672 25.8646 37.0285 24.7003 37.8146C23.4899 38.6311 22.2638 39.3657 21.0558 39.9979C20.5369 40.2697 20.0096 40.5276 19.4841 40.7667C19.4099 40.7384 19.3369 40.7045 19.2654 40.6657C19.2193 40.6395 19.1734 40.6118 19.1297 40.58C19.1108 40.5665 19.0927 40.5523 19.0746 40.5382C18.9895 39.4794 18.9714 38.3788 19.0208 37.2631C19.0476 36.6519 19.0972 36.0359 19.1679 35.4317C19.2389 34.824 19.3334 34.2316 19.4488 33.6715C19.4888 33.4787 19.532 33.2876 19.5771 33.1024C19.5997 33.0088 19.6233 32.9157 19.6481 32.8227C19.6741 32.7255 19.7052 32.6281 19.7354 32.5338L19.7501 32.4882L19.7508 32.4844Z" fill="#341A4F"/>
<path d="M19.2619 40.6639L19.2595 40.6626L19.2619 40.6639Z" fill="#020202"/>
<path d="M19.2665 40.6653C19.2199 40.6394 19.174 40.6114 19.1303 40.5799C19.1109 40.5661 19.0918 40.5516 19.0727 40.5363C18.9871 39.4775 18.9695 38.3775 19.0191 37.2633C19.0459 36.653 19.0953 36.0367 19.1663 35.4319C19.2368 34.8248 19.3313 34.2327 19.4469 33.6709C19.4864 33.4812 19.5296 33.2902 19.575 33.102C19.5976 33.0084 19.6214 32.9153 19.6462 32.8217C19.6723 32.7257 19.7035 32.628 19.7335 32.5329L19.7482 32.4872L19.7494 32.484C19.7534 32.4722 19.7579 32.4628 19.7638 32.4551C19.7673 32.4478 19.7708 32.4422 19.7747 32.4375L19.7941 32.4133L19.7943 32.4124L19.7948 32.4113C19.8316 32.3677 19.8688 32.3244 19.906 32.2814C20.2745 31.9101 20.6869 31.555 21.1636 31.1987C21.6103 30.8643 22.1053 30.5368 22.6763 30.1974C23.1381 29.9235 23.6356 29.6506 24.2423 29.3391C24.7491 29.0797 25.2828 28.8167 25.8285 28.5582C27.0846 27.9643 28.2298 27.4959 29.3291 27.1264C29.8805 26.9417 30.3847 26.7919 30.8703 26.6685C31.4222 26.5281 31.9316 26.4297 32.4272 26.3682C32.4711 26.4992 32.5106 26.6326 32.5436 26.768C32.5428 26.766 32.5426 26.7636 32.5416 26.7615C32.552 26.8051 32.5617 26.8496 32.5706 26.894C32.5706 26.9002 32.5709 26.9064 32.5709 26.9132C31.911 27.0607 31.2515 27.2109 30.5956 27.379C30.2653 27.4638 29.936 27.553 29.608 27.649C29.2844 27.7438 28.9621 27.8451 28.6422 27.9567C28.0129 28.1763 27.3926 28.4304 26.7796 28.7075C26.1662 28.9843 25.5602 29.2828 24.9577 29.5914C24.6793 29.7342 24.4009 29.8782 24.1235 30.0233C23.8461 30.1685 23.5696 30.3151 23.2947 30.4668C22.7351 30.7756 22.1815 31.1013 21.647 31.469C21.241 31.7491 20.8452 32.0526 20.4738 32.3939C20.3467 32.5158 20.2224 32.6415 20.1033 32.7743C20.0857 32.8423 20.068 32.9106 20.0519 32.9795C19.974 33.3081 19.9107 33.642 19.8584 33.9777C19.8067 34.3054 19.7631 34.6352 19.7254 34.9658C19.6509 35.6207 19.6 36.279 19.5646 36.9389C19.4966 38.2108 19.4847 39.4861 19.4648 40.7598C19.3978 40.7318 19.3313 40.7006 19.2665 40.6653Z" fill="#4B3776"/>
<path d="M24.9701 40.4397C25.1542 39.9819 25.4034 39.5261 25.7314 39.047C26.0143 38.6345 26.3401 38.2376 26.7004 37.8663C27.0275 37.5292 27.3813 37.2236 27.7526 36.9571C28.1382 36.6803 28.5568 36.4359 28.9968 36.2319C29.4253 36.0334 29.8717 35.8789 30.3243 35.7726C30.7457 35.6739 31.1745 35.6192 31.5983 35.6097C32.0264 35.6003 32.4574 35.6409 32.8792 35.7302C32.8946 35.7334 32.9083 35.7449 32.9177 35.7623C32.9281 35.7826 32.9314 35.8067 32.9266 35.827L32.9239 35.8376C32.9457 35.8553 32.9582 35.8844 32.9579 35.913C32.9433 35.9477 32.9289 35.9828 32.9145 36.0178C32.4864 36.859 31.9547 37.6711 31.333 38.4319C30.6891 39.2207 29.9754 39.9171 29.2114 40.5027C28.4203 41.1084 27.6049 41.5648 26.7878 41.8583C26.4555 41.9785 26.1247 42.0692 25.8049 42.1286C25.5984 42.1672 25.4145 42.1861 25.2423 42.1866C25.0381 42.1872 24.8532 42.1572 24.6912 42.0968C24.6584 42.0845 24.6383 42.0491 24.6421 42.0112C24.6301 41.9973 24.6229 41.9773 24.6227 41.9558C24.6224 41.9187 24.6224 41.8822 24.6234 41.8451C24.6242 41.8192 24.6267 41.7933 24.6296 41.7671L24.6314 41.7491C24.6378 41.6831 24.6465 41.6166 24.6564 41.5512C24.6738 41.4346 24.6979 41.3133 24.7296 41.1797C24.7602 41.0545 24.7966 40.927 24.8383 40.8004C24.8768 40.6826 24.9202 40.5646 24.9701 40.4397Z" fill="#221A35"/>
<path d="M25.6245 41.3757C26.0181 41.2738 26.405 41.1352 26.7809 40.9632C27.1616 40.7889 27.532 40.5828 27.8899 40.3502C28.6229 39.8735 29.3055 39.2896 29.9323 38.6342C30.5567 37.9811 31.1297 37.2589 31.6433 36.4824C31.8279 36.2033 32.0051 35.9177 32.1746 35.625C32.4108 35.6444 32.6458 35.6786 32.8773 35.7284C32.8932 35.7319 32.9074 35.7437 32.9168 35.7619C32.9277 35.7825 32.9312 35.8076 32.926 35.8282L32.9235 35.8382C32.9443 35.8538 32.9567 35.8815 32.9577 35.9091C32.9394 35.9521 32.9215 35.9954 32.9041 36.039C32.4771 36.874 31.9488 37.6787 31.3316 38.4337C30.6877 39.2228 29.9738 39.9194 29.2102 40.5045C28.4192 41.1104 27.6035 41.5665 26.7859 41.8604C26.4524 41.9808 26.1213 42.0715 25.8027 42.1301C25.597 42.1689 25.4129 42.1881 25.2402 42.1884C25.0352 42.1887 24.8496 42.1586 24.6883 42.0989C24.655 42.0859 24.6344 42.0497 24.6382 42.0108C24.6265 41.9982 24.6191 41.9778 24.6191 41.9561C24.6186 41.9187 24.6183 41.8818 24.6196 41.8447C24.6201 41.8209 24.6228 41.7968 24.6253 41.7729L24.6277 41.7488C24.6344 41.6828 24.6426 41.6163 24.6526 41.5506C24.6531 41.5477 24.6533 41.5453 24.6536 41.5427C24.9796 41.515 25.3047 41.4584 25.6245 41.3757Z" fill="#341A4F"/>
<path d="M21.8194 35.2115C21.9132 34.9748 22.0271 34.7357 22.1668 34.4813C22.2919 34.2537 22.4356 34.0202 22.5936 33.7873C22.8678 33.3845 23.1822 32.9885 23.5537 32.5768C23.7304 32.3813 23.8937 32.2109 24.0522 32.056C24.2297 31.8837 24.42 31.7147 24.619 31.5543C25.0069 31.2407 25.4277 30.9624 25.8694 30.7284C26.3081 30.496 26.7625 30.3141 27.2203 30.1878C27.5866 30.0868 27.968 30.0205 28.3553 29.9908C28.808 29.9554 29.2067 29.9858 29.574 30.0838C29.5911 30.0809 29.6085 30.0862 29.6229 30.0991C30.0092 30.4516 30.3842 30.8818 30.7695 31.415C31.0767 31.8402 31.384 32.3236 31.7356 32.9367C31.9614 33.3309 32.2232 33.8008 32.4505 34.2996C32.5579 34.5343 32.6545 34.774 32.7376 35.0119C32.78 35.1338 32.8202 35.261 32.8574 35.3911C32.8981 35.5351 32.9339 35.682 32.9644 35.8086C32.9666 35.8183 32.9679 35.8254 32.9684 35.8322C32.9708 35.8437 32.9713 35.8557 32.9694 35.8675C32.9686 35.8719 32.9676 35.8763 32.9661 35.8805C32.9547 35.9155 32.9227 35.9361 32.8904 35.9288C32.7882 35.9073 32.683 35.8908 32.5773 35.8802C32.1696 35.8428 31.7306 35.879 31.1951 35.9938L31.205 35.9897C30.4785 36.1496 29.7618 36.4264 29.0814 36.8124L29.0968 36.8015C28.3883 37.2078 27.7198 37.7298 27.1111 38.3549L27.123 38.3399C26.4955 38.9889 25.9362 39.74 25.462 40.5747C25.1967 41.0444 24.9575 41.5434 24.7513 42.0575C24.7411 42.0831 24.7193 42.099 24.6962 42.1011L24.6741 42.0908C24.6572 42.0826 24.6408 42.0743 24.6245 42.0658C24.5984 42.0484 24.5726 42.0307 24.547 42.0119C24.5401 42.0063 24.5332 42.0004 24.5262 41.9948C24.1957 41.653 23.8708 41.2487 23.5386 40.7626C23.2306 40.3133 22.9281 39.8086 22.6142 39.2194C22.4237 38.8623 22.2333 38.481 22.0316 38.0534C21.9452 37.8712 21.846 37.6589 21.7557 37.4466C21.6574 37.2155 21.5698 36.9855 21.4973 36.7915C21.4894 36.7785 21.4852 36.7644 21.4859 36.7502C21.4914 36.4961 21.5239 36.2341 21.582 35.9732C21.614 35.8292 21.6557 35.6794 21.7055 35.5271C21.7393 35.4226 21.7777 35.3166 21.8194 35.2115Z" fill="#4B3776"/>
<path d="M28.2576 29.9965C28.2578 29.9959 28.2591 29.9953 28.2596 29.9953L28.3318 29.9888L28.3553 29.9871C28.808 29.9514 29.207 29.9818 29.5755 30.0795C29.5928 30.0769 29.6107 30.0828 29.6253 30.096C30.0105 30.4464 30.3854 30.8772 30.772 31.4124C31.0815 31.84 31.3884 32.3234 31.7381 32.9344C31.9621 33.3239 32.2224 33.7903 32.454 34.2977C32.5609 34.5314 32.6574 34.7711 32.7411 35.0099C32.7803 35.1227 32.8207 35.2502 32.8612 35.3889C32.9004 35.5287 32.9336 35.665 32.9671 35.8037C32.9701 35.8178 32.9713 35.8252 32.9716 35.8317C32.9741 35.842 32.9746 35.8547 32.9731 35.8682C32.9726 35.8729 32.9716 35.877 32.9701 35.882C32.9582 35.9186 32.9244 35.94 32.8897 35.9333C32.7875 35.9118 32.6825 35.8953 32.5775 35.8841C32.1701 35.847 31.7311 35.8832 31.1956 35.9978L31.2031 35.9863C30.7016 36.1035 30.2058 36.2713 29.7303 36.4865C29.7981 36.1462 29.8499 35.8181 29.8842 35.5113C29.9062 35.312 29.9206 35.1321 29.9283 34.961C29.936 34.7764 29.9375 34.5977 29.933 34.4296C29.9229 34.0709 29.8876 33.7203 29.8283 33.3875C29.7688 33.0554 29.6876 32.7318 29.5869 32.4262C29.4829 32.1117 29.3586 31.8055 29.2174 31.5167C29.0779 31.2305 28.9196 30.9496 28.7467 30.6816C28.596 30.4487 28.4318 30.2188 28.2583 29.9982L28.2576 29.9965Z" fill="#341A4F"/>
<path d="M24.4878 41.781C24.4885 41.7791 24.4887 41.7775 24.4889 41.7754C24.4885 41.7775 24.4883 41.7794 24.4878 41.781Z" fill="#FEFFFE"/>
<path d="M25.4926 34.2266L25.492 34.2268C25.4912 34.2274 25.4906 34.2277 25.49 34.228L25.4897 34.2283C25.4909 34.2277 25.4914 34.2271 25.4926 34.2266Z" fill="#D8BE6C"/>
<path d="M24.9614 40.4771L24.9604 40.4761L24.9614 40.4771Z" fill="#D8BE6C"/>
<path d="M24.9629 40.4775L24.9634 40.478L24.9624 40.4775H24.9629Z" fill="#D8BE6C"/>
<path d="M23.6069 29.6706C23.6891 28.5549 24.1509 27.0763 25.1524 26.6343C26.1884 26.1773 27.3098 26.7441 28.0681 27.3003C28.5495 27.6534 28.9937 28.0815 29.423 28.4955C29.7488 28.8096 30.0855 29.1344 30.4342 29.4212C31.3999 30.2168 32.3022 30.5495 33.1159 30.4105C33.9509 30.268 34.6549 29.6479 35.4234 28.9133L35.5651 29.1217C34.7703 29.8817 34.0397 30.5233 33.1481 30.6755C32.2759 30.8245 31.3195 30.4765 30.3054 29.6411C29.95 29.3485 29.6098 29.0205 29.2805 28.703C28.8567 28.2944 28.4182 27.8715 27.9492 27.5276C27.2338 27.0032 26.1817 26.4659 25.231 26.8849C24.3601 27.2688 23.9397 28.5332 23.8407 29.5457L23.6069 29.6706Z" fill="#C52A7A"/>
<path d="M16.0616 53.2716C16.282 49.7522 15.6586 43.5954 15.0705 41.5397C14.609 39.9264 13.5201 37.3724 13.9395 36.0286L15.4849 35.4609C16.4708 36.2886 16.7884 39.1258 17.1758 40.7665C17.6693 42.857 20.087 48.3545 21.9444 51.1107C23.6603 53.657 26.1204 64.1326 26.4852 65.7138C26.507 65.7574 26.5252 65.803 26.5378 65.851C26.7676 66.7314 25.3313 68.041 23.3303 68.7762C21.329 69.5115 19.5205 69.3937 19.2907 68.513C19.2781 68.4647 19.2714 68.4153 19.2686 68.3646C18.8165 66.8156 15.8581 56.5231 16.0616 53.2716Z" fill="#4B3776"/>
<path d="M15.9925 49.3648C15.8541 46.2753 15.4471 42.954 15.0446 41.5498C14.5821 39.9369 13.4828 37.3867 13.921 36.0361L15.5081 35.4531C16.5129 36.2737 16.8201 39.1151 17.2064 40.7557C17.5382 42.164 18.7544 45.1137 20.0892 47.7286L21.174 49.7488C21.174 49.7488 19.7646 54.8776 16.0635 51.4748L15.9925 49.3648Z" fill="#C52A7A"/>
<path d="M14.5982 40.0583C14.1287 38.6268 13.6342 37.007 13.9394 36.0286L15.4848 35.4609C16.1972 36.0592 16.5605 37.7066 16.8536 39.1939C16.3645 39.8222 15.3605 40.0457 14.5982 40.0583Z" fill="#7D2A7A"/>
<path d="M17.5247 53.1309C17.7932 54.1594 18.7133 54.7353 19.5803 54.4167C20.4473 54.0985 20.9324 53.0064 20.6639 51.9776C20.3957 50.9491 19.4753 50.3732 18.6083 50.6918C17.7415 51.0104 17.2562 52.1024 17.5247 53.1309Z" fill="#FCD949"/>
<path d="M17.6307 53.0911C17.3808 52.1339 17.8342 51.1139 18.6409 50.8177C19.4476 50.5215 20.3072 51.0592 20.5568 52.0164C20.8065 52.9736 20.3534 53.9936 19.5466 54.2898C18.7399 54.5863 17.8806 54.0483 17.6307 53.0911ZM17.7739 53.0387C17.9992 53.9023 18.7747 54.3875 19.5025 54.1199C20.2303 53.8525 20.639 52.9324 20.4139 52.0688C20.1886 51.2052 19.4131 50.7203 18.6853 50.9876C17.9573 51.255 17.5486 52.1751 17.7739 53.0387Z" fill="white"/>
<path d="M16.9627 38.5211C16.9627 38.5211 16.6123 34.4923 14.6897 35.4254C14.6897 35.4254 12.5872 35.6686 14.114 39.5676C14.114 39.5676 15.2284 39.6874 16.9627 38.5211Z" fill="#FCD949"/>
<path opacity="0.24" d="M22.1755 67.3639C24.6579 64.8437 24.0095 60.1009 23.2058 56.8282C22.2891 53.0953 20.4675 49.7428 19.2593 46.1421C20.1114 47.9791 21.0886 49.837 21.9467 51.1102C23.6626 53.6565 26.1227 64.1321 26.4875 65.7132C26.5093 65.7568 26.5275 65.8024 26.5401 65.8504C26.7699 66.7308 25.3336 68.0405 23.3326 68.7757C21.6646 69.3884 20.1313 69.4081 19.5335 68.8879C20.4712 68.7583 21.4075 68.1435 22.1755 67.3639Z" fill="#007649"/>
<path opacity="0.59" d="M15.6089 40.7866L16.1781 46.0603C16.262 46.9375 16.3543 47.8131 16.3972 48.6847L16.425 49.3348C16.4258 49.5515 16.4288 49.7538 16.426 49.9814C16.4196 50.4337 16.4231 50.8824 16.4377 51.3296C16.4727 52.2241 16.5317 53.1142 16.6149 54.0017C16.7084 54.8874 16.8124 55.7721 16.96 56.6484C17.0995 57.5258 17.2831 58.3947 17.5025 59.2501C17.7315 60.1001 17.9913 60.9484 18.376 61.7157C18.1129 60.8828 17.9343 60.0259 17.7874 59.1626C17.7467 58.9483 17.7127 58.7316 17.6804 58.5149C17.6476 58.2982 17.6117 58.0826 17.5859 57.8641L17.4985 57.2123L17.4216 56.5583C17.3308 55.6844 17.239 54.8111 17.1794 53.9334C17.1144 53.0568 17.0608 52.1785 17.0362 51.3017C17.0174 50.8635 17.0094 50.4254 17.0112 49.9914C17.0114 49.7759 17.0064 49.535 17.0027 49.3086C16.9896 49.0828 16.9811 48.8558 16.9615 48.6317C16.8841 47.736 16.7781 46.8533 16.6389 45.9779C16.369 44.226 16.032 42.4935 15.6089 40.7866Z" fill="white"/>
</g>
</svg>
