<svg width="160" height="52" viewBox="0 0 160 52" fill="none" xmlns="http://www.w3.org/2000/svg">
<path d="M83.8513 52.8849L82.9845 51.5659L81.4603 51.5695C81.2867 51.5699 81.1881 51.3608 81.2933 51.2155L82.2177 49.9405L81.7435 48.4166C81.6895 48.243 81.8481 48.0796 82.0119 48.1401L83.4501 48.6711L84.6813 47.7257C84.8215 47.618 85.0183 47.7262 85.0141 47.9088L84.9787 49.5119L86.2138 50.4515C86.3544 50.5585 86.3174 50.7888 86.151 50.8411L84.6908 51.3009L84.223 52.8271C84.1698 53.001 83.9501 53.0351 83.8513 52.8849Z" fill="#F47458"/>
<path d="M124.067 23.8378L124.871 21.8801L123.793 20.0739C123.671 19.8682 123.825 19.6037 124.055 19.6264L126.073 19.8254L127.373 18.1893C127.521 18.0029 127.808 18.0761 127.859 18.3131L128.302 20.3938L130.183 21.1889C130.397 21.2794 130.42 21.5891 130.221 21.7129L128.477 22.7998L128.34 24.9273C128.324 25.1695 128.051 25.2878 127.878 25.1273L126.356 23.7184L124.391 24.2382C124.167 24.2973 123.976 24.0607 124.067 23.8378Z" fill="#F7CC7F"/>
<path d="M136.877 27.9542L136.903 29.0884L135.173 29.3336L135.016 30.9968L133.75 31.403L133.945 32.0773L135.639 31.534L135.787 29.9579L137.587 29.7027L137.548 27.996L136.877 27.9542Z" fill="#466EB6"/>
<path d="M41.2641 16.3932C41.3585 15.6491 42.0347 15.1085 42.7414 15.2122C43.4768 15.32 43.9008 15.945 43.8311 16.7325C43.7473 17.5184 43.1818 18.0485 42.4061 17.9571C41.6186 17.8643 41.1623 17.1952 41.2641 16.3932ZM41.961 14.3544L42.3073 8.37878C42.336 7.88436 42.7524 7.51594 43.2203 7.57116L43.7856 7.63784C44.2528 7.69291 44.5813 8.14791 44.5063 8.63622L43.5985 14.5476L41.961 14.3544Z" fill="#F48C7F"/>
<path d="M37.5015 46.3944C37.5399 47.8766 37.9034 51.0572 41.0982 51.5828C43.0814 51.909 45.6213 50.0349 45.4578 48.6589C45.2943 47.283 44.931 43.7762 42.8602 42.9736C41.1299 42.3029 37.4156 43.0873 37.5015 46.3944Z" fill="#184655"/>
<path d="M48.5754 49.6694C48.5754 49.6694 46.7193 52.737 45.625 52.8476L49.4956 56.6152C49.4956 56.6152 52.1323 52.4562 52.4075 51.7427C52.4075 51.7427 50.0078 49.4941 48.5754 49.6694Z" fill="#F7CC7F"/>
<path d="M42.8125 51.0328C42.8125 51.0328 43.42 53.1446 43.4243 54.0031C43.4285 54.8617 43.754 56.03 45.4651 55.8532C47.1762 55.6763 45.7725 53.8647 45.5297 53.0493C45.2867 52.234 44.9954 49.6597 44.9954 49.6597L42.8125 51.0328Z" fill="#F7A491"/>
<path d="M45.1578 50.9495C45.0619 50.247 44.9954 49.6597 44.9954 49.6597L42.8125 51.0327C42.8125 51.0327 42.9368 51.4645 43.0733 52.017C44.0979 52.1203 44.7869 51.6503 45.1578 50.9495Z" fill="#F47458"/>
<path d="M41.1719 44.53C41.1719 44.53 40.2717 45.1912 40.0411 46.4373C39.8106 47.6833 40.5141 50.7576 43.0551 51.2417C45.5961 51.7258 46.4225 49.1412 45.7248 47.2664C45.0272 45.3916 43.6819 43.0678 41.1719 44.53Z" fill="#F7A491"/>
<path d="M45.7375 46.6518C45.74 47.1754 45.5071 47.6012 45.2171 47.6027C44.9272 47.6043 44.6901 47.1811 44.6875 46.6575C44.6849 46.1338 44.9179 45.7081 45.2078 45.7065C45.4978 45.705 45.7349 46.1283 45.7375 46.6518Z" fill="#F7A491"/>
<path d="M40.9571 49.1171C41.2914 49.5386 41.3428 50.0732 41.0719 50.3109C40.8011 50.5486 40.3105 50.3995 39.9762 49.978C39.6418 49.5564 39.5904 49.0219 39.8613 48.7842C40.1322 48.5464 40.6228 48.6954 40.9571 49.1171Z" fill="#F7A491"/>
<path d="M38.452 43.5937C38.5518 42.1577 39.5176 36.8173 36.4122 36.311C33.3067 35.8047 32.6437 39.3734 30.922 34.5696C29.3269 30.1194 24.5858 31.8424 24.3877 35.2219C23.9378 35.1817 23.4767 35.2506 23.0374 35.4453C21.5177 36.1191 20.8345 38.0347 21.5113 39.7242C21.6189 39.9928 21.5578 40.259 21.7156 40.4812C21.3515 41.9532 21.6028 43.6358 22.6829 45.3451C25.6331 50.0136 28.5922 45.0994 30.5871 45.3612C32.5821 45.6229 31.2818 47.2637 33.0098 48.5444C34.7379 49.825 36.129 49.4896 38.9419 45.9964L39.6363 45.0335C39.6363 45.0335 38.3523 45.0297 38.452 43.5937Z" fill="#184655"/>
<path d="M103.548 54.3806L98.7106 57.2268L94.8784 59.163C94.8784 59.163 93.9429 55.8168 94.2566 54.1766C94.3014 53.9423 94.5221 53.6647 94.6012 53.54C95.2332 52.543 93.8826 50.9938 93.8826 50.9938C93.8826 50.9938 93.069 50.7504 92.5159 52.1629C91.9628 53.5755 92.984 54.1747 92.984 54.1747C92.984 54.1747 91.819 58.4515 92.3069 61.5676C92.5626 63.2005 96.4429 62.0017 99.5343 60.5951C102.134 59.4124 104.047 58.0924 104.047 58.0924L103.548 54.3806Z" fill="#F7A491"/>
<path d="M117.96 41.3461C115.756 39.9258 113.008 40.1999 111.373 42.1083C110.026 41.5759 108.483 41.6172 107.234 42.2309C104.769 43.4417 102.588 46.6031 104.446 48.8982C104.051 51.9449 105.784 53.7169 107.942 53.9195C109.116 56.3966 113.276 56.651 115.67 54.6106C117.647 55.4146 119.996 55.0681 121.458 53.5672C121.809 53.207 122.323 52.63 122.441 52.5771C122.3 52.6519 127.951 51.8639 127.693 46.6232C127.43 41.2754 121.347 39.2228 117.96 41.3461Z" fill="#7464E4"/>
<path d="M108.297 50.679C108.297 50.679 108.236 51.1054 108.177 51.6529C108.104 52.3362 108.035 53.2082 108.097 53.6746C108.208 54.515 107.456 56.7298 105.759 56.8105C104.062 56.8913 105.723 54.3639 105.851 53.5304C105.98 52.6969 105.979 49.6597 105.979 49.6597L108.297 50.679Z" fill="#F7A491"/>
<path d="M105.951 50.9451C105.951 50.2439 105.938 49.6597 105.938 49.6597L108.256 50.6789C108.256 50.6789 108.193 51.1196 108.133 51.6803C107.145 51.9331 106.408 51.5756 105.951 50.9451Z" fill="#F47458"/>
<path d="M108.523 44.5062C108.523 44.5062 109.505 44.8719 110.014 45.9498C110.523 47.0276 110.616 50.0241 108.41 51.1402C106.203 52.2564 104.829 50.1129 105.017 48.2144C105.206 46.3158 105.879 43.8351 108.523 44.5062Z" fill="#F7A491"/>
<path d="M104.424 47.3846C104.547 47.8638 104.862 48.1913 105.128 48.1158C105.393 48.0404 105.508 47.5907 105.385 47.1115C105.262 46.6322 104.947 46.3047 104.682 46.3802C104.417 46.4556 104.301 46.9053 104.424 47.3846Z" fill="#F7A491"/>
<path d="M109.8 48.3177C109.596 48.7917 109.677 49.2938 109.981 49.4393C110.286 49.5847 110.699 49.3185 110.903 48.8445C111.108 48.3705 111.027 47.8683 110.722 47.7229C110.418 47.5774 110.005 47.8436 109.8 48.3177Z" fill="#F7A491"/>
<path d="M61.7951 71.6361C61.4577 70.6025 47.7251 28.5179 47.1252 26.6796C46.2067 23.865 43.2676 22.3522 40.5603 23.3008L20.0773 30.4773C17.37 31.4258 15.9199 34.4764 16.8383 37.291L31.5081 82.2475C32.4266 85.062 35.3657 86.5748 38.073 85.6263L58.5561 78.4499C61.2634 77.5012 62.7135 74.4506 61.7951 71.6361ZM56.8201 72.7706L36.1268 80.0207C34.5653 80.5678 32.8701 79.6953 32.3403 78.0719L18.7722 36.4915C18.2426 34.8682 19.0789 33.1087 20.6404 32.5616L41.3337 25.3115C42.8951 24.7644 44.5903 25.6369 45.1201 27.2603C48.4149 37.3574 58.3918 67.9323 58.6882 68.8407C59.2179 70.4641 58.3816 72.2236 56.8201 72.7706Z" fill="#355389"/>
<path d="M126.286 29.3036L103.268 23.8293C100.226 23.1058 97.2268 25 96.5692 28.06L86.0659 76.9368C85.4083 79.9969 87.3414 83.0641 90.3836 83.7877L113.401 89.2619C116.443 89.9855 119.442 88.0914 120.1 85.0313L130.603 36.1545C131.261 33.0944 129.328 30.0272 126.286 29.3036ZM118.701 80.7156C118.322 82.4805 116.592 83.573 114.837 83.1556L91.5837 77.6252C89.829 77.2079 88.7141 75.4389 89.0934 73.6739L98.808 28.4675C99.1872 26.7026 100.917 25.6101 102.672 26.0275L125.925 31.5579C127.68 31.9753 128.795 33.7443 128.416 35.5092L118.701 80.7156Z" fill="#86B1F2"/>
<path d="M111.562 54.9746C111.562 54.9746 119.127 53.042 120.813 52.7168C122.499 52.3916 128.351 50.1711 128.575 50.0771C128.8 49.9832 129.634 46.8166 129.964 47.0377C130.294 47.2587 129.457 48.6342 129.871 48.8123C130.284 48.9905 133.808 47.3305 133.832 47.6307C133.878 48.1923 131.712 48.7328 131.781 48.9908C131.849 49.2488 133.992 48.2087 134.254 48.5949C134.516 48.9811 132.138 49.3823 132.095 49.6C132.052 49.8178 134.379 49.5346 134.252 49.9989C134.184 50.251 132.177 50.1984 132.262 50.4915C132.347 50.7844 133.875 51.073 133.769 51.3556C133.663 51.6382 132.52 50.9344 131.73 51.1454C130.941 51.3565 130.267 51.0843 129.104 51.8024C127.942 52.5205 124.127 55.5489 121.414 56.1746C118.701 56.8003 112.71 58.1997 112.71 58.1997L111.562 54.9746Z" fill="#F7A491"/>
<path d="M91.0746 53.97L91.5353 53.3574C91.5353 53.3574 91.8214 52.8905 92.252 52.8448C92.6828 52.7992 92.6697 52.2308 92.2134 52.3118C91.7572 52.3929 91.4705 52.5072 91.4705 52.5072C91.4705 52.5072 92.3769 52.0171 92.393 51.9536C92.4832 51.5966 91.9827 51.4579 91.3126 51.9811C90.6424 52.5045 91.0746 53.97 91.0746 53.97Z" fill="#F7A491"/>
<path d="M92.8467 51.5952C92.8467 51.5952 93.921 50.6868 94.0921 51.0733C94.263 51.4599 94.1886 52.2954 94.028 52.2364C93.8674 52.1774 93.8892 51.5818 93.4274 51.7371C93.2988 51.7805 92.6592 51.9928 92.8467 51.5952Z" fill="#F7A491"/>
<path d="M111.783 20.672L73.1794 12.012C71.0101 11.5254 69.6265 9.28092 70.0891 6.99869L70.8297 3.34486C71.2923 1.06271 73.4259 -0.392845 75.5952 0.0937593L114.199 8.75366C116.368 9.24034 117.751 11.4849 117.289 13.767L116.548 17.4208C116.086 19.7031 113.952 21.1587 111.783 20.672Z" fill="#96D9C9"/>
<path d="M104.688 17.761L108.242 22.8698L109.382 19.0897L104.688 17.761Z" fill="#96D9C9"/>
<path d="M82.3326 6.056C82.1468 6.9729 81.2013 7.53788 80.2207 7.31785C79.2403 7.0979 78.5961 6.17635 78.7819 5.25945C78.9677 4.34262 79.9132 3.77756 80.8938 3.99759C81.8743 4.21746 82.5184 5.13909 82.3326 6.056Z" fill="white"/>
<path d="M80.7857 7.43355L80.1446 7.28973C78.9122 7.01324 77.7001 7.84015 77.4373 9.1367L77.1875 10.3688L82.2916 11.5138L82.5414 10.2817C82.8041 8.98522 82.0181 7.71004 80.7857 7.43355Z" fill="white"/>
<path d="M97.813 10.9097C97.4528 12.6862 94.7213 13.579 91.7117 12.9039C88.7022 12.2287 86.5543 10.2413 86.9144 8.46487C87.2745 6.68838 90.0061 5.79563 93.0157 6.47075C96.0252 7.14586 98.1731 9.13325 97.813 10.9097Z" fill="white"/>
<path d="M92.6792 12.3015L90.9375 14.0261L95.064 12.9992L94.9099 10.1985L92.6792 12.3015Z" fill="white"/>
<path d="M105.284 11.9295L105.908 11.6034C106.101 11.5029 106.199 11.2736 106.143 11.0553C106.034 10.6281 105.801 9.9239 105.361 9.37255C105.228 9.20627 105.004 9.15709 104.819 9.25243L103.727 9.81323C103.589 9.88401 103.495 10.0234 103.477 10.1835C103.401 10.8599 103.318 12.7266 104.438 14.3024C105.713 16.0982 107.025 17.007 107.945 17.4464C108.094 17.5178 108.269 17.4984 108.4 17.3954L109.406 16.609C109.582 16.4712 109.638 16.2199 109.539 16.0138C109.338 15.5974 108.909 14.9204 108.092 14.4463C107.925 14.3494 107.718 14.374 107.575 14.5073L107.199 14.8588C107.045 15.0024 106.819 15.0182 106.648 14.8978C106.281 14.6388 105.656 14.0116 105.069 12.5364C104.977 12.3061 105.072 12.0405 105.284 11.9295Z" fill="white"/>
<path d="M67.3601 53.3977L61.5395 49.6765C60.9486 49.2988 60.7606 48.4886 61.1198 47.867L64.6569 41.7436C65.016 41.1219 65.7861 40.9242 66.377 41.302L72.1976 45.0231C72.7885 45.4009 72.9765 46.2111 72.6174 46.8327L69.0802 52.9562C68.7211 53.5777 67.9509 53.7754 67.3601 53.3977Z" fill="#96D9C9"/>
<path d="M70.4405 48.171C70.6561 47.9395 70.5851 47.4961 70.2668 47.2C68.8729 45.9027 67.2757 44.8683 65.5459 44.1428C65.1509 43.9768 64.7435 44.1157 64.6454 44.4301C63.839 46.9382 64.1172 45.9966 63.7685 47.454C63.6899 47.7947 63.8686 48.1402 64.175 48.2688C64.5 48.4041 64.8797 48.2607 65.0323 47.9273C65.1145 47.7433 65.1965 47.5592 65.2787 47.3752C65.3715 47.1636 65.6334 47.0827 65.8588 47.2037C66.4518 47.5217 67.0218 47.8849 67.5645 48.2905C67.7708 48.4447 67.8247 48.7247 67.6905 48.9071C67.5743 49.0671 67.4583 49.2272 67.3421 49.3872C67.1333 49.6809 67.1918 50.0958 67.4597 50.3325C67.7129 50.5553 68.0868 50.5636 68.3337 50.3381C68.5892 50.1007 69.9954 48.6579 70.4405 48.171Z" fill="white"/>
<path d="M66.179 45.142C66.2546 45.1905 66.3129 45.2574 66.3517 45.334L66.5471 44.9958L66.1329 44.731L65.9375 45.0692C66.02 45.0702 66.1034 45.0937 66.179 45.142Z" fill="#96D9C9"/>
<path d="M65.3907 45.4384C65.4367 45.3589 65.5003 45.2976 65.5732 45.2567L65.2517 45.0513L65 45.4869L65.3215 45.6925C65.3224 45.6057 65.3448 45.518 65.3907 45.4384Z" fill="#96D9C9"/>
<path d="M65.6806 46.2354C65.605 46.187 65.5468 46.1201 65.5079 46.0435L65.3125 46.3817L65.7267 46.6465L65.922 46.3083C65.8395 46.3073 65.7562 46.2837 65.6806 46.2354Z" fill="#96D9C9"/>
<path d="M66.1892 45.7102C66.1883 45.797 66.1659 45.8847 66.1199 45.9642C66.074 46.0438 66.0103 46.105 65.9375 46.1459L66.259 46.3515L66.5106 45.9158L66.1892 45.7102Z" fill="#96D9C9"/>
<path d="M66.1635 45.8511C66.0802 45.9952 65.9016 46.0411 65.7646 45.9535C65.6276 45.8659 65.584 45.678 65.6673 45.5338C65.7505 45.3897 65.9291 45.3438 66.0662 45.4315C66.2032 45.519 66.2468 45.7069 66.1635 45.8511Z" fill="#96D9C9"/>
<path d="M69.5895 48.3486C69.4114 48.657 69.0293 48.755 68.7361 48.5676C68.443 48.3802 68.3498 47.9783 68.5279 47.6699C68.706 47.3615 69.0881 47.2634 69.3812 47.4508C69.6744 47.6382 69.7676 48.0402 69.5895 48.3486Z" fill="#96D9C9"/>
<path d="M72.862 25.0998C72.862 25.0998 73.0727 23.8303 74.3259 23.2188C75.4431 22.6735 76.6477 23.2834 77.1539 24.4313C77.7398 25.76 77.3834 27.8443 75.2611 30.5405C71.9338 30.5039 70.1909 29.444 69.605 28.1153C69.0988 26.9674 69.4342 25.606 70.5514 25.0607C71.8046 24.4493 72.862 25.0998 72.862 25.0998Z" fill="#F48C7F"/>
<path d="M32.5078 19.3996L25.1123 23.1068C24.2398 23.5442 23.1956 23.1546 22.7799 22.2369L20.7956 17.8558C20.3799 16.938 20.7501 15.8395 21.6225 15.4022L29.0181 11.6949C29.8905 11.2576 30.9346 11.6471 31.3504 12.5649L33.3347 16.9459C33.7505 17.8637 33.3802 18.9622 32.5078 19.3996Z" fill="#FAE0B2"/>
<path d="M22.2088 19.7344L20.625 24.6992L24.1431 21.9625L22.2088 19.7344Z" fill="#FAE0B2"/>
<path d="M24.8059 17.9474L25.7414 17.4473C25.7414 17.4473 26.4992 15.9052 26.3832 15.5564C26.2672 15.2076 25.7496 14.6084 25.8935 14.4264C26.0375 14.2444 26.3962 13.9754 26.8448 14.2865C27.1705 14.5123 27.5563 15.7471 27.703 15.7679C27.7948 15.781 28.3401 15.5095 28.7355 15.3044C28.9956 15.1696 29.3049 15.198 29.539 15.3778L29.5398 15.3784C29.698 15.5 29.7538 15.7215 29.6734 15.9095L29.5484 16.2022L29.821 16.3491C30.0239 16.4584 30.1049 16.7197 30.0022 16.9338L29.8976 17.1521L30.0744 17.2304C30.302 17.331 30.3961 17.6175 30.276 17.8445L30.1785 18.0289L30.2206 18.0606C30.3954 18.1923 30.4455 18.4427 30.3362 18.6374L30.2354 18.8165L27.7435 20.1479C27.51 20.2727 27.2547 20.3459 26.9934 20.3631L26.0433 20.679C25.9412 20.7129 25.8309 20.6631 25.7839 20.5619L24.7094 18.25C24.6577 18.1384 24.7005 18.0037 24.8059 17.9474Z" fill="white"/>
<path d="M85.9963 30.0317C91.5862 28.6961 96.75 30.542 97.5299 34.1544C97.9198 35.9607 97.1399 37.8666 95.5637 39.4879L98.9823 44.2721L93.3143 41.2723C92.0222 42.0716 90.4973 42.713 88.8204 43.1137C83.2304 44.4492 78.0667 42.6034 77.2868 38.991C76.5069 35.3784 80.4063 31.3672 85.9963 30.0317Z" fill="#FAE0B2"/>
<path d="M91.2936 36.1898C91.2131 38.29 89.5298 39.9236 87.5339 39.8385C85.5379 39.7536 83.985 37.9822 84.0655 35.8821C84.146 33.782 85.8292 32.1484 87.8252 32.2334C89.8212 32.3184 91.374 34.0897 91.2936 36.1898Z" fill="#F7CC7F"/>
<path d="M85.9391 36.5051C85.8961 37.628 86.7263 38.575 87.7935 38.6205C88.8606 38.6659 89.7606 37.7925 89.8036 36.6696L85.9391 36.5051Z" fill="#EFEFEF"/>
<path d="M15.6332 46.6985L13.7889 47.0856L14.0179 48.9136L12.2171 49.3793L12.231 51.1548L10.9375 51.7351L11.2167 52.424L12.9468 51.6479L12.9335 49.9653L14.8069 49.4809L14.5817 47.6829L16.2531 47.3322L15.6332 46.6985Z" fill="#F48C7F"/>
<path d="M15.816 26.5658L14.7851 26.8987L14.0928 25.2128L12.5284 25.5039L11.8142 24.3313L11.25 24.7116L12.2052 26.2799L13.6877 26.0041L14.4079 27.7579L15.9592 27.257L15.816 26.5658Z" fill="#50BFA5"/>
<path d="M54.3026 33.1816C53.9427 32.8694 53.1024 32.6132 52.6842 32.5736C52.266 32.534 50.4397 32.5353 50.2031 32.9972C49.9665 33.4592 51.8838 34.7682 51.986 35.3121C52.0882 35.856 50.8756 44.302 50.5256 45.9792C50.353 46.8063 49.6901 48.3643 49.0625 49.7314C49.9651 49.8831 51.068 50.6598 51.7607 51.2139C52.6485 49.1709 53.5567 46.8742 53.6698 45.7945C53.898 43.6153 54.6625 33.4938 54.3026 33.1816Z" fill="#F7A491"/>
<path d="M59.3352 18.7465C58.7128 18.6915 55.4579 21.3029 55.4579 21.3029L55.3125 21.5076C55.3125 21.5076 59.707 22.2888 59.9133 22.1436C60.47 21.7517 59.8465 18.7917 59.3352 18.7465ZM55.4685 21.3826C56.5293 20.571 58.7144 19.5769 59.185 19.3678C59.4272 19.8372 59.6482 21.0741 59.5834 21.5836C59.0652 21.5426 56.7541 21.5978 55.4685 21.3826Z" fill="#466EB6"/>
<path d="M54.7433 16.6076C54.1802 15.0224 53.6302 15.0964 53.2402 15.1498C52.8501 15.2032 51.097 16.5093 51.2608 17.5136C51.4247 18.5178 54.9325 21.4502 54.9325 21.4502L55.1647 21.1674C55.1647 21.1674 55.3065 18.1928 54.7433 16.6076ZM51.7945 17.4152C51.7129 16.9142 52.9288 15.8469 53.329 15.7126C53.4216 15.7 53.5017 15.6908 53.5634 15.7093C53.6375 15.7316 53.9051 15.8766 54.2356 16.8071C54.597 17.8244 54.9751 20.1778 54.9698 21.1174C53.571 19.8875 51.8859 17.8466 51.7945 17.4152Z" fill="#466EB6"/>
<path d="M54.9463 22.0472L55.1373 22.1046C55.3266 22.1615 55.5239 22.0461 55.578 21.8469L55.7385 21.2557C55.7926 21.0565 55.6829 20.849 55.4936 20.7921L55.3025 20.7347C55.1131 20.6779 54.9158 20.7932 54.8617 20.9924L54.7013 21.5836C54.6473 21.7827 54.7569 21.9903 54.9463 22.0472Z" fill="#466EB6"/>
<path d="M58.3533 35.0499L46.2492 31.4137C45.5951 31.2172 45.1981 30.5203 45.3419 29.8208L47.4834 19.402L63.2461 24.1372L59.6935 34.5916C59.5449 35.0287 58.9546 35.2306 58.3533 35.0499Z" fill="#7464E4"/>
<path d="M63.3711 26.4453L46.25 21.3391L46.3822 20.1272C46.4615 19.4002 47.1429 18.9225 47.8112 19.1254L63.2836 23.8218C63.8337 23.9888 64.1676 24.4749 64.0064 24.8739L63.3711 26.4453Z" fill="#FAE0B2"/>
<path d="M55.0408 21.2218L54.375 23.6754L54.7007 23.7732L55.3665 21.3196L55.0408 21.2218Z" fill="#466EB6"/>
<path d="M55.0027 23.9913L52.5 33.2145L52.9072 33.3368L55.4099 24.1136L55.0027 23.9913Z" fill="#466EB6"/>
<path d="M51.0705 33.2383L51.1143 32.6965C50.6983 32.5727 50.219 32.3903 49.9731 32.2814L49.9062 31.8677C49.6887 31.3008 49.4473 31.7053 49.3767 31.8346C49.3767 31.8346 49.359 32.5619 49.4366 32.6469C49.4366 32.6469 50.2527 33.5535 50.6009 33.8964C50.7734 34.0662 51.324 34.5364 51.324 34.5364L51.7618 33.898L51.0705 33.2383Z" fill="#F7A491"/>
</svg>
