<svg width="119" height="176" viewBox="0 0 119 176" fill="none" xmlns="http://www.w3.org/2000/svg">
<g opacity="0.2">
<path d="M106.535 3.30505L10.1139 63.8149C0.015952 70.152 -3.03165 83.4699 3.30542 93.5679L63.8152 189.989C70.1523 200.087 83.4702 203.135 93.5682 196.797L189.989 136.288C200.087 129.951 203.135 116.633 196.798 106.535L136.288 10.1136C129.951 0.0155874 116.632 -3.03116 106.535 3.30505ZM181.562 108.132C185.84 114.948 183.783 123.945 176.964 128.224L92.6874 181.113C85.8691 185.391 76.8739 183.333 72.5951 176.515L19.7063 92.2377C15.4275 85.4194 17.4859 76.4242 24.3041 72.1454L108.581 19.2566C115.4 14.9778 124.395 17.0362 128.674 23.8545L181.562 108.132Z" fill="white"/>
<path d="M63.0917 61.7848L35.6851 78.984C31.984 81.3067 30.8656 86.1942 33.1899 89.8979L49.5312 115.937C51.8555 119.641 56.743 120.76 60.4441 118.437L87.8494 101.239C91.5504 98.916 92.6688 94.0285 90.3445 90.3247L74.0041 64.2866C71.6789 60.5814 66.7914 59.463 63.0917 61.7848ZM79.3761 93.8284L57.4577 107.583L44.1605 86.3948L66.079 72.6397L79.3761 93.8284Z" fill="#C9EE25"/>
<path d="M100.659 38.2262C89.7723 45.0584 86.4856 59.4265 93.3169 70.3121C100.149 81.199 114.517 84.4857 125.403 77.6544C136.288 70.8231 139.576 56.4542 132.745 45.5686C125.914 34.683 111.545 31.3949 100.659 38.2262ZM119.322 67.9654C113.786 71.4398 106.483 69.7685 103.008 64.2321C99.5338 58.6957 101.205 51.3925 106.741 47.9181C112.278 44.4436 119.581 46.1149 123.055 51.6513C126.53 57.1877 124.859 64.4909 119.322 67.9654Z" fill="#C9EE25"/>
<path d="M119.792 133.823L83.6037 114.675C79.84 112.681 75.3335 115.509 75.4926 119.765L76.997 160.679C77.1561 164.936 81.8597 167.425 85.4658 165.162L120.145 143.398C123.751 141.135 123.555 135.818 119.792 133.823ZM87.955 150.11L87.1753 128.892L105.942 138.822L87.955 150.11Z" fill="#C9EE25"/>
<path d="M149.138 75.2104C146.088 74.5125 143.048 76.4203 142.35 79.4702L131.306 127.725C130.609 130.775 132.516 133.815 135.566 134.513C138.616 135.211 141.656 133.303 142.354 130.253L153.397 81.997C154.096 78.9485 152.188 75.9083 149.138 75.2104Z" fill="#F0CF66"/>
<path d="M112.948 96.9889L112.45 99.1648C111.89 101.614 113.422 104.055 115.871 104.616L166.304 116.157C168.753 116.717 171.194 115.185 171.755 112.736L172.253 110.56C172.813 108.11 171.281 105.669 168.832 105.109L118.401 93.5671C115.95 93.0075 113.51 94.5386 112.948 96.9889Z" fill="white"/>
</g>
</svg>
