<svg width="9" height="15" viewBox="0 0 9 15" fill="none" xmlns="http://www.w3.org/2000/svg">
<path d="M0 0.886825C0.000209808 1.12184 0.0948772 1.34715 0.26319 1.51323L6.26895 6.04699C6.40785 6.18418 6.51804 6.34706 6.59322 6.52633C6.66839 6.7056 6.70708 6.89774 6.70708 7.09179C6.70708 7.28583 6.66839 7.47797 6.59322 7.65724C6.51804 7.83651 6.40785 7.99939 6.26895 8.13659L0.269173 12.6644C0.105733 12.8316 0.015295 13.0555 0.0173397 13.2879C0.0193834 13.5204 0.113747 13.7427 0.280103 13.907C0.446459 14.0714 0.671498 14.1646 0.906753 14.1666C1.14201 14.1687 1.36865 14.0793 1.53787 13.9178L7.53765 9.39353C8.1539 8.78352 8.5 7.95688 8.5 7.09504C8.5 6.23319 8.1539 5.40656 7.53765 4.79654L1.53189 0.259829C1.40641 0.135779 1.2465 0.0512909 1.0724 0.0170548C0.898296 -0.0171813 0.717827 0.000373472 0.553827 0.0674979C0.389828 0.134622 0.249667 0.248299 0.151083 0.394145C0.0524979 0.53999 -8.01086e-05 0.711449 0 0.886825Z" fill="white"/>
</svg>
