<svg width="19" height="19" viewBox="0 0 19 19" fill="none" xmlns="http://www.w3.org/2000/svg">
<g clip-path="url(#clip0_294_501)">
<mask id="path-1-inside-1_294_501" fill="white">
<path d="M1.35297 7.55344C1.93577 6.97056 2.79192 6.86576 3.46902 7.18991L8.00007 2.65878C7.67106 1.96803 7.7917 1.1147 8.36282 0.543587C9.08749 -0.181196 10.2668 -0.181196 10.9915 0.543587L13.6203 3.1723C14.345 3.89701 14.345 5.07627 13.6203 5.80098C13.0506 6.37072 12.1986 6.49411 11.5051 6.16373L10.5534 7.1154L18.447 15.009C19.1734 15.7354 19.1736 16.9112 18.447 17.6377C17.7206 18.3641 16.5448 18.3643 15.8183 17.6377L7.9247 9.74411L6.97314 10.6956C7.30223 11.3864 7.18159 12.2397 6.61044 12.8109C6.25938 13.1619 5.79258 13.3553 5.29606 13.3553C4.79954 13.3553 4.33281 13.162 3.98172 12.8109L1.353 10.1822C0.628222 9.45741 0.628222 8.27822 1.35297 7.55344ZM11.8678 4.92476C12.1093 5.1663 12.5024 5.16623 12.744 4.92476C12.9856 4.68314 12.9856 4.29011 12.744 4.04853L10.1153 1.41981C9.87376 1.17827 9.48074 1.17816 9.23908 1.41981C8.9975 1.6614 8.9975 2.05446 9.23904 2.29604L11.8678 4.92476ZM16.6945 16.7614C16.9367 17.0035 17.3286 17.0036 17.5708 16.7614C17.8129 16.5192 17.8129 16.1273 17.5708 15.8852L9.67716 7.99155L8.80093 8.86781L16.6945 16.7614ZM10.5534 5.36287L10.1153 4.92472L8.80097 3.61034L4.41976 7.99159L6.17221 9.74408L10.5534 5.36287ZM2.22916 9.30596L4.85787 11.9347C5.10005 12.1769 5.49192 12.1769 5.7341 11.9347C5.97568 11.6931 5.97568 11.3 5.7341 11.0584L3.10534 8.4297C2.86324 8.18752 2.47129 8.18756 2.22916 8.4297C1.98698 8.67184 1.98698 9.06375 2.22916 9.30596Z"/>
</mask>
<path d="M1.35297 7.55344C1.93577 6.97056 2.79192 6.86576 3.46902 7.18991L8.00007 2.65878C7.67106 1.96803 7.7917 1.1147 8.36282 0.543587C9.08749 -0.181196 10.2668 -0.181196 10.9915 0.543587L13.6203 3.1723C14.345 3.89701 14.345 5.07627 13.6203 5.80098C13.0506 6.37072 12.1986 6.49411 11.5051 6.16373L10.5534 7.1154L18.447 15.009C19.1734 15.7354 19.1736 16.9112 18.447 17.6377C17.7206 18.3641 16.5448 18.3643 15.8183 17.6377L7.9247 9.74411L6.97314 10.6956C7.30223 11.3864 7.18159 12.2397 6.61044 12.8109C6.25938 13.1619 5.79258 13.3553 5.29606 13.3553C4.79954 13.3553 4.33281 13.162 3.98172 12.8109L1.353 10.1822C0.628222 9.45741 0.628222 8.27822 1.35297 7.55344ZM11.8678 4.92476C12.1093 5.1663 12.5024 5.16623 12.744 4.92476C12.9856 4.68314 12.9856 4.29011 12.744 4.04853L10.1153 1.41981C9.87376 1.17827 9.48074 1.17816 9.23908 1.41981C8.9975 1.6614 8.9975 2.05446 9.23904 2.29604L11.8678 4.92476ZM16.6945 16.7614C16.9367 17.0035 17.3286 17.0036 17.5708 16.7614C17.8129 16.5192 17.8129 16.1273 17.5708 15.8852L9.67716 7.99155L8.80093 8.86781L16.6945 16.7614ZM10.5534 5.36287L10.1153 4.92472L8.80097 3.61034L4.41976 7.99159L6.17221 9.74408L10.5534 5.36287ZM2.22916 9.30596L4.85787 11.9347C5.10005 12.1769 5.49192 12.1769 5.7341 11.9347C5.97568 11.6931 5.97568 11.3 5.7341 11.0584L3.10534 8.4297C2.86324 8.18752 2.47129 8.18756 2.22916 8.4297C1.98698 8.67184 1.98698 9.06375 2.22916 9.30596Z" fill="url(#paint0_linear_294_501)"/>
<path d="M1.35297 7.55344C1.93577 6.97056 2.79192 6.86576 3.46902 7.18991L8.00007 2.65878C7.67106 1.96803 7.7917 1.1147 8.36282 0.543587C9.08749 -0.181196 10.2668 -0.181196 10.9915 0.543587L13.6203 3.1723C14.345 3.89701 14.345 5.07627 13.6203 5.80098C13.0506 6.37072 12.1986 6.49411 11.5051 6.16373L10.5534 7.1154L18.447 15.009C19.1734 15.7354 19.1736 16.9112 18.447 17.6377C17.7206 18.3641 16.5448 18.3643 15.8183 17.6377L7.9247 9.74411L6.97314 10.6956C7.30223 11.3864 7.18159 12.2397 6.61044 12.8109C6.25938 13.1619 5.79258 13.3553 5.29606 13.3553C4.79954 13.3553 4.33281 13.162 3.98172 12.8109L1.353 10.1822C0.628222 9.45741 0.628222 8.27822 1.35297 7.55344ZM11.8678 4.92476C12.1093 5.1663 12.5024 5.16623 12.744 4.92476C12.9856 4.68314 12.9856 4.29011 12.744 4.04853L10.1153 1.41981C9.87376 1.17827 9.48074 1.17816 9.23908 1.41981C8.9975 1.6614 8.9975 2.05446 9.23904 2.29604L11.8678 4.92476ZM16.6945 16.7614C16.9367 17.0035 17.3286 17.0036 17.5708 16.7614C17.8129 16.5192 17.8129 16.1273 17.5708 15.8852L9.67716 7.99155L8.80093 8.86781L16.6945 16.7614ZM10.5534 5.36287L10.1153 4.92472L8.80097 3.61034L4.41976 7.99159L6.17221 9.74408L10.5534 5.36287ZM2.22916 9.30596L4.85787 11.9347C5.10005 12.1769 5.49192 12.1769 5.7341 11.9347C5.97568 11.6931 5.97568 11.3 5.7341 11.0584L3.10534 8.4297C2.86324 8.18752 2.47129 8.18756 2.22916 8.4297C1.98698 8.67184 1.98698 9.06375 2.22916 9.30596Z" fill="black" fill-opacity="0.2"/>
<path d="M1.35297 7.55344L2.41369 8.61403L2.41365 8.61407L1.35297 7.55344ZM3.46902 7.18991L4.52969 8.25056L3.77895 9.00132L2.82131 8.54286L3.46902 7.18991ZM8.00007 2.65878L9.3543 2.01375L9.8099 2.97027L9.06074 3.71944L8.00007 2.65878ZM8.36282 0.543587L9.42356 1.60417L9.42348 1.60425L8.36282 0.543587ZM10.9915 0.543587L9.93088 1.60426L9.93085 1.60422L10.9915 0.543587ZM13.6203 3.1723L14.6809 2.11164L14.6809 2.11164L13.6203 3.1723ZM13.6203 5.80098L12.5596 4.74039L12.5596 4.74032L13.6203 5.80098ZM11.5051 6.16373L10.4444 5.10307L11.1936 4.35386L12.1502 4.80953L11.5051 6.16373ZM10.5534 7.1154L9.49276 8.17606L8.4321 7.1154L9.49276 6.05474L10.5534 7.1154ZM18.447 15.009L17.3864 16.0697L17.3864 16.0697L18.447 15.009ZM18.447 17.6377L17.3863 16.5771L17.3864 16.577L18.447 17.6377ZM15.8183 17.6377L16.879 16.577L16.879 16.5771L15.8183 17.6377ZM7.9247 9.74411L6.86406 8.68343L7.92472 7.62282L8.98536 8.68345L7.9247 9.74411ZM6.97314 10.6956L5.61896 11.3408L5.16325 10.3842L5.91251 9.63495L6.97314 10.6956ZM3.98172 12.8109L5.04238 11.7502L5.04244 11.7503L3.98172 12.8109ZM1.353 10.1822L2.41364 9.12146L2.41366 9.12149L1.353 10.1822ZM11.8678 4.92476L10.8072 5.9855L10.8071 5.98542L11.8678 4.92476ZM12.744 4.92476L13.8048 5.98525L13.8044 5.98566L12.744 4.92476ZM12.744 4.04853L13.8047 2.98787L13.8048 2.98795L12.744 4.04853ZM10.1153 1.41981L9.05465 2.48047L10.1153 1.41981ZM9.23904 2.29604L8.17838 3.3567L8.1783 3.35662L9.23904 2.29604ZM16.6945 16.7614L15.634 17.8221L15.6339 17.822L16.6945 16.7614ZM17.5708 16.7614L18.6314 17.822L17.5708 16.7614ZM17.5708 15.8852L16.5102 16.9459L16.5101 16.9458L17.5708 15.8852ZM9.67716 7.99155L8.61647 6.93091L9.67713 5.87021L10.7378 6.93089L9.67716 7.99155ZM8.80093 8.86781L7.74027 9.92848L6.67963 8.86784L7.74025 7.80718L8.80093 8.86781ZM10.5534 5.36287L11.6142 4.3023L12.6746 5.36296L11.6141 6.42353L10.5534 5.36287ZM10.1153 4.92472L11.176 3.86406L11.1761 3.86415L10.1153 4.92472ZM8.80097 3.61034L7.7403 2.54969L8.80096 1.48902L9.86163 2.54968L8.80097 3.61034ZM4.41976 7.99159L3.35909 9.05224L2.29845 7.99158L3.35909 6.93093L4.41976 7.99159ZM6.17221 9.74408L7.23287 10.8047L6.1722 11.8654L5.11154 10.8047L6.17221 9.74408ZM2.22916 9.30596L1.1685 10.3666L1.16842 10.3665L2.22916 9.30596ZM4.85787 11.9347L5.91853 10.874L4.85787 11.9347ZM5.7341 11.0584L6.79475 9.99775L6.79476 9.99776L5.7341 11.0584ZM3.10534 8.4297L2.04469 9.49037L2.04452 9.4902L3.10534 8.4297ZM2.22916 8.4297L3.28982 9.49036L3.28973 9.49044L2.22916 8.4297ZM1.35297 7.55344L0.292238 6.49284C1.34755 5.4374 2.89523 5.25219 4.11672 5.83696L3.46902 7.18991L2.82131 8.54286C2.68861 8.47934 2.52399 8.50372 2.41369 8.61403L1.35297 7.55344ZM3.46902 7.18991L2.40835 6.12926L6.9394 1.59813L8.00007 2.65878L9.06074 3.71944L4.52969 8.25056L3.46902 7.18991ZM8.00007 2.65878L6.64584 3.30381C6.05328 2.05975 6.26644 0.518641 7.30216 -0.517073L8.36282 0.543587L9.42348 1.60425C9.31696 1.71076 9.28884 1.87631 9.3543 2.01375L8.00007 2.65878ZM8.36282 0.543587L7.30207 -0.516991C8.61258 -1.8277 10.7417 -1.82762 12.0522 -0.517046L10.9915 0.543587L9.93085 1.60422C9.79186 1.46523 9.5624 1.46531 9.42356 1.60417L8.36282 0.543587ZM10.9915 0.543587L12.0522 -0.51708L14.6809 2.11164L13.6203 3.1723L12.5596 4.23297L9.93088 1.60426L10.9915 0.543587ZM13.6203 3.1723L14.6809 2.11164C15.9914 3.42214 15.9914 5.55115 14.6809 6.86164L13.6203 5.80098L12.5596 4.74032C12.6985 4.6014 12.6985 4.37189 12.5596 4.23296L13.6203 3.1723ZM13.6203 5.80098L14.681 6.86157C13.6484 7.89434 12.109 8.11294 10.86 7.51792L11.5051 6.16373L12.1502 4.80953C12.2882 4.87528 12.4529 4.84711 12.5596 4.74039L13.6203 5.80098ZM11.5051 6.16373L12.5657 7.22439L11.6141 8.17606L10.5534 7.1154L9.49276 6.05474L10.4444 5.10307L11.5051 6.16373ZM10.5534 7.1154L11.6141 6.05474L19.5077 13.9483L18.447 15.009L17.3864 16.0697L9.49276 8.17606L10.5534 7.1154ZM18.447 15.009L19.5077 13.9483C20.8198 15.2604 20.8201 17.386 19.5077 18.6984L18.447 17.6377L17.3864 16.577C17.527 16.4364 17.527 16.2103 17.3864 16.0697L18.447 15.009ZM18.447 17.6377L19.5077 18.6983C18.1956 20.0105 16.07 20.0108 14.7576 18.6983L15.8183 17.6377L16.879 16.5771C17.0197 16.7177 17.2457 16.7177 17.3863 16.5771L18.447 17.6377ZM15.8183 17.6377L14.7577 18.6983L6.86405 10.8048L7.9247 9.74411L8.98536 8.68345L16.879 16.577L15.8183 17.6377ZM7.9247 9.74411L8.98534 10.8048L8.03378 11.7563L6.97314 10.6956L5.91251 9.63495L6.86406 8.68343L7.9247 9.74411ZM6.97314 10.6956L8.32733 10.0505C8.92004 11.2947 8.70684 12.8358 7.6711 13.8715L6.61044 12.8109L5.54978 11.7502C5.65634 11.6436 5.68442 11.4782 5.61896 11.3408L6.97314 10.6956ZM6.61044 12.8109L7.6711 13.8715C7.03881 14.5038 6.19051 14.8553 5.29606 14.8553V13.3553V11.8553C5.39466 11.8553 5.47996 11.82 5.54978 11.7502L6.61044 12.8109ZM5.29606 13.3553V14.8553C4.40167 14.8553 3.5534 14.5039 2.921 13.8715L3.98172 12.8109L5.04244 11.7503C5.11223 11.8201 5.1974 11.8553 5.29606 11.8553V13.3553ZM3.98172 12.8109L2.92106 13.8715L0.292343 11.2428L1.353 10.1822L2.41366 9.12149L5.04238 11.7502L3.98172 12.8109ZM1.353 10.1822L0.292372 11.2428C-1.01825 9.93229 -1.01821 7.80336 0.29228 6.4928L1.35297 7.55344L2.41365 8.61407C2.27465 8.75308 2.27469 8.98252 2.41364 9.12146L1.353 10.1822ZM11.8678 4.92476L12.9283 3.86402C12.5839 3.51968 12.0275 3.52007 11.6836 3.86385L12.744 4.92476L13.8044 5.98566C12.9773 6.81239 11.6347 6.81293 10.8072 5.9855L11.8678 4.92476ZM12.744 4.92476L11.6832 3.86426C11.3392 4.20834 11.3391 4.76488 11.6833 5.10911L12.744 4.04853L13.8048 2.98795C14.632 3.81535 14.6319 5.15793 13.8048 5.98525L12.744 4.92476ZM12.744 4.04853L11.6834 5.10919L9.05465 2.48047L10.1153 1.41981L11.176 0.359154L13.8047 2.98787L12.744 4.04853ZM10.1153 1.41981L9.05465 2.48047C9.39871 2.82454 9.95543 2.82478 10.2997 2.48047L9.23908 1.41981L8.17842 0.359154C9.00604 -0.468464 10.3488 -0.468002 11.176 0.359154L10.1153 1.41981ZM9.23908 1.41981L10.2997 2.48047C10.6439 2.13628 10.6439 1.57966 10.2998 1.23546L9.23904 2.29604L8.1783 3.35662C7.35107 2.52926 7.35106 1.18651 8.17842 0.359154L9.23908 1.41981ZM9.23904 2.29604L10.2997 1.23538L12.9284 3.8641L11.8678 4.92476L10.8071 5.98542L8.17838 3.3567L9.23904 2.29604ZM16.6945 16.7614L17.7551 15.7006C17.4116 15.3572 16.8538 15.357 16.5101 15.7007L17.5708 16.7614L18.6314 17.822C17.8034 18.6501 16.4618 18.6498 15.634 17.8221L16.6945 16.7614ZM17.5708 16.7614L16.5101 15.7007C16.1666 16.0443 16.1664 16.6021 16.5102 16.9459L17.5708 15.8852L18.6313 14.8244C19.4595 15.6525 19.4592 16.9942 18.6314 17.822L17.5708 16.7614ZM17.5708 15.8852L16.5101 16.9458L8.6165 9.05221L9.67716 7.99155L10.7378 6.93089L18.6314 14.8245L17.5708 15.8852ZM9.67716 7.99155L10.7378 9.05219L9.86161 9.92845L8.80093 8.86781L7.74025 7.80718L8.61647 6.93091L9.67716 7.99155ZM8.80093 8.86781L9.86159 7.80715L17.7552 15.7007L16.6945 16.7614L15.6339 17.822L7.74027 9.92848L8.80093 8.86781ZM10.5534 5.36287L9.49267 6.42344L9.05459 5.98529L10.1153 4.92472L11.1761 3.86415L11.6142 4.3023L10.5534 5.36287ZM10.1153 4.92472L9.05468 5.98538L7.74031 4.671L8.80097 3.61034L9.86163 2.54968L11.176 3.86406L10.1153 4.92472ZM8.80097 3.61034L9.86163 4.671L5.48042 9.05224L4.41976 7.99159L3.35909 6.93093L7.7403 2.54969L8.80097 3.61034ZM4.41976 7.99159L5.48043 6.93094L7.23288 8.68343L6.17221 9.74408L5.11154 10.8047L3.35909 9.05224L4.41976 7.99159ZM6.17221 9.74408L5.11155 8.68342L9.49276 4.30221L10.5534 5.36287L11.6141 6.42353L7.23287 10.8047L6.17221 9.74408ZM2.22916 9.30596L3.28982 8.2453L5.91853 10.874L4.85787 11.9347L3.79721 12.9953L1.1685 10.3666L2.22916 9.30596ZM4.85787 11.9347L5.91853 10.874C5.57492 10.5304 5.01705 10.5304 4.67344 10.874L5.7341 11.9347L6.79476 12.9953C5.9668 13.8233 4.62517 13.8233 3.79721 12.9953L4.85787 11.9347ZM5.7341 11.9347L4.67344 10.874C4.32924 11.2182 4.32924 11.7749 4.67344 12.1191L5.7341 11.0584L6.79476 9.99776C7.62213 10.8251 7.62213 12.168 6.79476 12.9953L5.7341 11.9347ZM5.7341 11.0584L4.67345 12.1191L2.04469 9.49037L3.10534 8.4297L4.166 7.36903L6.79475 9.99775L5.7341 11.0584ZM3.10534 8.4297L2.04452 9.4902C2.38839 9.83417 2.94632 9.83386 3.28982 9.49036L2.22916 8.4297L1.1685 7.36904C1.99627 6.54126 3.33809 6.54087 4.16617 7.3692L3.10534 8.4297ZM2.22916 8.4297L3.28973 9.49044C3.63354 9.14669 3.63331 8.58885 3.2899 8.24538L2.22916 9.30596L1.16842 10.3665C0.340651 9.53865 0.340416 8.19699 1.16858 7.36896L2.22916 8.4297Z" fill="url(#paint1_linear_294_501)" mask="url(#path-1-inside-1_294_501)"/>
<path d="M1.35297 7.55344L2.41369 8.61403L2.41365 8.61407L1.35297 7.55344ZM3.46902 7.18991L4.52969 8.25056L3.77895 9.00132L2.82131 8.54286L3.46902 7.18991ZM8.00007 2.65878L9.3543 2.01375L9.8099 2.97027L9.06074 3.71944L8.00007 2.65878ZM8.36282 0.543587L9.42356 1.60417L9.42348 1.60425L8.36282 0.543587ZM10.9915 0.543587L9.93088 1.60426L9.93085 1.60422L10.9915 0.543587ZM13.6203 3.1723L14.6809 2.11164L14.6809 2.11164L13.6203 3.1723ZM13.6203 5.80098L12.5596 4.74039L12.5596 4.74032L13.6203 5.80098ZM11.5051 6.16373L10.4444 5.10307L11.1936 4.35386L12.1502 4.80953L11.5051 6.16373ZM10.5534 7.1154L9.49276 8.17606L8.4321 7.1154L9.49276 6.05474L10.5534 7.1154ZM18.447 15.009L17.3864 16.0697L17.3864 16.0697L18.447 15.009ZM18.447 17.6377L17.3863 16.5771L17.3864 16.577L18.447 17.6377ZM15.8183 17.6377L16.879 16.577L16.879 16.5771L15.8183 17.6377ZM7.9247 9.74411L6.86406 8.68343L7.92472 7.62282L8.98536 8.68345L7.9247 9.74411ZM6.97314 10.6956L5.61896 11.3408L5.16325 10.3842L5.91251 9.63495L6.97314 10.6956ZM3.98172 12.8109L5.04238 11.7502L5.04244 11.7503L3.98172 12.8109ZM1.353 10.1822L2.41364 9.12146L2.41366 9.12149L1.353 10.1822ZM11.8678 4.92476L10.8072 5.9855L10.8071 5.98542L11.8678 4.92476ZM12.744 4.92476L13.8048 5.98525L13.8044 5.98566L12.744 4.92476ZM12.744 4.04853L13.8047 2.98787L13.8048 2.98795L12.744 4.04853ZM10.1153 1.41981L9.05465 2.48047L10.1153 1.41981ZM9.23904 2.29604L8.17838 3.3567L8.1783 3.35662L9.23904 2.29604ZM16.6945 16.7614L15.634 17.8221L15.6339 17.822L16.6945 16.7614ZM17.5708 16.7614L18.6314 17.822L17.5708 16.7614ZM17.5708 15.8852L16.5102 16.9459L16.5101 16.9458L17.5708 15.8852ZM9.67716 7.99155L8.61647 6.93091L9.67713 5.87021L10.7378 6.93089L9.67716 7.99155ZM8.80093 8.86781L7.74027 9.92848L6.67963 8.86784L7.74025 7.80718L8.80093 8.86781ZM10.5534 5.36287L11.6142 4.3023L12.6746 5.36296L11.6141 6.42353L10.5534 5.36287ZM10.1153 4.92472L11.176 3.86406L11.1761 3.86415L10.1153 4.92472ZM8.80097 3.61034L7.7403 2.54969L8.80096 1.48902L9.86163 2.54968L8.80097 3.61034ZM4.41976 7.99159L3.35909 9.05224L2.29845 7.99158L3.35909 6.93093L4.41976 7.99159ZM6.17221 9.74408L7.23287 10.8047L6.1722 11.8654L5.11154 10.8047L6.17221 9.74408ZM2.22916 9.30596L1.1685 10.3666L1.16842 10.3665L2.22916 9.30596ZM4.85787 11.9347L5.91853 10.874L4.85787 11.9347ZM5.7341 11.0584L6.79475 9.99775L6.79476 9.99776L5.7341 11.0584ZM3.10534 8.4297L2.04469 9.49037L2.04452 9.4902L3.10534 8.4297ZM2.22916 8.4297L3.28982 9.49036L3.28973 9.49044L2.22916 8.4297ZM1.35297 7.55344L0.292238 6.49284C1.34755 5.4374 2.89523 5.25219 4.11672 5.83696L3.46902 7.18991L2.82131 8.54286C2.68861 8.47934 2.52399 8.50372 2.41369 8.61403L1.35297 7.55344ZM3.46902 7.18991L2.40835 6.12926L6.9394 1.59813L8.00007 2.65878L9.06074 3.71944L4.52969 8.25056L3.46902 7.18991ZM8.00007 2.65878L6.64584 3.30381C6.05328 2.05975 6.26644 0.518641 7.30216 -0.517073L8.36282 0.543587L9.42348 1.60425C9.31696 1.71076 9.28884 1.87631 9.3543 2.01375L8.00007 2.65878ZM8.36282 0.543587L7.30207 -0.516991C8.61258 -1.8277 10.7417 -1.82762 12.0522 -0.517046L10.9915 0.543587L9.93085 1.60422C9.79186 1.46523 9.5624 1.46531 9.42356 1.60417L8.36282 0.543587ZM10.9915 0.543587L12.0522 -0.51708L14.6809 2.11164L13.6203 3.1723L12.5596 4.23297L9.93088 1.60426L10.9915 0.543587ZM13.6203 3.1723L14.6809 2.11164C15.9914 3.42214 15.9914 5.55115 14.6809 6.86164L13.6203 5.80098L12.5596 4.74032C12.6985 4.6014 12.6985 4.37189 12.5596 4.23296L13.6203 3.1723ZM13.6203 5.80098L14.681 6.86157C13.6484 7.89434 12.109 8.11294 10.86 7.51792L11.5051 6.16373L12.1502 4.80953C12.2882 4.87528 12.4529 4.84711 12.5596 4.74039L13.6203 5.80098ZM11.5051 6.16373L12.5657 7.22439L11.6141 8.17606L10.5534 7.1154L9.49276 6.05474L10.4444 5.10307L11.5051 6.16373ZM10.5534 7.1154L11.6141 6.05474L19.5077 13.9483L18.447 15.009L17.3864 16.0697L9.49276 8.17606L10.5534 7.1154ZM18.447 15.009L19.5077 13.9483C20.8198 15.2604 20.8201 17.386 19.5077 18.6984L18.447 17.6377L17.3864 16.577C17.527 16.4364 17.527 16.2103 17.3864 16.0697L18.447 15.009ZM18.447 17.6377L19.5077 18.6983C18.1956 20.0105 16.07 20.0108 14.7576 18.6983L15.8183 17.6377L16.879 16.5771C17.0197 16.7177 17.2457 16.7177 17.3863 16.5771L18.447 17.6377ZM15.8183 17.6377L14.7577 18.6983L6.86405 10.8048L7.9247 9.74411L8.98536 8.68345L16.879 16.577L15.8183 17.6377ZM7.9247 9.74411L8.98534 10.8048L8.03378 11.7563L6.97314 10.6956L5.91251 9.63495L6.86406 8.68343L7.9247 9.74411ZM6.97314 10.6956L8.32733 10.0505C8.92004 11.2947 8.70684 12.8358 7.6711 13.8715L6.61044 12.8109L5.54978 11.7502C5.65634 11.6436 5.68442 11.4782 5.61896 11.3408L6.97314 10.6956ZM6.61044 12.8109L7.6711 13.8715C7.03881 14.5038 6.19051 14.8553 5.29606 14.8553V13.3553V11.8553C5.39466 11.8553 5.47996 11.82 5.54978 11.7502L6.61044 12.8109ZM5.29606 13.3553V14.8553C4.40167 14.8553 3.5534 14.5039 2.921 13.8715L3.98172 12.8109L5.04244 11.7503C5.11223 11.8201 5.1974 11.8553 5.29606 11.8553V13.3553ZM3.98172 12.8109L2.92106 13.8715L0.292343 11.2428L1.353 10.1822L2.41366 9.12149L5.04238 11.7502L3.98172 12.8109ZM1.353 10.1822L0.292372 11.2428C-1.01825 9.93229 -1.01821 7.80336 0.29228 6.4928L1.35297 7.55344L2.41365 8.61407C2.27465 8.75308 2.27469 8.98252 2.41364 9.12146L1.353 10.1822ZM11.8678 4.92476L12.9283 3.86402C12.5839 3.51968 12.0275 3.52007 11.6836 3.86385L12.744 4.92476L13.8044 5.98566C12.9773 6.81239 11.6347 6.81293 10.8072 5.9855L11.8678 4.92476ZM12.744 4.92476L11.6832 3.86426C11.3392 4.20834 11.3391 4.76488 11.6833 5.10911L12.744 4.04853L13.8048 2.98795C14.632 3.81535 14.6319 5.15793 13.8048 5.98525L12.744 4.92476ZM12.744 4.04853L11.6834 5.10919L9.05465 2.48047L10.1153 1.41981L11.176 0.359154L13.8047 2.98787L12.744 4.04853ZM10.1153 1.41981L9.05465 2.48047C9.39871 2.82454 9.95543 2.82478 10.2997 2.48047L9.23908 1.41981L8.17842 0.359154C9.00604 -0.468464 10.3488 -0.468002 11.176 0.359154L10.1153 1.41981ZM9.23908 1.41981L10.2997 2.48047C10.6439 2.13628 10.6439 1.57966 10.2998 1.23546L9.23904 2.29604L8.1783 3.35662C7.35107 2.52926 7.35106 1.18651 8.17842 0.359154L9.23908 1.41981ZM9.23904 2.29604L10.2997 1.23538L12.9284 3.8641L11.8678 4.92476L10.8071 5.98542L8.17838 3.3567L9.23904 2.29604ZM16.6945 16.7614L17.7551 15.7006C17.4116 15.3572 16.8538 15.357 16.5101 15.7007L17.5708 16.7614L18.6314 17.822C17.8034 18.6501 16.4618 18.6498 15.634 17.8221L16.6945 16.7614ZM17.5708 16.7614L16.5101 15.7007C16.1666 16.0443 16.1664 16.6021 16.5102 16.9459L17.5708 15.8852L18.6313 14.8244C19.4595 15.6525 19.4592 16.9942 18.6314 17.822L17.5708 16.7614ZM17.5708 15.8852L16.5101 16.9458L8.6165 9.05221L9.67716 7.99155L10.7378 6.93089L18.6314 14.8245L17.5708 15.8852ZM9.67716 7.99155L10.7378 9.05219L9.86161 9.92845L8.80093 8.86781L7.74025 7.80718L8.61647 6.93091L9.67716 7.99155ZM8.80093 8.86781L9.86159 7.80715L17.7552 15.7007L16.6945 16.7614L15.6339 17.822L7.74027 9.92848L8.80093 8.86781ZM10.5534 5.36287L9.49267 6.42344L9.05459 5.98529L10.1153 4.92472L11.1761 3.86415L11.6142 4.3023L10.5534 5.36287ZM10.1153 4.92472L9.05468 5.98538L7.74031 4.671L8.80097 3.61034L9.86163 2.54968L11.176 3.86406L10.1153 4.92472ZM8.80097 3.61034L9.86163 4.671L5.48042 9.05224L4.41976 7.99159L3.35909 6.93093L7.7403 2.54969L8.80097 3.61034ZM4.41976 7.99159L5.48043 6.93094L7.23288 8.68343L6.17221 9.74408L5.11154 10.8047L3.35909 9.05224L4.41976 7.99159ZM6.17221 9.74408L5.11155 8.68342L9.49276 4.30221L10.5534 5.36287L11.6141 6.42353L7.23287 10.8047L6.17221 9.74408ZM2.22916 9.30596L3.28982 8.2453L5.91853 10.874L4.85787 11.9347L3.79721 12.9953L1.1685 10.3666L2.22916 9.30596ZM4.85787 11.9347L5.91853 10.874C5.57492 10.5304 5.01705 10.5304 4.67344 10.874L5.7341 11.9347L6.79476 12.9953C5.9668 13.8233 4.62517 13.8233 3.79721 12.9953L4.85787 11.9347ZM5.7341 11.9347L4.67344 10.874C4.32924 11.2182 4.32924 11.7749 4.67344 12.1191L5.7341 11.0584L6.79476 9.99776C7.62213 10.8251 7.62213 12.168 6.79476 12.9953L5.7341 11.9347ZM5.7341 11.0584L4.67345 12.1191L2.04469 9.49037L3.10534 8.4297L4.166 7.36903L6.79475 9.99775L5.7341 11.0584ZM3.10534 8.4297L2.04452 9.4902C2.38839 9.83417 2.94632 9.83386 3.28982 9.49036L2.22916 8.4297L1.1685 7.36904C1.99627 6.54126 3.33809 6.54087 4.16617 7.3692L3.10534 8.4297ZM2.22916 8.4297L3.28973 9.49044C3.63354 9.14669 3.63331 8.58885 3.2899 8.24538L2.22916 9.30596L1.16842 10.3665C0.340651 9.53865 0.340416 8.19699 1.16858 7.36896L2.22916 8.4297Z" fill="black" fill-opacity="0.2" mask="url(#path-1-inside-1_294_501)"/>
<path d="M0.75856 17.7607V18.25H1.24684V17.7607H0.75856Z" fill="url(#paint2_linear_294_501)"/>
<path d="M0.75856 17.7607V18.25H1.24684V17.7607H0.75856Z" fill="black" fill-opacity="0.2"/>
<path d="M0.75856 17.7607V18.25H1.24684V17.7607H0.75856Z" stroke="url(#paint3_linear_294_501)" stroke-width="1.5"/>
<path d="M0.75856 17.7607V18.25H1.24684V17.7607H0.75856Z" stroke="black" stroke-opacity="0.2" stroke-width="1.5"/>
</g>
<defs>
<linearGradient id="paint0_linear_294_501" x1="18.9919" y1="18.1826" x2="-1.85995" y2="16.0937" gradientUnits="userSpaceOnUse">
<stop stop-color="#7464E4"/>
<stop offset="1" stop-color="#3354F4"/>
</linearGradient>
<linearGradient id="paint1_linear_294_501" x1="18.9919" y1="18.1826" x2="-1.85995" y2="16.0937" gradientUnits="userSpaceOnUse">
<stop stop-color="#7464E4"/>
<stop offset="1" stop-color="#3354F4"/>
</linearGradient>
<linearGradient id="paint2_linear_294_501" x1="8.68239" y1="18.9998" x2="-0.844636" y2="16.7728" gradientUnits="userSpaceOnUse">
<stop stop-color="#7464E4"/>
<stop offset="1" stop-color="#3354F4"/>
</linearGradient>
<linearGradient id="paint3_linear_294_501" x1="8.68239" y1="18.9998" x2="-0.844636" y2="16.7728" gradientUnits="userSpaceOnUse">
<stop stop-color="#7464E4"/>
<stop offset="1" stop-color="#3354F4"/>
</linearGradient>
<clipPath id="clip0_294_501">
<rect width="19" height="19" fill="white"/>
</clipPath>
</defs>
</svg>
