<svg width="24" height="24" viewBox="0 0 24 24" fill="none" xmlns="http://www.w3.org/2000/svg">
<g opacity="0.966">
<path fill-rule="evenodd" clip-rule="evenodd" d="M22 6.55469C22 6.93231 22 7.30988 22 7.6875C21.5454 9.8691 20.2042 11.0605 17.9766 11.2617C16.1928 11.2812 14.4089 11.2878 12.625 11.2812C12.625 11.6849 12.625 12.0886 12.625 12.4922C13.7874 12.6148 14.9462 12.7646 16.1016 12.9414C16.7477 13.1709 17.1449 13.6201 17.293 14.2891C17.319 16.6719 17.319 19.0547 17.293 21.4375C17.2177 21.63 17.081 21.7537 16.8828 21.8086C14.3936 21.8472 11.9066 21.8342 9.42188 21.7695C9.22906 21.6642 9.11836 21.5014 9.08984 21.2812C9.07684 20.5651 9.06379 19.8489 9.05078 19.1328C8.1409 18.3923 7.24246 17.6371 6.35547 16.8672C5.86984 16.2128 5.81776 15.5227 6.19922 14.7969C6.81941 14.0444 7.59414 13.8295 8.52344 14.1523C8.72227 14.2288 8.89805 14.3395 9.05078 14.4844C9.07031 13.4168 9.07684 12.349 9.07031 11.2812C7.88461 11.2964 6.69969 11.2769 5.51562 11.2227C3.55066 10.8267 2.37879 9.64832 2 7.6875C2 7.30988 2 6.93231 2 6.55469C2.29502 4.98265 3.18044 3.8824 4.65625 3.25391C4.99823 3.1326 5.34979 3.05448 5.71094 3.01953C9.90363 2.99349 14.0964 2.99349 18.2891 3.01953C19.8893 3.2367 21.0286 4.07654 21.707 5.53906C21.83 5.87521 21.9276 6.21375 22 6.55469ZM5.78906 4.21094C9.92973 4.20443 14.0704 4.21094 18.2109 4.23047C19.6111 4.47179 20.4639 5.2856 20.7695 6.67188C20.9104 7.86773 20.5002 8.82477 19.5391 9.54297C19.0788 9.85266 18.571 10.0219 18.0156 10.0508C16.2188 10.0703 14.4219 10.0768 12.625 10.0703C12.6315 9.36707 12.625 8.66395 12.6055 7.96094C12.2649 6.86926 11.5293 6.42004 10.3984 6.61328C9.59988 6.87828 9.16367 7.43168 9.08984 8.27344C9.07031 8.87227 9.06379 9.47121 9.07031 10.0703C8.0416 10.0768 7.01293 10.0703 5.98438 10.0508C4.58455 9.90102 3.6796 9.15231 3.26953 7.80469C3.02864 6.25048 3.60807 5.12418 5.00781 4.42578C5.26726 4.33129 5.52768 4.25968 5.78906 4.21094ZM10.75 7.76563C11.0601 7.74152 11.2749 7.87172 11.3945 8.15625C11.4075 9.78387 11.4206 11.4114 11.4336 13.0391C11.4537 13.3324 11.6034 13.5212 11.8828 13.6055C13.1194 13.7649 14.3564 13.9212 15.5938 14.0742C15.8331 14.0993 15.9959 14.223 16.082 14.4453C16.1016 15.7213 16.1081 16.9973 16.1016 18.2734C14.0312 18.28 11.9609 18.2734 9.89062 18.2539C8.99508 17.4968 8.10313 16.7351 7.21484 15.9688C7.10047 15.5084 7.28277 15.261 7.76172 15.2266C7.92652 15.221 8.07625 15.2666 8.21094 15.3633C8.60316 15.7165 9.0068 16.0551 9.42188 16.3789C9.79527 16.4976 10.0752 16.3869 10.2617 16.0469C10.2747 13.4688 10.2878 10.8906 10.3008 8.3125C10.3448 8.04082 10.4946 7.85852 10.75 7.76563ZM10.2812 19.4844C12.2214 19.4844 14.1614 19.4844 16.1016 19.4844C16.1016 19.862 16.1016 20.2396 16.1016 20.6172C14.1614 20.6172 12.2214 20.6172 10.2812 20.6172C10.2812 20.2396 10.2812 19.862 10.2812 19.4844Z" fill="url(#paint0_linear_294_508)"/>
<path fill-rule="evenodd" clip-rule="evenodd" d="M22 6.55469C22 6.93231 22 7.30988 22 7.6875C21.5454 9.8691 20.2042 11.0605 17.9766 11.2617C16.1928 11.2812 14.4089 11.2878 12.625 11.2812C12.625 11.6849 12.625 12.0886 12.625 12.4922C13.7874 12.6148 14.9462 12.7646 16.1016 12.9414C16.7477 13.1709 17.1449 13.6201 17.293 14.2891C17.319 16.6719 17.319 19.0547 17.293 21.4375C17.2177 21.63 17.081 21.7537 16.8828 21.8086C14.3936 21.8472 11.9066 21.8342 9.42188 21.7695C9.22906 21.6642 9.11836 21.5014 9.08984 21.2812C9.07684 20.5651 9.06379 19.8489 9.05078 19.1328C8.1409 18.3923 7.24246 17.6371 6.35547 16.8672C5.86984 16.2128 5.81776 15.5227 6.19922 14.7969C6.81941 14.0444 7.59414 13.8295 8.52344 14.1523C8.72227 14.2288 8.89805 14.3395 9.05078 14.4844C9.07031 13.4168 9.07684 12.349 9.07031 11.2812C7.88461 11.2964 6.69969 11.2769 5.51562 11.2227C3.55066 10.8267 2.37879 9.64832 2 7.6875C2 7.30988 2 6.93231 2 6.55469C2.29502 4.98265 3.18044 3.8824 4.65625 3.25391C4.99823 3.1326 5.34979 3.05448 5.71094 3.01953C9.90363 2.99349 14.0964 2.99349 18.2891 3.01953C19.8893 3.2367 21.0286 4.07654 21.707 5.53906C21.83 5.87521 21.9276 6.21375 22 6.55469ZM5.78906 4.21094C9.92973 4.20443 14.0704 4.21094 18.2109 4.23047C19.6111 4.47179 20.4639 5.2856 20.7695 6.67188C20.9104 7.86773 20.5002 8.82477 19.5391 9.54297C19.0788 9.85266 18.571 10.0219 18.0156 10.0508C16.2188 10.0703 14.4219 10.0768 12.625 10.0703C12.6315 9.36707 12.625 8.66395 12.6055 7.96094C12.2649 6.86926 11.5293 6.42004 10.3984 6.61328C9.59988 6.87828 9.16367 7.43168 9.08984 8.27344C9.07031 8.87227 9.06379 9.47121 9.07031 10.0703C8.0416 10.0768 7.01293 10.0703 5.98438 10.0508C4.58455 9.90102 3.6796 9.15231 3.26953 7.80469C3.02864 6.25048 3.60807 5.12418 5.00781 4.42578C5.26726 4.33129 5.52768 4.25968 5.78906 4.21094ZM10.75 7.76563C11.0601 7.74152 11.2749 7.87172 11.3945 8.15625C11.4075 9.78387 11.4206 11.4114 11.4336 13.0391C11.4537 13.3324 11.6034 13.5212 11.8828 13.6055C13.1194 13.7649 14.3564 13.9212 15.5938 14.0742C15.8331 14.0993 15.9959 14.223 16.082 14.4453C16.1016 15.7213 16.1081 16.9973 16.1016 18.2734C14.0312 18.28 11.9609 18.2734 9.89062 18.2539C8.99508 17.4968 8.10313 16.7351 7.21484 15.9688C7.10047 15.5084 7.28277 15.261 7.76172 15.2266C7.92652 15.221 8.07625 15.2666 8.21094 15.3633C8.60316 15.7165 9.0068 16.0551 9.42188 16.3789C9.79527 16.4976 10.0752 16.3869 10.2617 16.0469C10.2747 13.4688 10.2878 10.8906 10.3008 8.3125C10.3448 8.04082 10.4946 7.85852 10.75 7.76563ZM10.2812 19.4844C12.2214 19.4844 14.1614 19.4844 16.1016 19.4844C16.1016 19.862 16.1016 20.2396 16.1016 20.6172C14.1614 20.6172 12.2214 20.6172 10.2812 20.6172C10.2812 20.2396 10.2812 19.862 10.2812 19.4844Z" fill="black" fill-opacity="0.2"/>
</g>
<g opacity="0.957">
<path fill-rule="evenodd" clip-rule="evenodd" d="M17.699 5.34375C18.3631 5.36943 18.5779 5.69495 18.3435 6.32031C17.5167 7.14715 16.6899 7.97395 15.8631 8.80078C15.6287 8.93098 15.3943 8.93098 15.1599 8.80078C14.6835 8.33742 14.2213 7.86215 13.7732 7.375C13.6582 6.88906 13.847 6.60262 14.3396 6.51562C14.4645 6.52039 14.5817 6.55293 14.6912 6.61328C14.9516 6.87371 15.212 7.1341 15.4724 7.39453C15.4985 7.42059 15.5245 7.42059 15.5506 7.39453C16.2016 6.74348 16.8526 6.09245 17.5037 5.44141C17.5746 5.41184 17.6397 5.37929 17.699 5.34375Z" fill="url(#paint1_linear_294_508)"/>
<path fill-rule="evenodd" clip-rule="evenodd" d="M17.699 5.34375C18.3631 5.36943 18.5779 5.69495 18.3435 6.32031C17.5167 7.14715 16.6899 7.97395 15.8631 8.80078C15.6287 8.93098 15.3943 8.93098 15.1599 8.80078C14.6835 8.33742 14.2213 7.86215 13.7732 7.375C13.6582 6.88906 13.847 6.60262 14.3396 6.51562C14.4645 6.52039 14.5817 6.55293 14.6912 6.61328C14.9516 6.87371 15.212 7.1341 15.4724 7.39453C15.4985 7.42059 15.5245 7.42059 15.5506 7.39453C16.2016 6.74348 16.8526 6.09245 17.5037 5.44141C17.5746 5.41184 17.6397 5.37929 17.699 5.34375Z" fill="black" fill-opacity="0.2"/>
</g>
<defs>
<linearGradient id="paint0_linear_294_508" x1="2" y1="21.8303" x2="24.907" y2="19.3929" gradientUnits="userSpaceOnUse">
<stop stop-color="#7464E4"/>
<stop offset="1" stop-color="#3354F4"/>
</linearGradient>
<linearGradient id="paint1_linear_294_508" x1="13.7405" y1="8.89843" x2="19.0849" y2="8.19133" gradientUnits="userSpaceOnUse">
<stop stop-color="#7464E4"/>
<stop offset="1" stop-color="#3354F4"/>
</linearGradient>
</defs>
</svg>
