<svg width="40" height="40" viewBox="0 0 40 40" fill="none" xmlns="http://www.w3.org/2000/svg">
<path d="M30 20C30 14.4772 25.5228 10 20 10C14.4772 10 10 14.4772 10 20C10 25.5228 14.4772 30 20 30C25.5228 30 30 25.5228 30 20Z" stroke="#4F4F4F" stroke-width="1.4"/>
<path d="M20.8659 15.7221L21.7458 17.4964C21.8658 17.7434 22.1857 17.9804 22.4557 18.0257L24.0505 18.2929C25.0704 18.4643 25.3104 19.2103 24.5755 19.9462L23.3356 21.1964C23.1256 21.4081 23.0106 21.8164 23.0756 22.1087L23.4306 23.6562C23.7105 24.8812 23.0656 25.355 21.9907 24.7148L20.4959 23.8226C20.2259 23.6613 19.781 23.6613 19.506 23.8226L18.0112 24.7148C16.9413 25.355 16.2914 24.8761 16.5713 23.6562L16.9263 22.1087C16.9913 21.8164 16.8763 21.4081 16.6663 21.1964L15.4265 19.9462C14.6965 19.2103 14.9315 18.4643 15.9514 18.2929L17.5462 18.0257C17.8112 17.9804 18.1312 17.7434 18.2512 17.4964L19.1311 15.7221C19.611 14.7593 20.3909 14.7593 20.8659 15.7221Z" stroke="#4F4F4F" stroke-width="1.4" stroke-linecap="round" stroke-linejoin="round"/>
</svg>
