<svg width="18" height="17" viewBox="0 0 18 17" fill="none" xmlns="http://www.w3.org/2000/svg">
<path opacity="0.966" fill-rule="evenodd" clip-rule="evenodd" d="M17.5 3.11035C17.5 3.44077 17.5 3.77115 17.5 4.10156C17.1022 6.01046 15.9287 7.05295 13.9795 7.229C12.4187 7.24609 10.8578 7.2518 9.29688 7.24609C9.29688 7.59927 9.29688 7.95249 9.29688 8.30567C10.314 8.41299 11.328 8.544 12.3389 8.69873C12.9043 8.89954 13.2518 9.2926 13.3813 9.87793C13.4041 11.9629 13.4041 14.0479 13.3813 16.1328C13.3155 16.3013 13.1959 16.4095 13.0225 16.4575C10.8444 16.4913 8.66828 16.4799 6.49414 16.4233C6.32543 16.3312 6.22856 16.1887 6.20361 15.9961C6.19223 15.3695 6.18082 14.7428 6.16943 14.1162C5.37329 13.4683 4.58715 12.8074 3.81104 12.1338C3.38611 11.5612 3.34054 10.9574 3.67432 10.3223C4.21699 9.66383 4.89487 9.47584 5.70801 9.7583C5.88198 9.82523 6.03579 9.92209 6.16943 10.0488C6.18652 9.11466 6.19223 8.1804 6.18652 7.24609C5.14903 7.25939 4.11223 7.2423 3.07617 7.19483C1.35683 6.84838 0.331442 5.81728 0 4.10156C0 3.77115 0 3.44077 0 3.11035C0.258143 1.73482 1.03288 0.772096 2.32422 0.222169C2.62345 0.116027 2.93107 0.0476678 3.24707 0.0170907C6.91568 -0.0056969 10.5843 -0.0056969 14.2529 0.0170907C15.6531 0.207113 16.65 0.941976 17.2437 2.22168C17.3512 2.51581 17.4367 2.81203 17.5 3.11035ZM3.31543 1.05957C6.93851 1.05387 10.5616 1.05957 14.1846 1.07666C15.4097 1.28782 16.156 1.9999 16.4233 3.21289C16.5466 4.25927 16.1877 5.09667 15.3467 5.7251C14.9439 5.99608 14.4996 6.14418 14.0137 6.16943C12.4414 6.18652 10.8692 6.19223 9.29688 6.18652C9.30258 5.57119 9.29688 4.95595 9.27979 4.34082C8.98181 3.3856 8.3381 2.99253 7.34863 3.16162C6.6499 3.3935 6.26821 3.87772 6.20361 4.61426C6.18652 5.13823 6.18082 5.66231 6.18652 6.18652C5.2864 6.19223 4.38631 6.18652 3.48633 6.16943C2.26148 6.03839 1.46965 5.38327 1.11084 4.2041C0.900061 2.84417 1.40706 1.85866 2.63184 1.24756C2.85885 1.16488 3.08672 1.10222 3.31543 1.05957ZM7.65625 4.16992C7.92757 4.14883 8.11556 4.26275 8.22021 4.51172C8.2316 5.93588 8.24301 7.36002 8.25439 8.78418C8.272 9.04087 8.40301 9.20609 8.64746 9.27979C9.72945 9.41931 10.8118 9.55603 11.8945 9.68994C12.104 9.71185 12.2464 9.8201 12.3218 10.0146C12.3389 11.1311 12.3446 12.2477 12.3389 13.3643C10.5273 13.37 8.71579 13.3643 6.9043 13.3472C6.12069 12.6847 5.34023 12.0182 4.56299 11.3477C4.46291 10.9448 4.62243 10.7284 5.0415 10.6982C5.18571 10.6934 5.31672 10.7332 5.43457 10.8179C5.77777 11.127 6.13095 11.4232 6.49414 11.7065C6.82086 11.8104 7.06583 11.7136 7.229 11.416C7.24039 9.16016 7.2518 6.9043 7.26318 4.64844C7.30174 4.41072 7.43275 4.2512 7.65625 4.16992ZM7.24609 14.4238C8.9437 14.4238 10.6413 14.4238 12.3389 14.4238C12.3389 14.7542 12.3389 15.0846 12.3389 15.415C10.6413 15.415 8.9437 15.415 7.24609 15.415C7.24609 15.0846 7.24609 14.7542 7.24609 14.4238Z" fill="white"/>
<path opacity="0.957" fill-rule="evenodd" clip-rule="evenodd" d="M13.7366 2.05078C14.3177 2.07325 14.5057 2.35808 14.3006 2.90527C13.5771 3.62875 12.8537 4.3522 12.1302 5.07568C11.9251 5.1896 11.72 5.1896 11.515 5.07568C11.0981 4.67024 10.6936 4.25438 10.3016 3.82812C10.2009 3.40293 10.3661 3.15229 10.7972 3.07617C10.9065 3.08034 11.009 3.10881 11.1048 3.16162C11.3327 3.3895 11.5605 3.61734 11.7884 3.84521C11.8112 3.86801 11.834 3.86801 11.8568 3.84521C12.4264 3.27554 12.9961 2.70589 13.5657 2.13623C13.6278 2.11036 13.6847 2.08188 13.7366 2.05078Z" fill="white"/>
</svg>
