<svg width="15" height="17" viewBox="0 0 15 17" fill="none" xmlns="http://www.w3.org/2000/svg">
<path d="M3.875 0.291992V1.95801H11.125V0.291992H12.208V1.95801H13.333C14.0885 1.95801 14.7078 2.57757 14.708 3.33301V15C14.708 15.7556 14.0886 16.375 13.333 16.375H1.66699C0.904024 16.375 0.291992 15.7565 0.291992 15L0.299805 3.33398V3.33301C0.299978 2.57471 0.906036 1.95801 1.66699 1.95801H2.79199V0.291992H3.875ZM1.375 15.292H13.625V6.375H1.375V15.292ZM11.375 11.958V13.042H10.292V11.958H11.375ZM8.04199 11.958V13.042H6.95801V11.958H8.04199ZM4.70801 11.958V13.042H3.625V11.958H4.70801ZM11.375 8.625V9.70801H10.292V8.625H11.375ZM8.04199 8.625V9.70801H6.95801V8.625H8.04199ZM4.70801 8.625V9.70801H3.625V8.625H4.70801ZM1.375 5.29199H13.625V3.04199H1.375V5.29199Z" fill="#4F4F4F" stroke="#4F4F4F" stroke-width="0.583333"/>
</svg>
