<svg width="18" height="18" viewBox="0 0 18 18" fill="none" xmlns="http://www.w3.org/2000/svg">
<path d="M1 9C1 6.87827 1.84285 4.84344 3.34315 3.34315C4.84344 1.84285 6.87827 1 9 1C11.1217 1 13.1566 1.84285 14.6569 3.34315C16.1571 4.84344 17 6.87827 17 9V14.09C17 14.938 17 15.36 16.874 15.699C16.7738 15.9676 16.617 16.2116 16.4143 16.4143C16.2116 16.617 15.9676 16.7738 15.699 16.874C15.36 17 14.937 17 14.09 17H9C6.87827 17 4.84344 16.1571 3.34315 14.6569C1.84285 13.1566 1 11.1217 1 9Z" stroke="url(#paint0_linear_687_4331)" stroke-width="2"/>
<path d="M1 9C1 6.87827 1.84285 4.84344 3.34315 3.34315C4.84344 1.84285 6.87827 1 9 1C11.1217 1 13.1566 1.84285 14.6569 3.34315C16.1571 4.84344 17 6.87827 17 9V14.09C17 14.938 17 15.36 16.874 15.699C16.7738 15.9676 16.617 16.2116 16.4143 16.4143C16.2116 16.617 15.9676 16.7738 15.699 16.874C15.36 17 14.937 17 14.09 17H9C6.87827 17 4.84344 16.1571 3.34315 14.6569C1.84285 13.1566 1 11.1217 1 9Z" stroke="black" stroke-opacity="0.2" stroke-width="2"/>
<path d="M6 8H12M9 12H12" stroke="url(#paint1_linear_687_4331)" stroke-width="2" stroke-linecap="round" stroke-linejoin="round"/>
<path d="M6 8H12M9 12H12" stroke="black" stroke-opacity="0.2" stroke-width="2" stroke-linecap="round" stroke-linejoin="round"/>
<defs>
<linearGradient id="paint0_linear_687_4331" x1="1" y1="17" x2="19.3489" y2="15.1618" gradientUnits="userSpaceOnUse">
<stop stop-color="#7464E4"/>
<stop offset="1" stop-color="#3354F4"/>
</linearGradient>
<linearGradient id="paint1_linear_687_4331" x1="6" y1="12" x2="12.7964" y2="10.9787" gradientUnits="userSpaceOnUse">
<stop stop-color="#7464E4"/>
<stop offset="1" stop-color="#3354F4"/>
</linearGradient>
</defs>
</svg>
