<svg width="36" height="35" viewBox="0 0 36 35" fill="none" xmlns="http://www.w3.org/2000/svg">
<g clip-path="url(#clip0_388_1959)">
<path d="M17.5147 0.371025C17.9211 0.676149 18.1285 1.11058 18.3719 1.54683C18.7455 2.20547 19.1723 2.55254 19.8984 2.76873C20.5192 2.93019 21.1335 2.76277 21.6908 2.46729C21.9729 2.26813 22.1796 2.00861 22.4028 1.74625C22.7863 1.32409 23.2504 1.09251 23.8172 1.04103C24.7018 1.0206 25.2787 1.18295 25.931 1.80948C26.2879 2.22025 26.5286 2.72458 26.5048 3.27706C26.4785 4.13791 26.5212 4.85591 27.0824 5.55275C27.5184 5.98265 28.0674 6.24857 28.6768 6.24688C29.1339 6.22004 29.5263 6.12384 29.9531 5.96346C30.5853 5.78791 31.1962 5.88954 31.7812 6.17644C32.3545 6.58563 32.815 7.10229 32.9568 7.80986C33.0696 8.61654 32.8104 9.21377 32.3595 9.86206C32.0245 10.3525 31.9263 10.8459 31.9922 11.43C32.1193 12.0062 32.3825 12.4721 32.8359 12.8499C33.2165 13.0881 33.5902 13.1886 34.0268 13.267C34.8039 13.4258 35.3246 13.7496 35.789 14.4117C36.0843 14.9407 36.084 15.5938 36 16.1866C35.8276 16.7617 35.5179 17.2118 35.0156 17.5355C34.8082 17.6449 34.5996 17.7493 34.3887 17.8516C33.7533 18.163 33.4503 18.5038 33.1875 19.1683C33.0029 19.7821 33.1145 20.3801 33.3984 20.9432C33.6179 21.2629 33.8867 21.511 34.1806 21.7596C34.7082 22.2148 34.9125 22.7333 34.9673 23.4191C34.9468 24.0389 34.7077 24.5916 34.3125 25.0608C33.8742 25.4728 33.3448 25.7616 32.7355 25.7743C32.677 25.7721 32.6185 25.77 32.5582 25.7677C32.4928 25.7662 32.4273 25.7647 32.3598 25.7631C32.2245 25.7594 32.0891 25.7548 31.9539 25.7493C31.3037 25.7371 30.7354 25.9303 30.222 26.3404C29.7972 26.8052 29.5766 27.4391 29.5807 28.0648C29.6057 28.2934 29.6673 28.4939 29.7378 28.7126C29.9714 29.4387 30.0143 30.0127 29.7422 30.7403C29.4547 31.2846 28.8931 31.8002 28.3035 31.9863C27.3726 32.1526 26.7537 32.0074 25.9453 31.5213C25.8141 31.452 25.6823 31.3838 25.5498 31.3172C25.4701 31.2757 25.4701 31.2757 25.3888 31.2334C24.8959 31.0079 24.3673 31.0398 23.8623 31.2107C23.2058 31.4799 22.7819 31.8502 22.5 32.5152C22.4361 32.728 22.3823 32.943 22.3286 33.1586C22.1401 33.9059 21.8379 34.3467 21.1926 34.7734C20.5739 35.0827 19.7242 35.1164 19.0591 34.9245C18.3993 34.6499 18.0504 34.1953 17.7187 33.5801C17.3293 32.9226 16.9076 32.473 16.1719 32.2312C15.56 32.0825 14.9542 32.1996 14.4053 32.5013C14.092 32.7029 13.8409 32.9365 13.6098 33.2296C13.2351 33.6634 12.7543 33.9067 12.1852 33.9589C11.2847 33.9678 10.6638 33.8343 9.99149 33.1813C9.65739 32.7988 9.48591 32.3721 9.47981 31.8626C9.47813 31.7897 9.47645 31.7167 9.47472 31.6415C9.47174 31.4893 9.46952 31.3372 9.46813 31.185C9.44967 30.4875 9.28553 29.895 8.8014 29.379C8.32379 28.9747 7.73074 28.7081 7.10154 28.7525C6.8146 28.8059 6.53736 28.8817 6.25779 28.9655C5.51953 29.183 4.88512 29.1656 4.19154 28.808C3.64826 28.4727 3.22726 27.9912 3.05418 27.3642C2.92649 26.6436 3.03015 26.0504 3.42799 25.4394C3.51196 25.3195 3.5976 25.2009 3.68534 25.0838C3.99569 24.6246 4.05967 24.0652 3.97978 23.5211C3.81181 22.8827 3.48403 22.3693 2.92152 22.0228C2.59491 21.8667 2.25021 21.7993 1.89842 21.7241C1.13719 21.5444 0.631962 21.1991 0.197458 20.5302C-0.102065 19.9749 -0.0867887 19.2788 0.0463961 18.6733C0.110079 18.4932 0.18425 18.3385 0.281229 18.1744C0.323919 18.1018 0.323919 18.1018 0.367472 18.0277C0.665867 17.6161 1.08733 17.4153 1.53152 17.197C2.07488 16.9286 2.50648 16.613 2.73585 16.0216C2.94849 15.3695 2.93644 14.8364 2.67185 14.1988C2.45952 13.8083 2.14742 13.5351 1.81931 13.2448C1.4753 12.9399 1.24932 12.6606 1.12498 12.2109C1.11193 12.1648 1.09888 12.1187 1.08543 12.0712C0.948326 11.4284 1.10512 10.8353 1.42875 10.2755C1.83202 9.69144 2.33527 9.36904 3.02342 9.22918C3.37744 9.20788 3.72965 9.22719 4.0836 9.24374C4.74813 9.26137 5.30504 9.10645 5.79856 8.63987C6.25695 8.12628 6.43128 7.56913 6.42204 6.88194C6.39668 6.6581 6.3375 6.47967 6.25779 6.26962C6.01623 5.59318 5.99315 4.88048 6.29295 4.21967C6.6362 3.62008 7.13818 3.22891 7.78736 3.01139C8.44216 2.88836 9.12882 2.91225 9.7031 3.26569C10.4395 3.70613 11.0632 4.07268 11.9394 3.85583C12.6021 3.63339 13.0638 3.31654 13.4088 2.6958C13.5143 2.45164 13.5775 2.21088 13.6406 1.9523C13.8015 1.29265 14.038 0.756775 14.6129 0.372689C15.5375 -0.164595 16.5848 -0.177983 17.5147 0.371025Z" fill="#3CBD53"/>
<path d="M25.5234 11.0751C26.304 11.4027 26.9525 12.5169 27.4219 13.2049C27.0097 13.5868 26.5893 13.954 26.1546 14.3095C25.878 14.5385 25.607 14.7738 25.3359 15.0094C25.0225 15.2817 24.7074 15.5518 24.3914 15.8211C24.1082 16.0626 23.8269 16.3063 23.5459 16.5505C23.2603 16.7985 22.9728 17.0431 22.6802 17.2826C22.325 17.5738 21.9796 17.8753 21.6346 18.1786C21.237 18.5279 20.8354 18.8722 20.4323 19.215C20.2424 19.3767 20.0529 19.5388 19.8633 19.7008C19.6357 19.8953 19.408 20.0898 19.1802 20.284C19.1047 20.3485 19.0291 20.4129 18.9536 20.4773C18.9162 20.5093 18.8788 20.5412 18.8402 20.5741C18.5982 20.7808 18.3574 20.9889 18.1171 21.1977C17.7896 21.4822 17.4612 21.7645 17.1255 22.0392C16.8137 22.2947 16.5097 22.5582 16.207 22.8246C15.8863 23.106 15.5656 23.3873 15.2402 23.6632C15.1804 23.7142 15.1206 23.7651 15.059 23.8176C14.9062 23.925 14.9062 23.925 14.6953 23.925C14.5848 23.8199 14.5848 23.8199 14.4676 23.6751C14.3006 23.4739 14.1323 23.2767 13.954 23.0855C13.9123 23.0408 13.8707 22.9962 13.8278 22.9501C13.7849 22.9043 13.742 22.8585 13.6978 22.8113C13.6047 22.7114 13.5117 22.6116 13.4187 22.5117C13.373 22.4627 13.3273 22.4136 13.2803 22.3631C12.9871 22.0473 12.697 21.7286 12.4068 21.4101C12.2323 21.2188 12.0575 21.0278 11.8828 20.8367C11.8125 20.7598 11.7422 20.6829 11.6719 20.606C11.6197 20.5489 11.6197 20.5489 11.5664 20.4906C11.1797 20.0676 10.793 19.6446 10.4062 19.2216C10.3714 19.1835 10.3365 19.1454 10.3006 19.1061C10.2308 19.0297 10.1609 18.9532 10.0911 18.8768C9.90865 18.6771 9.72592 18.4777 9.54272 18.2787C9.4859 18.2169 9.4859 18.2169 9.42792 18.1538C9.35587 18.0754 9.28373 17.9971 9.21149 17.9189C9.01383 17.7036 8.82716 17.4831 8.64844 17.2515C8.76053 16.9738 8.93946 16.7992 9.14941 16.5904C9.18396 16.556 9.21851 16.5216 9.25411 16.4861C9.4947 16.2482 9.74292 16.0218 9.99893 15.8012C10.1912 15.6312 10.3685 15.4484 10.5469 15.2637C10.7809 15.3425 10.8317 15.4022 10.9855 15.589C11.2336 15.8842 11.492 16.1671 11.7554 16.4484C11.8484 16.5482 11.9414 16.6481 12.0344 16.7479C12.0801 16.797 12.1258 16.846 12.1729 16.8966C12.466 17.2123 12.7561 17.5311 13.0464 17.8495C13.2208 18.0409 13.3956 18.2319 13.5703 18.4229C13.7896 18.6627 14.0088 18.9026 14.2278 19.1426C14.2664 19.1848 14.3049 19.227 14.3446 19.2704C14.4186 19.3515 14.4925 19.4325 14.5665 19.5136C14.7012 19.6611 14.8361 19.8074 14.9766 19.9493C15.2473 19.9307 15.3882 19.7768 15.5786 19.5943C15.8218 19.3667 16.0675 19.1478 16.3257 18.9376C16.6403 18.6805 16.9477 18.4162 17.2529 18.1478C17.6959 17.7584 18.1423 17.3737 18.5914 16.9916C18.7797 16.8314 18.9678 16.671 19.1558 16.5105C19.1932 16.4786 19.2306 16.4467 19.2692 16.4138C19.5112 16.207 19.752 15.9989 19.9922 15.7902C20.3197 15.5057 20.6482 15.2234 20.9839 14.9487C21.3429 14.6545 21.6913 14.3491 22.0397 14.0424C22.2952 13.8179 22.5531 13.5976 22.8164 13.3824C23.1699 13.0932 23.5133 12.7935 23.8564 12.4919C24.1555 12.2291 24.4561 11.9682 24.7588 11.7096C24.7953 11.6783 24.8319 11.647 24.8696 11.6148C25.0848 11.4313 25.3027 11.2518 25.5234 11.0751Z" fill="#FDFEFD"/>
</g>
<defs>
<clipPath id="clip0_388_1959">
<rect width="36" height="35" fill="white"/>
</clipPath>
</defs>
</svg>
