<svg width="24" height="24" viewBox="0 0 24 24" fill="none" xmlns="http://www.w3.org/2000/svg">
<path d="M11.75 8.75C13.4 8.75 14.75 10.1 14.75 11.75C14.75 13.4 13.4 14.75 11.75 14.75C10.1 14.75 8.75 13.4 8.75 11.75C8.75 10.1 10.1 8.75 11.75 8.75ZM11.75 6.75C8.99 6.75 6.75 8.99 6.75 11.75C6.75 14.51 8.99 16.75 11.75 16.75C14.51 16.75 16.75 14.51 16.75 11.75C16.75 8.99 14.51 6.75 11.75 6.75ZM1.75 12.75H3.75C4.3 12.75 4.75 12.3 4.75 11.75C4.75 11.2 4.3 10.75 3.75 10.75H1.75C1.2 10.75 0.75 11.2 0.75 11.75C0.75 12.3 1.2 12.75 1.75 12.75ZM19.75 12.75H21.75C22.3 12.75 22.75 12.3 22.75 11.75C22.75 11.2 22.3 10.75 21.75 10.75H19.75C19.2 10.75 18.75 11.2 18.75 11.75C18.75 12.3 19.2 12.75 19.75 12.75ZM10.75 1.75V3.75C10.75 4.3 11.2 4.75 11.75 4.75C12.3 4.75 12.75 4.3 12.75 3.75V1.75C12.75 1.2 12.3 0.75 11.75 0.75C11.2 0.75 10.75 1.2 10.75 1.75ZM10.75 19.75V21.75C10.75 22.3 11.2 22.75 11.75 22.75C12.3 22.75 12.75 22.3 12.75 21.75V19.75C12.75 19.2 12.3 18.75 11.75 18.75C11.2 18.75 10.75 19.2 10.75 19.75ZM5.74 4.33C5.64749 4.2373 5.5376 4.16375 5.41662 4.11357C5.29565 4.06339 5.16597 4.03756 5.035 4.03756C4.90403 4.03756 4.77435 4.06339 4.65338 4.11357C4.5324 4.16375 4.42251 4.2373 4.33 4.33C4.2373 4.42251 4.16375 4.5324 4.11357 4.65338C4.06339 4.77435 4.03756 4.90403 4.03756 5.035C4.03756 5.16597 4.06339 5.29565 4.11357 5.41662C4.16375 5.5376 4.2373 5.64749 4.33 5.74L5.39 6.8C5.78 7.19 6.42 7.19 6.8 6.8C7.18 6.41 7.19 5.77 6.8 5.39L5.74 4.33ZM18.11 16.7C18.0175 16.6073 17.9076 16.5337 17.7866 16.4836C17.6657 16.4334 17.536 16.4076 17.405 16.4076C17.274 16.4076 17.1443 16.4334 17.0234 16.4836C16.9024 16.5337 16.7925 16.6073 16.7 16.7C16.6073 16.7925 16.5337 16.9024 16.4836 17.0234C16.4334 17.1443 16.4076 17.274 16.4076 17.405C16.4076 17.536 16.4334 17.6657 16.4836 17.7866C16.5337 17.9076 16.6073 18.0175 16.7 18.11L17.76 19.17C18.15 19.56 18.79 19.56 19.17 19.17C19.2627 19.0775 19.3363 18.9676 19.3864 18.8466C19.4366 18.7257 19.4624 18.596 19.4624 18.465C19.4624 18.334 19.4366 18.2043 19.3864 18.0834C19.3363 17.9624 19.2627 17.8525 19.17 17.76L18.11 16.7ZM19.17 5.74C19.2627 5.64749 19.3363 5.5376 19.3864 5.41662C19.4366 5.29565 19.4624 5.16597 19.4624 5.035C19.4624 4.90403 19.4366 4.77435 19.3864 4.65338C19.3363 4.5324 19.2627 4.42251 19.17 4.33C19.0775 4.2373 18.9676 4.16375 18.8466 4.11357C18.7257 4.06339 18.596 4.03756 18.465 4.03756C18.334 4.03756 18.2043 4.06339 18.0834 4.11357C17.9624 4.16375 17.8525 4.2373 17.76 4.33L16.7 5.39C16.31 5.78 16.31 6.42 16.7 6.8C17.09 7.18 17.73 7.19 18.11 6.8L19.17 5.74ZM6.8 18.11C6.8927 18.0175 6.96625 17.9076 7.01643 17.7866C7.06661 17.6657 7.09244 17.536 7.09244 17.405C7.09244 17.274 7.06661 17.1443 7.01643 17.0234C6.96625 16.9024 6.8927 16.7925 6.8 16.7C6.70749 16.6073 6.5976 16.5337 6.47662 16.4836C6.35565 16.4334 6.22597 16.4076 6.095 16.4076C5.96403 16.4076 5.83435 16.4334 5.71338 16.4836C5.5924 16.5337 5.48251 16.6073 5.39 16.7L4.33 17.76C3.94 18.15 3.94 18.79 4.33 19.17C4.72 19.55 5.36 19.56 5.74 19.17L6.8 18.11Z" stroke="url(#paint0_linear_193_4193)" stroke-width="1.5"/>
<path d="M11.75 8.75C13.4 8.75 14.75 10.1 14.75 11.75C14.75 13.4 13.4 14.75 11.75 14.75C10.1 14.75 8.75 13.4 8.75 11.75C8.75 10.1 10.1 8.75 11.75 8.75ZM11.75 6.75C8.99 6.75 6.75 8.99 6.75 11.75C6.75 14.51 8.99 16.75 11.75 16.75C14.51 16.75 16.75 14.51 16.75 11.75C16.75 8.99 14.51 6.75 11.75 6.75ZM1.75 12.75H3.75C4.3 12.75 4.75 12.3 4.75 11.75C4.75 11.2 4.3 10.75 3.75 10.75H1.75C1.2 10.75 0.75 11.2 0.75 11.75C0.75 12.3 1.2 12.75 1.75 12.75ZM19.75 12.75H21.75C22.3 12.75 22.75 12.3 22.75 11.75C22.75 11.2 22.3 10.75 21.75 10.75H19.75C19.2 10.75 18.75 11.2 18.75 11.75C18.75 12.3 19.2 12.75 19.75 12.75ZM10.75 1.75V3.75C10.75 4.3 11.2 4.75 11.75 4.75C12.3 4.75 12.75 4.3 12.75 3.75V1.75C12.75 1.2 12.3 0.75 11.75 0.75C11.2 0.75 10.75 1.2 10.75 1.75ZM10.75 19.75V21.75C10.75 22.3 11.2 22.75 11.75 22.75C12.3 22.75 12.75 22.3 12.75 21.75V19.75C12.75 19.2 12.3 18.75 11.75 18.75C11.2 18.75 10.75 19.2 10.75 19.75ZM5.74 4.33C5.64749 4.2373 5.5376 4.16375 5.41662 4.11357C5.29565 4.06339 5.16597 4.03756 5.035 4.03756C4.90403 4.03756 4.77435 4.06339 4.65338 4.11357C4.5324 4.16375 4.42251 4.2373 4.33 4.33C4.2373 4.42251 4.16375 4.5324 4.11357 4.65338C4.06339 4.77435 4.03756 4.90403 4.03756 5.035C4.03756 5.16597 4.06339 5.29565 4.11357 5.41662C4.16375 5.5376 4.2373 5.64749 4.33 5.74L5.39 6.8C5.78 7.19 6.42 7.19 6.8 6.8C7.18 6.41 7.19 5.77 6.8 5.39L5.74 4.33ZM18.11 16.7C18.0175 16.6073 17.9076 16.5337 17.7866 16.4836C17.6657 16.4334 17.536 16.4076 17.405 16.4076C17.274 16.4076 17.1443 16.4334 17.0234 16.4836C16.9024 16.5337 16.7925 16.6073 16.7 16.7C16.6073 16.7925 16.5337 16.9024 16.4836 17.0234C16.4334 17.1443 16.4076 17.274 16.4076 17.405C16.4076 17.536 16.4334 17.6657 16.4836 17.7866C16.5337 17.9076 16.6073 18.0175 16.7 18.11L17.76 19.17C18.15 19.56 18.79 19.56 19.17 19.17C19.2627 19.0775 19.3363 18.9676 19.3864 18.8466C19.4366 18.7257 19.4624 18.596 19.4624 18.465C19.4624 18.334 19.4366 18.2043 19.3864 18.0834C19.3363 17.9624 19.2627 17.8525 19.17 17.76L18.11 16.7ZM19.17 5.74C19.2627 5.64749 19.3363 5.5376 19.3864 5.41662C19.4366 5.29565 19.4624 5.16597 19.4624 5.035C19.4624 4.90403 19.4366 4.77435 19.3864 4.65338C19.3363 4.5324 19.2627 4.42251 19.17 4.33C19.0775 4.2373 18.9676 4.16375 18.8466 4.11357C18.7257 4.06339 18.596 4.03756 18.465 4.03756C18.334 4.03756 18.2043 4.06339 18.0834 4.11357C17.9624 4.16375 17.8525 4.2373 17.76 4.33L16.7 5.39C16.31 5.78 16.31 6.42 16.7 6.8C17.09 7.18 17.73 7.19 18.11 6.8L19.17 5.74ZM6.8 18.11C6.8927 18.0175 6.96625 17.9076 7.01643 17.7866C7.06661 17.6657 7.09244 17.536 7.09244 17.405C7.09244 17.274 7.06661 17.1443 7.01643 17.0234C6.96625 16.9024 6.8927 16.7925 6.8 16.7C6.70749 16.6073 6.5976 16.5337 6.47662 16.4836C6.35565 16.4334 6.22597 16.4076 6.095 16.4076C5.96403 16.4076 5.83435 16.4334 5.71338 16.4836C5.5924 16.5337 5.48251 16.6073 5.39 16.7L4.33 17.76C3.94 18.15 3.94 18.79 4.33 19.17C4.72 19.55 5.36 19.56 5.74 19.17L6.8 18.11Z" stroke="black" stroke-opacity="0.2" stroke-width="1.5"/>
<defs>
<linearGradient id="paint0_linear_193_4193" x1="0.75" y1="22.75" x2="25.9798" y2="20.2225" gradientUnits="userSpaceOnUse">
<stop stop-color="#7464E4"/>
<stop offset="1" stop-color="#3354F4"/>
</linearGradient>
</defs>
</svg>
