<svg width="11" height="11" viewBox="0 0 11 11" fill="none" xmlns="http://www.w3.org/2000/svg">
<path d="M3.98621 4.49081C3.85238 4.49081 3.72404 4.54397 3.62941 4.6386C3.53477 4.73323 3.48161 4.86158 3.48161 4.9954V7.01379H4.49081V5.5H6.0046V6.76149L7.77069 4.9954L6.0046 3.22931V4.49081H3.98621ZM5.85675 0.147739L10.8523 5.14325C10.9469 5.23788 11 5.3662 11 5.5C11 5.6338 10.9469 5.76212 10.8523 5.85675L5.85675 10.8523C5.76212 10.9469 5.6338 11 5.5 11C5.3662 11 5.23788 10.9469 5.14325 10.8523L0.147739 5.85675C0.0531418 5.76212 0 5.6338 0 5.5C0 5.3662 0.0531418 5.23788 0.147739 5.14325L5.14325 0.147739C5.23788 0.0531418 5.3662 0 5.5 0C5.6338 0 5.76212 0.0531418 5.85675 0.147739Z" fill="#7464E4"/>
</svg>
