<svg width="28" height="28" viewBox="0 0 28 28" fill="none" xmlns="http://www.w3.org/2000/svg">
<path d="M7.18808 11.0158H5.464V9.29173C5.464 9.0631 5.37318 8.84384 5.21151 8.68217C5.04985 8.52051 4.83058 8.42969 4.60195 8.42969C4.37332 8.42969 4.15406 8.52051 3.9924 8.68217C3.83073 8.84384 3.73991 9.0631 3.73991 9.29173V11.0158H2.01582C1.78719 11.0158 1.56793 11.1066 1.40626 11.2683C1.2446 11.43 1.15378 11.6492 1.15378 11.8779C1.15378 12.1065 1.2446 12.3258 1.40626 12.4874C1.56793 12.6491 1.78719 12.7399 2.01582 12.7399H3.73991V14.464C3.73991 14.6926 3.83073 14.9119 3.9924 15.0736C4.15406 15.2352 4.37332 15.326 4.60195 15.326C4.83058 15.326 5.04985 15.2352 5.21151 15.0736C5.37318 14.9119 5.464 14.6926 5.464 14.464V12.7399H7.18808C7.41671 12.7399 7.63598 12.6491 7.79764 12.4874C7.95931 12.3258 8.05013 12.1065 8.05013 11.8779C8.05013 11.6492 7.95931 11.43 7.79764 11.2683C7.63598 11.1066 7.41671 11.0158 7.18808 11.0158Z" fill="#4F4F4F"/>
<path d="M18.0962 13.2965C19.0588 13.2965 19.9998 13.0111 20.8001 12.4763C21.6005 11.9415 22.2243 11.1814 22.5927 10.2921C22.961 9.40282 23.0574 8.42425 22.8696 7.48016C22.6818 6.53608 22.2183 5.66888 21.5376 4.98823C20.857 4.30758 19.9898 3.84405 19.0457 3.65626C18.1016 3.46847 17.1231 3.56485 16.2337 3.93322C15.3444 4.30158 14.5843 4.92538 14.0495 5.72574C13.5148 6.5261 13.2293 7.46707 13.2293 8.42965C13.2306 9.72003 13.7438 10.9572 14.6562 11.8696C15.5687 12.7821 16.8058 13.2953 18.0962 13.2965ZM18.0962 5.18505C18.7379 5.18505 19.3653 5.37534 19.8988 5.73186C20.4324 6.08838 20.8483 6.59512 21.0938 7.18799C21.3394 7.78087 21.4037 8.43325 21.2785 9.06264C21.1533 9.69203 20.8443 10.2702 20.3905 10.7239C19.9367 11.1777 19.3586 11.4867 18.7292 11.6119C18.0998 11.7371 17.4474 11.6728 16.8546 11.4273C16.2617 11.1817 15.755 10.7658 15.3984 10.2323C15.0419 9.69868 14.8516 9.07137 14.8516 8.42965C14.8516 7.56913 15.1935 6.74385 15.8019 6.13537C16.4104 5.52689 17.2357 5.18505 18.0962 5.18505V5.18505Z" fill="#4F4F4F"/>
<path d="M18.0962 14.7148C15.7764 14.7174 13.5523 15.6401 11.9119 17.2805C10.2715 18.9209 9.3488 21.145 9.34622 23.4648C9.34622 23.7227 9.44865 23.97 9.63098 24.1523C9.81331 24.3346 10.0606 24.4371 10.3184 24.4371C10.5763 24.4371 10.8236 24.3346 11.0059 24.1523C11.1882 23.97 11.2907 23.7227 11.2907 23.4648C11.2907 21.6599 12.0077 19.9289 13.284 18.6526C14.5603 17.3763 16.2913 16.6593 18.0962 16.6593C19.9012 16.6593 21.6322 17.3763 22.9085 18.6526C24.1848 19.9289 24.9018 21.6599 24.9018 23.4648C24.9018 23.7227 25.0042 23.97 25.1865 24.1523C25.3688 24.3346 25.6161 24.4371 25.874 24.4371C26.1318 24.4371 26.3791 24.3346 26.5615 24.1523C26.7438 23.97 26.8462 23.7227 26.8462 23.4648C26.8436 21.145 25.9209 18.9209 24.2806 17.2805C22.6402 15.6401 20.4161 14.7174 18.0962 14.7148V14.7148Z" fill="#4F4F4F"/>
</svg>
