<svg width="24" height="21" viewBox="0 0 24 21" fill="none" xmlns="http://www.w3.org/2000/svg">
<path d="M16.2608 3.47525C18.4304 3.47525 20.1948 5.23965 20.1948 7.40925C20.1948 12.0012 14.7432 16.2027 11.835 18.2504C8.92679 16.2027 3.47525 12.0012 3.47525 7.40925C3.47525 5.23965 5.23965 3.47525 7.40925 3.47525C8.04096 3.47667 8.66308 3.62982 9.22326 3.92181C9.78344 4.21379 10.2653 4.63607 10.6282 5.1531L11.835 6.87128L13.0418 5.15408C13.4046 4.63687 13.8864 4.2144 14.4466 3.92224C15.0068 3.63008 15.629 3.47678 16.2608 3.47525ZM16.2608 2C15.392 1.99987 14.5361 2.20937 13.7656 2.61071C12.9951 3.01204 12.3328 3.59337 11.835 4.30532C11.3372 3.59337 10.6749 3.01204 9.90442 2.61071C9.13394 2.20937 8.27799 1.99987 7.40925 2C5.97463 2 4.59876 2.5699 3.58433 3.58433C2.5699 4.59876 2 5.97463 2 7.40925C2 13.0339 8.39275 17.675 11.835 20.0472C15.2773 17.675 21.67 13.0339 21.67 7.40925C21.67 6.6989 21.5301 5.9955 21.2582 5.33922C20.9864 4.68294 20.588 4.08663 20.0857 3.58433C19.5834 3.08204 18.9871 2.68359 18.3308 2.41175C17.6745 2.13991 16.9711 2 16.2608 2Z" fill="#4F4F4F"/>
</svg>
