<svg width="44" height="31" viewBox="0 0 44 31" fill="none" xmlns="http://www.w3.org/2000/svg">
<path d="M2.85374 25.0325C2.5895 25.0022 2.4095 25.1373 2.2865 25.3839L3.00758 25.6723C3.11834 25.4392 3.0671 25.226 2.85374 25.0325Z" fill="#263238"/>
<path d="M3.00197 25.0359C2.98361 25.0819 2.93153 25.1042 2.88557 25.0858C2.83961 25.0675 2.81729 25.0154 2.83565 24.9694C2.85401 24.9235 2.90609 24.9012 2.95205 24.9195C2.99801 24.9379 3.02033 24.99 3.00197 25.0359Z" fill="#263238"/>
<g opacity="0.1">
<path d="M2.2884 25.385L0 30.8635L2.991 30.8535L3.00936 25.6734L2.2884 25.385Z" fill="#E0E0E0"/>
</g>
<path d="M40.6615 25.0325C40.9258 25.0022 41.1058 25.1373 41.2288 25.3839L40.5077 25.6723C40.3969 25.4392 40.4483 25.226 40.6615 25.0325Z" fill="#263238"/>
<path d="M40.5123 25.0359C40.5307 25.0819 40.5828 25.1042 40.6287 25.0858C40.6747 25.0675 40.697 25.0154 40.6787 24.9694C40.6603 24.9235 40.6082 24.9012 40.5623 24.9195C40.5163 24.9379 40.4939 24.99 40.5123 25.0359Z" fill="#263238"/>
<g opacity="0.1">
<path d="M41.226 25.385L43.5143 30.8635L40.5233 30.8535L40.5049 25.6734L41.226 25.385Z" fill="#E0E0E0"/>
</g>
<path d="M41.4584 14.7352C41.4584 14.7722 41.4885 14.8024 41.5256 14.8024C41.5627 14.8024 41.5928 14.7722 41.5928 14.7352C41.5928 14.6981 41.5627 14.668 41.5256 14.668C41.4885 14.668 41.4584 14.6981 41.4584 14.7352Z" fill="#263238"/>
<path d="M40.4208 16.6611H41.5706V15.6905H40.4208V16.6611Z" fill="#263238"/>
<path d="M41.5404 15.7661H41.5104V14.82H40.4911V14.79H41.5404V15.7661Z" fill="#263238"/>
<path d="M41.5219 15.3135H40.5006V15.3435H41.5219V15.3135Z" fill="#263238"/>
<path d="M41.4584 19.908C41.4584 19.9451 41.4885 19.9752 41.5256 19.9752C41.5627 19.9752 41.5928 19.9451 41.5928 19.908C41.5928 19.8709 41.5627 19.8408 41.5256 19.8408C41.4885 19.8408 41.4584 19.8709 41.4584 19.908Z" fill="#263238"/>
<path d="M40.4208 21.8337H41.5706V20.8631H40.4208V21.8337Z" fill="#263238"/>
<path d="M41.5404 20.9348H41.5104V19.9887H40.4911V19.9587H41.5404V20.9348Z" fill="#263238"/>
<path d="M41.5219 20.4863H40.5006V20.5163H41.5219V20.4863Z" fill="#263238"/>
<path d="M1.94116 14.8021C1.97828 14.8021 2.00836 14.772 2.00836 14.7349C2.00836 14.6978 1.97828 14.6677 1.94116 14.6677C1.90405 14.6677 1.87396 14.6978 1.87396 14.7349C1.87396 14.772 1.90405 14.8021 1.94116 14.8021Z" fill="#263238"/>
<path d="M3.04455 15.6902H1.89471V16.6609H3.04455V15.6902Z" fill="#263238"/>
<path d="M1.95572 15.7659H1.92572V14.7898H2.975V14.8198H1.95572V15.7659Z" fill="#263238"/>
<path d="M2.96608 15.3132H1.94476V15.3432H2.96608V15.3132Z" fill="#263238"/>
<path d="M2.00836 20.0621C2.00836 20.0992 1.97824 20.1293 1.94116 20.1293C1.90408 20.1293 1.87396 20.0992 1.87396 20.0621C1.87396 20.0249 1.90408 19.9949 1.94116 19.9949C1.97824 19.9949 2.00836 20.0249 2.00836 20.0621Z" fill="#263238"/>
<path d="M3.04455 21.0168H1.89471V21.9875H3.04455V21.0168Z" fill="#263238"/>
<path d="M1.95572 21.0885H1.92572V20.1125H2.975V20.1425H1.95572V21.0885Z" fill="#263238"/>
<path d="M2.96608 20.6404H1.94476V20.6704H2.96608V20.6404Z" fill="#263238"/>
<path d="M27.4509 1.71707C27.4509 1.72391 25.1891 1.72955 22.3994 1.72955C19.6088 1.72955 17.3474 1.72391 17.3474 1.71707C17.3474 1.71023 19.6088 1.70459 22.3994 1.70459C25.1891 1.70447 27.4509 1.71011 27.4509 1.71707Z" fill="#263238"/>
<path d="M17.3355 4.33837C17.3286 4.33837 17.3231 3.85513 17.3231 3.25909C17.3231 2.66293 17.3287 2.17969 17.3355 2.17969C17.3425 2.17969 17.348 2.66281 17.348 3.25909C17.348 3.85501 17.3424 4.33837 17.3355 4.33837Z" fill="#263238"/>
<path d="M18.8452 4.33837C18.8384 4.33837 18.8328 3.85513 18.8328 3.25909C18.8328 2.66293 18.8384 2.17969 18.8452 2.17969C18.8521 2.17969 18.8577 2.66281 18.8577 3.25909C18.8577 3.85501 18.8522 4.33837 18.8452 4.33837Z" fill="#263238"/>
<path d="M19.8961 4.33837C19.8892 4.33837 19.8837 3.85513 19.8837 3.25909C19.8837 2.66293 19.8893 2.17969 19.8961 2.17969C19.9031 2.17969 19.9086 2.66281 19.9086 3.25909C19.9087 3.85501 19.9031 4.33837 19.8961 4.33837Z" fill="#263238"/>
<path d="M21.5547 4.33837C21.5477 4.33837 21.5422 3.85513 21.5422 3.25909C21.5422 2.66293 21.5478 2.17969 21.5547 2.17969C21.5615 2.17969 21.5671 2.66281 21.5671 3.25909C21.5671 3.85501 21.5615 4.33837 21.5547 4.33837Z" fill="#263238"/>
<path d="M22.9198 4.33837C22.9129 4.33837 22.9073 3.85513 22.9073 3.25909C22.9073 2.66293 22.913 2.17969 22.9198 2.17969C22.9267 2.17969 22.9323 2.66281 22.9323 3.25909C22.9323 3.85501 22.9267 4.33837 22.9198 4.33837Z" fill="#263238"/>
<path d="M24.294 4.33837C24.2872 4.33837 24.2816 3.85513 24.2816 3.25909C24.2816 2.66293 24.2872 2.17969 24.294 2.17969C24.301 2.17969 24.3065 2.66281 24.3065 3.25909C24.3065 3.85501 24.301 4.33837 24.294 4.33837Z" fill="#263238"/>
<path d="M26.3576 4.33837C26.3506 4.33837 26.3451 3.85513 26.3451 3.25909C26.3451 2.66293 26.3507 2.17969 26.3576 2.17969C26.3645 2.17969 26.3701 2.66281 26.3701 3.25909C26.3702 3.85501 26.3645 4.33837 26.3576 4.33837Z" fill="#263238"/>
<path d="M27.4522 4.29689C27.4205 4.30469 27.3999 3.79373 27.3949 2.97665C27.3924 2.56745 27.3933 2.08013 27.4002 1.53905C27.4042 1.26845 27.4083 0.984529 27.4199 0.690049L27.4255 0.579049L27.4296 0.523009L27.4327 0.494688L27.4351 0.479928L27.4374 0.471408C27.4398 0.468288 27.436 0.469009 27.4452 0.461689C27.4469 0.459049 27.4585 0.459768 27.4619 0.465168C27.4675 0.472368 27.4633 0.482088 27.4617 0.482208C27.4401 0.494688 27.4378 0.489048 27.426 0.492048L27.3976 0.494328L27.3408 0.497329L27.2271 0.500808C27.075 0.502608 26.9207 0.504528 26.7646 0.506328C25.2432 0.509808 23.8979 0.490728 23.0854 0.479928L23.0927 0.472729C23.0913 0.734569 23.0902 0.943848 23.0893 1.09469C23.0881 1.23881 23.0855 1.31621 23.0855 1.31621C23.0855 1.31621 23.0829 1.23881 23.0817 1.09469C23.0808 0.943848 23.0797 0.734569 23.0783 0.472729V0.465408H23.0857C23.8983 0.469728 25.2438 0.484728 26.7647 0.481248C26.9207 0.479448 27.0749 0.477649 27.2268 0.475849C27.3018 0.476929 27.3802 0.465289 27.4498 0.472009C27.4534 0.474889 27.45 0.473208 27.4523 0.474528C27.4539 0.475848 27.4647 0.482088 27.4611 0.479688L27.4597 0.484729L27.4576 0.497688L27.4546 0.524928L27.4505 0.580248L27.4449 0.690769C27.433 0.984649 27.4283 1.26857 27.4237 1.53893C27.4155 2.07977 27.4128 2.56709 27.4131 2.97617C27.4134 3.38537 27.417 3.71645 27.4236 3.94505C27.4293 4.17353 27.4408 4.30205 27.4522 4.29689Z" fill="#263238"/>
<path d="M40.4059 10.5557H2.99194V30.8571H40.4059V10.5557Z" fill="#F5F5F5"/>
<g opacity="0.1">
<path d="M40.4059 23.0962H2.99194V30.8656H40.4059V23.0962Z" fill="black"/>
</g>
<path d="M41.0325 10.002H2.45825V10.5538H41.0325V10.002Z" fill="#E0E0E0"/>
<path d="M41.5684 9.44922H1.87866V10.0011H41.5684V9.44922Z" fill="#E0E0E0"/>
<g opacity="0.2">
<path d="M41.5684 9.44922H1.87866V10.0011H41.5684V9.44922Z" fill="black"/>
</g>
<path d="M4.25803 4.32764C4.22383 4.43012 1.32019 9.43255 1.32019 9.43255H42.533L39.6481 4.32764H4.25803Z" fill="#FF725E"/>
<path d="M10.0245 2.61475H8.31262V4.32679H10.0245V2.61475Z" fill="#FF725E"/>
<path d="M35.4335 2.61475H33.7216V4.32679H35.4335V2.61475Z" fill="#FF725E"/>
<path d="M31.5064 2.61475H29.7944V4.32679H31.5064V2.61475Z" fill="#FF725E"/>
<path d="M15.6967 3.28345H11.1855V4.32697H15.6967V3.28345Z" fill="#FF725E"/>
<path d="M8.66607 30.8548H7.91751L7.83099 29.3279H8.77707L8.66607 30.8548Z" fill="#263238"/>
<path d="M8.30626 29.6386C8.29594 29.6386 8.28754 29.3843 8.28754 29.0708C8.28754 28.7571 8.29594 28.5029 8.30626 28.5029C8.31658 28.5029 8.32498 28.7571 8.32498 29.0708C8.32498 29.3843 8.31658 29.6386 8.30626 29.6386Z" fill="#263238"/>
<path d="M8.30478 28.6828C8.66928 28.6828 8.96478 28.3873 8.96478 28.0228C8.96478 27.6583 8.66928 27.3628 8.30478 27.3628C7.94027 27.3628 7.64478 27.6583 7.64478 28.0228C7.64478 28.3873 7.94027 28.6828 8.30478 28.6828Z" fill="#455A64"/>
<path d="M8.30456 28.6846C7.93976 28.6846 7.64276 28.3877 7.64276 28.0228C7.64276 27.658 7.93964 27.3611 8.30456 27.3611C8.66948 27.3611 8.96636 27.658 8.96636 28.0228C8.96636 28.3878 8.66948 28.6846 8.30456 28.6846ZM8.30456 27.3647C7.94168 27.3647 7.64648 27.66 7.64648 28.0228C7.64648 28.3856 7.94168 28.681 8.30456 28.681C8.66744 28.681 8.96276 28.3856 8.96276 28.0228C8.96276 27.66 8.66744 27.3647 8.30456 27.3647Z" fill="#263238"/>
<path d="M2.63318 30.8548H1.88462L1.7981 29.3279H2.74418L2.63318 30.8548Z" fill="#263238"/>
<path d="M2.27086 29.6386C2.26054 29.6386 2.25214 29.3843 2.25214 29.0708C2.25214 28.7571 2.26054 28.5029 2.27086 28.5029C2.28118 28.5029 2.28958 28.7571 2.28958 29.0708C2.28958 29.3843 2.28118 29.6386 2.27086 29.6386Z" fill="#263238"/>
<path d="M2.27011 28.6825C2.63462 28.6825 2.93011 28.3871 2.93011 28.0225C2.93011 27.658 2.63462 27.3625 2.27011 27.3625C1.9056 27.3625 1.61011 27.658 1.61011 28.0225C1.61011 28.3871 1.9056 28.6825 2.27011 28.6825Z" fill="#455A64"/>
<path d="M2.27008 28.6841C1.90516 28.6841 1.60828 28.3872 1.60828 28.0223C1.60828 27.6575 1.90516 27.3606 2.27008 27.3606C2.635 27.3606 2.93188 27.6575 2.93188 28.0223C2.93188 28.3873 2.635 28.6841 2.27008 28.6841ZM2.27008 27.3642C1.9072 27.3642 1.61188 27.6595 1.61188 28.0223C1.61188 28.3852 1.90708 28.6805 2.27008 28.6805C2.63296 28.6805 2.92816 28.3852 2.92816 28.0223C2.92816 27.6595 2.63308 27.3642 2.27008 27.3642Z" fill="#263238"/>
<path d="M17.7761 30.8548H17.0277L16.941 29.3279H17.8872L17.7761 30.8548Z" fill="#263238"/>
<path d="M17.4639 29.6183C17.4536 29.6183 17.4452 29.3641 17.4452 29.0505C17.4452 28.7368 17.4536 28.4827 17.4639 28.4827C17.4742 28.4827 17.4826 28.7368 17.4826 29.0505C17.4828 29.3641 17.4743 29.6183 17.4639 29.6183Z" fill="#263238"/>
<path d="M17.4134 28.6828C17.7779 28.6828 18.0734 28.3873 18.0734 28.0228C18.0734 27.6583 17.7779 27.3628 17.4134 27.3628C17.0488 27.3628 16.7534 27.6583 16.7534 28.0228C16.7534 28.3873 17.0488 28.6828 17.4134 28.6828Z" fill="#455A64"/>
<path d="M17.4135 28.6846C17.0486 28.6846 16.7517 28.3877 16.7517 28.0228C16.7517 27.658 17.0486 27.3611 17.4135 27.3611C17.7784 27.3611 18.0753 27.658 18.0753 28.0228C18.0752 28.3878 17.7783 28.6846 17.4135 28.6846ZM17.4135 27.3647C17.0506 27.3647 16.7553 27.66 16.7553 28.0228C16.7553 28.3856 17.0505 28.681 17.4135 28.681C17.7765 28.681 18.0716 28.3856 18.0716 28.0228C18.0716 27.66 17.7764 27.3647 17.4135 27.3647Z" fill="#263238"/>
<path d="M26.1436 30.8552H25.3951L25.3085 29.3284H26.2546L26.1436 30.8552Z" fill="#263238"/>
<path d="M25.7803 29.6198C25.7699 29.6198 25.7615 29.3655 25.7615 29.052C25.7615 28.7383 25.7699 28.4841 25.7803 28.4841C25.7906 28.4841 25.799 28.7383 25.799 29.052C25.799 29.3655 25.7906 29.6198 25.7803 29.6198Z" fill="#263238"/>
<path d="M25.7819 28.685C26.1464 28.685 26.4419 28.3895 26.4419 28.025C26.4419 27.6605 26.1464 27.365 25.7819 27.365C25.4174 27.365 25.1219 27.6605 25.1219 28.025C25.1219 28.3895 25.4174 28.685 25.7819 28.685Z" fill="#455A64"/>
<path d="M6.9747 26.7197H4.19922V30.8547H6.9747V26.7197Z" fill="#455A64"/>
<path d="M6.90597 29.9076C6.90597 29.918 6.31545 29.9264 5.58729 29.9264C4.85889 29.9264 4.26849 29.918 4.26849 29.9076C4.26849 29.8973 4.85877 29.8889 5.58729 29.8889C6.31545 29.8889 6.90597 29.8973 6.90597 29.9076Z" fill="#263238"/>
<g opacity="0.2">
<path d="M6.9747 27.8364L4.19922 29.6131V30.2957L6.9747 28.5298V27.8364Z" fill="white"/>
</g>
<g opacity="0.2">
<path d="M6.9747 28.6831L4.19922 30.4599V30.6007L6.9747 28.8673V28.6831Z" fill="white"/>
</g>
<g opacity="0.2">
<path d="M7.23365 26.8303H3.97961V27.3605H7.23365V26.8303Z" fill="black"/>
</g>
<path d="M3.9458 26.8276H7.30136V26.1667C7.30136 25.6926 7.13996 25.2252 6.81752 24.8776C6.55808 24.598 6.17492 24.3584 5.62352 24.3584C4.95776 24.3584 4.53716 24.7142 4.2836 25.0678C4.055 25.3867 3.94568 25.7757 3.94568 26.1681L3.9458 26.8276Z" fill="#FF725E"/>
<path d="M7.32798 26.0653C7.32762 26.0665 7.31574 26.0644 7.29342 26.0593C7.26426 26.052 7.23234 26.044 7.19646 26.0352C7.11282 26.0126 6.99078 25.9838 6.83922 25.9522C6.53646 25.8888 6.1119 25.8268 5.63982 25.8182C5.1675 25.8108 4.74102 25.8583 4.43634 25.9114C4.28382 25.9378 4.16094 25.9626 4.07658 25.9822C4.04046 25.9899 4.00842 25.9968 3.9789 26.0031C3.95646 26.0074 3.94446 26.0091 3.9441 26.0079C3.94374 26.0067 3.95502 26.0025 3.97686 25.9958C4.00578 25.9874 4.03746 25.9784 4.07298 25.9681C4.1565 25.944 4.27902 25.9153 4.43154 25.8854C4.73634 25.8253 5.1651 25.7732 5.64042 25.7808C6.1155 25.7894 6.54222 25.8559 6.84486 25.9263C6.9963 25.9612 7.11774 25.9942 7.20042 26.0211C7.23558 26.0325 7.2669 26.0427 7.29558 26.0521C7.3173 26.0596 7.32846 26.0641 7.32798 26.0653Z" fill="#263238"/>
<path d="M7.23361 25.5832C7.22593 25.5916 7.09417 25.436 6.82453 25.258C6.75541 25.2166 6.68233 25.1666 6.59509 25.1289C6.55201 25.1093 6.50929 25.0849 6.46201 25.0672C6.41449 25.0499 6.36577 25.0322 6.31585 25.0141C6.11341 24.9497 5.88157 24.9055 5.63581 24.9039C5.38981 24.905 5.15809 24.9502 4.95553 25.0142C4.90561 25.0321 4.85677 25.0495 4.80901 25.0665C4.76209 25.085 4.71889 25.1083 4.67581 25.1278C4.58821 25.1648 4.51513 25.2149 4.44541 25.2554C4.17433 25.4312 4.04029 25.5845 4.03285 25.5761C4.03189 25.5753 4.04017 25.5658 4.05673 25.5487C4.07881 25.5266 4.10317 25.5022 4.13077 25.4746C4.19353 25.4086 4.29673 25.3253 4.43101 25.2332C4.50061 25.1907 4.57393 25.1387 4.66213 25.1C4.70557 25.0796 4.74925 25.0553 4.79653 25.0361C4.84477 25.0184 4.89421 25.0001 4.94473 24.9814C5.14993 24.9146 5.38561 24.8675 5.63593 24.8665C5.88601 24.868 6.12181 24.9141 6.32689 24.9814C6.37729 25.0004 6.42661 25.0189 6.47473 25.037C6.52249 25.0555 6.56557 25.0808 6.60889 25.1013C6.69673 25.1408 6.77005 25.1927 6.83905 25.2361C6.90985 25.277 6.96253 25.3303 7.01449 25.3687C7.06657 25.4074 7.10485 25.4482 7.13689 25.4805C7.16413 25.5085 7.18813 25.5331 7.20997 25.5555C7.22653 25.5728 7.23457 25.5824 7.23361 25.5832Z" fill="#263238"/>
<path d="M12.4328 26.7197H9.65717V30.8547H12.4328V26.7197Z" fill="#455A64"/>
<path d="M12.3618 29.9076C12.3618 29.918 11.7713 29.9264 11.0431 29.9264C10.3146 29.9264 9.7243 29.918 9.7243 29.9076C9.7243 29.8973 10.3146 29.8889 11.0431 29.8889C11.7713 29.8889 12.3618 29.8973 12.3618 29.9076Z" fill="#263238"/>
<g opacity="0.2">
<path d="M12.4328 27.8364L9.65717 29.6131V30.2957L12.4328 28.5298V27.8364Z" fill="white"/>
</g>
<g opacity="0.2">
<path d="M12.4328 28.6831L9.65717 30.4599V30.6007L12.4328 28.8673V28.6831Z" fill="white"/>
</g>
<g opacity="0.2">
<path d="M12.6898 26.8303H9.43573V27.3605H12.6898V26.8303Z" fill="black"/>
</g>
<path d="M9.39978 26.8276H12.7553V26.1667C12.7553 25.6926 12.5939 25.2252 12.2715 24.8776C12.0121 24.598 11.6289 24.3584 11.0775 24.3584C10.4117 24.3584 9.99114 24.7142 9.73758 25.0678C9.50898 25.3867 9.39966 25.7757 9.39966 26.1681L9.39978 26.8276Z" fill="#FF725E"/>
<path d="M12.7815 26.0658C12.7812 26.067 12.7693 26.0649 12.747 26.0598C12.7178 26.0525 12.6859 26.0445 12.65 26.0357C12.5664 26.0131 12.4443 25.9843 12.2928 25.9527C11.99 25.8893 11.5655 25.8273 11.0934 25.8187C10.6211 25.8113 10.1947 25.8588 9.88989 25.9119C9.73749 25.9383 9.61449 25.9631 9.53013 25.9827C9.49401 25.9904 9.46185 25.9973 9.43245 26.0036C9.41001 26.0079 9.39801 26.0096 9.39765 26.0084C9.39729 26.0072 9.40857 26.003 9.43041 25.9963C9.45933 25.9879 9.49101 25.9789 9.52653 25.9686C9.61005 25.9445 9.73257 25.9158 9.88509 25.8859C10.1899 25.8258 10.6187 25.7737 11.094 25.7813C11.5691 25.7899 11.9958 25.8564 12.2984 25.9268C12.4499 25.9617 12.5713 25.9947 12.654 26.0216C12.6891 26.033 12.7205 26.0432 12.7491 26.0526C12.7707 26.0601 12.7819 26.0646 12.7815 26.0658Z" fill="#263238"/>
<path d="M12.6906 25.5832C12.6829 25.5916 12.5511 25.436 12.2815 25.258C12.2124 25.2166 12.1393 25.1666 12.0521 25.1289C12.009 25.1093 11.9663 25.0849 11.9191 25.0672C11.8716 25.0499 11.8229 25.0322 11.7729 25.0141C11.5705 24.9497 11.3387 24.9055 11.0929 24.9039C10.8469 24.905 10.6152 24.9502 10.4126 25.0142C10.3627 25.0321 10.3139 25.0495 10.2662 25.0665C10.2193 25.085 10.1761 25.1083 10.1329 25.1278C10.0453 25.1648 9.97222 25.2149 9.9025 25.2554C9.63142 25.4312 9.49738 25.5845 9.48982 25.5761C9.48886 25.5753 9.49714 25.5658 9.5137 25.5487C9.53578 25.5266 9.56014 25.5022 9.58774 25.4746C9.6505 25.4086 9.7537 25.3253 9.88798 25.2332C9.95758 25.1907 10.0309 25.1387 10.1191 25.1C10.1625 25.0796 10.2062 25.0553 10.2535 25.0361C10.3017 25.0184 10.3512 25.0001 10.4017 24.9814C10.6069 24.9146 10.8426 24.8675 11.0929 24.8665C11.343 24.868 11.5788 24.9141 11.7839 24.9814C11.8343 25.0004 11.8836 25.0189 11.9317 25.037C11.9795 25.0555 12.0225 25.0808 12.0659 25.1013C12.1537 25.1408 12.227 25.1927 12.296 25.2361C12.3668 25.277 12.4195 25.3303 12.4715 25.3687C12.5235 25.4074 12.5618 25.4482 12.5939 25.4805C12.6211 25.5085 12.6451 25.5331 12.6669 25.5555C12.6834 25.5728 12.6915 25.5824 12.6906 25.5832Z" fill="#263238"/>
<path d="M35.3729 30.8548H34.6244L34.5378 29.3279H35.4839L35.3729 30.8548Z" fill="#263238"/>
<path d="M35.0096 29.6386C34.9993 29.6386 34.9909 29.3843 34.9909 29.0708C34.9909 28.7571 34.9993 28.5029 35.0096 28.5029C35.0199 28.5029 35.0283 28.7571 35.0283 29.0708C35.0285 29.3843 35.0201 29.6386 35.0096 29.6386Z" fill="#263238"/>
<path d="M35.0096 28.6825C35.3741 28.6825 35.6696 28.3871 35.6696 28.0225C35.6696 27.658 35.3741 27.3625 35.0096 27.3625C34.6451 27.3625 34.3496 27.658 34.3496 28.0225C34.3496 28.3871 34.6451 28.6825 35.0096 28.6825Z" fill="#455A64"/>
<path d="M35.0098 28.6841C34.6448 28.6841 34.348 28.3872 34.348 28.0223C34.348 27.6575 34.6448 27.3606 35.0098 27.3606C35.3746 27.3606 35.6714 27.6575 35.6714 28.0223C35.6713 28.3873 35.3746 28.6841 35.0098 28.6841ZM35.0098 27.3642C34.6469 27.3642 34.3516 27.6595 34.3516 28.0223C34.3516 28.3852 34.6469 28.6805 35.0098 28.6805C35.3725 28.6805 35.6678 28.3852 35.6678 28.0223C35.6678 27.6595 35.3725 27.3642 35.0098 27.3642Z" fill="#263238"/>
<path d="M41.6317 30.8548H40.8833L40.7966 29.3279H41.7428L41.6317 30.8548Z" fill="#263238"/>
<path d="M41.2689 29.6386C41.2586 29.6386 41.2502 29.3843 41.2502 29.0708C41.2502 28.7571 41.2586 28.5029 41.2689 28.5029C41.2792 28.5029 41.2876 28.7571 41.2876 29.0708C41.2876 29.3843 41.2792 29.6386 41.2689 29.6386Z" fill="#263238"/>
<path d="M41.2687 28.6825C41.6332 28.6825 41.9287 28.3871 41.9287 28.0225C41.9287 27.658 41.6332 27.3625 41.2687 27.3625C40.9042 27.3625 40.6087 27.658 40.6087 28.0225C40.6087 28.3871 40.9042 28.6825 41.2687 28.6825Z" fill="#455A64"/>
<path d="M41.2686 28.6841C40.9037 28.6841 40.6068 28.3872 40.6068 28.0223C40.6068 27.6575 40.9037 27.3606 41.2686 27.3606C41.6335 27.3606 41.9304 27.6575 41.9304 28.0223C41.9303 28.3873 41.6335 28.6841 41.2686 28.6841ZM41.2686 27.3642C40.9057 27.3642 40.6104 27.6595 40.6104 28.0223C40.6104 28.3852 40.9057 28.6805 41.2686 28.6805C41.6316 28.6805 41.9268 28.3852 41.9268 28.0223C41.9268 27.6595 41.6315 27.3642 41.2686 27.3642Z" fill="#263238"/>
<path d="M33.6829 26.7197H30.9074V30.8547H33.6829V26.7197Z" fill="#455A64"/>
<path d="M33.6115 29.9076C33.6115 29.918 33.021 29.9264 32.2929 29.9264C31.5645 29.9264 30.9741 29.918 30.9741 29.9076C30.9741 29.8973 31.5643 29.8889 32.2929 29.8889C33.0211 29.8889 33.6115 29.8973 33.6115 29.9076Z" fill="#263238"/>
<g opacity="0.2">
<path d="M33.6829 27.8364L30.9074 29.6131V30.2957L33.6829 28.5298V27.8364Z" fill="white"/>
</g>
<g opacity="0.2">
<path d="M33.6829 28.6831L30.9074 30.4599V30.6007L33.6829 28.8673V28.6831Z" fill="white"/>
</g>
<g opacity="0.2">
<path d="M33.9401 26.8303H30.686V27.3605H33.9401V26.8303Z" fill="black"/>
</g>
<path d="M30.65 26.8276H34.0056V26.1667C34.0056 25.6926 33.8442 25.2252 33.5217 24.8776C33.2623 24.598 32.8791 24.3584 32.3277 24.3584C31.662 24.3584 31.2414 24.7142 30.9878 25.0678C30.7591 25.3867 30.6499 25.7757 30.6499 26.1681V26.8276H30.65Z" fill="#FF725E"/>
<path d="M34.0318 26.0658C34.0315 26.067 34.0196 26.0649 33.9973 26.0598C33.9681 26.0525 33.9362 26.0445 33.9003 26.0357C33.8167 26.0131 33.6946 25.9843 33.5431 25.9527C33.2403 25.8893 32.8158 25.8273 32.3437 25.8187C31.8714 25.8113 31.445 25.8588 31.1402 25.9119C30.9877 25.9383 30.8648 25.9631 30.7804 25.9827C30.7443 25.9904 30.7123 25.9973 30.6828 26.0036C30.6603 26.0079 30.6483 26.0096 30.648 26.0084C30.6476 26.0072 30.6589 26.003 30.6807 25.9963C30.7096 25.9879 30.7413 25.9789 30.7768 25.9686C30.8604 25.9445 30.9829 25.9158 31.1354 25.8859C31.4402 25.8258 31.869 25.7737 32.3443 25.7813C32.8194 25.7899 33.2461 25.8564 33.5487 25.9268C33.7002 25.9617 33.8216 25.9947 33.9043 26.0216C33.9394 26.033 33.9708 26.0432 33.9994 26.0526C34.021 26.0601 34.0322 26.0646 34.0318 26.0658Z" fill="#263238"/>
<path d="M33.9376 25.5832C33.9299 25.5916 33.7982 25.436 33.5285 25.258C33.4594 25.2166 33.3863 25.1666 33.2991 25.1289C33.256 25.1093 33.2133 25.0849 33.1661 25.0672C33.1186 25.0499 33.0699 25.0322 33.02 25.0141C32.8175 24.9497 32.5857 24.9055 32.3399 24.9039C32.0939 24.905 31.8622 24.9502 31.6596 25.0142C31.6097 25.0321 31.5609 25.0495 31.5132 25.0665C31.4663 25.085 31.4231 25.1083 31.3799 25.1278C31.2923 25.1648 31.2192 25.2149 31.1495 25.2554C30.8784 25.4312 30.7444 25.5845 30.737 25.5761C30.736 25.5753 30.7443 25.5658 30.7608 25.5487C30.7829 25.5266 30.8073 25.5022 30.8349 25.4746C30.8976 25.4086 31.0008 25.3253 31.1351 25.2332C31.2047 25.1907 31.278 25.1387 31.3662 25.1C31.4097 25.0796 31.4534 25.0553 31.5006 25.0361C31.5489 25.0184 31.5983 25.0001 31.6488 24.9814C31.854 24.9146 32.0897 24.8675 32.34 24.8665C32.5901 24.868 32.8259 24.9141 33.031 24.9814C33.0814 25.0004 33.1307 25.0189 33.1788 25.037C33.2266 25.0555 33.2697 25.0808 33.313 25.1013C33.4008 25.1408 33.4741 25.1927 33.5431 25.2361C33.614 25.277 33.6666 25.3303 33.7186 25.3687C33.7707 25.4074 33.8089 25.4482 33.841 25.4805C33.8682 25.5085 33.8922 25.5331 33.9141 25.5555C33.9304 25.5728 33.9384 25.5824 33.9376 25.5832Z" fill="#263238"/>
<path d="M39.1397 26.7192H36.3642V30.8542H39.1397V26.7192Z" fill="#455A64"/>
<path d="M39.0717 29.9076C39.0717 29.918 38.4812 29.9264 37.753 29.9264C37.0246 29.9264 36.4342 29.918 36.4342 29.9076C36.4342 29.8973 37.0245 29.8889 37.753 29.8889C38.4812 29.8889 39.0717 29.8973 39.0717 29.9076Z" fill="#263238"/>
<g opacity="0.2">
<path d="M39.1397 27.8364L36.3642 29.6131V30.2957L39.1397 28.5298V27.8364Z" fill="white"/>
</g>
<g opacity="0.2">
<path d="M39.1397 28.6831L36.3642 30.4599V30.6007L39.1397 28.8673V28.6831Z" fill="white"/>
</g>
<g opacity="0.2">
<path d="M39.3974 26.8303H36.1434V27.3605H39.3974V26.8303Z" fill="black"/>
</g>
<path d="M36.1088 26.8276H39.4643V26.1667C39.4643 25.6926 39.3029 25.2252 38.9805 24.8776C38.721 24.598 38.3379 24.3584 37.7865 24.3584C37.1207 24.3584 36.7001 24.7142 36.4466 25.0678C36.218 25.3867 36.1086 25.7757 36.1086 26.1681L36.1088 26.8276Z" fill="#FF725E"/>
<path d="M39.4938 26.0658C39.4935 26.067 39.4816 26.0649 39.4593 26.0598C39.4301 26.0525 39.3982 26.0445 39.3623 26.0357C39.2787 26.0131 39.1566 25.9843 39.0051 25.9527C38.7023 25.8893 38.2777 25.8273 37.8057 25.8187C37.3333 25.8113 36.907 25.8588 36.6022 25.9119C36.4498 25.9383 36.3268 25.9631 36.2424 25.9827C36.2063 25.9904 36.1741 25.9973 36.1447 26.0036C36.1223 26.0079 36.1103 26.0096 36.1101 26.0084C36.1097 26.0072 36.121 26.003 36.1428 25.9963C36.1717 25.9879 36.2034 25.9789 36.2389 25.9686C36.3225 25.9445 36.445 25.9158 36.5975 25.8859C36.9023 25.8258 37.3311 25.7737 37.8064 25.7813C38.2815 25.7899 38.7082 25.8564 39.0108 25.9268C39.1623 25.9617 39.2837 25.9947 39.3664 26.0216C39.4015 26.033 39.4329 26.0432 39.4615 26.0526C39.4831 26.0601 39.4943 26.0646 39.4938 26.0658Z" fill="#263238"/>
<path d="M39.399 25.5832C39.3913 25.5916 39.2595 25.436 38.9899 25.258C38.9208 25.2166 38.8477 25.1666 38.7604 25.1289C38.7174 25.1093 38.6746 25.0849 38.6275 25.0672C38.58 25.0499 38.5312 25.0322 38.4813 25.0141C38.2789 24.9497 38.047 24.9055 37.8013 24.9039C37.5553 24.905 37.3236 24.9502 37.121 25.0142C37.0711 25.0321 37.0222 25.0495 36.9746 25.0665C36.9277 25.085 36.8845 25.1083 36.8414 25.1278C36.7538 25.1648 36.6807 25.2149 36.611 25.2554C36.3399 25.4312 36.2059 25.5845 36.1983 25.5761C36.1974 25.5753 36.2056 25.5658 36.2222 25.5487C36.2443 25.5266 36.2686 25.5022 36.2962 25.4746C36.359 25.4086 36.4622 25.3253 36.5965 25.2332C36.6661 25.1907 36.7394 25.1387 36.8276 25.1C36.871 25.0796 36.9147 25.0553 36.962 25.0361C37.0102 25.0184 37.0596 25.0001 37.1102 24.9814C37.3154 24.9146 37.5511 24.8675 37.8014 24.8665C38.0515 24.868 38.2873 24.9141 38.4924 24.9814C38.5428 25.0004 38.5921 25.0189 38.6402 25.037C38.6878 25.0555 38.731 25.0808 38.7744 25.1013C38.8622 25.1408 38.9355 25.1927 39.0045 25.2361C39.0753 25.277 39.128 25.3303 39.18 25.3687C39.232 25.4074 39.2703 25.4482 39.3024 25.4805C39.3296 25.5085 39.3536 25.5331 39.3754 25.5555C39.3918 25.5728 39.3999 25.5824 39.399 25.5832Z" fill="#263238"/>
<path d="M24.8728 30.8537H18.1348V27.1131C18.1348 25.2525 19.6432 23.7441 21.5038 23.7441C23.3644 23.7441 24.8728 25.2525 24.8728 27.1131V30.8537Z" fill="#455A64"/>
<g opacity="0.2">
<path d="M24.2706 29.614V30.2595C24.2706 30.2595 23.6358 30.2595 23.5821 30.2595C23.5283 30.2595 23.5821 29.4526 23.5821 29.4526C23.5821 29.4526 23.5648 28.0711 23.5821 28.0885C23.5993 28.1058 19.3215 28.0885 19.3215 28.0885V30.423L18.1353 30.4299V30.8537H24.8733V29.614H24.2706Z" fill="black"/>
</g>
<g opacity="0.2">
<path d="M23.4377 24.3613L18.1337 27.1183L18.1307 28.112L24.0452 24.9056C23.932 24.7664 23.7003 24.5392 23.4377 24.3613Z" fill="white"/>
</g>
<g opacity="0.2">
<path d="M24.2708 25.1914L18.1307 28.839V29.2546L24.4762 25.5526C24.3926 25.3674 24.3812 25.3552 24.2708 25.1914Z" fill="white"/>
</g>
<path d="M25.7891 25.7031C25.5324 25.7731 25.4156 25.9653 25.393 26.2399H26.1696C26.1858 25.9825 26.059 25.8034 25.7891 25.7031Z" fill="#263238"/>
<path d="M25.7809 25.7357C25.8303 25.7357 25.8704 25.6956 25.8704 25.6462C25.8704 25.5967 25.8303 25.5566 25.7809 25.5566C25.7314 25.5566 25.6913 25.5967 25.6913 25.6462C25.6913 25.6956 25.7314 25.7357 25.7809 25.7357Z" fill="#263238"/>
<g opacity="0.1">
<path d="M25.3922 26.2407L24.9255 30.905H26.6369L26.1688 26.2407H25.3922Z" fill="white"/>
</g>
<path d="M17.3589 25.4995C17.1023 25.5695 16.9854 25.7617 16.9628 26.0364H17.7395C17.7557 25.7789 17.6288 25.6 17.3589 25.4995Z" fill="#263238"/>
<path d="M17.3512 25.5316C17.4006 25.5316 17.4407 25.4915 17.4407 25.4421C17.4407 25.3926 17.4006 25.3525 17.3512 25.3525C17.3017 25.3525 17.2617 25.3926 17.2617 25.4421C17.2617 25.4915 17.3017 25.5316 17.3512 25.5316Z" fill="#263238"/>
<g opacity="0.1">
<path d="M16.9636 26.0359L16.4969 30.7003H18.2084L17.7403 26.0359H16.9636Z" fill="white"/>
</g>
<path d="M29.4076 25.3201H26.6321V30.8504H29.4076V25.3201Z" fill="#455A64"/>
<path d="M29.4091 29.9071C29.4091 29.9175 28.7877 29.9259 28.0214 29.9259C27.2548 29.9259 26.6336 29.9175 26.6336 29.9071C26.6336 29.8968 27.2548 29.8884 28.0214 29.8884C28.7876 29.8884 29.4091 29.8968 29.4091 29.9071Z" fill="#263238"/>
<path d="M29.4091 26.4902C29.4091 26.5005 28.7877 26.5089 28.0214 26.5089C27.2548 26.5089 26.6336 26.5005 26.6336 26.4902C26.6336 26.4798 27.2548 26.4714 28.0214 26.4714C28.7876 26.4714 29.4091 26.4798 29.4091 26.4902Z" fill="#263238"/>
<g opacity="0.2">
<path d="M29.4096 26.1853L26.634 27.9621V28.6447L29.4096 26.8788V26.1853Z" fill="white"/>
</g>
<g opacity="0.2">
<path d="M29.4096 27.3015L26.634 29.0782V29.2191L29.4096 27.4857V27.3015Z" fill="white"/>
</g>
<path d="M16.2967 25.3201H13.5212V30.8504H16.2967V25.3201Z" fill="#455A64"/>
<path d="M16.296 29.9071C16.296 29.9175 15.6746 29.9259 14.9083 29.9259C14.1417 29.9259 13.5205 29.9175 13.5205 29.9071C13.5205 29.8968 14.1417 29.8884 14.9083 29.8884C15.6746 29.8884 16.296 29.8968 16.296 29.9071Z" fill="#263238"/>
<path d="M16.296 26.4902C16.296 26.5005 15.6746 26.5089 14.9083 26.5089C14.1417 26.5089 13.5205 26.5005 13.5205 26.4902C13.5205 26.4798 14.1417 26.4714 14.9083 26.4714C15.6746 26.4714 16.296 26.4798 16.296 26.4902Z" fill="#263238"/>
<g opacity="0.2">
<path d="M16.2953 26.1853L13.5198 27.9621V28.6447L16.2953 26.8788V26.1853Z" fill="white"/>
</g>
<g opacity="0.2">
<path d="M16.2953 27.3015L13.5198 29.0782V29.2191L16.2953 27.4857V27.3015Z" fill="white"/>
</g>
<path d="M24.7528 26.6022C24.7528 26.6125 23.2988 26.6209 21.5057 26.6209C19.7119 26.6209 18.2582 26.6125 18.2582 26.6022C18.2582 26.5919 19.7119 26.5835 21.5057 26.5835C23.2987 26.5834 24.7528 26.5918 24.7528 26.6022Z" fill="#263238"/>
<path d="M21.601 26.6079C21.6113 26.6079 21.6197 27.5701 21.6197 28.7567C21.6197 29.9438 21.6113 30.9057 21.601 30.9057C21.5907 30.9057 21.5823 29.9438 21.5823 28.7567C21.5823 27.5701 21.5907 26.6079 21.601 26.6079Z" fill="#263238"/>
<path d="M21.1657 29.3801H21.4412V28.4808H21.1657V29.3801Z" fill="#263238"/>
<path d="M21.804 29.3801H22.0797V28.4808H21.804V29.3801Z" fill="#263238"/>
<path d="M6.82782 15.7653H4.19946V13.4356C4.19946 12.7098 4.78782 12.1213 5.51358 12.1213C6.23934 12.1213 6.8277 12.7097 6.8277 13.4356L6.82782 15.7653Z" fill="#455A64"/>
<path d="M4.85 15.7622C4.84304 15.7622 4.83752 14.9845 4.83752 14.0252C4.83752 13.0657 4.84316 12.2881 4.85 12.2881C4.85684 12.2881 4.86248 13.0657 4.86248 14.0252C4.86248 14.9844 4.85696 15.7622 4.85 15.7622Z" fill="#E0E0E0"/>
<path d="M6.20913 15.7622C6.20217 15.7622 6.19666 14.9845 6.19666 14.0252C6.19666 13.0657 6.20229 12.2881 6.20913 12.2881C6.21597 12.2881 6.22162 13.0657 6.22162 14.0252C6.22162 14.9844 6.21597 15.7622 6.20913 15.7622Z" fill="#E0E0E0"/>
<path d="M6.73509 12.9505C6.73509 12.9574 6.19077 12.9629 5.51949 12.9629C4.84797 12.9629 4.30377 12.9573 4.30377 12.9505C4.30377 12.9436 4.84797 12.938 5.51949 12.938C6.19077 12.938 6.73509 12.9436 6.73509 12.9505Z" fill="#E0E0E0"/>
<path d="M6.73302 13.7534C6.73302 13.7604 6.17058 13.7659 5.47686 13.7659C4.7829 13.7659 4.22058 13.7603 4.22058 13.7534C4.22058 13.7466 4.7829 13.741 5.47686 13.741C6.17058 13.741 6.73302 13.7466 6.73302 13.7534Z" fill="#E0E0E0"/>
<path d="M6.82518 14.4785C6.82518 14.4854 6.2421 14.491 5.52294 14.491C4.80354 14.491 4.22058 14.4854 4.22058 14.4785C4.22058 14.4716 4.80354 14.4661 5.52294 14.4661C6.2421 14.4661 6.82518 14.4716 6.82518 14.4785Z" fill="#E0E0E0"/>
<path d="M6.82518 15.2022C6.82518 15.2091 6.2421 15.2147 5.52294 15.2147C4.80354 15.2147 4.22058 15.209 4.22058 15.2022C4.22058 15.1953 4.80354 15.1897 5.52294 15.1897C6.2421 15.1896 6.82518 15.1952 6.82518 15.2022Z" fill="#E0E0E0"/>
<path d="M5.51242 15.7621C5.50546 15.7621 5.49994 14.9501 5.49994 13.9487C5.49994 12.9468 5.50558 12.135 5.51242 12.135C5.51938 12.135 5.5249 12.9469 5.5249 13.9487C5.5249 14.9501 5.51926 15.7621 5.51242 15.7621Z" fill="#263238"/>
<g opacity="0.1">
<path d="M6.80393 13.0999L4.19861 14.3105V15.1375L6.82697 13.9401L6.85325 13.504C6.86105 13.3742 6.84881 13.2431 6.80957 13.1191C6.80717 13.1114 6.80525 13.1049 6.80393 13.0999Z" fill="white"/>
</g>
<g opacity="0.1">
<path d="M6.64817 12.7913L4.19861 13.919V14.0636L6.70553 12.9318L6.64817 12.7913Z" fill="white"/>
</g>
<path d="M6.82561 15.7611C6.82489 15.7604 6.82405 15.7496 6.82333 15.7294C6.82273 15.7056 6.82189 15.6766 6.82105 15.6408C6.81985 15.559 6.81805 15.4469 6.81589 15.3052C6.81301 15.0116 6.80905 14.5959 6.80401 14.0846C6.80317 13.9562 6.80245 13.8219 6.80161 13.6821C6.79933 13.5423 6.80653 13.3958 6.78529 13.249C6.74533 12.9549 6.59005 12.653 6.33037 12.4406C6.07417 12.2264 5.71321 12.1116 5.35201 12.1587C4.99261 12.2025 4.63897 12.4119 4.43269 12.7388C4.27969 12.9726 4.21801 13.2482 4.22821 13.518C4.22785 13.7909 4.22749 14.0576 4.22725 14.3163C4.22593 14.8332 4.22473 15.3188 4.22365 15.7612L4.19737 15.7349C4.98193 15.7406 5.63461 15.7451 6.09709 15.7485C6.32377 15.7514 6.50365 15.7536 6.63241 15.7553C6.69121 15.7565 6.73825 15.7576 6.77497 15.7583C6.80737 15.7592 6.82465 15.7601 6.82561 15.7611C6.82657 15.762 6.81121 15.763 6.78049 15.764C6.74509 15.7648 6.69973 15.7658 6.64297 15.767C6.51565 15.7686 6.33781 15.7709 6.11365 15.7738C5.64721 15.777 4.98877 15.7817 4.19725 15.7874L4.17097 15.7876L4.17085 15.7611C4.16977 15.3188 4.16845 14.8331 4.16713 14.3162C4.16677 14.0574 4.16653 13.7909 4.16617 13.5179C4.15489 13.2436 4.21945 12.9483 4.37989 12.7049C4.59613 12.3623 4.96741 12.143 5.34421 12.098C5.72257 12.0495 6.10033 12.1712 6.36685 12.3963C6.63709 12.6194 6.79705 12.9354 6.83641 13.2418C6.85729 13.396 6.84853 13.5443 6.84949 13.6859C6.84865 13.8278 6.84781 13.9638 6.84709 14.094C6.84217 14.6075 6.83809 15.025 6.83521 15.3198C6.83305 15.4589 6.83137 15.5691 6.83005 15.6495C6.82909 15.6836 6.82837 15.7113 6.82777 15.734C6.82717 15.7526 6.82645 15.7618 6.82561 15.7611Z" fill="#263238"/>
<path d="M7.06963 16.5305H3.99811V15.806V15.5117H7.06963V16.5305Z" fill="#263238"/>
<path d="M4.07498 15.8361H4.04498V14.4229H7.04006V15.6869H7.01006V14.4529H4.07498V15.8361Z" fill="#263238"/>
<path d="M7.03962 14.998H4.05414V15.028H7.03962V14.998Z" fill="#263238"/>
<path d="M7.08563 14.3773C7.08563 14.4143 7.05551 14.4445 7.01843 14.4445C6.98135 14.4445 6.95123 14.4143 6.95123 14.3773C6.95123 14.3402 6.98135 14.3101 7.01843 14.3101C7.05551 14.3101 7.08563 14.3402 7.08563 14.3773Z" fill="#263238"/>
<path d="M4.12042 14.3773C4.12042 14.4143 4.0903 14.4445 4.05322 14.4445C4.01614 14.4445 3.98602 14.4143 3.98602 14.3773C3.98602 14.3402 4.01614 14.3101 4.05322 14.3101C4.09042 14.3101 4.12042 14.3402 4.12042 14.3773Z" fill="#263238"/>
<path d="M12.2275 15.7653H9.59918V13.4356C9.59918 12.7098 10.1875 12.1213 10.9134 12.1213C11.6392 12.1213 12.2275 12.7097 12.2275 13.4356V15.7653Z" fill="#455A64"/>
<path d="M10.2522 15.7622C10.2453 15.7622 10.2397 14.9845 10.2397 14.0252C10.2397 13.0657 10.2454 12.2881 10.2522 12.2881C10.2591 12.2881 10.2647 13.0657 10.2647 14.0252C10.2647 14.9844 10.2591 15.7622 10.2522 15.7622Z" fill="#E0E0E0"/>
<path d="M11.6114 15.7622C11.6045 15.7622 11.5989 14.9845 11.5989 14.0252C11.5989 13.0657 11.6045 12.2881 11.6114 12.2881C11.6182 12.2881 11.6238 13.0657 11.6238 14.0252C11.6238 14.9844 11.6183 15.7622 11.6114 15.7622Z" fill="#E0E0E0"/>
<path d="M12.1373 12.9505C12.1373 12.9574 11.593 12.9629 10.9217 12.9629C10.2502 12.9629 9.70599 12.9573 9.70599 12.9505C9.70599 12.9436 10.2502 12.938 10.9217 12.938C11.5931 12.938 12.1373 12.9436 12.1373 12.9505Z" fill="#E0E0E0"/>
<path d="M12.1352 13.7534C12.1352 13.7604 11.5728 13.7659 10.8791 13.7659C10.1851 13.7659 9.6228 13.7603 9.6228 13.7534C9.6228 13.7466 10.1851 13.741 10.8791 13.741C11.5728 13.741 12.1352 13.7466 12.1352 13.7534Z" fill="#E0E0E0"/>
<path d="M12.2274 14.4785C12.2274 14.4854 11.6443 14.491 10.9252 14.491C10.2058 14.491 9.6228 14.4854 9.6228 14.4785C9.6228 14.4716 10.2058 14.4661 10.9252 14.4661C11.6443 14.4661 12.2274 14.4716 12.2274 14.4785Z" fill="#E0E0E0"/>
<path d="M12.2274 15.2022C12.2274 15.2091 11.6443 15.2147 10.9252 15.2147C10.2058 15.2147 9.6228 15.209 9.6228 15.2022C9.6228 15.1953 10.2058 15.1897 10.9252 15.1897C11.6443 15.1896 12.2274 15.1952 12.2274 15.2022Z" fill="#E0E0E0"/>
<path d="M10.9146 15.7621C10.9077 15.7621 10.9022 14.9501 10.9022 13.9487C10.9022 12.9468 10.9078 12.135 10.9146 12.135C10.9215 12.135 10.9271 12.9469 10.9271 13.9487C10.9271 14.9501 10.9215 15.7621 10.9146 15.7621Z" fill="#263238"/>
<g opacity="0.1">
<path d="M12.2051 13.0999L9.59973 14.3105V15.1375L12.2281 13.9401L12.2544 13.504C12.2622 13.3742 12.2499 13.2431 12.2107 13.1191C12.2083 13.1114 12.2064 13.1049 12.2051 13.0999Z" fill="white"/>
</g>
<g opacity="0.1">
<path d="M12.0493 12.7913L9.59973 13.919V14.0636L12.1067 12.9318L12.0493 12.7913Z" fill="white"/>
</g>
<path d="M12.2298 15.7611C12.2291 15.7604 12.2283 15.7496 12.2276 15.7294C12.227 15.7056 12.2261 15.6766 12.2253 15.6408C12.2241 15.559 12.2223 15.4469 12.2201 15.3052C12.2172 15.0116 12.2133 14.5959 12.2082 14.0846C12.2074 13.9562 12.2067 13.8219 12.2058 13.6821C12.2037 13.5423 12.2108 13.3958 12.1895 13.249C12.1496 12.9549 11.9943 12.653 11.7346 12.4406C11.4784 12.2264 11.1174 12.1116 10.7562 12.1587C10.3968 12.2025 10.0432 12.4119 9.83693 12.7388C9.68393 12.9726 9.62225 13.2482 9.63245 13.518C9.63209 13.7909 9.63172 14.0576 9.63148 14.3163C9.63016 14.8332 9.62896 15.3188 9.62788 15.7612L9.60161 15.7349C10.3862 15.7406 11.0388 15.7451 11.5013 15.7485C11.728 15.7514 11.9079 15.7536 12.0366 15.7553C12.0954 15.7565 12.1425 15.7576 12.1792 15.7583C12.2116 15.7592 12.2289 15.7601 12.2298 15.7611C12.2308 15.762 12.2154 15.763 12.1847 15.764C12.1494 15.7648 12.104 15.7658 12.0472 15.767C11.9199 15.7686 11.742 15.7709 11.5179 15.7738C11.0513 15.777 10.393 15.7817 9.60148 15.7874L9.57521 15.7876L9.57509 15.7611C9.57401 15.3188 9.57268 14.8331 9.57148 14.3162C9.57112 14.0574 9.57089 13.7909 9.57053 13.5179C9.55925 13.2436 9.62381 12.9483 9.78425 12.7049C10.0006 12.3623 10.3718 12.143 10.7486 12.098C11.1269 12.0495 11.5047 12.1712 11.7712 12.3963C12.0414 12.6194 12.2014 12.9354 12.2408 13.2418C12.2616 13.396 12.2529 13.5443 12.2538 13.6859C12.253 13.8278 12.2522 13.9638 12.2514 14.094C12.2465 14.6075 12.2424 15.025 12.2396 15.3198C12.2374 15.4589 12.2357 15.5691 12.2344 15.6495C12.2334 15.6836 12.2327 15.7113 12.2321 15.734C12.2314 15.7526 12.2307 15.7618 12.2298 15.7611Z" fill="#263238"/>
<path d="M12.4732 16.5305H9.40167V15.806V15.5117H12.4732V16.5305Z" fill="#263238"/>
<path d="M9.47806 15.8361H9.44806V14.4229H12.4431V15.6869H12.4131V14.4529H9.47806V15.8361Z" fill="#263238"/>
<path d="M12.4407 14.998H9.45526V15.028H12.4407V14.998Z" fill="#263238"/>
<path d="M12.4892 14.3773C12.4892 14.4143 12.4591 14.4445 12.422 14.4445C12.3849 14.4445 12.3548 14.4143 12.3548 14.3773C12.3548 14.3402 12.3849 14.3101 12.422 14.3101C12.4591 14.3101 12.4892 14.3402 12.4892 14.3773Z" fill="#263238"/>
<path d="M9.52399 14.3773C9.52399 14.4143 9.49387 14.4445 9.45679 14.4445C9.41971 14.4445 9.38959 14.4143 9.38959 14.3773C9.38959 14.3402 9.41971 14.3101 9.45679 14.3101C9.49387 14.3101 9.52399 14.3402 9.52399 14.3773Z" fill="#263238"/>
<path d="M17.6277 15.7653H14.9993V13.4356C14.9993 12.7098 15.5877 12.1213 16.3134 12.1213C17.0392 12.1213 17.6277 12.7097 17.6277 13.4356V15.7653Z" fill="#455A64"/>
<path d="M15.6493 15.7622C15.6424 15.7622 15.6368 14.9845 15.6368 14.0252C15.6368 13.0657 15.6424 12.2881 15.6493 12.2881C15.6561 12.2881 15.6617 13.0657 15.6617 14.0252C15.6617 14.9844 15.6561 15.7622 15.6493 15.7622Z" fill="#E0E0E0"/>
<path d="M17.0121 15.7622C17.0053 15.7622 16.9996 14.9845 16.9996 14.0252C16.9996 13.0657 17.0053 12.2881 17.0121 12.2881C17.0191 12.2881 17.0246 13.0657 17.0246 14.0252C17.0246 14.9844 17.0191 15.7622 17.0121 15.7622Z" fill="#E0E0E0"/>
<path d="M17.5342 12.9505C17.5342 12.9574 16.9898 12.9629 16.3186 12.9629C15.647 12.9629 15.1028 12.9573 15.1028 12.9505C15.1028 12.9436 15.647 12.938 16.3186 12.938C16.9898 12.938 17.5342 12.9436 17.5342 12.9505Z" fill="#E0E0E0"/>
<path d="M17.5362 13.7534C17.5362 13.7604 16.9737 13.7659 16.28 13.7659C15.5861 13.7659 15.0237 13.7603 15.0237 13.7534C15.0237 13.7466 15.5861 13.741 16.28 13.741C16.9736 13.741 17.5362 13.7466 17.5362 13.7534Z" fill="#E0E0E0"/>
<path d="M17.6283 14.4785C17.6283 14.4854 17.0453 14.491 16.3261 14.491C15.6067 14.491 15.0237 14.4854 15.0237 14.4785C15.0237 14.4716 15.6067 14.4661 16.3261 14.4661C17.0451 14.4661 17.6283 14.4716 17.6283 14.4785Z" fill="#E0E0E0"/>
<path d="M17.6283 15.2022C17.6283 15.2091 17.0453 15.2147 16.3261 15.2147C15.6067 15.2147 15.0237 15.209 15.0237 15.2022C15.0237 15.1953 15.6067 15.1897 16.3261 15.1897C17.0451 15.1896 17.6283 15.1952 17.6283 15.2022Z" fill="#E0E0E0"/>
<path d="M16.3117 15.7621C16.3047 15.7621 16.2992 14.9501 16.2992 13.9487C16.2992 12.9468 16.3048 12.135 16.3117 12.135C16.3185 12.135 16.3242 12.9469 16.3242 13.9487C16.3242 14.9501 16.3186 15.7621 16.3117 15.7621Z" fill="#263238"/>
<g opacity="0.1">
<path d="M17.6044 13.0999L14.9991 14.3105V15.1375L17.6274 13.9401L17.6537 13.504C17.6615 13.3742 17.6493 13.2431 17.61 13.1191C17.6076 13.1114 17.6057 13.1049 17.6044 13.0999Z" fill="white"/>
</g>
<g opacity="0.1">
<path d="M17.4485 12.7913L14.9991 13.919V14.0636L17.5059 12.9318L17.4485 12.7913Z" fill="white"/>
</g>
<path d="M17.6261 15.7611C17.6254 15.7604 17.6245 15.7496 17.6238 15.7294C17.6232 15.7056 17.6224 15.6766 17.6215 15.6408C17.6203 15.559 17.6185 15.4469 17.6164 15.3052C17.6135 15.0116 17.6095 14.5959 17.6045 14.0846C17.6036 13.9562 17.6029 13.8219 17.6021 13.6821C17.5999 13.5423 17.607 13.3958 17.5858 13.249C17.5458 12.9549 17.3905 12.653 17.1307 12.4406C16.8745 12.2264 16.5137 12.1116 16.1524 12.1587C15.793 12.2025 15.4393 12.4119 15.233 12.7388C15.08 12.9726 15.0184 13.2482 15.0286 13.518C15.0282 13.7909 15.0278 14.0576 15.0276 14.3163C15.0263 14.8332 15.0251 15.3188 15.024 15.7612L14.9977 15.7349C15.7823 15.7406 16.435 15.7451 16.8974 15.7485C17.1241 15.7514 17.304 15.7536 17.4328 15.7553C17.4916 15.7565 17.5386 15.7576 17.5753 15.7583C17.6078 15.7592 17.6251 15.7601 17.6261 15.7611C17.627 15.762 17.6117 15.763 17.581 15.764C17.5457 15.7648 17.5002 15.7658 17.4434 15.767C17.3161 15.7686 17.1383 15.7709 16.9141 15.7738C16.4477 15.777 15.7892 15.7817 14.9978 15.7874L14.9716 15.7876L14.9714 15.7611C14.9704 15.3188 14.969 14.8331 14.9677 14.3162C14.9674 14.0574 14.9671 13.7909 14.9668 13.5179C14.9555 13.2436 15.02 12.9483 15.1805 12.7049C15.3968 12.3623 15.768 12.143 16.1448 12.098C16.5232 12.0495 16.9009 12.1712 17.1674 12.3963C17.4377 12.6194 17.5976 12.9354 17.637 13.2418C17.6579 13.396 17.6491 13.5443 17.6501 13.6859C17.6492 13.8278 17.6484 13.9638 17.6477 14.094C17.6428 14.6075 17.6387 15.025 17.6358 15.3198C17.6336 15.4589 17.632 15.5691 17.6306 15.6495C17.6297 15.6836 17.629 15.7113 17.6284 15.734C17.6275 15.7526 17.6268 15.7618 17.6261 15.7611Z" fill="#263238"/>
<path d="M17.8718 16.5305H14.8002V15.806V15.5117H17.8718V16.5305Z" fill="#263238"/>
<path d="M14.8766 15.8361H14.8466V14.4229H17.8418V15.6869H17.8118V14.4529H14.8766V15.8361Z" fill="#263238"/>
<path d="M17.8398 14.998H14.8543V15.028H17.8398V14.998Z" fill="#263238"/>
<path d="M17.8878 14.3773C17.8878 14.4143 17.8576 14.4445 17.8206 14.4445C17.7835 14.4445 17.7534 14.4143 17.7534 14.3773C17.7534 14.3402 17.7835 14.3101 17.8206 14.3101C17.8578 14.3101 17.8878 14.3402 17.8878 14.3773Z" fill="#263238"/>
<path d="M14.9205 14.3773C14.9205 14.4143 14.8904 14.4445 14.8533 14.4445C14.8162 14.4445 14.7861 14.4143 14.7861 14.3773C14.7861 14.3402 14.8162 14.3101 14.8533 14.3101C14.8904 14.3101 14.9205 14.3402 14.9205 14.3773Z" fill="#263238"/>
<path d="M23.0306 15.7653H20.4022V13.4356C20.4022 12.7098 20.9906 12.1213 21.7163 12.1213C22.4421 12.1213 23.0306 12.7097 23.0306 13.4356V15.7653Z" fill="#455A64"/>
<path d="M21.0527 15.7622C21.0457 15.7622 21.0402 14.9845 21.0402 14.0252C21.0402 13.0657 21.0459 12.2881 21.0527 12.2881C21.0595 12.2881 21.0652 13.0657 21.0652 14.0252C21.0652 14.9844 21.0595 15.7622 21.0527 15.7622Z" fill="#E0E0E0"/>
<path d="M22.4116 15.7622C22.4047 15.7622 22.3992 14.9845 22.3992 14.0252C22.3992 13.0657 22.4048 12.2881 22.4116 12.2881C22.4185 12.2881 22.4241 13.0657 22.4241 14.0252C22.4241 14.9844 22.4185 15.7622 22.4116 15.7622Z" fill="#E0E0E0"/>
<path d="M22.9376 12.9505C22.9376 12.9574 22.3933 12.9629 21.722 12.9629C21.0505 12.9629 20.5063 12.9573 20.5063 12.9505C20.5063 12.9436 21.0505 12.938 21.722 12.938C22.3933 12.938 22.9376 12.9436 22.9376 12.9505Z" fill="#E0E0E0"/>
<path d="M22.9357 13.7534C22.9357 13.7604 22.3733 13.7659 21.6796 13.7659C20.9856 13.7659 20.4233 13.7603 20.4233 13.7534C20.4233 13.7466 20.9856 13.741 21.6796 13.741C22.3733 13.741 22.9357 13.7466 22.9357 13.7534Z" fill="#E0E0E0"/>
<path d="M23.0279 14.4785C23.0279 14.4854 22.4448 14.491 21.7256 14.491C21.0062 14.491 20.4233 14.4854 20.4233 14.4785C20.4233 14.4716 21.0062 14.4661 21.7256 14.4661C22.4448 14.4661 23.0279 14.4716 23.0279 14.4785Z" fill="#E0E0E0"/>
<path d="M23.0279 15.2022C23.0279 15.2091 22.4448 15.2147 21.7256 15.2147C21.0062 15.2147 20.4233 15.209 20.4233 15.2022C20.4233 15.1953 21.0062 15.1897 21.7256 15.1897C22.4448 15.1896 23.0279 15.1952 23.0279 15.2022Z" fill="#E0E0E0"/>
<path d="M21.7151 15.7621C21.7083 15.7621 21.7026 14.9501 21.7026 13.9487C21.7026 12.9468 21.7083 12.135 21.7151 12.135C21.7221 12.135 21.7276 12.9469 21.7276 13.9487C21.7276 14.9501 21.7221 15.7621 21.7151 15.7621Z" fill="#263238"/>
<g opacity="0.1">
<path d="M23.0067 13.0999L20.4014 14.3105V15.1375L23.0298 13.9401L23.0561 13.504C23.0639 13.3742 23.0516 13.2431 23.0124 13.1191C23.01 13.1114 23.0079 13.1049 23.0067 13.0999Z" fill="white"/>
</g>
<g opacity="0.1">
<path d="M22.851 12.7913L20.4014 13.919V14.0636L22.9082 12.9318L22.851 12.7913Z" fill="white"/>
</g>
<path d="M23.0284 15.7611C23.0276 15.7604 23.0268 15.7496 23.0261 15.7294C23.0255 15.7056 23.0246 15.6766 23.0238 15.6408C23.0226 15.559 23.0208 15.4469 23.0186 15.3052C23.0158 15.0116 23.0118 14.5959 23.0068 14.0846C23.0059 13.9562 23.0052 13.8219 23.0044 13.6821C23.0022 13.5423 23.0093 13.3958 22.988 13.249C22.9481 12.9549 22.7928 12.653 22.533 12.4406C22.2768 12.2264 21.916 12.1116 21.5546 12.1587C21.1952 12.2025 20.8416 12.4119 20.6353 12.7388C20.4823 12.9726 20.4206 13.2482 20.4308 13.518C20.4305 13.7909 20.4302 14.0576 20.4299 14.3163C20.4286 14.8332 20.4274 15.3188 20.4263 15.7612L20.4 15.7349C21.1846 15.7406 21.8372 15.7451 22.2997 15.7485C22.5264 15.7514 22.7063 15.7536 22.835 15.7553C22.8938 15.7565 22.9409 15.7576 22.9776 15.7583C23.0101 15.7592 23.0274 15.7601 23.0284 15.7611C23.0293 15.762 23.014 15.763 22.9832 15.764C22.948 15.7648 22.9025 15.7658 22.8457 15.767C22.7184 15.7686 22.5406 15.7709 22.3164 15.7738C21.8498 15.777 21.1915 15.7817 20.4 15.7874L20.3737 15.7876L20.3736 15.7611C20.3725 15.3188 20.3712 14.8331 20.3699 14.3162C20.3695 14.0574 20.3693 13.7909 20.3689 13.5179C20.3576 13.2436 20.4222 12.9483 20.5826 12.7049C20.799 12.3623 21.1702 12.143 21.547 12.098C21.9253 12.0495 22.3031 12.1712 22.5696 12.3963C22.8398 12.6194 22.9998 12.9354 23.0392 13.2418C23.06 13.396 23.0513 13.5443 23.0522 13.6859C23.0514 13.8278 23.0506 13.9638 23.0498 14.094C23.0449 14.6075 23.0408 15.025 23.038 15.3198C23.0358 15.4589 23.0341 15.5691 23.0328 15.6495C23.0318 15.6836 23.0311 15.7113 23.0305 15.734C23.0299 15.7526 23.0291 15.7618 23.0284 15.7611Z" fill="#263238"/>
<path d="M23.2723 16.5305H20.2009V15.806V15.5117H23.2723V16.5305Z" fill="#263238"/>
<path d="M20.2792 15.8361H20.2492V14.4229H23.2444V15.6869H23.2144V14.4529H20.2792V15.8361Z" fill="#263238"/>
<path d="M23.2424 14.998H20.2569V15.028H23.2424V14.998Z" fill="#263238"/>
<path d="M23.2212 14.4445C23.2583 14.4445 23.2884 14.4144 23.2884 14.3773C23.2884 14.3401 23.2583 14.3101 23.2212 14.3101C23.1841 14.3101 23.154 14.3401 23.154 14.3773C23.154 14.4144 23.1841 14.4445 23.2212 14.4445Z" fill="#263238"/>
<path d="M20.3231 14.3773C20.3231 14.4143 20.2929 14.4445 20.2559 14.4445C20.2188 14.4445 20.1887 14.4143 20.1887 14.3773C20.1887 14.3402 20.2188 14.3101 20.2559 14.3101C20.2929 14.3101 20.3231 14.3402 20.3231 14.3773Z" fill="#263238"/>
<path d="M28.4301 15.7653H25.8017V13.4356C25.8017 12.7098 26.3901 12.1213 27.1159 12.1213C27.8417 12.1213 28.4302 12.7097 28.4302 13.4356V15.7653H28.4301Z" fill="#455A64"/>
<path d="M26.4547 15.7622C26.4477 15.7622 26.4422 14.9845 26.4422 14.0252C26.4422 13.0657 26.4478 12.2881 26.4547 12.2881C26.4615 12.2881 26.4672 13.0657 26.4672 14.0252C26.4672 14.9844 26.4616 15.7622 26.4547 15.7622Z" fill="#E0E0E0"/>
<path d="M27.8136 15.7622C27.8067 15.7622 27.8011 14.9845 27.8011 14.0252C27.8011 13.0657 27.8068 12.2881 27.8136 12.2881C27.8205 12.2881 27.8261 13.0657 27.8261 14.0252C27.8261 14.9844 27.8205 15.7622 27.8136 15.7622Z" fill="#E0E0E0"/>
<path d="M28.3403 12.9505C28.3403 12.9574 27.796 12.9629 27.1247 12.9629C26.4532 12.9629 25.909 12.9573 25.909 12.9505C25.909 12.9436 26.4532 12.938 27.1247 12.938C27.796 12.938 28.3403 12.9436 28.3403 12.9505Z" fill="#E0E0E0"/>
<path d="M28.3377 13.7534C28.3377 13.7604 27.7753 13.7659 27.0815 13.7659C26.3876 13.7659 25.8253 13.7603 25.8253 13.7534C25.8253 13.7466 26.3876 13.741 27.0815 13.741C27.7753 13.741 28.3377 13.7466 28.3377 13.7534Z" fill="#E0E0E0"/>
<path d="M28.4299 14.4785C28.4299 14.4854 27.8468 14.491 27.1276 14.491C26.4082 14.491 25.8253 14.4854 25.8253 14.4785C25.8253 14.4716 26.4082 14.4661 27.1276 14.4661C27.8468 14.4661 28.4299 14.4716 28.4299 14.4785Z" fill="#E0E0E0"/>
<path d="M28.4299 15.2022C28.4299 15.2091 27.8468 15.2147 27.1276 15.2147C26.4082 15.2147 25.8253 15.209 25.8253 15.2022C25.8253 15.1953 26.4082 15.1897 27.1276 15.1897C27.8468 15.1896 28.4299 15.1952 28.4299 15.2022Z" fill="#E0E0E0"/>
<path d="M27.1171 15.7621C27.1103 15.7621 27.1046 14.9501 27.1046 13.9487C27.1046 12.9468 27.1103 12.135 27.1171 12.135C27.1239 12.135 27.1296 12.9469 27.1296 13.9487C27.1297 14.9501 27.1241 15.7621 27.1171 15.7621Z" fill="#263238"/>
<g opacity="0.1">
<path d="M28.4076 13.0999L25.8023 14.3105V15.1375L28.4307 13.9401L28.4569 13.504C28.4647 13.3742 28.4525 13.2431 28.4133 13.1191C28.4109 13.1114 28.4089 13.1049 28.4076 13.0999Z" fill="white"/>
</g>
<g opacity="0.1">
<path d="M28.2519 12.7913L25.8023 13.919V14.0636L28.3091 12.9318L28.2519 12.7913Z" fill="white"/>
</g>
<path d="M28.4324 15.7611C28.4316 15.7604 28.4308 15.7496 28.4301 15.7294C28.4295 15.7056 28.4286 15.6766 28.4278 15.6408C28.4266 15.559 28.4248 15.4469 28.4226 15.3052C28.4198 15.0116 28.4158 14.5959 28.4108 14.0846C28.4099 13.9562 28.4092 13.8219 28.4084 13.6821C28.4062 13.5423 28.4133 13.3958 28.392 13.249C28.3521 12.9549 28.1968 12.653 27.937 12.4406C27.6808 12.2264 27.32 12.1116 26.9586 12.1587C26.5992 12.2025 26.2456 12.4119 26.0393 12.7388C25.8863 12.9726 25.8246 13.2482 25.8348 13.518C25.8345 13.7909 25.8342 14.0576 25.8339 14.3163C25.8326 14.8332 25.8314 15.3188 25.8303 15.7612L25.804 15.7349C26.5886 15.7406 27.2412 15.7451 27.7037 15.7485C27.9304 15.7514 28.1103 15.7536 28.239 15.7553C28.2978 15.7565 28.3449 15.7576 28.3816 15.7583C28.4141 15.7592 28.4314 15.7601 28.4324 15.7611C28.4333 15.762 28.418 15.763 28.3872 15.764C28.3518 15.7648 28.3065 15.7658 28.2497 15.767C28.1224 15.7686 27.9446 15.7709 27.7204 15.7738C27.254 15.777 26.5955 15.7817 25.804 15.7874L25.7777 15.7876V15.7611C25.7766 15.3188 25.7753 14.8331 25.774 14.3162C25.7736 14.0574 25.7734 13.7909 25.773 13.5179C25.7618 13.2436 25.8263 12.9483 25.9868 12.7049C26.2031 12.3623 26.5743 12.143 26.9511 12.098C27.3294 12.0495 27.7072 12.1712 27.9737 12.3963C28.244 12.6194 28.4039 12.9354 28.4433 13.2418C28.4642 13.396 28.4554 13.5443 28.4564 13.6859C28.4555 13.8278 28.4547 13.9638 28.454 14.094C28.449 14.6075 28.445 15.025 28.4421 15.3198C28.4399 15.4589 28.4382 15.5691 28.4369 15.6495C28.436 15.6836 28.4352 15.7113 28.4346 15.734C28.4339 15.7526 28.4332 15.7618 28.4324 15.7611Z" fill="#263238"/>
<path d="M28.6749 16.5305H25.6035V15.806V15.5117H28.6749V16.5305Z" fill="#263238"/>
<path d="M25.6798 15.8361H25.6498V14.4229H28.645V15.6869H28.615V14.4529H25.6798V15.8361Z" fill="#263238"/>
<path d="M28.6429 14.998H25.6574V15.028H28.6429V14.998Z" fill="#263238"/>
<path d="M28.6238 14.4445C28.6609 14.4445 28.691 14.4144 28.691 14.3773C28.691 14.3401 28.6609 14.3101 28.6238 14.3101C28.5867 14.3101 28.5566 14.3401 28.5566 14.3773C28.5566 14.4144 28.5867 14.4445 28.6238 14.4445Z" fill="#263238"/>
<path d="M25.7256 14.3773C25.7256 14.4143 25.6955 14.4445 25.6584 14.4445C25.6214 14.4445 25.5912 14.4143 25.5912 14.3773C25.5912 14.3402 25.6214 14.3101 25.6584 14.3101C25.6956 14.3101 25.7256 14.3402 25.7256 14.3773Z" fill="#263238"/>
<path d="M33.8322 15.7653H31.2039V13.4356C31.2039 12.7098 31.7922 12.1213 32.5181 12.1213C33.2439 12.1213 33.8323 12.7097 33.8323 13.4356V15.7653H33.8322Z" fill="#455A64"/>
<path d="M31.8532 15.7622C31.8463 15.7622 31.8408 14.9845 31.8408 14.0252C31.8408 13.0657 31.8464 12.2881 31.8532 12.2881C31.8602 12.2881 31.8657 13.0657 31.8657 14.0252C31.8658 14.9844 31.8602 15.7622 31.8532 15.7622Z" fill="#E0E0E0"/>
<path d="M33.2161 15.7622C33.2091 15.7622 33.2036 14.9845 33.2036 14.0252C33.2036 13.0657 33.2093 12.2881 33.2161 12.2881C33.2229 12.2881 33.2286 13.0657 33.2286 14.0252C33.2286 14.9844 33.2229 15.7622 33.2161 15.7622Z" fill="#E0E0E0"/>
<path d="M33.742 12.9505C33.742 12.9574 33.1977 12.9629 32.5264 12.9629C31.8549 12.9629 31.3107 12.9573 31.3107 12.9505C31.3107 12.9436 31.8549 12.938 32.5264 12.938C33.1977 12.938 33.742 12.9436 33.742 12.9505Z" fill="#E0E0E0"/>
<path d="M33.7402 13.7534C33.7402 13.7604 33.1777 13.7659 32.484 13.7659C31.79 13.7659 31.2277 13.7603 31.2277 13.7534C31.2277 13.7466 31.79 13.741 32.484 13.741C33.1777 13.741 33.7402 13.7466 33.7402 13.7534Z" fill="#E0E0E0"/>
<path d="M33.8324 14.4785C33.8324 14.4854 33.2494 14.491 32.5302 14.491C31.8108 14.491 31.2278 14.4854 31.2278 14.4785C31.2278 14.4716 31.8108 14.4661 32.5302 14.4661C33.2494 14.4661 33.8324 14.4716 33.8324 14.4785Z" fill="#E0E0E0"/>
<path d="M33.8323 15.2022C33.8323 15.2091 33.2492 15.2147 32.5301 15.2147C31.8107 15.2147 31.2277 15.209 31.2277 15.2022C31.2277 15.1953 31.8107 15.1897 32.5301 15.1897C33.2492 15.1896 33.8323 15.1952 33.8323 15.2022Z" fill="#E0E0E0"/>
<path d="M32.5196 15.7621C32.5126 15.7621 32.5071 14.9501 32.5071 13.9487C32.5071 12.9468 32.5127 12.135 32.5196 12.135C32.5264 12.135 32.532 12.9469 32.532 13.9487C32.532 14.9501 32.5264 15.7621 32.5196 15.7621Z" fill="#263238"/>
<g opacity="0.1">
<path d="M33.8095 13.0999L31.2042 14.3105V15.1375L33.8325 13.9401L33.8588 13.504C33.8666 13.3742 33.8544 13.2431 33.8151 13.1191C33.8127 13.1114 33.8108 13.1049 33.8095 13.0999Z" fill="white"/>
</g>
<g opacity="0.1">
<path d="M33.6537 12.7913L31.2042 13.919V14.0636L33.7111 12.9318L33.6537 12.7913Z" fill="white"/>
</g>
<path d="M33.8345 15.7611C33.8338 15.7604 33.833 15.7496 33.8322 15.7294C33.8316 15.7056 33.8308 15.6766 33.83 15.6408C33.8288 15.559 33.827 15.4469 33.8248 15.3052C33.8219 15.0116 33.818 14.5959 33.8129 14.0846C33.8121 13.9562 33.8114 13.8219 33.8105 13.6821C33.8084 13.5423 33.8154 13.3958 33.7942 13.249C33.7542 12.9549 33.599 12.653 33.3392 12.4406C33.083 12.2264 32.7221 12.1116 32.3608 12.1587C32.0014 12.2025 31.6478 12.4119 31.4415 12.7388C31.2885 12.9726 31.2268 13.2482 31.237 13.518C31.2366 13.7909 31.2364 14.0576 31.236 14.3163C31.2347 14.8332 31.2335 15.3188 31.2324 15.7612L31.2062 15.7349C31.9907 15.7406 32.6434 15.7451 33.1059 15.7485C33.3326 15.7514 33.5124 15.7536 33.6412 15.7553C33.7 15.7565 33.747 15.7576 33.7838 15.7583C33.8163 15.7592 33.8336 15.7601 33.8345 15.7611C33.8355 15.762 33.8201 15.763 33.7894 15.764C33.754 15.7648 33.7086 15.7658 33.6519 15.767C33.5246 15.7686 33.3467 15.7709 33.1226 15.7738C32.656 15.777 31.9977 15.7817 31.2062 15.7874L31.1799 15.7876L31.1798 15.7611C31.1787 15.3188 31.1774 14.8331 31.1762 14.3162C31.1758 14.0574 31.1756 13.7909 31.1752 13.5179C31.1639 13.2436 31.2285 12.9483 31.3889 12.7049C31.6053 12.3623 31.9764 12.143 32.3532 12.098C32.7316 12.0495 33.1094 12.1712 33.3759 12.3963C33.6461 12.6194 33.8061 12.9354 33.8454 13.2418C33.8663 13.396 33.8576 13.5443 33.8585 13.6859C33.8577 13.8278 33.8568 13.9638 33.8561 14.094C33.8512 14.6075 33.8471 15.025 33.8442 15.3198C33.8421 15.4589 33.8404 15.5691 33.8391 15.6495C33.8381 15.6836 33.8374 15.7113 33.8368 15.734C33.8361 15.7526 33.8354 15.7618 33.8345 15.7611Z" fill="#263238"/>
<path d="M34.0774 16.5305H31.006V15.806V15.5117H34.0774V16.5305Z" fill="#263238"/>
<path d="M31.0824 15.8361H31.0524V14.4229H34.0476V15.6869H34.0176V14.4529H31.0824V15.8361Z" fill="#263238"/>
<path d="M34.0452 14.998H31.0596V15.028H34.0452V14.998Z" fill="#263238"/>
<path d="M34.0264 14.4445C34.0635 14.4445 34.0936 14.4144 34.0936 14.3773C34.0936 14.3401 34.0635 14.3101 34.0264 14.3101C33.9893 14.3101 33.9592 14.3401 33.9592 14.3773C33.9592 14.4144 33.9893 14.4445 34.0264 14.4445Z" fill="#263238"/>
<path d="M31.1282 14.3773C31.1282 14.4143 31.0981 14.4445 31.061 14.4445C31.024 14.4445 30.9938 14.4143 30.9938 14.3773C30.9938 14.3402 31.024 14.3101 31.061 14.3101C31.0981 14.3101 31.1282 14.3402 31.1282 14.3773Z" fill="#263238"/>
<path d="M39.2646 15.7675H36.6362V13.4378C36.6362 12.712 37.2246 12.1235 37.9505 12.1235C38.6762 12.1235 39.2647 12.7119 39.2647 13.4378V15.7675H39.2646Z" fill="#455A64"/>
<path d="M37.2552 15.761C37.2482 15.761 37.2427 14.9833 37.2427 14.024C37.2427 13.0645 37.2483 12.2869 37.2552 12.2869C37.262 12.2869 37.2676 13.0645 37.2676 14.024C37.2676 14.9831 37.262 15.761 37.2552 15.761Z" fill="#E0E0E0"/>
<path d="M38.6146 15.7605C38.6076 15.7605 38.6021 14.9828 38.6021 14.0235C38.6021 13.064 38.6078 12.2864 38.6146 12.2864C38.6216 12.2864 38.6271 13.064 38.6271 14.0235C38.6271 14.9827 38.6216 15.7605 38.6146 15.7605Z" fill="#E0E0E0"/>
<path d="M39.1405 12.9473C39.1405 12.9543 38.5962 12.9598 37.9249 12.9598C37.2534 12.9598 36.7092 12.9541 36.7092 12.9473C36.7092 12.9405 37.2534 12.9348 37.9249 12.9348C38.5963 12.9348 39.1405 12.9405 39.1405 12.9473Z" fill="#E0E0E0"/>
<path d="M39.1424 13.7517C39.1424 13.7587 38.5799 13.7642 37.8862 13.7642C37.1923 13.7642 36.6299 13.7586 36.6299 13.7517C36.6299 13.7449 37.1923 13.7393 37.8862 13.7393C38.5799 13.7393 39.1424 13.7449 39.1424 13.7517Z" fill="#E0E0E0"/>
<path d="M39.2345 14.4754C39.2345 14.4822 38.6515 14.4878 37.9323 14.4878C37.2129 14.4878 36.6299 14.4822 36.6299 14.4754C36.6299 14.4684 37.2129 14.4629 37.9323 14.4629C38.6515 14.4629 39.2345 14.4684 39.2345 14.4754Z" fill="#E0E0E0"/>
<path d="M39.2345 15.199C39.2345 15.206 38.6515 15.2115 37.9323 15.2115C37.2129 15.2115 36.6299 15.2058 36.6299 15.199C36.6299 15.1922 37.2129 15.1865 37.9323 15.1865C38.6515 15.1864 39.2345 15.192 39.2345 15.199Z" fill="#E0E0E0"/>
<path d="M37.9181 15.759C37.9112 15.759 37.9056 14.9469 37.9056 13.9455C37.9056 12.9436 37.9112 12.1318 37.9181 12.1318C37.9249 12.1318 37.9305 12.9438 37.9305 13.9455C37.9305 14.9469 37.9249 15.759 37.9181 15.759Z" fill="#263238"/>
<g opacity="0.1">
<path d="M39.2091 13.0999L36.6038 14.3105V15.1375L39.2322 13.9401L39.2585 13.504C39.2663 13.3742 39.254 13.2431 39.2148 13.1191C39.2124 13.1114 39.2105 13.1049 39.2091 13.0999Z" fill="white"/>
</g>
<g opacity="0.1">
<path d="M39.0534 12.7913L36.6038 13.919V14.0636L39.1107 12.9318L39.0534 12.7913Z" fill="white"/>
</g>
<path d="M39.2311 15.7611C39.2303 15.7604 39.2295 15.7496 39.2288 15.7294C39.2282 15.7056 39.2273 15.6766 39.2265 15.6408C39.2253 15.559 39.2235 15.4469 39.2213 15.3052C39.2185 15.0116 39.2145 14.5959 39.2095 14.0846C39.2086 13.9562 39.2079 13.8219 39.2071 13.6821C39.2049 13.5423 39.212 13.3958 39.1907 13.249C39.1508 12.9549 38.9955 12.653 38.7358 12.4406C38.4796 12.2264 38.1188 12.1116 37.7575 12.1587C37.3981 12.2025 37.0444 12.4119 36.8381 12.7388C36.6851 12.9726 36.6235 13.2482 36.6337 13.518C36.6333 13.7909 36.6329 14.0576 36.6327 14.3163C36.6314 14.8332 36.6302 15.3188 36.6291 15.7612L36.6028 15.7349C37.3874 15.7406 38.0401 15.7451 38.5025 15.7485C38.7292 15.7514 38.9091 15.7536 39.0379 15.7553C39.0967 15.7565 39.1437 15.7576 39.1804 15.7583C39.2128 15.7592 39.2301 15.7601 39.2311 15.7611C39.232 15.762 39.2167 15.763 39.1859 15.764C39.1507 15.7648 39.1052 15.7658 39.0484 15.767C38.9211 15.7686 38.7433 15.7709 38.5191 15.7738C38.0525 15.777 37.3942 15.7817 36.6027 15.7874L36.5764 15.7876L36.5763 15.7611C36.5752 15.3188 36.5739 14.8331 36.5727 14.3162C36.5723 14.0574 36.5721 13.7909 36.5717 13.5179C36.5605 13.2436 36.625 12.9483 36.7855 12.7049C37.0018 12.3623 37.373 12.143 37.7498 12.098C38.1281 12.0495 38.5059 12.1712 38.7724 12.3963C39.0427 12.6194 39.2026 12.9354 39.242 13.2418C39.2629 13.396 39.2541 13.5443 39.2551 13.6859C39.2542 13.8278 39.2534 13.9638 39.2527 14.094C39.2477 14.6075 39.2437 15.025 39.2408 15.3198C39.2386 15.4589 39.2369 15.5691 39.2356 15.6495C39.2347 15.6836 39.2339 15.7113 39.2333 15.734C39.2326 15.7526 39.2319 15.7618 39.2311 15.7611Z" fill="#263238"/>
<path d="M39.4771 16.5305H36.4056V15.806V15.5117H39.4771V16.5305Z" fill="#263238"/>
<path d="M36.4821 15.8361H36.4521V14.4229H39.4473V15.6869H39.4173V14.4529H36.4821V15.8361Z" fill="#263238"/>
<path d="M39.4448 14.998H36.4592V15.028H39.4448V14.998Z" fill="#263238"/>
<path d="M39.4931 14.3773C39.4931 14.4143 39.463 14.4445 39.4259 14.4445C39.3888 14.4445 39.3587 14.4143 39.3587 14.3773C39.3587 14.3402 39.3888 14.3101 39.4259 14.3101C39.463 14.3101 39.4931 14.3402 39.4931 14.3773Z" fill="#263238"/>
<path d="M36.5259 14.3773C36.5259 14.4143 36.4958 14.4445 36.4587 14.4445C36.4217 14.4445 36.3915 14.4143 36.3915 14.3773C36.3915 14.3402 36.4217 14.3101 36.4587 14.3101C36.4958 14.3101 36.5259 14.3402 36.5259 14.3773Z" fill="#263238"/>
<path d="M6.82782 21.4977H4.19946V19.168C4.19946 18.4422 4.78782 17.8538 5.51358 17.8538C6.23934 17.8538 6.8277 18.4421 6.8277 19.168L6.82782 21.4977Z" fill="#455A64"/>
<path d="M4.85 21.4939C4.84304 21.4939 4.83752 20.7162 4.83752 19.7569C4.83752 18.7974 4.84316 18.0198 4.85 18.0198C4.85684 18.0198 4.86248 18.7974 4.86248 19.7569C4.86248 20.7161 4.85696 21.4939 4.85 21.4939Z" fill="#E0E0E0"/>
<path d="M6.20913 21.4939C6.20217 21.4939 6.19666 20.7162 6.19666 19.7569C6.19666 18.7974 6.20229 18.0198 6.20913 18.0198C6.21597 18.0198 6.22162 18.7974 6.22162 19.7569C6.22162 20.7161 6.21597 21.4939 6.20913 21.4939Z" fill="#E0E0E0"/>
<path d="M6.73509 18.6822C6.73509 18.6891 6.19077 18.6946 5.51949 18.6946C4.84797 18.6946 4.30377 18.689 4.30377 18.6822C4.30377 18.6753 4.84797 18.6697 5.51949 18.6697C6.19077 18.6697 6.73509 18.6753 6.73509 18.6822Z" fill="#E0E0E0"/>
<path d="M6.73302 19.4866C6.73302 19.4936 6.17058 19.4991 5.47686 19.4991C4.7829 19.4991 4.22058 19.4934 4.22058 19.4866C4.22058 19.4798 4.7829 19.4741 5.47686 19.4741C6.17058 19.474 6.73302 19.4796 6.73302 19.4866Z" fill="#E0E0E0"/>
<path d="M6.82518 20.2102C6.82518 20.2171 6.2421 20.2227 5.52294 20.2227C4.80354 20.2227 4.22058 20.2171 4.22058 20.2102C4.22058 20.2034 4.80354 20.1978 5.52294 20.1978C6.2421 20.1978 6.82518 20.2034 6.82518 20.2102Z" fill="#E0E0E0"/>
<path d="M6.82518 20.9339C6.82518 20.9407 6.2421 20.9463 5.52294 20.9463C4.80354 20.9463 4.22058 20.9407 4.22058 20.9339C4.22058 20.927 4.80354 20.9214 5.52294 20.9214C6.2421 20.9214 6.82518 20.9269 6.82518 20.9339Z" fill="#E0E0E0"/>
<path d="M5.51242 21.4932C5.50546 21.4932 5.49994 20.6812 5.49994 19.6796C5.49994 18.6779 5.50558 17.866 5.51242 17.866C5.51938 17.866 5.5249 18.6779 5.5249 19.6796C5.5249 20.6812 5.51926 21.4932 5.51242 21.4932Z" fill="#263238"/>
<g opacity="0.1">
<path d="M6.80393 18.8359L4.19861 20.0466V20.8735L6.82697 19.6762L6.85325 19.2401C6.86105 19.1103 6.84881 18.9792 6.80957 18.8551C6.80717 18.8476 6.80525 18.841 6.80393 18.8359Z" fill="white"/>
</g>
<g opacity="0.1">
<path d="M6.64817 18.5244L4.19861 19.6522V19.7969L6.70553 18.6651L6.64817 18.5244Z" fill="white"/>
</g>
<path d="M6.82561 21.4922C6.82489 21.4914 6.82405 21.4806 6.82333 21.4605C6.82273 21.4367 6.82189 21.4077 6.82105 21.3719C6.81985 21.2901 6.81805 21.178 6.81589 21.0363C6.81301 20.7426 6.80905 20.327 6.80401 19.8156C6.80317 19.6872 6.80245 19.553 6.80161 19.4132C6.79933 19.2734 6.80653 19.1268 6.78529 18.9801C6.74533 18.686 6.59005 18.384 6.33037 18.1716C6.07417 17.9574 5.71321 17.8427 5.35201 17.8898C4.99261 17.9336 4.63897 18.1431 4.43269 18.4698C4.27969 18.7037 4.21801 18.9792 4.22821 19.2491C4.22785 19.522 4.22749 19.7886 4.22725 20.0474C4.22593 20.5643 4.22473 21.0498 4.22365 21.4923L4.19737 21.466C4.98193 21.4716 5.63461 21.4763 6.09709 21.4796C6.32377 21.4824 6.50365 21.4847 6.63241 21.4864C6.69121 21.4876 6.73825 21.4887 6.77497 21.4894C6.80737 21.4902 6.82465 21.4912 6.82561 21.4922C6.82657 21.4931 6.81121 21.4941 6.78049 21.495C6.74509 21.4959 6.69973 21.4968 6.64297 21.498C6.51565 21.4997 6.33781 21.502 6.11365 21.5049C5.64721 21.5081 4.98877 21.5128 4.19725 21.5184L4.17097 21.5186L4.17085 21.492C4.16977 21.0496 4.16845 20.5641 4.16713 20.0471C4.16677 19.7884 4.16653 19.5219 4.16617 19.2489C4.15489 18.9746 4.21945 18.6792 4.37989 18.4359C4.59613 18.0933 4.96741 17.8739 5.34421 17.8289C5.72257 17.7804 6.10033 17.9021 6.36685 18.1272C6.63709 18.3503 6.79705 18.6664 6.83641 18.9728C6.85729 19.127 6.84853 19.2753 6.84949 19.4169C6.84865 19.5587 6.84781 19.6949 6.84709 19.825C6.84217 20.3385 6.83809 20.756 6.83521 21.0508C6.83305 21.19 6.83137 21.3 6.83005 21.3804C6.82909 21.4145 6.82837 21.4422 6.82777 21.4649C6.82717 21.4836 6.82645 21.4929 6.82561 21.4922Z" fill="#263238"/>
<path d="M7.06963 22.2667H3.99811V21.542V21.2478H7.06963V22.2667Z" fill="#263238"/>
<path d="M4.07498 21.576H4.04498V20.1628H7.04006V21.4269H7.01006V20.1928H4.07498V21.576Z" fill="#263238"/>
<path d="M7.03962 20.7341H4.05414V20.7641H7.03962V20.7341Z" fill="#263238"/>
<path d="M7.08563 20.1173C7.08563 20.1545 7.05551 20.1845 7.01843 20.1845C6.98135 20.1845 6.95123 20.1543 6.95123 20.1173C6.95123 20.0802 6.98135 20.05 7.01843 20.05C7.05551 20.05 7.08563 20.0802 7.08563 20.1173Z" fill="#263238"/>
<path d="M4.12042 20.1173C4.12042 20.1545 4.0903 20.1845 4.05322 20.1845C4.01614 20.1845 3.98602 20.1543 3.98602 20.1173C3.98602 20.0802 4.01614 20.05 4.05322 20.05C4.09042 20.05 4.12042 20.0802 4.12042 20.1173Z" fill="#263238"/>
<path d="M12.2275 21.4977H9.59918V19.168C9.59918 18.4422 10.1875 17.8538 10.9134 17.8538C11.6392 17.8538 12.2275 18.4421 12.2275 19.168V21.4977Z" fill="#455A64"/>
<path d="M10.2522 21.4939C10.2453 21.4939 10.2397 20.7162 10.2397 19.7569C10.2397 18.7974 10.2454 18.0198 10.2522 18.0198C10.2591 18.0198 10.2647 18.7974 10.2647 19.7569C10.2647 20.7161 10.2591 21.4939 10.2522 21.4939Z" fill="#E0E0E0"/>
<path d="M11.6114 21.4939C11.6045 21.4939 11.5989 20.7162 11.5989 19.7569C11.5989 18.7974 11.6045 18.0198 11.6114 18.0198C11.6182 18.0198 11.6238 18.7974 11.6238 19.7569C11.6238 20.7161 11.6183 21.4939 11.6114 21.4939Z" fill="#E0E0E0"/>
<path d="M12.1373 18.6822C12.1373 18.6891 11.593 18.6946 10.9217 18.6946C10.2502 18.6946 9.70599 18.689 9.70599 18.6822C9.70599 18.6753 10.2502 18.6697 10.9217 18.6697C11.5931 18.6697 12.1373 18.6753 12.1373 18.6822Z" fill="#E0E0E0"/>
<path d="M12.1352 19.4866C12.1352 19.4936 11.5728 19.4991 10.8791 19.4991C10.1851 19.4991 9.6228 19.4934 9.6228 19.4866C9.6228 19.4798 10.1851 19.4741 10.8791 19.4741C11.5728 19.474 12.1352 19.4796 12.1352 19.4866Z" fill="#E0E0E0"/>
<path d="M12.2274 20.2102C12.2274 20.2171 11.6443 20.2227 10.9252 20.2227C10.2058 20.2227 9.6228 20.2171 9.6228 20.2102C9.6228 20.2034 10.2058 20.1978 10.9252 20.1978C11.6443 20.1978 12.2274 20.2034 12.2274 20.2102Z" fill="#E0E0E0"/>
<path d="M12.2274 20.9339C12.2274 20.9407 11.6443 20.9463 10.9252 20.9463C10.2058 20.9463 9.6228 20.9407 9.6228 20.9339C9.6228 20.927 10.2058 20.9214 10.9252 20.9214C11.6443 20.9214 12.2274 20.9269 12.2274 20.9339Z" fill="#E0E0E0"/>
<path d="M10.9146 21.4932C10.9077 21.4932 10.9022 20.6812 10.9022 19.6796C10.9022 18.6779 10.9078 17.866 10.9146 17.866C10.9215 17.866 10.9271 18.6779 10.9271 19.6796C10.9271 20.6812 10.9215 21.4932 10.9146 21.4932Z" fill="#263238"/>
<g opacity="0.1">
<path d="M12.2051 18.8359L9.59973 20.0466V20.8735L12.2281 19.6762L12.2544 19.2401C12.2622 19.1103 12.2499 18.9792 12.2107 18.8551C12.2083 18.8476 12.2064 18.841 12.2051 18.8359Z" fill="white"/>
</g>
<g opacity="0.1">
<path d="M12.0493 18.5244L9.59973 19.6522V19.7969L12.1067 18.6651L12.0493 18.5244Z" fill="white"/>
</g>
<path d="M12.2298 21.4922C12.2291 21.4914 12.2283 21.4806 12.2276 21.4605C12.227 21.4367 12.2261 21.4077 12.2253 21.3719C12.2241 21.2901 12.2223 21.178 12.2201 21.0363C12.2172 20.7426 12.2133 20.327 12.2082 19.8156C12.2074 19.6872 12.2067 19.553 12.2058 19.4132C12.2037 19.2734 12.2108 19.1268 12.1895 18.9801C12.1496 18.686 11.9943 18.384 11.7346 18.1716C11.4784 17.9574 11.1174 17.8427 10.7562 17.8898C10.3968 17.9336 10.0432 18.1431 9.83693 18.4698C9.68393 18.7037 9.62225 18.9792 9.63245 19.2491C9.63209 19.522 9.63172 19.7886 9.63148 20.0474C9.63016 20.5643 9.62896 21.0498 9.62788 21.4923L9.60161 21.466C10.3862 21.4716 11.0388 21.4763 11.5013 21.4796C11.728 21.4824 11.9079 21.4847 12.0366 21.4864C12.0954 21.4876 12.1425 21.4887 12.1792 21.4894C12.2116 21.4902 12.2289 21.4912 12.2298 21.4922C12.2308 21.4931 12.2154 21.4941 12.1847 21.495C12.1494 21.4959 12.104 21.4968 12.0472 21.498C11.9199 21.4997 11.742 21.502 11.5179 21.5049C11.0513 21.5081 10.393 21.5128 9.60148 21.5184L9.57521 21.5186L9.57509 21.492C9.57401 21.0496 9.57268 20.5641 9.57148 20.0471C9.57112 19.7884 9.57089 19.5219 9.57053 19.2489C9.55925 18.9746 9.62381 18.6792 9.78425 18.4359C10.0006 18.0933 10.3718 17.8739 10.7486 17.8289C11.1269 17.7804 11.5047 17.9021 11.7712 18.1272C12.0414 18.3503 12.2014 18.6664 12.2408 18.9728C12.2616 19.127 12.2529 19.2753 12.2538 19.4169C12.253 19.5587 12.2522 19.6949 12.2514 19.825C12.2465 20.3385 12.2424 20.756 12.2396 21.0508C12.2374 21.19 12.2357 21.3 12.2344 21.3804C12.2334 21.4145 12.2327 21.4422 12.2321 21.4649C12.2314 21.4836 12.2307 21.4929 12.2298 21.4922Z" fill="#263238"/>
<path d="M12.4732 22.2667H9.40167V21.542V21.2478H12.4732V22.2667Z" fill="#263238"/>
<path d="M9.47806 21.576H9.44806V20.1628H12.4431V21.4269H12.4131V20.1928H9.47806V21.576Z" fill="#263238"/>
<path d="M12.4407 20.7341H9.45526V20.7641H12.4407V20.7341Z" fill="#263238"/>
<path d="M12.4892 20.1173C12.4892 20.1545 12.4591 20.1845 12.422 20.1845C12.3849 20.1845 12.3548 20.1543 12.3548 20.1173C12.3548 20.0802 12.3849 20.05 12.422 20.05C12.4591 20.05 12.4892 20.0802 12.4892 20.1173Z" fill="#263238"/>
<path d="M9.52399 20.1173C9.52399 20.1545 9.49387 20.1845 9.45679 20.1845C9.41971 20.1845 9.38959 20.1543 9.38959 20.1173C9.38959 20.0802 9.41971 20.05 9.45679 20.05C9.49387 20.05 9.52399 20.0802 9.52399 20.1173Z" fill="#263238"/>
<path d="M17.6277 21.4977H14.9993V19.168C14.9993 18.4422 15.5877 17.8538 16.3134 17.8538C17.0392 17.8538 17.6277 18.4421 17.6277 19.168V21.4977Z" fill="#455A64"/>
<path d="M15.6493 21.4939C15.6424 21.4939 15.6368 20.7162 15.6368 19.7569C15.6368 18.7974 15.6424 18.0198 15.6493 18.0198C15.6561 18.0198 15.6617 18.7974 15.6617 19.7569C15.6617 20.7161 15.6561 21.4939 15.6493 21.4939Z" fill="#E0E0E0"/>
<path d="M17.0121 21.4939C17.0053 21.4939 16.9996 20.7162 16.9996 19.7569C16.9996 18.7974 17.0053 18.0198 17.0121 18.0198C17.0191 18.0198 17.0246 18.7974 17.0246 19.7569C17.0246 20.7161 17.0191 21.4939 17.0121 21.4939Z" fill="#E0E0E0"/>
<path d="M17.5342 18.6822C17.5342 18.6891 16.9898 18.6946 16.3186 18.6946C15.647 18.6946 15.1028 18.689 15.1028 18.6822C15.1028 18.6753 15.647 18.6697 16.3186 18.6697C16.9898 18.6697 17.5342 18.6753 17.5342 18.6822Z" fill="#E0E0E0"/>
<path d="M17.5362 19.4866C17.5362 19.4936 16.9737 19.4991 16.28 19.4991C15.5861 19.4991 15.0237 19.4934 15.0237 19.4866C15.0237 19.4798 15.5861 19.4741 16.28 19.4741C16.9736 19.474 17.5362 19.4796 17.5362 19.4866Z" fill="#E0E0E0"/>
<path d="M17.6283 20.2102C17.6283 20.2171 17.0453 20.2227 16.3261 20.2227C15.6067 20.2227 15.0237 20.2171 15.0237 20.2102C15.0237 20.2034 15.6067 20.1978 16.3261 20.1978C17.0451 20.1978 17.6283 20.2034 17.6283 20.2102Z" fill="#E0E0E0"/>
<path d="M17.6283 20.9339C17.6283 20.9407 17.0453 20.9463 16.3261 20.9463C15.6067 20.9463 15.0237 20.9407 15.0237 20.9339C15.0237 20.927 15.6067 20.9214 16.3261 20.9214C17.0451 20.9214 17.6283 20.9269 17.6283 20.9339Z" fill="#E0E0E0"/>
<path d="M16.3117 21.4932C16.3047 21.4932 16.2992 20.6812 16.2992 19.6796C16.2992 18.6779 16.3048 17.866 16.3117 17.866C16.3185 17.866 16.3242 18.6779 16.3242 19.6796C16.3242 20.6812 16.3186 21.4932 16.3117 21.4932Z" fill="#263238"/>
<g opacity="0.1">
<path d="M17.6044 18.8359L14.9991 20.0466V20.8735L17.6274 19.6762L17.6537 19.2401C17.6615 19.1103 17.6493 18.9792 17.61 18.8551C17.6076 18.8476 17.6057 18.841 17.6044 18.8359Z" fill="white"/>
</g>
<g opacity="0.1">
<path d="M17.4485 18.5244L14.9991 19.6522V19.7969L17.5059 18.6651L17.4485 18.5244Z" fill="white"/>
</g>
<path d="M17.6261 21.4922C17.6254 21.4914 17.6245 21.4806 17.6238 21.4605C17.6232 21.4367 17.6224 21.4077 17.6215 21.3719C17.6203 21.2901 17.6185 21.178 17.6164 21.0363C17.6135 20.7426 17.6095 20.327 17.6045 19.8156C17.6036 19.6872 17.6029 19.553 17.6021 19.4132C17.5999 19.2734 17.607 19.1268 17.5858 18.9801C17.5458 18.686 17.3905 18.384 17.1307 18.1716C16.8745 17.9574 16.5137 17.8427 16.1524 17.8898C15.793 17.9336 15.4393 18.1431 15.233 18.4698C15.08 18.7037 15.0184 18.9792 15.0286 19.2491C15.0282 19.522 15.0278 19.7886 15.0276 20.0474C15.0263 20.5643 15.0251 21.0498 15.024 21.4923L14.9977 21.466C15.7823 21.4716 16.435 21.4763 16.8974 21.4796C17.1241 21.4824 17.304 21.4847 17.4328 21.4864C17.4916 21.4876 17.5386 21.4887 17.5753 21.4894C17.6078 21.4902 17.6251 21.4912 17.6261 21.4922C17.627 21.4931 17.6117 21.4941 17.581 21.495C17.5457 21.4959 17.5002 21.4968 17.4434 21.498C17.3161 21.4997 17.1383 21.502 16.9141 21.5049C16.4477 21.5081 15.7892 21.5128 14.9978 21.5184L14.9716 21.5186L14.9714 21.492C14.9704 21.0496 14.969 20.5641 14.9677 20.0471C14.9674 19.7884 14.9671 19.5219 14.9668 19.2489C14.9555 18.9746 15.02 18.6792 15.1805 18.4359C15.3968 18.0933 15.768 17.8739 16.1448 17.8289C16.5232 17.7804 16.9009 17.9021 17.1674 18.1272C17.4377 18.3503 17.5976 18.6664 17.637 18.9728C17.6579 19.127 17.6491 19.2753 17.6501 19.4169C17.6492 19.5587 17.6484 19.6949 17.6477 19.825C17.6428 20.3385 17.6387 20.756 17.6358 21.0508C17.6336 21.19 17.632 21.3 17.6306 21.3804C17.6297 21.4145 17.629 21.4422 17.6284 21.4649C17.6275 21.4836 17.6268 21.4929 17.6261 21.4922Z" fill="#263238"/>
<path d="M17.8718 22.2667H14.8002V21.542V21.2478H17.8718V22.2667Z" fill="#263238"/>
<path d="M14.8766 21.576H14.8466V20.1628H17.8418V21.4269H17.8118V20.1928H14.8766V21.576Z" fill="#263238"/>
<path d="M17.8396 20.7341H14.8541V20.7641H17.8396V20.7341Z" fill="#263238"/>
<path d="M17.8878 20.1173C17.8878 20.1545 17.8576 20.1845 17.8206 20.1845C17.7835 20.1845 17.7534 20.1543 17.7534 20.1173C17.7534 20.0802 17.7835 20.05 17.8206 20.05C17.8578 20.05 17.8878 20.0802 17.8878 20.1173Z" fill="#263238"/>
<path d="M14.9205 20.1173C14.9205 20.1545 14.8904 20.1845 14.8533 20.1845C14.8162 20.1845 14.7861 20.1543 14.7861 20.1173C14.7861 20.0802 14.8162 20.05 14.8533 20.05C14.8904 20.05 14.9205 20.0802 14.9205 20.1173Z" fill="#263238"/>
<path d="M23.0306 21.4977H20.4022V19.168C20.4022 18.4422 20.9906 17.8538 21.7163 17.8538C22.4421 17.8538 23.0306 18.4421 23.0306 19.168V21.4977Z" fill="#455A64"/>
<path d="M21.0527 21.4939C21.0457 21.4939 21.0402 20.7162 21.0402 19.7569C21.0402 18.7974 21.0459 18.0198 21.0527 18.0198C21.0595 18.0198 21.0652 18.7974 21.0652 19.7569C21.0652 20.7161 21.0595 21.4939 21.0527 21.4939Z" fill="#E0E0E0"/>
<path d="M22.4116 21.4939C22.4047 21.4939 22.3992 20.7162 22.3992 19.7569C22.3992 18.7974 22.4048 18.0198 22.4116 18.0198C22.4185 18.0198 22.4241 18.7974 22.4241 19.7569C22.4241 20.7161 22.4185 21.4939 22.4116 21.4939Z" fill="#E0E0E0"/>
<path d="M22.9376 18.6822C22.9376 18.6891 22.3933 18.6946 21.722 18.6946C21.0505 18.6946 20.5063 18.689 20.5063 18.6822C20.5063 18.6753 21.0505 18.6697 21.722 18.6697C22.3933 18.6697 22.9376 18.6753 22.9376 18.6822Z" fill="#E0E0E0"/>
<path d="M22.9357 19.4866C22.9357 19.4936 22.3733 19.4991 21.6796 19.4991C20.9856 19.4991 20.4233 19.4934 20.4233 19.4866C20.4233 19.4798 20.9856 19.4741 21.6796 19.4741C22.3733 19.474 22.9357 19.4796 22.9357 19.4866Z" fill="#E0E0E0"/>
<path d="M23.0279 20.2102C23.0279 20.2171 22.4448 20.2227 21.7256 20.2227C21.0062 20.2227 20.4233 20.2171 20.4233 20.2102C20.4233 20.2034 21.0062 20.1978 21.7256 20.1978C22.4448 20.1978 23.0279 20.2034 23.0279 20.2102Z" fill="#E0E0E0"/>
<path d="M23.0279 20.9339C23.0279 20.9407 22.4448 20.9463 21.7256 20.9463C21.0062 20.9463 20.4233 20.9407 20.4233 20.9339C20.4233 20.927 21.0062 20.9214 21.7256 20.9214C22.4448 20.9214 23.0279 20.9269 23.0279 20.9339Z" fill="#E0E0E0"/>
<path d="M21.7151 21.4932C21.7083 21.4932 21.7026 20.6812 21.7026 19.6796C21.7026 18.6779 21.7083 17.866 21.7151 17.866C21.7221 17.866 21.7276 18.6779 21.7276 19.6796C21.7276 20.6812 21.7221 21.4932 21.7151 21.4932Z" fill="#263238"/>
<g opacity="0.1">
<path d="M23.0067 18.8359L20.4014 20.0466V20.8735L23.0298 19.6762L23.0561 19.2401C23.0639 19.1103 23.0516 18.9792 23.0124 18.8551C23.01 18.8476 23.0079 18.841 23.0067 18.8359Z" fill="white"/>
</g>
<g opacity="0.1">
<path d="M22.851 18.5244L20.4014 19.6522V19.7969L22.9082 18.6651L22.851 18.5244Z" fill="white"/>
</g>
<path d="M23.0284 21.4922C23.0276 21.4914 23.0268 21.4806 23.0261 21.4605C23.0255 21.4367 23.0246 21.4077 23.0238 21.3719C23.0226 21.2901 23.0208 21.178 23.0186 21.0363C23.0158 20.7426 23.0118 20.327 23.0068 19.8156C23.0059 19.6872 23.0052 19.553 23.0044 19.4132C23.0022 19.2734 23.0093 19.1268 22.988 18.9801C22.9481 18.686 22.7928 18.384 22.533 18.1716C22.2768 17.9574 21.916 17.8427 21.5546 17.8898C21.1952 17.9336 20.8416 18.1431 20.6353 18.4698C20.4823 18.7037 20.4206 18.9792 20.4308 19.2491C20.4305 19.522 20.4302 19.7886 20.4299 20.0474C20.4286 20.5643 20.4274 21.0498 20.4263 21.4923L20.4 21.466C21.1846 21.4716 21.8372 21.4763 22.2997 21.4796C22.5264 21.4824 22.7063 21.4847 22.835 21.4864C22.8938 21.4876 22.9409 21.4887 22.9776 21.4894C23.0101 21.4902 23.0274 21.4912 23.0284 21.4922C23.0293 21.4931 23.014 21.4941 22.9832 21.495C22.948 21.4959 22.9025 21.4968 22.8457 21.498C22.7184 21.4997 22.5406 21.502 22.3164 21.5049C21.8498 21.5081 21.1915 21.5128 20.4 21.5184L20.3737 21.5186L20.3736 21.492C20.3725 21.0496 20.3712 20.5641 20.3699 20.0471C20.3695 19.7884 20.3693 19.5219 20.3689 19.2489C20.3576 18.9746 20.4222 18.6792 20.5826 18.4359C20.799 18.0933 21.1702 17.8739 21.547 17.8289C21.9253 17.7804 22.3031 17.9021 22.5696 18.1272C22.8398 18.3503 22.9998 18.6664 23.0392 18.9728C23.06 19.127 23.0513 19.2753 23.0522 19.4169C23.0514 19.5587 23.0506 19.6949 23.0498 19.825C23.0449 20.3385 23.0408 20.756 23.038 21.0508C23.0358 21.19 23.0341 21.3 23.0328 21.3804C23.0318 21.4145 23.0311 21.4422 23.0305 21.4649C23.0299 21.4836 23.0291 21.4929 23.0284 21.4922Z" fill="#263238"/>
<path d="M23.2723 22.2667H20.2009V21.542V21.2478H23.2723V22.2667Z" fill="#263238"/>
<path d="M20.2792 21.576H20.2492V20.1628H23.2444V21.4269H23.2144V20.1928H20.2792V21.576Z" fill="#263238"/>
<path d="M23.2424 20.7341H20.2569V20.7641H23.2424V20.7341Z" fill="#263238"/>
<path d="M23.2884 20.1173C23.2884 20.1545 23.2583 20.1845 23.2212 20.1845C23.1841 20.1845 23.154 20.1543 23.154 20.1173C23.154 20.0802 23.1841 20.05 23.2212 20.05C23.2583 20.05 23.2884 20.0802 23.2884 20.1173Z" fill="#263238"/>
<path d="M20.3231 20.1173C20.3231 20.1545 20.2929 20.1845 20.2559 20.1845C20.2188 20.1845 20.1887 20.1543 20.1887 20.1173C20.1887 20.0802 20.2188 20.05 20.2559 20.05C20.2929 20.05 20.3231 20.0802 20.3231 20.1173Z" fill="#263238"/>
<path d="M28.4301 21.4977H25.8017V19.168C25.8017 18.4422 26.3901 17.8538 27.1159 17.8538C27.8417 17.8538 28.4302 18.4421 28.4302 19.168V21.4977H28.4301Z" fill="#455A64"/>
<path d="M26.4547 21.4939C26.4477 21.4939 26.4422 20.7162 26.4422 19.7569C26.4422 18.7974 26.4478 18.0198 26.4547 18.0198C26.4615 18.0198 26.4672 18.7974 26.4672 19.7569C26.4672 20.7161 26.4616 21.4939 26.4547 21.4939Z" fill="#E0E0E0"/>
<path d="M27.8136 21.4939C27.8067 21.4939 27.8011 20.7162 27.8011 19.7569C27.8011 18.7974 27.8068 18.0198 27.8136 18.0198C27.8205 18.0198 27.8261 18.7974 27.8261 19.7569C27.8261 20.7161 27.8205 21.4939 27.8136 21.4939Z" fill="#E0E0E0"/>
<path d="M28.3403 18.6822C28.3403 18.6891 27.796 18.6946 27.1247 18.6946C26.4532 18.6946 25.909 18.689 25.909 18.6822C25.909 18.6753 26.4532 18.6697 27.1247 18.6697C27.796 18.6697 28.3403 18.6753 28.3403 18.6822Z" fill="#E0E0E0"/>
<path d="M28.3377 19.4866C28.3377 19.4936 27.7753 19.4991 27.0815 19.4991C26.3876 19.4991 25.8253 19.4934 25.8253 19.4866C25.8253 19.4798 26.3876 19.4741 27.0815 19.4741C27.7753 19.474 28.3377 19.4796 28.3377 19.4866Z" fill="#E0E0E0"/>
<path d="M28.4299 20.2102C28.4299 20.2171 27.8468 20.2227 27.1276 20.2227C26.4082 20.2227 25.8253 20.2171 25.8253 20.2102C25.8253 20.2034 26.4082 20.1978 27.1276 20.1978C27.8468 20.1978 28.4299 20.2034 28.4299 20.2102Z" fill="#E0E0E0"/>
<path d="M28.4299 20.9339C28.4299 20.9407 27.8468 20.9463 27.1276 20.9463C26.4082 20.9463 25.8253 20.9407 25.8253 20.9339C25.8253 20.927 26.4082 20.9214 27.1276 20.9214C27.8468 20.9214 28.4299 20.9269 28.4299 20.9339Z" fill="#E0E0E0"/>
<path d="M27.1171 21.4932C27.1103 21.4932 27.1046 20.6812 27.1046 19.6796C27.1046 18.6779 27.1103 17.866 27.1171 17.866C27.1239 17.866 27.1296 18.6779 27.1296 19.6796C27.1297 20.6812 27.1241 21.4932 27.1171 21.4932Z" fill="#263238"/>
<g opacity="0.1">
<path d="M28.4076 18.8359L25.8023 20.0466V20.8735L28.4307 19.6762L28.4569 19.2401C28.4647 19.1103 28.4525 18.9792 28.4133 18.8551C28.4109 18.8476 28.4089 18.841 28.4076 18.8359Z" fill="white"/>
</g>
<g opacity="0.1">
<path d="M28.2519 18.5244L25.8023 19.6522V19.7969L28.3091 18.6651L28.2519 18.5244Z" fill="white"/>
</g>
<path d="M28.4324 21.4922C28.4316 21.4914 28.4308 21.4806 28.4301 21.4605C28.4295 21.4367 28.4286 21.4077 28.4278 21.3719C28.4266 21.2901 28.4248 21.178 28.4226 21.0363C28.4198 20.7426 28.4158 20.327 28.4108 19.8156C28.4099 19.6872 28.4092 19.553 28.4084 19.4132C28.4062 19.2734 28.4133 19.1268 28.392 18.9801C28.3521 18.686 28.1968 18.384 27.937 18.1716C27.6808 17.9574 27.32 17.8427 26.9586 17.8898C26.5992 17.9336 26.2456 18.1431 26.0393 18.4698C25.8863 18.7037 25.8246 18.9792 25.8348 19.2491C25.8345 19.522 25.8342 19.7886 25.8339 20.0474C25.8326 20.5643 25.8314 21.0498 25.8303 21.4923L25.804 21.466C26.5886 21.4716 27.2412 21.4763 27.7037 21.4796C27.9304 21.4824 28.1103 21.4847 28.239 21.4864C28.2978 21.4876 28.3449 21.4887 28.3816 21.4894C28.4141 21.4902 28.4314 21.4912 28.4324 21.4922C28.4333 21.4931 28.418 21.4941 28.3872 21.495C28.3518 21.4959 28.3065 21.4968 28.2497 21.498C28.1224 21.4997 27.9446 21.502 27.7204 21.5049C27.254 21.5081 26.5955 21.5128 25.804 21.5184L25.7777 21.5186V21.492C25.7766 21.0496 25.7753 20.5641 25.774 20.0471C25.7736 19.7884 25.7734 19.5219 25.773 19.2489C25.7618 18.9746 25.8263 18.6792 25.9868 18.4359C26.2031 18.0933 26.5743 17.8739 26.9511 17.8289C27.3294 17.7804 27.7072 17.9021 27.9737 18.1272C28.244 18.3503 28.4039 18.6664 28.4433 18.9728C28.4642 19.127 28.4554 19.2753 28.4564 19.4169C28.4555 19.5587 28.4547 19.6949 28.454 19.825C28.449 20.3385 28.445 20.756 28.4421 21.0508C28.4399 21.19 28.4382 21.3 28.4369 21.3804C28.436 21.4145 28.4352 21.4422 28.4346 21.4649C28.4339 21.4836 28.4332 21.4929 28.4324 21.4922Z" fill="#263238"/>
<path d="M28.6749 22.2667H25.6035V21.542V21.2478H28.6749V22.2667Z" fill="#263238"/>
<path d="M25.6798 21.576H25.6498V20.1628H28.645V21.4269H28.615V20.1928H25.6798V21.576Z" fill="#263238"/>
<path d="M28.6429 20.7341H25.6574V20.7641H28.6429V20.7341Z" fill="#263238"/>
<path d="M28.691 20.1173C28.691 20.1545 28.6609 20.1845 28.6238 20.1845C28.5867 20.1845 28.5566 20.1543 28.5566 20.1173C28.5566 20.0802 28.5867 20.05 28.6238 20.05C28.6609 20.05 28.691 20.0802 28.691 20.1173Z" fill="#263238"/>
<path d="M25.7256 20.1173C25.7256 20.1545 25.6955 20.1845 25.6584 20.1845C25.6214 20.1845 25.5912 20.1543 25.5912 20.1173C25.5912 20.0802 25.6214 20.05 25.6584 20.05C25.6956 20.05 25.7256 20.0802 25.7256 20.1173Z" fill="#263238"/>
<path d="M33.8322 21.4977H31.2039V19.168C31.2039 18.4422 31.7922 17.8538 32.5181 17.8538C33.2439 17.8538 33.8323 18.4421 33.8323 19.168V21.4977H33.8322Z" fill="#455A64"/>
<path d="M31.8532 21.4939C31.8463 21.4939 31.8408 20.7162 31.8408 19.7569C31.8408 18.7974 31.8464 18.0198 31.8532 18.0198C31.8602 18.0198 31.8657 18.7974 31.8657 19.7569C31.8658 20.7161 31.8602 21.4939 31.8532 21.4939Z" fill="#E0E0E0"/>
<path d="M33.2161 21.4939C33.2091 21.4939 33.2036 20.7162 33.2036 19.7569C33.2036 18.7974 33.2093 18.0198 33.2161 18.0198C33.2229 18.0198 33.2286 18.7974 33.2286 19.7569C33.2286 20.7161 33.2229 21.4939 33.2161 21.4939Z" fill="#E0E0E0"/>
<path d="M33.742 18.6822C33.742 18.6891 33.1977 18.6946 32.5264 18.6946C31.8549 18.6946 31.3107 18.689 31.3107 18.6822C31.3107 18.6753 31.8549 18.6697 32.5264 18.6697C33.1977 18.6697 33.742 18.6753 33.742 18.6822Z" fill="#E0E0E0"/>
<path d="M33.7403 19.4861C33.7403 19.4931 33.1778 19.4986 32.4841 19.4986C31.7902 19.4986 31.2278 19.493 31.2278 19.4861C31.2278 19.4793 31.7902 19.4736 32.4841 19.4736C33.1778 19.4735 33.7403 19.4792 33.7403 19.4861Z" fill="#E0E0E0"/>
<path d="M33.8323 20.2102C33.8323 20.2171 33.2492 20.2227 32.5301 20.2227C31.8107 20.2227 31.2277 20.2171 31.2277 20.2102C31.2277 20.2034 31.8107 20.1978 32.5301 20.1978C33.2492 20.1978 33.8323 20.2034 33.8323 20.2102Z" fill="#E0E0E0"/>
<path d="M33.8323 20.9339C33.8323 20.9407 33.2492 20.9463 32.5301 20.9463C31.8107 20.9463 31.2277 20.9407 31.2277 20.9339C31.2277 20.927 31.8107 20.9214 32.5301 20.9214C33.2492 20.9214 33.8323 20.9269 33.8323 20.9339Z" fill="#E0E0E0"/>
<path d="M32.5196 21.4932C32.5126 21.4932 32.5071 20.6812 32.5071 19.6796C32.5071 18.6779 32.5127 17.866 32.5196 17.866C32.5264 17.866 32.532 18.6779 32.532 19.6796C32.532 20.6812 32.5264 21.4932 32.5196 21.4932Z" fill="#263238"/>
<g opacity="0.1">
<path d="M33.8095 18.8359L31.2042 20.0466V20.8735L33.8325 19.6762L33.8588 19.2401C33.8666 19.1103 33.8544 18.9792 33.8151 18.8551C33.8127 18.8476 33.8108 18.841 33.8095 18.8359Z" fill="white"/>
</g>
<g opacity="0.1">
<path d="M33.6537 18.5244L31.2042 19.6522V19.7969L33.7111 18.6651L33.6537 18.5244Z" fill="white"/>
</g>
<path d="M33.8345 21.4922C33.8338 21.4914 33.833 21.4806 33.8322 21.4605C33.8316 21.4367 33.8308 21.4077 33.83 21.3719C33.8288 21.2901 33.827 21.178 33.8248 21.0363C33.8219 20.7426 33.818 20.327 33.8129 19.8156C33.8121 19.6872 33.8114 19.553 33.8105 19.4132C33.8084 19.2734 33.8154 19.1268 33.7942 18.9801C33.7542 18.686 33.599 18.384 33.3392 18.1716C33.083 17.9574 32.7221 17.8427 32.3608 17.8898C32.0014 17.9336 31.6478 18.1431 31.4415 18.4698C31.2885 18.7037 31.2268 18.9792 31.237 19.2491C31.2366 19.522 31.2364 19.7886 31.236 20.0474C31.2347 20.5643 31.2335 21.0498 31.2324 21.4923L31.2062 21.466C31.9907 21.4716 32.6434 21.4763 33.1059 21.4796C33.3326 21.4824 33.5124 21.4847 33.6412 21.4864C33.7 21.4876 33.747 21.4887 33.7838 21.4894C33.8163 21.4902 33.8336 21.4912 33.8345 21.4922C33.8355 21.4931 33.8201 21.4941 33.7894 21.495C33.754 21.4959 33.7086 21.4968 33.6519 21.498C33.5246 21.4997 33.3467 21.502 33.1226 21.5049C32.656 21.5081 31.9977 21.5128 31.2062 21.5184L31.1799 21.5186L31.1798 21.492C31.1787 21.0496 31.1774 20.5641 31.1762 20.0471C31.1758 19.7884 31.1756 19.5219 31.1752 19.2489C31.1639 18.9746 31.2285 18.6792 31.3889 18.4359C31.6053 18.0933 31.9764 17.8739 32.3532 17.8289C32.7316 17.7804 33.1094 17.9021 33.3759 18.1272C33.6461 18.3503 33.8061 18.6664 33.8454 18.9728C33.8663 19.127 33.8576 19.2753 33.8585 19.4169C33.8577 19.5587 33.8568 19.6949 33.8561 19.825C33.8512 20.3385 33.8471 20.756 33.8442 21.0508C33.8421 21.19 33.8404 21.3 33.8391 21.3804C33.8381 21.4145 33.8374 21.4422 33.8368 21.4649C33.8361 21.4836 33.8354 21.4929 33.8345 21.4922Z" fill="#263238"/>
<path d="M34.0774 22.2667H31.006V21.542V21.2478H34.0774V22.2667Z" fill="#263238"/>
<path d="M31.0824 21.576H31.0524V20.1628H34.0476V21.4269H34.0176V20.1928H31.0824V21.576Z" fill="#263238"/>
<path d="M34.0452 20.7341H31.0596V20.7641H34.0452V20.7341Z" fill="#263238"/>
<path d="M34.0936 20.1173C34.0936 20.1545 34.0634 20.1845 34.0264 20.1845C33.9893 20.1845 33.9592 20.1543 33.9592 20.1173C33.9592 20.0802 33.9893 20.05 34.0264 20.05C34.0634 20.05 34.0936 20.0802 34.0936 20.1173Z" fill="#263238"/>
<path d="M31.1282 20.1173C31.1282 20.1545 31.0981 20.1845 31.061 20.1845C31.024 20.1845 30.9938 20.1543 30.9938 20.1173C30.9938 20.0802 31.024 20.05 31.061 20.05C31.0981 20.05 31.1282 20.0802 31.1282 20.1173Z" fill="#263238"/>
<path d="M39.2646 21.5077H36.6362V19.178C36.6362 18.4522 37.2246 17.8638 37.9505 17.8638C38.6762 17.8638 39.2647 18.4521 39.2647 19.178V21.5077H39.2646Z" fill="#455A64"/>
<path d="M37.2556 21.4946C37.2487 21.4946 37.2432 20.7169 37.2432 19.7576C37.2432 18.7981 37.2488 18.0205 37.2556 18.0205C37.2625 18.0205 37.2681 18.7981 37.2681 19.7576C37.2681 20.7168 37.2625 21.4946 37.2556 21.4946Z" fill="#E0E0E0"/>
<path d="M38.6146 21.4946C38.6076 21.4946 38.6021 20.7169 38.6021 19.7576C38.6021 18.7981 38.6078 18.0205 38.6146 18.0205C38.6216 18.0205 38.6271 18.7981 38.6271 19.7576C38.6271 20.7168 38.6216 21.4946 38.6146 21.4946Z" fill="#E0E0E0"/>
<path d="M39.1405 18.6829C39.1405 18.6899 38.5962 18.6954 37.9249 18.6954C37.2534 18.6954 36.7092 18.6897 36.7092 18.6829C36.7092 18.6761 37.2534 18.6704 37.9249 18.6704C38.5963 18.6704 39.1405 18.6761 39.1405 18.6829Z" fill="#E0E0E0"/>
<path d="M39.1424 19.4873C39.1424 19.4943 38.5799 19.4998 37.8862 19.4998C37.1923 19.4998 36.6299 19.4942 36.6299 19.4873C36.6299 19.4805 37.1923 19.4749 37.8862 19.4749C38.5799 19.4747 39.1424 19.4804 39.1424 19.4873Z" fill="#E0E0E0"/>
<path d="M39.2345 20.211C39.2345 20.2178 38.6515 20.2234 37.9323 20.2234C37.2129 20.2234 36.6299 20.2178 36.6299 20.211C36.6299 20.2041 37.2129 20.1985 37.9323 20.1985C38.6515 20.1985 39.2345 20.2041 39.2345 20.211Z" fill="#E0E0E0"/>
<path d="M39.2345 20.9346C39.2345 20.9414 38.6515 20.9471 37.9323 20.9471C37.2129 20.9471 36.6299 20.9414 36.6299 20.9346C36.6299 20.9278 37.2129 20.9221 37.9323 20.9221C38.6515 20.9221 39.2345 20.9276 39.2345 20.9346Z" fill="#E0E0E0"/>
<path d="M37.9181 21.4939C37.9112 21.4939 37.9056 20.6819 37.9056 19.6804C37.9056 18.6786 37.9112 17.8667 37.9181 17.8667C37.9249 17.8667 37.9305 18.6786 37.9305 19.6804C37.9305 20.6819 37.9249 21.4939 37.9181 21.4939Z" fill="#263238"/>
<g opacity="0.1">
<path d="M39.2091 18.8359L36.6038 20.0466V20.8735L39.2322 19.6762L39.2585 19.2401C39.2663 19.1103 39.254 18.9792 39.2148 18.8551C39.2124 18.8476 39.2105 18.841 39.2091 18.8359Z" fill="white"/>
</g>
<g opacity="0.1">
<path d="M39.0534 18.5244L36.6038 19.6522V19.7969L39.1107 18.6651L39.0534 18.5244Z" fill="white"/>
</g>
<path d="M39.2311 21.4922C39.2303 21.4914 39.2295 21.4806 39.2288 21.4605C39.2282 21.4367 39.2273 21.4077 39.2265 21.3719C39.2253 21.2901 39.2235 21.178 39.2213 21.0363C39.2185 20.7426 39.2145 20.327 39.2095 19.8156C39.2086 19.6872 39.2079 19.553 39.2071 19.4132C39.2049 19.2734 39.212 19.1268 39.1907 18.9801C39.1508 18.686 38.9955 18.384 38.7358 18.1716C38.4796 17.9574 38.1188 17.8427 37.7575 17.8898C37.3981 17.9336 37.0444 18.1431 36.8381 18.4698C36.6851 18.7037 36.6235 18.9792 36.6337 19.2491C36.6333 19.522 36.6329 19.7886 36.6327 20.0474C36.6314 20.5643 36.6302 21.0498 36.6291 21.4923L36.6028 21.466C37.3874 21.4716 38.0401 21.4763 38.5025 21.4796C38.7292 21.4824 38.9091 21.4847 39.0379 21.4864C39.0967 21.4876 39.1437 21.4887 39.1804 21.4894C39.2128 21.4902 39.2301 21.4912 39.2311 21.4922C39.232 21.4931 39.2167 21.4941 39.1859 21.495C39.1507 21.4959 39.1052 21.4968 39.0484 21.498C38.9211 21.4997 38.7433 21.502 38.5191 21.5049C38.0525 21.5081 37.3942 21.5128 36.6027 21.5184L36.5764 21.5186L36.5763 21.492C36.5752 21.0496 36.5739 20.5641 36.5727 20.0471C36.5723 19.7884 36.5721 19.5219 36.5717 19.2489C36.5605 18.9746 36.625 18.6792 36.7855 18.4359C37.0018 18.0933 37.373 17.8739 37.7498 17.8289C38.1281 17.7804 38.5059 17.9021 38.7724 18.1272C39.0427 18.3503 39.2026 18.6664 39.242 18.9728C39.2629 19.127 39.2541 19.2753 39.2551 19.4169C39.2542 19.5587 39.2534 19.6949 39.2527 19.825C39.2477 20.3385 39.2437 20.756 39.2408 21.0508C39.2386 21.19 39.2369 21.3 39.2356 21.3804C39.2347 21.4145 39.2339 21.4422 39.2333 21.4649C39.2326 21.4836 39.2319 21.4929 39.2311 21.4922Z" fill="#263238"/>
<path d="M39.4771 22.2667H36.4056V21.542V21.2478H39.4771V22.2667Z" fill="#263238"/>
<path d="M36.4821 21.576H36.4521V20.1628H39.4473V21.4269H39.4173V20.1928H36.4821V21.576Z" fill="#263238"/>
<path d="M39.4448 20.7341H36.4592V20.7641H39.4448V20.7341Z" fill="#263238"/>
<path d="M39.4931 20.1173C39.4931 20.1545 39.463 20.1845 39.4259 20.1845C39.3888 20.1845 39.3587 20.1543 39.3587 20.1173C39.3587 20.0802 39.3888 20.05 39.4259 20.05C39.463 20.05 39.4931 20.0802 39.4931 20.1173Z" fill="#263238"/>
<path d="M36.5259 20.1173C36.5259 20.1545 36.4958 20.1845 36.4587 20.1845C36.4217 20.1845 36.3915 20.1543 36.3915 20.1173C36.3915 20.0802 36.4217 20.05 36.4587 20.05C36.4958 20.05 36.5259 20.0802 36.5259 20.1173Z" fill="#263238"/>
<path d="M41.0533 10.0012C41.0533 10.0082 32.2769 10.0137 21.4531 10.0137C10.6257 10.0137 1.85114 10.0081 1.85114 10.0012C1.85114 9.99441 10.6257 9.98877 21.4531 9.98877C32.2769 9.98877 41.0533 9.99429 41.0533 10.0012Z" fill="#263238"/>
<path d="M22.6892 22.7969H20.5087V23.3934H22.6892V22.7969Z" fill="#263238"/>
<path d="M19.0992 1.48804V3.64528H18.5998V2.76088H17.6199V3.64528H17.1206V1.48804H17.6199V2.3386H18.5998V1.48804H19.0992Z" fill="#263238"/>
<path d="M20.0498 3.53761C19.87 3.44113 19.7293 3.30805 19.6277 3.13849C19.5259 2.96905 19.4752 2.77849 19.4752 2.56681C19.4752 2.35525 19.526 2.16469 19.6277 1.99513C19.7293 1.82557 19.8701 1.69261 20.0498 1.59601C20.2296 1.49941 20.4314 1.45117 20.6554 1.45117C20.8793 1.45117 21.0806 1.49941 21.2593 1.59601C21.4381 1.69261 21.5788 1.82557 21.6815 1.99513C21.7841 2.16469 21.8356 2.35525 21.8356 2.56681C21.8356 2.77849 21.7842 2.96905 21.6815 3.13849C21.5788 3.30805 21.438 3.44101 21.2593 3.53761C21.0806 3.63421 20.8793 3.68245 20.6554 3.68245C20.4314 3.68257 20.2296 3.63433 20.0498 3.53761ZM21.0005 3.16945C21.1032 3.11089 21.1838 3.02929 21.2424 2.92453C21.301 2.81977 21.3302 2.70061 21.3302 2.56705C21.3302 2.43349 21.301 2.31433 21.2424 2.20957C21.1838 2.10481 21.1032 2.02309 21.0005 1.96453C20.8978 1.90597 20.7827 1.87669 20.6554 1.87669C20.5279 1.87669 20.413 1.90597 20.3102 1.96453C20.2075 2.02309 20.1269 2.10469 20.0683 2.20957C20.0098 2.31433 19.9805 2.43349 19.9805 2.56705C19.9805 2.70061 20.0098 2.81977 20.0683 2.92453C20.1269 3.02929 20.2074 3.11101 20.3102 3.16945C20.413 3.22801 20.5279 3.25729 20.6554 3.25729C20.7827 3.25729 20.8978 3.22801 21.0005 3.16945Z" fill="#263238"/>
<path d="M22.6279 1.89484H21.9375V1.48804H23.8173V1.89484H23.1271V3.64516H22.6279V1.89484Z" fill="#263238"/>
<path d="M25.7556 3.24472V3.64528H24.0853V1.48804H25.7155V1.8886H24.5814V2.35708H25.583V2.7454H24.5814V3.2446L25.7556 3.24472Z" fill="#263238"/>
<path d="M26.1532 1.48804H26.6524V3.23848H27.7341V3.64528H26.1532V1.48804Z" fill="#263238"/>
<path d="M23.0862 0L23.2373 0.306121L23.5749 0.355201L23.3306 0.593401L23.3883 0.929641L23.0862 0.770881L22.7841 0.929641L22.8419 0.593401L22.5975 0.355201L22.9352 0.306121L23.0862 0Z" fill="#263238"/>
<path d="M24.5195 0L24.6705 0.306121L25.0082 0.355201L24.7638 0.593401L24.8216 0.929641L24.5195 0.770881L24.2174 0.929641L24.2751 0.593401L24.0308 0.355201L24.3684 0.306121L24.5195 0Z" fill="#263238"/>
<path d="M25.9547 0L26.1057 0.306121L26.4433 0.355201L26.199 0.593401L26.2567 0.929641L25.9547 0.770881L25.6527 0.929641L25.7103 0.593401L25.4659 0.355201L25.8036 0.306121L25.9547 0Z" fill="#263238"/>
<path d="M27.3879 0L27.5389 0.306121L27.8767 0.355201L27.6322 0.593401L27.69 0.929641L27.3879 0.770881L27.0859 0.929641L27.1436 0.593401L26.8992 0.355201L27.2368 0.306121L27.3879 0Z" fill="#263238"/>
<path d="M39.6482 4.3262C39.6482 4.33304 31.7252 4.33868 21.9539 4.33868C12.1793 4.33868 4.258 4.33304 4.258 4.3262C4.258 4.31924 12.1793 4.31372 21.9539 4.31372C31.7252 4.31372 39.6482 4.31924 39.6482 4.3262Z" fill="#263238"/>
<path d="M40.4232 30.8533C40.4163 30.8533 40.4108 26.333 40.4108 20.7583C40.4108 15.1817 40.4164 10.6624 40.4232 10.6624C40.4301 10.6624 40.4357 15.1817 40.4357 20.7583C40.4357 26.333 40.4301 30.8533 40.4232 30.8533Z" fill="#263238"/>
<path d="M2.98935 30.8585C2.98239 30.8585 2.97687 26.3135 2.97687 20.7083C2.97687 15.1011 2.98251 10.5571 2.98935 10.5571C2.99619 10.5571 3.00183 15.1012 3.00183 20.7083C3.00183 26.3135 2.99631 30.8585 2.98935 30.8585Z" fill="#263238"/>
<path d="M41.0321 10.555C41.0321 10.5619 32.3963 10.5674 21.746 10.5674C11.0919 10.5674 2.45789 10.5618 2.45789 10.555C2.45789 10.5481 11.0919 10.5425 21.746 10.5425C32.3963 10.5425 41.0321 10.548 41.0321 10.555Z" fill="#263238"/>
<path d="M32.143 4.55643C32.143 4.56339 26.741 4.5689 20.0788 4.5689C13.4143 4.5689 8.01343 4.56327 8.01343 4.55643C8.01343 4.54947 13.4143 4.54395 20.0788 4.54395C26.741 4.54395 32.143 4.54959 32.143 4.55643Z" fill="white"/>
<path d="M35.4519 9.21487C35.4519 9.22183 31.5244 9.22735 26.6809 9.22735C21.8356 9.22735 17.909 9.22171 17.909 9.21487C17.909 9.20803 21.8356 9.20239 26.6809 9.20239C31.5244 9.20239 35.4519 9.20803 35.4519 9.21487Z" fill="white"/>
<path d="M33.1918 24.6715C33.1907 24.6733 33.1628 24.6579 33.1114 24.6323C33.06 24.6065 32.9842 24.5721 32.8872 24.5388C32.6948 24.4715 32.4088 24.4178 32.0986 24.4631C31.7884 24.5081 31.529 24.6395 31.3626 24.7575C31.2786 24.8163 31.2152 24.8702 31.1727 24.9089C31.1302 24.9476 31.1074 24.9698 31.106 24.9685C31.106 24.9685 31.1852 24.8661 31.3523 24.7431C31.5176 24.6203 31.7796 24.4841 32.0949 24.4383C32.41 24.3924 32.7 24.4499 32.8929 24.5221C33.0879 24.5942 33.1918 24.6715 33.1918 24.6715Z" fill="white"/>
<path d="M38.6517 24.6715C38.6506 24.6733 38.6227 24.6579 38.5713 24.6323C38.5199 24.6065 38.4441 24.5721 38.3471 24.5388C38.1547 24.4715 37.8687 24.4178 37.5585 24.4631C37.2483 24.5081 36.9889 24.6395 36.8225 24.7575C36.7385 24.8163 36.6751 24.8702 36.6326 24.9089C36.5901 24.9476 36.5673 24.9698 36.5659 24.9685C36.5659 24.9685 36.6451 24.8661 36.8122 24.7431C36.9775 24.6203 37.2395 24.4841 37.5548 24.4383C37.8699 24.3924 38.1599 24.4499 38.3528 24.5221C38.5478 24.5942 38.6517 24.6715 38.6517 24.6715Z" fill="white"/>
<path d="M6.49649 24.6715C6.49541 24.6733 6.46745 24.6579 6.41609 24.6323C6.36473 24.6065 6.28889 24.5721 6.19193 24.5388C5.99945 24.4715 5.71349 24.4178 5.40341 24.4631C5.09321 24.5081 4.83377 24.6395 4.66745 24.7575C4.58345 24.8163 4.51997 24.8702 4.47749 24.9089C4.43501 24.9476 4.41221 24.9698 4.41077 24.9685C4.41077 24.9685 4.48997 24.8661 4.65725 24.7431C4.82249 24.6203 5.08469 24.4841 5.39981 24.4383C5.71493 24.3924 6.00497 24.4499 6.19781 24.5221C6.39257 24.5942 6.49649 24.6715 6.49649 24.6715Z" fill="white"/>
<path d="M11.9532 24.6715C11.9521 24.6733 11.9242 24.6579 11.8728 24.6323C11.8215 24.6065 11.7456 24.5721 11.6487 24.5388C11.4562 24.4715 11.1702 24.4178 10.8601 24.4631C10.5499 24.5081 10.2905 24.6395 10.1242 24.7575C10.0402 24.8163 9.97669 24.8702 9.93421 24.9089C9.89173 24.9476 9.86893 24.9698 9.86749 24.9685C9.86749 24.9685 9.94669 24.8661 10.1139 24.7431C10.2791 24.6203 10.5413 24.4841 10.8564 24.4383C11.1715 24.3924 11.4616 24.4499 11.6544 24.5221C11.8493 24.5942 11.9532 24.6715 11.9532 24.6715Z" fill="white"/>
</svg>
