<svg width="18" height="18" viewBox="0 0 18 18" fill="none" xmlns="http://www.w3.org/2000/svg">
<g clip-path="url(#clip0_388_2032)">
<path d="M1.28176 7.15589C1.83389 6.60369 2.64498 6.50441 3.28644 6.8115L7.57901 2.51885C7.26732 1.86445 7.38161 1.05603 7.92267 0.514978C8.6092 -0.171659 9.72643 -0.171659 10.413 0.514978L12.9034 3.00534C13.59 3.69191 13.59 4.8091 12.9034 5.49567C12.3637 6.03542 11.5566 6.15232 10.8996 5.83932L9.99798 6.7409L17.4761 14.2191C18.1643 14.9072 18.1644 16.0211 17.4761 16.7094C16.7879 17.3976 15.6741 17.3977 14.9858 16.7094L7.50761 9.23127L6.60614 10.1327C6.9179 10.7871 6.80361 11.5955 6.26252 12.1366C5.92994 12.4692 5.48771 12.6524 5.01732 12.6524C4.54693 12.6524 4.10477 12.4693 3.77216 12.1366L1.28179 9.64625C0.595156 8.95965 0.595156 7.84252 1.28176 7.15589ZM11.2431 4.66556C11.472 4.89439 11.8444 4.89432 12.0733 4.66556C12.3021 4.43666 12.3021 4.06432 12.0733 3.83545L9.58292 1.34509C9.35409 1.11625 8.98175 1.11615 8.75281 1.34509C8.52394 1.57395 8.52395 1.94633 8.75278 2.1752L11.2431 4.66556ZM15.8159 15.8792C16.0453 16.1086 16.4166 16.1086 16.646 15.8792C16.8754 15.6498 16.8754 15.2785 16.646 15.0491L9.16783 7.57094L8.33772 8.40109L15.8159 15.8792ZM9.99798 5.08061L9.58296 4.66552L8.33776 3.42033L4.18714 7.57098L5.84736 9.23123L9.99798 5.08061ZM2.11183 8.81618L4.6022 11.3065C4.83162 11.536 5.20288 11.536 5.4323 11.3065C5.66117 11.0777 5.66117 10.7053 5.4323 10.4764L2.94191 7.98603C2.71255 7.7566 2.34123 7.75664 2.11183 7.98603C1.8824 8.21543 1.8824 8.58671 2.11183 8.81618Z" fill="white"/>
<path d="M1.76867 14.4781H6.46452C7.4355 14.4781 8.22546 15.2681 8.22546 16.2391V17.4131C8.22546 17.7372 7.96264 18 7.6385 18H0.594695C0.270519 18 0.00772667 17.7372 0.00772667 17.4131V16.2391C0.00769138 15.2681 0.797652 14.4781 1.76867 14.4781ZM1.18166 16.8261H7.05149V16.2391C7.05149 15.9154 6.78817 15.6521 6.46452 15.6521H1.76867C1.44502 15.6521 1.1817 15.9154 1.1817 16.2391V16.8261H1.18166Z" fill="white"/>
</g>
<defs>
<clipPath id="clip0_388_2032">
<rect width="18" height="18" fill="white"/>
</clipPath>
</defs>
</svg>
