<svg width="20" height="19" viewBox="0 0 20 19" fill="none" xmlns="http://www.w3.org/2000/svg">
<mask id="path-1-inside-1_687_4581" fill="white">
<path d="M14.2607 1.47525C16.4304 1.47525 18.1947 3.23965 18.1947 5.40925C18.1947 10.0012 12.7432 14.2027 9.835 16.2504C6.92679 14.2027 1.47525 10.0012 1.47525 5.40925C1.47525 3.23965 3.23965 1.47525 5.40925 1.47525C6.04096 1.47667 6.66308 1.62982 7.22326 1.92181C7.78344 2.21379 8.26529 2.63607 8.62825 3.1531L9.835 4.87128L11.0418 3.15408C11.4046 2.63687 11.8864 2.2144 12.4466 1.92224C13.0068 1.63008 13.629 1.47678 14.2607 1.47525ZM14.2607 5.75974e-08C13.392 -0.000126821 12.5361 0.209371 11.7656 0.610707C10.9951 1.01204 10.3328 1.59337 9.835 2.30532C9.33717 1.59337 8.67491 1.01204 7.90442 0.610707C7.13394 0.209371 6.27799 -0.000126821 5.40925 5.75974e-08C3.97463 5.75974e-08 2.59876 0.569902 1.58433 1.58433C0.569902 2.59876 0 3.97463 0 5.40925C0 11.0339 6.39275 15.675 9.835 18.0472C13.2773 15.675 19.67 11.0339 19.67 5.40925C19.67 4.6989 19.5301 3.9955 19.2582 3.33922C18.9864 2.68294 18.588 2.08663 18.0857 1.58433C17.5834 1.08204 16.9871 0.683595 16.3308 0.411755C15.6745 0.139914 14.9711 5.75974e-08 14.2607 5.75974e-08Z"/>
</mask>
<path d="M14.2607 1.47525C16.4304 1.47525 18.1947 3.23965 18.1947 5.40925C18.1947 10.0012 12.7432 14.2027 9.835 16.2504C6.92679 14.2027 1.47525 10.0012 1.47525 5.40925C1.47525 3.23965 3.23965 1.47525 5.40925 1.47525C6.04096 1.47667 6.66308 1.62982 7.22326 1.92181C7.78344 2.21379 8.26529 2.63607 8.62825 3.1531L9.835 4.87128L11.0418 3.15408C11.4046 2.63687 11.8864 2.2144 12.4466 1.92224C13.0068 1.63008 13.629 1.47678 14.2607 1.47525ZM14.2607 5.75974e-08C13.392 -0.000126821 12.5361 0.209371 11.7656 0.610707C10.9951 1.01204 10.3328 1.59337 9.835 2.30532C9.33717 1.59337 8.67491 1.01204 7.90442 0.610707C7.13394 0.209371 6.27799 -0.000126821 5.40925 5.75974e-08C3.97463 5.75974e-08 2.59876 0.569902 1.58433 1.58433C0.569902 2.59876 0 3.97463 0 5.40925C0 11.0339 6.39275 15.675 9.835 18.0472C13.2773 15.675 19.67 11.0339 19.67 5.40925C19.67 4.6989 19.5301 3.9955 19.2582 3.33922C18.9864 2.68294 18.588 2.08663 18.0857 1.58433C17.5834 1.08204 16.9871 0.683595 16.3308 0.411755C15.6745 0.139914 14.9711 5.75974e-08 14.2607 5.75974e-08Z" fill="black"/>
<path d="M14.2607 1.47525V-0.0247545L14.2571 -0.0247457L14.2607 1.47525ZM9.835 16.2504L8.97144 17.4769L9.835 18.0849L10.6986 17.4769L9.835 16.2504ZM5.40925 1.47525L5.41263 -0.0247501H5.40925V1.47525ZM8.62825 3.1531L7.40055 4.01494L7.40075 4.01523L8.62825 3.1531ZM9.835 4.87128L8.60751 5.7334L9.83465 7.4806L11.0623 5.73373L9.835 4.87128ZM11.0418 3.15408L12.269 4.01654L12.2697 4.01555L11.0418 3.15408ZM14.2607 5.75974e-08L14.2605 1.5H14.2607V5.75974e-08ZM9.835 2.30532L8.60571 3.16489L9.835 4.92293L11.0643 3.16489L9.835 2.30532ZM5.40925 5.75974e-08V1.5L5.40947 1.5L5.40925 5.75974e-08ZM0 5.40925H-1.5H0ZM9.835 18.0472L8.98383 19.2823L9.835 19.8689L10.6862 19.2823L9.835 18.0472ZM14.2607 1.47525V2.97525C15.6019 2.97525 16.6947 4.06808 16.6947 5.40925H18.1947H19.6947C19.6947 2.41122 17.2588 -0.0247501 14.2607 -0.0247501V1.47525ZM18.1947 5.40925H16.6947C16.6947 7.13088 15.6503 8.97258 14.0005 10.7695C12.3862 12.5278 10.4035 14.0156 8.97144 15.0239L9.835 16.2504L10.6986 17.4769C12.1747 16.4375 14.3719 14.8008 16.2104 12.7984C18.0134 10.8346 19.6947 8.27958 19.6947 5.40925H18.1947ZM9.835 16.2504L10.6986 15.0239C9.26646 14.0156 7.28384 12.5278 5.66946 10.7695C4.01968 8.97258 2.97525 7.13088 2.97525 5.40925H1.47525H-0.02475C-0.02475 8.27958 1.65659 10.8346 3.45963 12.7984C5.29807 14.8008 7.49533 16.4375 8.97144 17.4769L9.835 16.2504ZM1.47525 5.40925H2.97525C2.97525 4.06808 4.06808 2.97525 5.40925 2.97525V1.47525V-0.0247501C2.41122 -0.0247501 -0.02475 2.41122 -0.02475 5.40925H1.47525ZM5.40925 1.47525L5.40587 2.97525C5.79732 2.97613 6.18282 3.07103 6.52994 3.25196L7.22326 1.92181L7.91658 0.591654C7.14334 0.188615 6.2846 -0.0227824 5.41263 -0.0247463L5.40925 1.47525ZM7.22326 1.92181L6.52994 3.25196C6.87706 3.43289 7.17564 3.69456 7.40055 4.01494L8.62825 3.1531L9.85594 2.29126C9.35493 1.57758 8.68983 0.994694 7.91658 0.591654L7.22326 1.92181ZM8.62825 3.1531L7.40075 4.01523L8.60751 5.7334L9.835 4.87128L11.0625 4.00915L9.85574 2.29097L8.62825 3.1531ZM9.835 4.87128L11.0623 5.73373L12.269 4.01654L11.0418 3.15408L9.81449 2.29163L8.60774 4.00882L9.835 4.87128ZM11.0418 3.15408L12.2697 4.01555C12.4946 3.69506 12.7931 3.43327 13.1402 3.25223L12.4466 1.92224L11.7529 0.592257C10.9797 0.995538 10.3147 1.57869 9.8138 2.29262L11.0418 3.15408ZM12.4466 1.92224L13.1402 3.25223C13.4874 3.07119 13.8729 2.9762 14.2644 2.97525L14.2607 1.47525L14.2571 -0.0247457C13.385 -0.0226286 12.5262 0.188977 11.7529 0.592257L12.4466 1.92224ZM14.2607 5.75974e-08L14.261 -1.5C13.1509 -1.50016 12.0571 -1.23246 11.0726 -0.719634L11.7656 0.610707L12.4585 1.94105C13.015 1.65121 13.6331 1.49991 14.2605 1.5L14.2607 5.75974e-08ZM11.7656 0.610707L11.0726 -0.719634C10.0881 -0.206804 9.24184 0.536016 8.60571 1.44576L9.835 2.30532L11.0643 3.16489C11.4238 2.65072 11.9021 2.23089 12.4585 1.94105L11.7656 0.610707ZM9.835 2.30532L11.0643 1.44576C10.4282 0.536016 9.58191 -0.206804 8.59738 -0.719634L7.90442 0.610707L7.21146 1.94105C7.7679 2.23089 8.24618 2.65072 8.60571 3.16489L9.835 2.30532ZM7.90442 0.610707L8.59738 -0.719634C7.61285 -1.23246 6.51912 -1.50016 5.40903 -1.5L5.40925 5.75974e-08L5.40947 1.5C6.03687 1.49991 6.65503 1.65121 7.21146 1.94105L7.90442 0.610707ZM5.40925 5.75974e-08L5.40925 -1.5C3.5768 -1.5 1.81941 -0.772063 0.523673 0.523672L1.58433 1.58433L2.64499 2.64499C3.37812 1.91187 4.37245 1.5 5.40925 1.5V5.75974e-08ZM1.58433 1.58433L0.523673 0.523672C-0.772063 1.81941 -1.5 3.5768 -1.5 5.40925H0H1.5C1.5 4.37245 1.91187 3.37812 2.64499 2.64499L1.58433 1.58433ZM0 5.40925H-1.5C-1.5 8.79101 0.409508 11.7134 2.53325 13.9748C4.68052 16.2612 7.25582 18.0915 8.98383 19.2823L9.835 18.0472L10.6862 16.8121C8.97193 15.6308 6.62973 13.9544 4.72006 11.921C2.78687 9.86259 1.5 7.65213 1.5 5.40925H0ZM9.835 18.0472L10.6862 19.2823C12.4142 18.0915 14.9895 16.2612 17.1367 13.9748C19.2605 11.7134 21.17 8.79101 21.17 5.40925H19.67H18.17C18.17 7.65213 16.8831 9.86259 14.9499 11.921C13.0403 13.9544 10.6981 15.6308 8.98383 16.8121L9.835 18.0472ZM19.67 5.40925H21.17C21.17 4.50191 20.9913 3.60346 20.6441 2.76519L19.2582 3.33922L17.8724 3.91324C18.0689 4.38754 18.17 4.89588 18.17 5.40925H19.67ZM19.2582 3.33922L20.6441 2.76519C20.2968 1.92693 19.7879 1.16526 19.1463 0.523672L18.0857 1.58433L17.025 2.64499C17.388 3.008 17.676 3.43895 17.8724 3.91324L19.2582 3.33922ZM18.0857 1.58433L19.1463 0.523672C18.5047 -0.117911 17.7431 -0.626842 16.9048 -0.974065L16.3308 0.411755L15.7568 1.79757C16.231 1.99403 16.662 2.28199 17.025 2.64499L18.0857 1.58433ZM16.3308 0.411755L16.9048 -0.974065C16.0665 -1.32129 15.1681 -1.5 14.2607 -1.5V5.75974e-08V1.5C14.7741 1.5 15.2825 1.60112 15.7568 1.79757L16.3308 0.411755Z" fill="url(#paint0_linear_687_4581)" mask="url(#path-1-inside-1_687_4581)"/>
<path d="M14.2607 1.47525V-0.0247545L14.2571 -0.0247457L14.2607 1.47525ZM9.835 16.2504L8.97144 17.4769L9.835 18.0849L10.6986 17.4769L9.835 16.2504ZM5.40925 1.47525L5.41263 -0.0247501H5.40925V1.47525ZM8.62825 3.1531L7.40055 4.01494L7.40075 4.01523L8.62825 3.1531ZM9.835 4.87128L8.60751 5.7334L9.83465 7.4806L11.0623 5.73373L9.835 4.87128ZM11.0418 3.15408L12.269 4.01654L12.2697 4.01555L11.0418 3.15408ZM14.2607 5.75974e-08L14.2605 1.5H14.2607V5.75974e-08ZM9.835 2.30532L8.60571 3.16489L9.835 4.92293L11.0643 3.16489L9.835 2.30532ZM5.40925 5.75974e-08V1.5L5.40947 1.5L5.40925 5.75974e-08ZM0 5.40925H-1.5H0ZM9.835 18.0472L8.98383 19.2823L9.835 19.8689L10.6862 19.2823L9.835 18.0472ZM14.2607 1.47525V2.97525C15.6019 2.97525 16.6947 4.06808 16.6947 5.40925H18.1947H19.6947C19.6947 2.41122 17.2588 -0.0247501 14.2607 -0.0247501V1.47525ZM18.1947 5.40925H16.6947C16.6947 7.13088 15.6503 8.97258 14.0005 10.7695C12.3862 12.5278 10.4035 14.0156 8.97144 15.0239L9.835 16.2504L10.6986 17.4769C12.1747 16.4375 14.3719 14.8008 16.2104 12.7984C18.0134 10.8346 19.6947 8.27958 19.6947 5.40925H18.1947ZM9.835 16.2504L10.6986 15.0239C9.26646 14.0156 7.28384 12.5278 5.66946 10.7695C4.01968 8.97258 2.97525 7.13088 2.97525 5.40925H1.47525H-0.02475C-0.02475 8.27958 1.65659 10.8346 3.45963 12.7984C5.29807 14.8008 7.49533 16.4375 8.97144 17.4769L9.835 16.2504ZM1.47525 5.40925H2.97525C2.97525 4.06808 4.06808 2.97525 5.40925 2.97525V1.47525V-0.0247501C2.41122 -0.0247501 -0.02475 2.41122 -0.02475 5.40925H1.47525ZM5.40925 1.47525L5.40587 2.97525C5.79732 2.97613 6.18282 3.07103 6.52994 3.25196L7.22326 1.92181L7.91658 0.591654C7.14334 0.188615 6.2846 -0.0227824 5.41263 -0.0247463L5.40925 1.47525ZM7.22326 1.92181L6.52994 3.25196C6.87706 3.43289 7.17564 3.69456 7.40055 4.01494L8.62825 3.1531L9.85594 2.29126C9.35493 1.57758 8.68983 0.994694 7.91658 0.591654L7.22326 1.92181ZM8.62825 3.1531L7.40075 4.01523L8.60751 5.7334L9.835 4.87128L11.0625 4.00915L9.85574 2.29097L8.62825 3.1531ZM9.835 4.87128L11.0623 5.73373L12.269 4.01654L11.0418 3.15408L9.81449 2.29163L8.60774 4.00882L9.835 4.87128ZM11.0418 3.15408L12.2697 4.01555C12.4946 3.69506 12.7931 3.43327 13.1402 3.25223L12.4466 1.92224L11.7529 0.592257C10.9797 0.995538 10.3147 1.57869 9.8138 2.29262L11.0418 3.15408ZM12.4466 1.92224L13.1402 3.25223C13.4874 3.07119 13.8729 2.9762 14.2644 2.97525L14.2607 1.47525L14.2571 -0.0247457C13.385 -0.0226286 12.5262 0.188977 11.7529 0.592257L12.4466 1.92224ZM14.2607 5.75974e-08L14.261 -1.5C13.1509 -1.50016 12.0571 -1.23246 11.0726 -0.719634L11.7656 0.610707L12.4585 1.94105C13.015 1.65121 13.6331 1.49991 14.2605 1.5L14.2607 5.75974e-08ZM11.7656 0.610707L11.0726 -0.719634C10.0881 -0.206804 9.24184 0.536016 8.60571 1.44576L9.835 2.30532L11.0643 3.16489C11.4238 2.65072 11.9021 2.23089 12.4585 1.94105L11.7656 0.610707ZM9.835 2.30532L11.0643 1.44576C10.4282 0.536016 9.58191 -0.206804 8.59738 -0.719634L7.90442 0.610707L7.21146 1.94105C7.7679 2.23089 8.24618 2.65072 8.60571 3.16489L9.835 2.30532ZM7.90442 0.610707L8.59738 -0.719634C7.61285 -1.23246 6.51912 -1.50016 5.40903 -1.5L5.40925 5.75974e-08L5.40947 1.5C6.03687 1.49991 6.65503 1.65121 7.21146 1.94105L7.90442 0.610707ZM5.40925 5.75974e-08L5.40925 -1.5C3.5768 -1.5 1.81941 -0.772063 0.523673 0.523672L1.58433 1.58433L2.64499 2.64499C3.37812 1.91187 4.37245 1.5 5.40925 1.5V5.75974e-08ZM1.58433 1.58433L0.523673 0.523672C-0.772063 1.81941 -1.5 3.5768 -1.5 5.40925H0H1.5C1.5 4.37245 1.91187 3.37812 2.64499 2.64499L1.58433 1.58433ZM0 5.40925H-1.5C-1.5 8.79101 0.409508 11.7134 2.53325 13.9748C4.68052 16.2612 7.25582 18.0915 8.98383 19.2823L9.835 18.0472L10.6862 16.8121C8.97193 15.6308 6.62973 13.9544 4.72006 11.921C2.78687 9.86259 1.5 7.65213 1.5 5.40925H0ZM9.835 18.0472L10.6862 19.2823C12.4142 18.0915 14.9895 16.2612 17.1367 13.9748C19.2605 11.7134 21.17 8.79101 21.17 5.40925H19.67H18.17C18.17 7.65213 16.8831 9.86259 14.9499 11.921C13.0403 13.9544 10.6981 15.6308 8.98383 16.8121L9.835 18.0472ZM19.67 5.40925H21.17C21.17 4.50191 20.9913 3.60346 20.6441 2.76519L19.2582 3.33922L17.8724 3.91324C18.0689 4.38754 18.17 4.89588 18.17 5.40925H19.67ZM19.2582 3.33922L20.6441 2.76519C20.2968 1.92693 19.7879 1.16526 19.1463 0.523672L18.0857 1.58433L17.025 2.64499C17.388 3.008 17.676 3.43895 17.8724 3.91324L19.2582 3.33922ZM18.0857 1.58433L19.1463 0.523672C18.5047 -0.117911 17.7431 -0.626842 16.9048 -0.974065L16.3308 0.411755L15.7568 1.79757C16.231 1.99403 16.662 2.28199 17.025 2.64499L18.0857 1.58433ZM16.3308 0.411755L16.9048 -0.974065C16.0665 -1.32129 15.1681 -1.5 14.2607 -1.5V5.75974e-08V1.5C14.7741 1.5 15.2825 1.60112 15.7568 1.79757L16.3308 0.411755Z" fill="black" fill-opacity="0.2" mask="url(#path-1-inside-1_687_4581)"/>
<defs>
<linearGradient id="paint0_linear_687_4581" x1="-6.21403e-08" y1="18.0472" x2="22.5157" y2="15.5888" gradientUnits="userSpaceOnUse">
<stop stop-color="#7464E4"/>
<stop offset="1" stop-color="#3354F4"/>
</linearGradient>
</defs>
</svg>
