<svg width="19" height="22" viewBox="0 0 19 22" fill="none" xmlns="http://www.w3.org/2000/svg">
<path d="M8 2.5C8.169 2.5 8.33517 2.50515 8.5 2.51562V3.51953C8.33431 3.50726 8.16821 3.5005 8.00195 3.5H8C4.36739 3.5 1.5 6.30057 1.5 10.2002C1.50005 11.5044 2.04048 12.9601 3.06152 14.5322C4.08598 16.1095 5.619 17.8415 7.66309 19.709L8 20.0176L8.33691 19.709C10.3807 17.8418 11.913 16.1122 12.9375 14.5361C13.8816 13.0838 14.4149 11.7304 14.4902 10.5H15.4922C15.4172 11.9492 14.8012 13.5654 13.585 15.3584C12.3393 17.1947 10.481 19.1853 8 21.3359C5.51903 19.1853 3.66067 17.1947 2.41504 15.3584C1.11424 13.4407 0.500052 11.7254 0.5 10.2002C0.5 5.51164 4.06059 2.5 8 2.5ZM8 8.5C8.82386 8.5 9.5 9.17614 9.5 10C9.5 10.8239 8.82386 11.5 8 11.5C7.17614 11.5 6.5 10.8239 6.5 10C6.5 9.17614 7.17614 8.5 8 8.5ZM15.5 0.5V3.5H18.5V4.5H15.5V7.5H14.5V4.5H11.5V3.5H14.5V0.5H15.5Z" stroke="url(#paint0_linear_687_4587)"/>
<path d="M8 2.5C8.169 2.5 8.33517 2.50515 8.5 2.51562V3.51953C8.33431 3.50726 8.16821 3.5005 8.00195 3.5H8C4.36739 3.5 1.5 6.30057 1.5 10.2002C1.50005 11.5044 2.04048 12.9601 3.06152 14.5322C4.08598 16.1095 5.619 17.8415 7.66309 19.709L8 20.0176L8.33691 19.709C10.3807 17.8418 11.913 16.1122 12.9375 14.5361C13.8816 13.0838 14.4149 11.7304 14.4902 10.5H15.4922C15.4172 11.9492 14.8012 13.5654 13.585 15.3584C12.3393 17.1947 10.481 19.1853 8 21.3359C5.51903 19.1853 3.66067 17.1947 2.41504 15.3584C1.11424 13.4407 0.500052 11.7254 0.5 10.2002C0.5 5.51164 4.06059 2.5 8 2.5ZM8 8.5C8.82386 8.5 9.5 9.17614 9.5 10C9.5 10.8239 8.82386 11.5 8 11.5C7.17614 11.5 6.5 10.8239 6.5 10C6.5 9.17614 7.17614 8.5 8 8.5ZM15.5 0.5V3.5H18.5V4.5H15.5V7.5H14.5V4.5H11.5V3.5H14.5V0.5H15.5Z" stroke="black" stroke-opacity="0.2"/>
<defs>
<linearGradient id="paint0_linear_687_4587" x1="-6.00237e-08" y1="22" x2="21.8445" y2="20.1101" gradientUnits="userSpaceOnUse">
<stop stop-color="#7464E4"/>
<stop offset="1" stop-color="#3354F4"/>
</linearGradient>
</defs>
</svg>
