<svg width="20" height="20" viewBox="0 0 20 20" fill="none" xmlns="http://www.w3.org/2000/svg">
<path d="M15.8333 8.33333C15.8333 12.8704 10 16.7593 10 16.7593C10 16.7593 4.16667 12.8704 4.16667 8.33333C4.16667 6.78624 4.78125 5.30251 5.87522 4.20854C6.96918 3.11458 8.45291 2.5 10 2.5C11.5471 2.5 13.0308 3.11458 14.1248 4.20854C15.2188 5.30251 15.8333 6.78624 15.8333 8.33333Z" stroke="#070707" stroke-width="1.16667" stroke-linecap="round" stroke-linejoin="round"/>
<path d="M10 10.2778C11.0739 10.2778 11.9444 9.40725 11.9444 8.33336C11.9444 7.25947 11.0739 6.38892 10 6.38892C8.92611 6.38892 8.05556 7.25947 8.05556 8.33336C8.05556 9.40725 8.92611 10.2778 10 10.2778Z" stroke="#070707" stroke-width="1.16667" stroke-linecap="round" stroke-linejoin="round"/>
</svg>
