<svg width="20" height="20" viewBox="0 0 20 20" fill="none" xmlns="http://www.w3.org/2000/svg">
<path d="M11.3818 18C11.1742 18.5803 10.6184 19 9.96973 19C9.32126 18.9999 8.76622 18.5802 8.55859 18H11.3818ZM9.96973 0.5C10.5236 0.5 10.9697 0.946142 10.9697 1.5V2.5752L11.3545 2.66699C13.9472 3.28129 15.4697 5.60389 15.4697 8.5V13.707L17.4697 15.707V16H2.46973V15.707L4.46973 13.707V8.5C4.46973 5.5953 6.00176 3.28043 8.58594 2.66602L8.96973 2.5752V1.5C8.96973 0.946234 9.416 0.500147 9.96973 0.5ZM9.96973 3.5C8.57786 3.50007 7.43809 4.06965 6.6543 4.99707C5.87727 5.91653 5.46973 7.1619 5.46973 8.5V15H14.4697V8.5C14.4697 7.1619 14.0622 5.91653 13.2852 4.99707C12.5013 4.06975 11.3616 3.5 9.96973 3.5ZM15.8564 0.822266C17.8155 2.46121 19.1368 4.8231 19.4023 7.5H18.3994C18.136 5.0944 16.9206 2.98017 15.1533 1.53027L15.8564 0.822266ZM4.79297 1.53027C3.01086 2.98096 1.80343 5.09558 1.54102 7.5H0.536133C0.793793 4.82268 2.11494 2.45948 4.08301 0.820312L4.79297 1.53027Z" fill="#444ABC"/>
<path d="M11.3818 18C11.1742 18.5803 10.6184 19 9.96973 19C9.32126 18.9999 8.76622 18.5802 8.55859 18H11.3818ZM9.96973 0.5C10.5236 0.5 10.9697 0.946142 10.9697 1.5V2.5752L11.3545 2.66699C13.9472 3.28129 15.4697 5.60389 15.4697 8.5V13.707L17.4697 15.707V16H2.46973V15.707L4.46973 13.707V8.5C4.46973 5.5953 6.00176 3.28043 8.58594 2.66602L8.96973 2.5752V1.5C8.96973 0.946234 9.416 0.500147 9.96973 0.5ZM9.96973 3.5C8.57786 3.50007 7.43809 4.06965 6.6543 4.99707C5.87727 5.91653 5.46973 7.1619 5.46973 8.5V15H14.4697V8.5C14.4697 7.1619 14.0622 5.91653 13.2852 4.99707C12.5013 4.06975 11.3616 3.5 9.96973 3.5ZM15.8564 0.822266C17.8155 2.46121 19.1368 4.8231 19.4023 7.5H18.3994C18.136 5.0944 16.9206 2.98017 15.1533 1.53027L15.8564 0.822266ZM4.79297 1.53027C3.01086 2.98096 1.80343 5.09558 1.54102 7.5H0.536133C0.793793 4.82268 2.11494 2.45948 4.08301 0.820312L4.79297 1.53027Z" stroke="url(#paint0_linear_687_4341)"/>
<path d="M11.3818 18C11.1742 18.5803 10.6184 19 9.96973 19C9.32126 18.9999 8.76622 18.5802 8.55859 18H11.3818ZM9.96973 0.5C10.5236 0.5 10.9697 0.946142 10.9697 1.5V2.5752L11.3545 2.66699C13.9472 3.28129 15.4697 5.60389 15.4697 8.5V13.707L17.4697 15.707V16H2.46973V15.707L4.46973 13.707V8.5C4.46973 5.5953 6.00176 3.28043 8.58594 2.66602L8.96973 2.5752V1.5C8.96973 0.946234 9.416 0.500147 9.96973 0.5ZM9.96973 3.5C8.57786 3.50007 7.43809 4.06965 6.6543 4.99707C5.87727 5.91653 5.46973 7.1619 5.46973 8.5V15H14.4697V8.5C14.4697 7.1619 14.0622 5.91653 13.2852 4.99707C12.5013 4.06975 11.3616 3.5 9.96973 3.5ZM15.8564 0.822266C17.8155 2.46121 19.1368 4.8231 19.4023 7.5H18.3994C18.136 5.0944 16.9206 2.98017 15.1533 1.53027L15.8564 0.822266ZM4.79297 1.53027C3.01086 2.98096 1.80343 5.09558 1.54102 7.5H0.536133C0.793793 4.82268 2.11494 2.45948 4.08301 0.820312L4.79297 1.53027Z" stroke="black" stroke-opacity="0.2"/>
<defs>
<linearGradient id="paint0_linear_687_4341" x1="-6.29933e-08" y1="19.5" x2="22.857" y2="17.1585" gradientUnits="userSpaceOnUse">
<stop stop-color="#7464E4"/>
<stop offset="1" stop-color="#3354F4"/>
</linearGradient>
</defs>
</svg>
