<svg width="22" height="20" viewBox="0 0 22 20" fill="none" xmlns="http://www.w3.org/2000/svg">
<path d="M10 0.75C11.436 0.749281 12.8533 1.08337 14.1377 1.72559C14.9395 2.12656 15.6764 2.64058 16.3262 3.25H15.5654C14.3436 2.24245 12.8695 1.58371 11.2998 1.34766C9.63485 1.09736 7.93296 1.33259 6.39844 2.02539C4.86391 2.71826 3.56179 3.83948 2.64844 5.25391C1.73511 6.66854 1.24892 8.31713 1.24902 10.001C1.24916 11.6849 1.73483 13.3335 2.64844 14.748C3.56199 16.1625 4.8647 17.2829 6.39941 17.9756C7.93426 18.6683 9.63661 18.904 11.3018 18.6533C12.8713 18.417 14.3448 17.7577 15.5664 16.75H16.3271C15.6771 17.3596 14.9398 17.8734 14.1377 18.2744C12.8531 18.9166 11.4362 19.2509 10 19.25C4.89121 19.25 0.75 15.1088 0.75 10C0.750001 4.89121 4.89121 0.75 10 0.75ZM20.7988 10L17.75 12.4385V10.25H9.75V9.75H17.75V7.56055L20.7988 10Z" fill="#3446C0"/>
<path d="M10 0.75C11.436 0.749281 12.8533 1.08337 14.1377 1.72559C14.9395 2.12656 15.6764 2.64058 16.3262 3.25H15.5654C14.3436 2.24245 12.8695 1.58371 11.2998 1.34766C9.63485 1.09736 7.93296 1.33259 6.39844 2.02539C4.86391 2.71826 3.56179 3.83948 2.64844 5.25391C1.73511 6.66854 1.24892 8.31713 1.24902 10.001C1.24916 11.6849 1.73483 13.3335 2.64844 14.748C3.56199 16.1625 4.8647 17.2829 6.39941 17.9756C7.93426 18.6683 9.63661 18.904 11.3018 18.6533C12.8713 18.417 14.3448 17.7577 15.5664 16.75H16.3271C15.6771 17.3596 14.9398 17.8734 14.1377 18.2744C12.8531 18.9166 11.4362 19.2509 10 19.25C4.89121 19.25 0.75 15.1088 0.75 10C0.750001 4.89121 4.89121 0.75 10 0.75ZM20.7988 10L17.75 12.4385V10.25H9.75V9.75H17.75V7.56055L20.7988 10Z" stroke="url(#paint0_linear_193_4021)" stroke-width="1.5"/>
<path d="M10 0.75C11.436 0.749281 12.8533 1.08337 14.1377 1.72559C14.9395 2.12656 15.6764 2.64058 16.3262 3.25H15.5654C14.3436 2.24245 12.8695 1.58371 11.2998 1.34766C9.63485 1.09736 7.93296 1.33259 6.39844 2.02539C4.86391 2.71826 3.56179 3.83948 2.64844 5.25391C1.73511 6.66854 1.24892 8.31713 1.24902 10.001C1.24916 11.6849 1.73483 13.3335 2.64844 14.748C3.56199 16.1625 4.8647 17.2829 6.39941 17.9756C7.93426 18.6683 9.63661 18.904 11.3018 18.6533C12.8713 18.417 14.3448 17.7577 15.5664 16.75H16.3271C15.6771 17.3596 14.9398 17.8734 14.1377 18.2744C12.8531 18.9166 11.4362 19.2509 10 19.25C4.89121 19.25 0.75 15.1088 0.75 10C0.750001 4.89121 4.89121 0.75 10 0.75ZM20.7988 10L17.75 12.4385V10.25H9.75V9.75H17.75V7.56055L20.7988 10Z" stroke="black" stroke-opacity="0.2" stroke-width="1.5"/>
<defs>
<linearGradient id="paint0_linear_193_4021" x1="-6.95011e-08" y1="20" x2="25.1773" y2="17.2255" gradientUnits="userSpaceOnUse">
<stop stop-color="#7464E4"/>
<stop offset="1" stop-color="#3354F4"/>
</linearGradient>
</defs>
</svg>
