<svg width="25" height="28" viewBox="0 0 25 28" fill="none" xmlns="http://www.w3.org/2000/svg">
<path d="M24.5 21.75V27H19.25V25.5H23V21.75H24.5ZM2 21.75V25.5H5.75V27H0.5V21.75H2ZM6.25 4.25H18.75C19.8489 4.25 20.75 5.15114 20.75 6.25V21.25C20.75 22.3489 19.8489 23.25 18.75 23.25H6.25C5.15114 23.25 4.25 22.3489 4.25 21.25V6.25C4.25 5.15114 5.15114 4.25 6.25 4.25ZM5.75 21.75H19.25V5.75H5.75V21.75ZM15.75 16.75V18.25H9.25V16.75H15.75ZM15.75 13V14.5H9.25V13H15.75ZM15.75 9.25V10.75H9.25V9.25H15.75ZM24.5 0.5V5.75H23V2H19.25V0.5H24.5ZM5.75 0.5V2H2V5.75H0.5V0.5H5.75Z" fill="#4F4F4F" stroke="#4F4F4F"/>
</svg>
