<svg width="22" height="22" viewBox="0 0 22 22" fill="none" xmlns="http://www.w3.org/2000/svg">
<path d="M6.61238 3.26164C6.65782 3.27703 6.65782 3.27703 6.70418 3.29273C6.75426 3.30893 6.75426 3.30893 6.80535 3.32546C6.8779 3.34901 6.95037 3.37281 7.02277 3.39684C7.13893 3.43538 7.25532 3.47319 7.37179 3.51084C7.68615 3.61265 8.00005 3.71577 8.31395 3.81892C8.62915 3.92248 8.94452 4.02552 9.2601 4.12795C9.41393 4.17811 9.5675 4.229 9.72107 4.27991C9.81636 4.31092 9.91166 4.3419 10.007 4.37284C10.0504 4.38745 10.0938 4.40205 10.1385 4.41709C10.5776 4.55789 10.8871 4.44058 11.3137 4.30124C11.3945 4.27517 11.4753 4.2491 11.5561 4.22304C11.6413 4.19549 11.7265 4.16783 11.8117 4.14013C11.9869 4.08319 12.1623 4.02668 12.3377 3.97024C12.7954 3.82283 13.253 3.67506 13.71 3.5252C13.8421 3.48193 13.9744 3.43903 14.1067 3.39624C14.1917 3.36856 14.2764 3.34029 14.3612 3.31198C14.9164 3.13253 14.9164 3.13253 15.1521 3.19265C15.3507 3.29932 15.4444 3.39354 15.5402 3.59297C15.5582 3.6299 15.5582 3.6299 15.5764 3.66758C15.7768 4.08739 15.9574 4.51645 16.1415 4.94323C16.1841 5.04162 16.2268 5.13999 16.2694 5.23836C16.3469 5.41695 16.4242 5.59556 16.5015 5.77421C16.7018 6.23705 16.903 6.69945 17.1044 7.16181C17.165 7.3009 17.2255 7.44002 17.2859 7.57914C17.4759 8.01595 17.6667 8.45239 17.8595 8.88799C17.8947 8.96756 17.9298 9.04714 17.965 9.12672C18.0294 9.27249 18.0941 9.41811 18.1591 9.56364C18.5563 10.4591 18.8106 11.4333 18.495 12.399C18.3291 12.8044 18.1393 13.198 17.8467 13.5314C17.8154 13.5708 17.8154 13.5708 17.7834 13.611C17.4713 13.9884 17.0678 14.2307 16.6257 14.4375C16.9012 15.3377 17.2057 16.2281 17.5122 17.1185C17.5286 17.1666 17.5451 17.2146 17.5621 17.2641C17.5935 17.3555 17.625 17.447 17.6566 17.5384C17.6706 17.5791 17.6846 17.6198 17.6989 17.6617C17.7174 17.7153 17.7174 17.7153 17.7363 17.77C17.7625 17.8563 17.7625 17.8563 17.7625 17.9387C17.7901 17.9401 17.8176 17.9414 17.846 17.9428C18.1343 17.9572 18.4225 17.972 18.7108 17.987C18.8181 17.9925 18.9255 17.9979 19.0329 18.0033C19.1878 18.011 19.3427 18.019 19.4976 18.0272C19.5452 18.0295 19.5927 18.0317 19.6417 18.0341C20.0901 18.0584 20.4905 18.0886 20.836 18.3918C21.0123 18.5911 21.1308 18.7803 21.1308 19.0508C21.0953 19.2126 21.0158 19.304 20.8853 19.4073C20.6737 19.5356 20.4259 19.5979 20.1902 19.6721C20.1308 19.6911 20.0715 19.7102 20.0121 19.7294C19.8881 19.7692 19.764 19.8087 19.6398 19.8478C19.4811 19.8979 19.3227 19.9488 19.1644 20.0001C19.0421 20.0396 18.9195 20.0787 18.797 20.1176C18.7386 20.1362 18.6802 20.155 18.6218 20.1738C18.54 20.2002 18.4581 20.226 18.3761 20.2516C18.3297 20.2663 18.2832 20.2811 18.2354 20.2963C18.0859 20.3308 17.9576 20.3379 17.8046 20.3277C17.6903 20.2482 17.6469 20.1901 17.5967 20.0626C17.593 19.9143 17.6202 19.8635 17.7204 19.7511C17.9969 19.6016 18.3073 19.5131 18.606 19.417C18.6532 19.4017 18.7003 19.3864 18.7488 19.3706C18.8981 19.3222 19.0473 19.274 19.1966 19.2259C19.2984 19.1929 19.4001 19.1599 19.5018 19.1269C19.75 19.0465 19.9983 18.9662 20.2466 18.8861C20.2327 18.8589 20.2188 18.8317 20.2045 18.8037C20.0628 18.7665 19.9224 18.7548 19.7763 18.7465C19.734 18.744 19.6917 18.7415 19.6481 18.739C19.6029 18.7365 19.5577 18.734 19.5111 18.7314C19.4642 18.7288 19.4174 18.7261 19.3691 18.7233C19.2701 18.7177 19.1712 18.7121 19.0722 18.7066C18.9209 18.6982 18.7696 18.6895 18.6182 18.6808C18.522 18.6754 18.4258 18.6699 18.3296 18.6645C18.2844 18.6619 18.2391 18.6594 18.1925 18.6567C18.1291 18.6532 18.1291 18.6532 18.0644 18.6496C18.0273 18.6476 17.9903 18.6455 17.9521 18.6433C17.9173 18.6419 17.8826 18.6404 17.8467 18.6389C17.81 18.6369 17.7734 18.6349 17.7356 18.6329C17.5788 18.6424 17.4893 18.743 17.3783 18.8423C17.3296 18.8843 17.2808 18.9263 17.2319 18.9683C17.2078 18.9893 17.1836 19.0103 17.1587 19.032C17.0604 19.1165 16.959 19.1969 16.8573 19.2774C16.6604 19.434 16.4669 19.5942 16.2741 19.7557C16.1233 19.8812 15.9692 19.9976 15.8042 20.1047C15.7209 20.1821 15.6939 20.2637 15.6573 20.3689C15.7091 20.3511 15.7609 20.3332 15.8142 20.3149C15.883 20.2917 15.9517 20.2685 16.0205 20.2453C16.0545 20.2336 16.0885 20.2218 16.1236 20.2096C16.3098 20.1474 16.4683 20.1006 16.6678 20.1218C16.7889 20.1836 16.7889 20.1836 16.8783 20.2865C16.9084 20.4025 16.917 20.502 16.8783 20.6161C16.6944 20.8135 16.4276 20.8748 16.1757 20.9559C16.1102 20.9783 16.1102 20.9783 16.0433 21.0012C15.7743 21.089 15.521 21.1507 15.2363 21.1103C15.0611 21.0139 15.0028 20.9228 14.9416 20.7396C14.8953 20.3327 14.9625 20.0434 15.1968 19.7099C15.333 19.5621 15.4951 19.442 15.6534 19.3181C15.79 19.2106 15.9239 19.1003 16.0573 18.989C16.2306 18.845 16.4049 18.7024 16.581 18.5617C16.6181 18.5318 16.6551 18.5018 16.6933 18.471C16.7542 18.4231 16.8163 18.3767 16.8805 18.3332C16.9607 18.2811 16.9607 18.2811 17.0468 18.1858C17.0335 17.9349 16.9471 17.7039 16.8665 17.4669C16.8526 17.4255 16.8387 17.3841 16.8244 17.3414C16.7795 17.2075 16.7342 17.0737 16.6889 16.9398C16.6581 16.8482 16.6273 16.7566 16.5965 16.6649C16.4662 16.2772 16.3351 15.8898 16.2021 15.503C16.1929 15.4765 16.1838 15.4499 16.1744 15.4225C16.1341 15.3052 16.0936 15.188 16.0526 15.071C16.039 15.0315 16.0253 14.9921 16.0113 14.9515C15.9997 14.9184 15.9881 14.8853 15.9762 14.8512C15.9521 14.7671 15.9521 14.7671 15.9521 14.6435C15.9064 14.6534 15.9064 14.6534 15.8599 14.6635C15.2782 14.7678 14.6554 14.7044 14.0995 14.5199C14.0552 14.5055 14.011 14.491 13.9653 14.4762C13.2253 14.2047 12.5408 13.6179 12.2049 12.9135C12.0518 12.5581 11.9406 12.2031 11.852 11.8278C11.8394 11.7757 11.8267 11.7236 11.8137 11.6699C11.7796 11.5288 11.7459 11.3876 11.7122 11.2464C11.6768 11.0977 11.6409 10.9491 11.605 10.8005C11.5372 10.5194 11.4699 10.2383 11.4027 9.9572C11.3264 9.63831 11.2497 9.31954 11.1729 9.00077C11.0534 8.50426 10.9341 8.00771 10.8152 7.51105C10.8036 7.46277 10.7921 7.41449 10.7801 7.36475C10.7497 7.23725 10.7194 7.1097 10.6892 6.98214C10.6761 6.92806 10.6761 6.92806 10.6627 6.87288C10.6549 6.84026 10.6472 6.80764 10.6392 6.77402C10.6325 6.7463 10.6258 6.71858 10.619 6.69002C10.605 6.61143 10.605 6.61143 10.605 6.44667C10.5772 6.44667 10.5494 6.44667 10.5208 6.44667C10.5157 6.49281 10.5106 6.53896 10.5054 6.5865C10.4798 6.78619 10.4348 6.97947 10.3871 7.17509C10.3779 7.21367 10.3686 7.25224 10.3591 7.29199C10.3285 7.41932 10.2977 7.54658 10.2668 7.67384C10.2451 7.76391 10.2234 7.85399 10.2018 7.94407C10.1561 8.13352 10.1104 8.32295 10.0646 8.51236C10.007 8.75029 9.94964 8.98827 9.89233 9.22626C9.78225 9.68346 9.67163 10.1405 9.5604 10.5975C9.50152 10.8395 9.44322 11.0817 9.38562 11.3241C9.35233 11.4639 9.31862 11.6035 9.28481 11.7431C9.26972 11.8058 9.25481 11.8686 9.24012 11.9314C9.0146 12.8939 8.55313 13.6901 7.68104 14.2284C7.11543 14.5573 6.50975 14.7003 5.85521 14.6924C5.81269 14.6924 5.77016 14.6924 5.72635 14.6923C5.53551 14.6912 5.36049 14.6846 5.17367 14.6435C5.15859 14.718 5.15859 14.718 5.14322 14.794C5.08271 15.0596 4.99202 15.3147 4.90296 15.5722C4.88458 15.6258 4.86623 15.6794 4.84789 15.733C4.79981 15.8734 4.75151 16.0138 4.70315 16.1541C4.62603 16.378 4.54923 16.602 4.47245 16.826C4.44594 16.9032 4.41932 16.9804 4.3927 17.0576C4.34375 17.2001 4.29551 17.3428 4.2474 17.4856C4.2305 17.5344 4.2136 17.5832 4.19618 17.6335C4.18035 17.6808 4.16452 17.728 4.1482 17.7767C4.13387 17.8188 4.11953 17.8609 4.10476 17.9042C4.07672 18.0313 4.07883 18.1043 4.12109 18.227C4.20877 18.3135 4.29306 18.3881 4.38949 18.4639C4.41619 18.4855 4.44289 18.5072 4.4704 18.5295C4.55004 18.5939 4.63021 18.6577 4.71053 18.7213C4.75107 18.7539 4.79162 18.7864 4.83339 18.8199C4.90736 18.8793 4.98148 18.9384 5.05574 18.9974C5.21591 19.1259 5.3738 19.257 5.53147 19.3884C5.63187 19.472 5.73272 19.5541 5.83663 19.6334C6.0278 19.7874 6.11806 19.9751 6.18414 20.2042C6.2103 20.4781 6.2314 20.7563 6.05783 20.9868C5.90373 21.1179 5.80546 21.1362 5.60537 21.1296C5.28352 21.0843 4.97695 20.9682 4.67007 20.8664C4.59126 20.8408 4.51242 20.8152 4.43357 20.7896C4.22562 20.7221 4.01793 20.6538 3.81029 20.5854C3.60468 20.5178 3.39884 20.4509 3.19301 20.3839C2.95064 20.305 2.70833 20.2259 2.46625 20.1462C2.08239 20.0198 1.69823 19.8948 1.31263 19.7735C1.20778 19.7403 1.10295 19.707 0.998124 19.6737C0.932572 19.653 0.866947 19.6326 0.801246 19.6124C0.711365 19.5847 0.621765 19.5563 0.532185 19.5277C0.482013 19.5121 0.431842 19.4964 0.380151 19.4803C0.228974 19.4133 0.143487 19.3394 0.0370821 19.2156C-0.025163 19.0139 -0.00707494 18.8681 0.0765538 18.6793C0.241962 18.3777 0.472056 18.2256 0.794939 18.1035C0.947341 18.0713 1.09729 18.0617 1.25281 18.0545C1.29644 18.0518 1.34008 18.0491 1.38503 18.0463C1.51018 18.0387 1.63534 18.032 1.76056 18.0256C1.88972 18.0189 2.01884 18.0115 2.14797 18.0041C2.55299 17.981 2.95808 17.9594 3.36323 17.9387C3.37001 17.9129 3.3768 17.8871 3.38378 17.8605C3.46499 17.5599 3.56111 17.2655 3.66278 16.971C3.6916 16.8875 3.72025 16.8039 3.74887 16.7203C3.8199 16.5129 3.89122 16.3056 3.96253 16.0983C4.02303 15.9223 4.08342 15.7464 4.14367 15.5704C4.17162 15.4889 4.19972 15.4074 4.22783 15.326C4.32852 15.032 4.42106 14.7378 4.50002 14.4375C4.45027 14.4142 4.45027 14.4142 4.39953 14.3904C3.58345 13.987 2.99529 13.359 2.67461 12.5164C2.55452 12.1448 2.51176 11.8035 2.50801 11.4152C2.50679 11.3747 2.50557 11.3342 2.50431 11.2925C2.49948 10.7267 2.6813 10.2132 2.91062 9.70068C2.93395 9.6475 2.95722 9.5943 2.98046 9.54108C3.03413 9.41841 3.08812 9.29589 3.14231 9.17344C3.25008 8.9298 3.35681 8.68573 3.46355 8.44165C3.59107 8.15015 3.71865 7.85868 3.8465 7.56732C4.06898 7.06032 4.29098 6.55313 4.51169 6.04539C4.54389 5.97133 4.54389 5.97133 4.57674 5.89577C4.6786 5.66142 4.78038 5.42704 4.88205 5.19261C4.97385 4.98104 5.06628 4.76973 5.15895 4.55851C5.21961 4.41955 5.27946 4.28026 5.33934 4.14097C5.3803 4.04705 5.42129 3.95315 5.4623 3.85926C5.48089 3.8155 5.49948 3.77175 5.51863 3.72667C5.74572 3.21146 6.07492 3.09051 6.61238 3.26164ZM6.22624 3.89288C6.06147 4.20782 5.90844 4.52496 5.76821 4.85104C5.7401 4.91584 5.7401 4.91584 5.71142 4.98195C5.67128 5.07452 5.63122 5.16712 5.59122 5.25975C5.49502 5.48252 5.39839 5.70511 5.30182 5.92773C5.26861 6.0043 5.23542 6.08088 5.20224 6.15746C4.99944 6.62541 4.79507 7.09269 4.59022 7.55978C4.53472 7.68639 4.47931 7.81305 4.42392 7.93971C4.26813 8.2958 4.11177 8.6516 3.95218 9.00608C3.91603 9.08683 3.87991 9.1676 3.8438 9.24837C3.8118 9.31952 3.77928 9.39045 3.74673 9.46137C3.7284 9.50238 3.71006 9.54339 3.69117 9.58564C3.67542 9.62025 3.65966 9.65486 3.64342 9.69052C3.61182 9.7966 3.61208 9.84716 3.65795 9.94783C3.75856 9.9985 3.84913 10.0359 3.95531 10.0714C3.98548 10.0819 4.01565 10.0924 4.04674 10.1032C4.62705 10.3 5.22343 10.4287 5.83893 10.4503C5.87313 10.4516 5.90733 10.4529 5.94256 10.4542C6.00919 10.4564 6.07585 10.4578 6.14251 10.4584C6.29117 10.4628 6.37854 10.4716 6.49942 10.5596C6.5866 10.6808 6.58779 10.7501 6.56307 10.8952C6.49827 10.9842 6.49827 10.9842 6.39466 11.06C6.27739 11.076 6.17999 11.0814 6.06309 11.078C6.03007 11.0774 5.99704 11.0768 5.96301 11.0762C5.12326 11.0515 4.26344 10.9045 3.49595 10.5623C3.40884 10.5191 3.40884 10.5191 3.32113 10.5245C3.06824 11.1666 3.14097 11.9226 3.41882 12.5434C3.78284 13.2401 4.34836 13.6704 5.08354 13.9474C5.78605 14.1552 6.53871 14.0456 7.18409 13.7296C7.4449 13.5843 7.65809 13.4104 7.86827 13.2018C7.89551 13.1756 7.92276 13.1494 7.95083 13.1224C8.36546 12.6955 8.49225 12.1509 8.62612 11.5954C8.6398 11.5404 8.6535 11.4855 8.66724 11.4305C8.73024 11.186 8.73024 11.186 8.75243 10.9364C8.7176 10.9385 8.68277 10.9406 8.64689 10.9428C8.48913 10.9518 8.33134 10.9596 8.17351 10.9673C8.1187 10.9706 8.06388 10.974 8.0074 10.9774C7.92844 10.981 7.92844 10.981 7.84787 10.9847C7.79937 10.9872 7.75086 10.9898 7.70088 10.9925C7.57354 10.9776 7.57354 10.9776 7.47351 10.9025C7.40513 10.8128 7.40513 10.8128 7.38408 10.6892C7.41052 10.5341 7.44712 10.4965 7.57354 10.4009C7.6817 10.3782 7.77555 10.3649 7.88471 10.3578C7.91438 10.3553 7.94405 10.3528 7.97461 10.3502C8.06894 10.3424 8.16331 10.3356 8.25772 10.3288C8.32187 10.3237 8.38601 10.3185 8.45015 10.3132C8.60698 10.3004 8.7639 10.2888 8.92085 10.2773C9.07325 9.73812 9.20461 9.19429 9.33596 8.64985C9.35931 8.55324 9.38267 8.45663 9.40603 8.36002C9.45464 8.15886 9.50318 7.9577 9.55167 7.75652C9.61387 7.49853 9.67633 7.2406 9.73884 6.98269C9.78701 6.78382 9.83501 6.58491 9.88295 6.38598C9.90592 6.2908 9.92896 6.19563 9.95205 6.10047C9.98417 5.96804 10.0161 5.83555 10.0479 5.70304C10.0623 5.64415 10.0623 5.64415 10.0769 5.58406C10.0898 5.52996 10.0898 5.52996 10.103 5.47476C10.1106 5.44351 10.1181 5.41227 10.1259 5.38008C10.1468 5.28101 10.1468 5.28101 10.1418 5.12859C9.75895 4.98935 9.37244 4.86125 8.98515 4.73438C8.93641 4.71841 8.93641 4.7184 8.88668 4.7021C8.71506 4.64585 8.5434 4.58968 8.37173 4.53356C8.19561 4.47598 8.0196 4.41811 7.84361 4.36017C7.70701 4.31527 7.57035 4.27059 7.43366 4.22596C7.36876 4.20473 7.30389 4.18342 7.23904 4.16202C6.90515 4.05189 6.57564 3.94607 6.22624 3.89288ZM14.5241 3.96173C14.4737 3.97785 14.4233 3.99398 14.3713 4.01059C14.3162 4.02873 14.261 4.04688 14.2058 4.06505C14.1482 4.08364 14.0907 4.10221 14.0331 4.12074C13.8807 4.16992 13.7285 4.21962 13.5763 4.26942C13.4555 4.30886 13.3346 4.34794 13.2136 4.38699C12.4681 4.62775 11.725 4.87497 10.9839 5.12859C11.0101 5.36248 11.0518 5.58641 11.1079 5.81504C11.1162 5.84912 11.1244 5.88321 11.1329 5.91832C11.16 6.03044 11.1873 6.1425 11.2146 6.25456C11.2338 6.33371 11.253 6.41286 11.2721 6.49202C11.3226 6.70061 11.3733 6.90916 11.424 7.11769C11.5044 7.44805 11.5844 7.77849 11.6644 8.10891C11.6934 8.22831 11.7224 8.3477 11.7514 8.46709C11.8674 8.9451 11.982 9.42337 12.0925 9.90265C12.1014 9.94095 12.1103 9.97926 12.1194 10.0187C12.1269 10.0512 12.1344 10.0837 12.142 10.1171C12.1606 10.1978 12.1606 10.1978 12.2049 10.2773C12.2836 10.2959 12.2836 10.2959 12.3797 10.3018C12.4171 10.3051 12.4545 10.3084 12.493 10.3118C12.5341 10.315 12.5751 10.3182 12.6174 10.3214C12.6598 10.325 12.7023 10.3285 12.746 10.3322C12.8849 10.3436 13.0238 10.3543 13.1627 10.3649C13.2098 10.3685 13.2568 10.3722 13.3053 10.3759C14.5903 10.4748 15.8103 10.5192 17.0468 10.1126C17.1143 10.0908 17.1143 10.0908 17.1833 10.0685C17.331 10.0189 17.331 10.0189 17.4678 9.94783C17.506 9.85187 17.5142 9.79849 17.4863 9.69847C17.4727 9.66822 17.459 9.63798 17.445 9.60682C17.4218 9.55439 17.4218 9.55439 17.3982 9.5009C17.3808 9.46287 17.3634 9.42483 17.3454 9.38564C17.3274 9.34531 17.3095 9.30497 17.2909 9.26341C17.231 9.12923 17.1705 8.99534 17.1099 8.86144C17.0461 8.71886 16.9825 8.57622 16.9188 8.43357C16.8745 8.33432 16.8302 8.2351 16.7858 8.1359C16.5686 7.65037 16.3563 7.16281 16.1447 6.6749C16.0839 6.53473 16.0229 6.39463 15.9618 6.25455C15.7935 5.86845 15.6253 5.48232 15.4596 5.09518C15.3973 4.94995 15.3345 4.80492 15.2717 4.65994C15.2431 4.59375 15.2148 4.52747 15.1867 4.46109C15.1488 4.37157 15.1102 4.2824 15.0714 4.19328C15.0502 4.14381 15.029 4.09433 15.0072 4.04335C14.9546 3.93148 14.9546 3.93148 14.8689 3.90235C14.7389 3.88949 14.648 3.92152 14.5241 3.96173ZM17.5642 10.6019C16.1386 11.1538 14.668 11.1051 13.1679 10.9804C13.1338 10.9775 13.0996 10.9747 13.0644 10.9718C13.0005 10.9664 12.9365 10.9609 12.8726 10.9552C12.7056 10.9409 12.541 10.9337 12.3733 10.9364C12.52 11.8552 12.52 11.8552 12.8785 12.7076C12.8966 12.7388 12.9146 12.7701 12.9331 12.8023C13.3329 13.4383 13.9698 13.8229 14.6984 14.0083C15.4824 14.1248 16.219 13.979 16.8701 13.5328C17.3034 13.2081 17.6183 12.798 17.8046 12.2957C17.818 12.2596 17.8314 12.2236 17.8452 12.1864C18.0063 11.6686 18.0041 11.0309 17.8046 10.5245C17.7193 10.5245 17.6424 10.5712 17.5642 10.6019ZM3.10504 18.6078C3.06204 18.61 3.01903 18.6122 2.97472 18.6145C2.77877 18.6248 2.58283 18.6353 2.3869 18.646C2.2836 18.6516 2.18029 18.657 2.07697 18.6623C1.92777 18.67 1.7786 18.678 1.62944 18.6862C1.58338 18.6885 1.53732 18.6908 1.48987 18.6931C1.11063 18.7048 1.11063 18.7048 0.794939 18.8861C1.89391 19.259 2.99743 19.6178 4.10267 19.9725C4.13643 19.9833 4.1702 19.9941 4.20498 20.0053C4.62606 20.1404 5.0472 20.2753 5.46839 20.4101C5.48923 20.3693 5.48923 20.3693 5.51049 20.3277C5.42915 20.1614 5.3261 20.0642 5.17893 19.9519C5.11722 19.9039 5.11722 19.9039 5.05426 19.855C5.03251 19.8382 5.01076 19.8213 4.98835 19.804C4.87273 19.7131 4.7602 19.6187 4.64738 19.5245C4.44066 19.3527 4.23254 19.1828 4.02175 19.0158C3.94528 18.9549 3.86944 18.8933 3.79413 18.831C3.75701 18.8008 3.71988 18.7705 3.68164 18.7393C3.64869 18.7121 3.61575 18.6849 3.58181 18.6568C3.43559 18.5632 3.27381 18.5991 3.10504 18.6078Z" fill="black"/>
<path d="M10.6741 0.00187496C10.8361 0.0331528 10.8872 0.0968286 10.9837 0.226972C11.0296 0.298026 11.0752 0.369271 11.1206 0.440646C11.3932 0.869053 11.7114 1.15945 12.1574 1.40604C12.2647 1.474 12.3155 1.51467 12.3731 1.62744C12.4054 1.81248 12.4076 1.9493 12.2968 2.10627C12.141 2.2199 11.98 2.32171 11.814 2.42051C11.6004 2.55467 11.4502 2.69374 11.2995 2.89403C11.2668 2.93752 11.2341 2.981 11.2003 3.02581C11.1265 3.12863 11.0576 3.23168 10.9916 3.3394C10.8615 3.54624 10.8615 3.54624 10.7311 3.60456C10.5306 3.62987 10.4411 3.6307 10.2654 3.53248C10.112 3.3902 10.0213 3.20363 9.91883 3.02516C9.67939 2.6226 9.30776 2.39881 8.90359 2.1687C8.80633 2.1006 8.75793 2.0287 8.73666 1.91367C8.73154 1.74309 8.74068 1.6474 8.82859 1.49614C8.93339 1.38983 9.05312 1.32946 9.18647 1.26187C9.57039 1.06578 9.78697 0.789868 10.0056 0.433405C10.1872 0.140309 10.3161 -0.0193331 10.6741 0.00187496ZM10.5206 0.927204C10.4664 0.987813 10.4151 1.05096 10.3654 1.11513C10.2178 1.3003 10.0619 1.46518 9.88906 1.62744C9.81879 1.69599 9.7486 1.76462 9.67855 1.83339C9.70758 1.85441 9.73662 1.87544 9.76654 1.8971C10.0473 2.10957 10.2452 2.31911 10.4458 2.60329C10.4705 2.63467 10.4952 2.66605 10.5206 2.69838C10.5484 2.69838 10.5762 2.69838 10.6048 2.69838C10.6706 2.61717 10.7327 2.53543 10.7943 2.45124C10.9819 2.20229 11.1873 2.01226 11.4469 1.83339C11.3423 1.73069 11.2374 1.6284 11.1311 1.52736C10.8124 1.22241 10.8124 1.22241 10.689 1.04563C10.6612 1.00655 10.6334 0.967467 10.6048 0.927204C10.577 0.927204 10.5492 0.927204 10.5206 0.927204Z" fill="black"/>
<path d="M18.1835 2.12171C18.3236 2.22305 18.3853 2.28219 18.4177 2.45123C18.3794 2.65105 18.2538 2.7663 18.0905 2.8834C18.0402 2.91649 17.9896 2.9492 17.9387 2.98155C17.9014 3.00719 17.9014 3.00719 17.8633 3.03336C17.7226 3.12346 17.6446 3.15184 17.475 3.14422C17.3414 3.11027 17.3414 3.11027 17.2598 3.0665C17.1868 2.93631 17.175 2.79808 17.2151 2.65718C17.3511 2.50386 17.5047 2.38782 17.6756 2.27359C17.7177 2.24487 17.7597 2.21614 17.8031 2.18655C17.9455 2.11427 18.0254 2.10165 18.1835 2.12171Z" fill="black"/>
<path d="M3.19502 2.1217C3.32013 2.18435 3.43154 2.26229 3.545 2.34309C3.57564 2.36401 3.60628 2.38493 3.63784 2.40649C3.86206 2.56185 3.86206 2.56185 3.91077 2.65717C3.93987 2.95132 3.93987 2.95132 3.82394 3.09224C3.65972 3.17085 3.58268 3.15134 3.40554 3.11026C3.29497 3.05301 3.19719 2.9833 3.09766 2.90946C3.05854 2.88182 3.05854 2.88182 3.01863 2.85362C2.74456 2.65624 2.74456 2.65624 2.71347 2.45636C2.73189 2.32765 2.73189 2.32765 2.82136 2.20922C2.96945 2.10214 3.01422 2.09687 3.19502 2.1217Z" fill="black"/>
<path d="M16.3312 0.597686C16.4522 0.659471 16.4522 0.659471 16.5417 0.762446C16.5693 1.03022 16.5108 1.20213 16.3838 1.43693C16.3691 1.46619 16.3545 1.49545 16.3394 1.52559C16.2768 1.6451 16.2309 1.73248 16.1188 1.81215C15.9823 1.84733 15.8769 1.82586 15.7417 1.7922C15.6279 1.6988 15.617 1.64309 15.6026 1.49856C15.6184 1.30174 15.6827 1.16906 15.7759 0.996715C15.7909 0.967272 15.8059 0.93783 15.8214 0.907496C15.9442 0.673586 16.0408 0.563602 16.3312 0.597686Z" fill="black"/>
<path d="M5.04725 0.597665C5.21218 0.736653 5.30674 0.873585 5.39723 1.0662C5.41878 1.1107 5.44033 1.15519 5.46253 1.20104C5.51544 1.35367 5.52523 1.4673 5.51039 1.62742C5.42355 1.75099 5.42355 1.75099 5.29987 1.83337C5.13793 1.83615 5.04618 1.82562 4.92045 1.72315C4.73068 1.50613 4.57349 1.19237 4.55517 0.904016C4.58412 0.762425 4.58412 0.762425 4.67359 0.65945C4.81707 0.586214 4.88791 0.568437 5.04725 0.597665Z" fill="black"/>
<path d="M2.47901 4.34597C2.51868 4.34778 2.55835 4.34958 2.59923 4.35144C2.99384 4.37541 2.99384 4.37541 3.15266 4.51073C3.23462 4.61643 3.23719 4.66772 3.2316 4.80164C3.18762 4.94607 3.15848 4.97301 3.02635 5.0462C2.70555 5.08296 2.32109 5.08001 2.01587 4.96382C1.92377 4.87115 1.92377 4.87115 1.88956 4.75787C1.89256 4.61423 1.91654 4.53416 1.99482 4.41291C2.15497 4.31107 2.2932 4.33218 2.47901 4.34597Z" fill="black"/>
<path d="M19.1521 4.42834C19.217 4.54021 19.2374 4.61125 19.231 4.73984C19.1832 4.87006 19.1413 4.92388 19.0258 5.005C18.9067 5.03089 18.8097 5.04186 18.6889 5.04619C18.6162 5.04938 18.6162 5.04938 18.5419 5.05263C18.1293 5.0627 18.1293 5.0627 18 4.99117C17.8986 4.89037 17.8918 4.81501 17.889 4.67548C17.9588 4.51732 18.0227 4.45103 18.1837 4.38715C18.9448 4.26459 18.9448 4.26459 19.1521 4.42834Z" fill="black"/>
</svg>
