<svg width="20" height="20" viewBox="0 0 20 20" fill="none" xmlns="http://www.w3.org/2000/svg">
<path d="M10 0.5C15.2439 0.5 19.5 4.75614 19.5 10C19.5 15.2439 15.2439 19.5 10 19.5C4.75614 19.5 0.5 15.2439 0.5 10C0.5 4.75614 4.75614 0.5 10 0.5ZM10 1.5C5.30386 1.5 1.5 5.30386 1.5 10C1.5 14.6961 5.30386 18.5 10 18.5C14.6961 18.5 18.5 14.6961 18.5 10C18.5 5.30386 14.6961 1.5 10 1.5ZM13.4551 9.20996C13.5026 9.25977 13.55 9.30978 13.5957 9.36133L13.9482 9.75879L15.5 8.20703V11.5H12.207L13.9414 9.76562L13.6396 9.41406C13.5799 9.34446 13.5182 9.27654 13.4551 9.20996ZM9.2168 7.50684C6.92319 7.62382 5.00759 9.15436 4.30273 11.2402L4.29395 11.2373C4.99601 9.1552 6.91891 7.62372 9.2168 7.50684ZM13.1299 8.89551C13.1603 8.92268 13.1909 8.94971 13.2207 8.97754C13.1909 8.94964 13.1603 8.92275 13.1299 8.89551ZM10.8828 7.68066C10.914 7.68891 10.9456 7.69531 10.9766 7.7041C10.9456 7.69534 10.914 7.68889 10.8828 7.68066ZM10.3604 7.56934C10.3727 7.57131 10.3852 7.57216 10.3975 7.57422C10.3852 7.57217 10.3727 7.57131 10.3604 7.56934ZM13.2871 9.04199C13.3398 9.09278 13.3916 9.14444 13.4424 9.19727C13.3919 9.1443 13.3397 9.09294 13.2871 9.04199Z" fill="#3746BF"/>
<path d="M10 0.5C15.2439 0.5 19.5 4.75614 19.5 10C19.5 15.2439 15.2439 19.5 10 19.5C4.75614 19.5 0.5 15.2439 0.5 10C0.5 4.75614 4.75614 0.5 10 0.5ZM10 1.5C5.30386 1.5 1.5 5.30386 1.5 10C1.5 14.6961 5.30386 18.5 10 18.5C14.6961 18.5 18.5 14.6961 18.5 10C18.5 5.30386 14.6961 1.5 10 1.5ZM13.4551 9.20996C13.5026 9.25977 13.55 9.30978 13.5957 9.36133L13.9482 9.75879L15.5 8.20703V11.5H12.207L13.9414 9.76562L13.6396 9.41406C13.5799 9.34446 13.5182 9.27654 13.4551 9.20996ZM9.2168 7.50684C6.92319 7.62382 5.00759 9.15436 4.30273 11.2402L4.29395 11.2373C4.99601 9.1552 6.91891 7.62372 9.2168 7.50684ZM13.1299 8.89551C13.1603 8.92268 13.1909 8.94971 13.2207 8.97754C13.1909 8.94964 13.1603 8.92275 13.1299 8.89551ZM10.8828 7.68066C10.914 7.68891 10.9456 7.69531 10.9766 7.7041C10.9456 7.69534 10.914 7.68889 10.8828 7.68066ZM10.3604 7.56934C10.3727 7.57131 10.3852 7.57216 10.3975 7.57422C10.3852 7.57217 10.3727 7.57131 10.3604 7.56934ZM13.2871 9.04199C13.3398 9.09278 13.3916 9.14444 13.4424 9.19727C13.3919 9.1443 13.3397 9.09294 13.2871 9.04199Z" stroke="url(#paint0_linear_687_4323)"/>
<path d="M10 0.5C15.2439 0.5 19.5 4.75614 19.5 10C19.5 15.2439 15.2439 19.5 10 19.5C4.75614 19.5 0.5 15.2439 0.5 10C0.5 4.75614 4.75614 0.5 10 0.5ZM10 1.5C5.30386 1.5 1.5 5.30386 1.5 10C1.5 14.6961 5.30386 18.5 10 18.5C14.6961 18.5 18.5 14.6961 18.5 10C18.5 5.30386 14.6961 1.5 10 1.5ZM13.4551 9.20996C13.5026 9.25977 13.55 9.30978 13.5957 9.36133L13.9482 9.75879L15.5 8.20703V11.5H12.207L13.9414 9.76562L13.6396 9.41406C13.5799 9.34446 13.5182 9.27654 13.4551 9.20996ZM9.2168 7.50684C6.92319 7.62382 5.00759 9.15436 4.30273 11.2402L4.29395 11.2373C4.99601 9.1552 6.91891 7.62372 9.2168 7.50684ZM13.1299 8.89551C13.1603 8.92268 13.1909 8.94971 13.2207 8.97754C13.1909 8.94964 13.1603 8.92275 13.1299 8.89551ZM10.8828 7.68066C10.914 7.68891 10.9456 7.69531 10.9766 7.7041C10.9456 7.69534 10.914 7.68889 10.8828 7.68066ZM10.3604 7.56934C10.3727 7.57131 10.3852 7.57216 10.3975 7.57422C10.3852 7.57217 10.3727 7.57131 10.3604 7.56934ZM13.2871 9.04199C13.3398 9.09278 13.3916 9.14444 13.4424 9.19727C13.3919 9.1443 13.3397 9.09294 13.2871 9.04199Z" stroke="black" stroke-opacity="0.2"/>
<defs>
<linearGradient id="paint0_linear_687_4323" x1="-6.31829e-08" y1="20" x2="22.9362" y2="17.7023" gradientUnits="userSpaceOnUse">
<stop stop-color="#7464E4"/>
<stop offset="1" stop-color="#3354F4"/>
</linearGradient>
</defs>
</svg>
