<svg width="20" height="20" viewBox="0 0 20 20" fill="none" xmlns="http://www.w3.org/2000/svg">
<path d="M3.28702 6.45874C3.33415 6.45874 3.3796 6.47726 3.41299 6.5105C3.44642 6.54392 3.46573 6.59018 3.46573 6.63745V8.3064H5.13467C5.18183 8.30648 5.2273 8.3248 5.26065 8.35815C5.29398 8.39155 5.31238 8.43695 5.31241 8.48413C5.31241 8.53131 5.29395 8.5767 5.26065 8.61011C5.2273 8.64346 5.18183 8.66276 5.13467 8.66284H3.46573V10.3318C3.46564 10.3789 3.44634 10.4244 3.41299 10.4578C3.37959 10.4911 3.33419 10.5095 3.28702 10.5095C3.23983 10.5095 3.19444 10.4911 3.16104 10.4578C3.12769 10.4244 3.10937 10.3789 3.10928 10.3318V8.66284H1.44034C1.39306 8.66284 1.34681 8.64353 1.31339 8.61011C1.28015 8.57671 1.26163 8.53126 1.26163 8.48413C1.26165 8.43699 1.28011 8.39154 1.31339 8.35815C1.34681 8.32473 1.39306 8.3064 1.44034 8.3064H3.10928V6.63745C3.10928 6.59018 3.12761 6.54392 3.16104 6.5105C3.19443 6.47722 3.23988 6.45876 3.28702 6.45874Z" fill="#4F4F4F" stroke="#4F4F4F" stroke-width="0.875"/>
<path d="M12.9259 9.49764C13.6134 9.49764 14.2856 9.29375 14.8572 8.91177C15.4289 8.52978 15.8745 7.98685 16.1376 7.35163C16.4007 6.7164 16.4696 6.01743 16.3354 5.34308C16.2013 4.66873 15.8702 4.0493 15.384 3.56313C14.8979 3.07695 14.2784 2.74586 13.6041 2.61172C12.9297 2.47758 12.2308 2.54643 11.5955 2.80955C10.9603 3.07266 10.4174 3.51824 10.0354 4.08992C9.65341 4.6616 9.44952 5.33372 9.44952 6.02128C9.45044 6.94299 9.817 7.82668 10.4687 8.47842C11.1205 9.13017 12.0042 9.49672 12.9259 9.49764ZM12.9259 3.70371C13.3843 3.70371 13.8323 3.83963 14.2135 4.09429C14.5946 4.34895 14.8916 4.7109 15.067 5.13439C15.2425 5.55787 15.2883 6.02385 15.1989 6.47342C15.1095 6.92298 14.8888 7.33593 14.5647 7.66005C14.2405 7.98417 13.8276 8.2049 13.378 8.29432C12.9285 8.38375 12.4625 8.33785 12.039 8.16244C11.6155 7.98703 11.2535 7.68998 10.9989 7.30886C10.7442 6.92773 10.6083 6.47965 10.6083 6.02128C10.6083 5.40662 10.8525 4.81714 11.2871 4.38251C11.7217 3.94788 12.3112 3.70371 12.9259 3.70371Z" fill="black"/>
<path d="M12.9259 10.5107C11.2688 10.5126 9.68019 11.1716 8.50848 12.3434C7.33678 13.5151 6.67771 15.1037 6.67587 16.7607C6.67587 16.9449 6.74904 17.1215 6.87927 17.2518C7.0095 17.382 7.18614 17.4552 7.37032 17.4552C7.55449 17.4552 7.73113 17.382 7.86136 17.2518C7.9916 17.1215 8.06476 16.9449 8.06476 16.7607C8.06476 15.4715 8.57691 14.235 9.48855 13.3234C10.4002 12.4118 11.6366 11.8996 12.9259 11.8996C14.2151 11.8996 15.4516 12.4118 16.3632 13.3234C17.2748 14.235 17.787 15.4715 17.787 16.7607C17.787 16.9449 17.8601 17.1215 17.9904 17.2518C18.1206 17.382 18.2972 17.4552 18.4814 17.4552C18.6656 17.4552 18.8422 17.382 18.9725 17.2518C19.1027 17.1215 19.1759 16.9449 19.1759 16.7607C19.174 15.1037 18.515 13.5151 17.3433 12.3434C16.1715 11.1716 14.5829 10.5126 12.9259 10.5107Z" fill="black"/>
</svg>
